<?xml version="1.0" encoding="UTF-8"?><svg id="Layer_1" xmlns="http://www.w3.org/2000/svg" viewBox="0 0 195 220"><defs><style>.cls-1{fill:#b05722;}.cls-2{fill:#e99253;}.cls-3{fill:#2a192c;}.cls-4{fill:#c87137;}.cls-5{fill:#883715;}.cls-6{fill:#d78043;}</style></defs><rect class="cls-3" x="116.03" y="54.41" width="12.35" height="12.35"/><rect class="cls-1" x="116.03" y="42.06" width="12.35" height="12.35"/><rect class="cls-1" x="116.03" y="29.71" width="12.35" height="12.35"/><rect class="cls-2" x="116.03" y="17.35" width="12.35" height="12.36"/><rect class="cls-2" x="116.03" y="5" width="12.35" height="12.35"/><rect class="cls-3" x="103.68" y="54.41" width="12.35" height="12.35"/><rect class="cls-6" x="103.68" y="42.06" width="12.35" height="12.35"/><rect class="cls-6" x="103.68" y="29.71" width="12.35" height="12.35"/><rect class="cls-6" x="103.68" y="17.35" width="12.35" height="12.36"/><rect class="cls-2" x="103.68" y="5" width="12.35" height="12.35"/><rect class="cls-3" x="91.33" y="54.41" width="12.35" height="12.35"/><rect class="cls-1" x="91.33" y="42.06" width="12.35" height="12.35"/><rect class="cls-1" x="91.33" y="29.71" width="12.35" height="12.35"/><rect class="cls-1" x="91.33" y="17.35" width="12.35" height="12.36"/><rect class="cls-6" x="91.33" y="5" width="12.35" height="12.35"/><rect class="cls-3" x="78.97" y="54.41" width="12.36" height="12.35"/><rect class="cls-5" x="78.97" y="42.06" width="12.36" height="12.35"/><rect class="cls-5" x="78.97" y="29.71" width="12.36" height="12.35"/><rect class="cls-1" x="78.97" y="17.35" width="12.36" height="12.36"/><rect class="cls-1" x="78.97" y="5" width="12.36" height="12.35"/><rect class="cls-3" x="66.62" y="54.41" width="12.35" height="12.35"/><rect class="cls-1" x="66.62" y="42.06" width="12.35" height="12.35"/><rect class="cls-1" x="66.62" y="29.71" width="12.35" height="12.35"/><rect class="cls-5" x="66.62" y="17.35" width="12.35" height="12.36"/><rect class="cls-5" x="66.62" y="5" width="12.35" height="12.35"/><rect class="cls-5" x="54.27" y="42.06" width="12.35" height="12.35"/><rect class="cls-1" x="54.27" y="29.71" width="12.35" height="12.35"/><rect class="cls-1" x="54.27" y="17.35" width="12.35" height="12.36"/><rect class="cls-5" x="41.91" y="29.71" width="12.35" height="12.35"/><rect class="cls-5" x="41.91" y="17.35" width="12.35" height="12.36"/><rect class="cls-6" x="140.73" y="29.71" width="12.35" height="12.35"/><rect class="cls-6" x="140.73" y="17.35" width="12.35" height="12.36"/><rect class="cls-6" x="128.38" y="42.06" width="12.35" height="12.35"/><rect class="cls-1" x="128.38" y="29.71" width="12.35" height="12.35"/><rect class="cls-1" x="128.38" y="17.35" width="12.35" height="12.36"/><rect class="cls-3" x="116.03" y="153.24" width="12.35" height="12.35"/><rect class="cls-3" x="116.03" y="140.88" width="12.35" height="12.35"/><rect class="cls-6" x="116.03" y="128.53" width="12.35" height="12.35"/><rect class="cls-6" x="116.03" y="116.18" width="12.35" height="12.36"/><rect class="cls-3" x="116.03" y="103.82" width="12.35" height="12.35"/><rect class="cls-6" x="116.03" y="91.47" width="12.35" height="12.35"/><rect class="cls-6" x="116.03" y="79.12" width="12.35" height="12.35"/><rect class="cls-2" x="116.03" y="66.76" width="12.35" height="12.36"/><rect class="cls-6" x="103.68" y="153.24" width="12.35" height="12.35"/><rect class="cls-6" x="103.68" y="140.88" width="12.35" height="12.35"/><rect class="cls-3" x="103.68" y="128.53" width="12.35" height="12.35"/><rect class="cls-6" x="103.68" y="116.18" width="12.35" height="12.36"/><rect class="cls-6" x="103.68" y="103.82" width="12.35" height="12.35"/><rect class="cls-3" x="103.68" y="91.47" width="12.35" height="12.35"/><rect class="cls-6" x="103.68" y="79.12" width="12.35" height="12.35"/><rect class="cls-6" x="103.68" y="66.76" width="12.35" height="12.36"/><rect class="cls-3" x="91.33" y="153.24" width="12.35" height="12.35"/><rect class="cls-3" x="91.33" y="140.88" width="12.35" height="12.35"/><rect class="cls-3" x="91.33" y="128.53" width="12.35" height="12.35"/><rect class="cls-3" x="91.33" y="116.18" width="12.35" height="12.36"/><rect class="cls-3" x="91.33" y="103.82" width="12.35" height="12.35"/><rect class="cls-3" x="91.33" y="91.47" width="12.35" height="12.35"/><rect class="cls-3" x="91.33" y="79.12" width="12.35" height="12.35"/><rect class="cls-6" x="91.33" y="66.76" width="12.35" height="12.36"/><rect class="cls-6" x="78.97" y="153.24" width="12.36" height="12.35"/><rect class="cls-6" x="78.97" y="140.88" width="12.36" height="12.35"/><rect class="cls-3" x="78.97" y="128.53" width="12.36" height="12.35"/><rect class="cls-6" x="78.97" y="116.18" width="12.36" height="12.36"/><rect class="cls-6" x="78.97" y="103.82" width="12.36" height="12.35"/><rect class="cls-3" x="78.97" y="91.47" width="12.36" height="12.35"/><rect class="cls-6" x="78.97" y="79.12" width="12.36" height="12.35"/><rect class="cls-6" x="78.97" y="66.76" width="12.36" height="12.36"/><rect class="cls-3" x="66.62" y="153.24" width="12.35" height="12.35"/><rect class="cls-6" x="66.62" y="140.88" width="12.35" height="12.35"/><rect class="cls-6" x="66.62" y="128.53" width="12.35" height="12.35"/><rect class="cls-3" x="66.62" y="116.18" width="12.35" height="12.36"/><rect class="cls-3" x="66.62" y="103.82" width="12.35" height="12.35"/><rect class="cls-6" x="66.62" y="91.47" width="12.35" height="12.35"/><rect class="cls-6" x="66.62" y="79.12" width="12.35" height="12.35"/><rect class="cls-1" x="66.62" y="66.76" width="12.35" height="12.36"/><rect class="cls-6" x="54.27" y="153.24" width="12.35" height="12.35"/><rect class="cls-6" x="54.27" y="140.88" width="12.35" height="12.35"/><rect class="cls-6" x="54.27" y="128.53" width="12.35" height="12.35"/><rect class="cls-6" x="54.27" y="116.18" width="12.35" height="12.36"/><rect class="cls-6" x="54.27" y="103.82" width="12.35" height="12.35"/><rect class="cls-6" x="54.27" y="91.47" width="12.35" height="12.35"/><rect class="cls-4" x="54.27" y="79.12" width="12.35" height="12.35"/><rect class="cls-5" x="54.27" y="66.76" width="12.35" height="12.36"/><rect class="cls-6" x="41.91" y="153.24" width="12.35" height="12.35"/><rect class="cls-6" x="41.91" y="140.88" width="12.35" height="12.35"/><rect class="cls-6" x="41.91" y="128.53" width="12.35" height="12.35"/><rect class="cls-6" x="41.91" y="116.18" width="12.35" height="12.36"/><rect class="cls-6" x="41.91" y="103.82" width="12.35" height="12.35"/><rect class="cls-4" x="41.91" y="91.47" width="12.35" height="12.35"/><rect class="cls-1" x="41.91" y="79.12" width="12.35" height="12.35"/><rect class="cls-5" x="41.91" y="66.76" width="12.35" height="12.36"/><rect class="cls-4" x="29.56" y="153.24" width="12.36" height="12.35"/><rect class="cls-4" x="29.56" y="140.88" width="12.36" height="12.35"/><rect class="cls-4" x="29.56" y="128.53" width="12.36" height="12.35"/><rect class="cls-4" x="29.56" y="116.18" width="12.36" height="12.36"/><rect class="cls-1" x="29.56" y="103.82" width="12.36" height="12.35"/><rect class="cls-1" x="29.56" y="91.47" width="12.36" height="12.35"/><rect class="cls-5" x="29.56" y="79.12" width="12.36" height="12.35"/><rect class="cls-1" x="17.21" y="153.24" width="12.35" height="12.35"/><rect class="cls-1" x="17.21" y="140.88" width="12.35" height="12.35"/><rect class="cls-1" x="17.21" y="128.53" width="12.35" height="12.35"/><rect class="cls-1" x="17.21" y="116.18" width="12.35" height="12.36"/><rect class="cls-5" x="17.21" y="103.82" width="12.35" height="12.35"/><rect class="cls-5" x="17.21" y="91.47" width="12.35" height="12.35"/><rect class="cls-5" x="4.85" y="153.24" width="12.35" height="12.35"/><rect class="cls-5" x="4.85" y="140.88" width="12.35" height="12.35"/><rect class="cls-5" x="4.85" y="128.53" width="12.35" height="12.35"/><rect class="cls-5" x="4.85" y="116.18" width="12.35" height="12.36"/><rect class="cls-5" x="177.79" y="153.24" width="12.35" height="12.35"/><rect class="cls-5" x="177.79" y="140.88" width="12.35" height="12.35"/><rect class="cls-5" x="177.79" y="128.53" width="12.35" height="12.35"/><rect class="cls-5" x="177.79" y="116.18" width="12.35" height="12.36"/><rect class="cls-1" x="165.44" y="153.24" width="12.35" height="12.35"/><rect class="cls-1" x="165.44" y="140.88" width="12.35" height="12.35"/><rect class="cls-1" x="165.44" y="128.53" width="12.35" height="12.35"/><rect class="cls-1" x="165.44" y="116.18" width="12.35" height="12.36"/><rect class="cls-5" x="165.44" y="103.82" width="12.35" height="12.35"/><rect class="cls-5" x="165.44" y="91.47" width="12.35" height="12.35"/><rect class="cls-6" x="153.09" y="153.24" width="12.36" height="12.35"/><rect class="cls-6" x="153.09" y="140.88" width="12.36" height="12.35"/><rect class="cls-6" x="153.09" y="128.53" width="12.36" height="12.35"/><rect class="cls-2" x="153.09" y="116.18" width="12.36" height="12.36"/><rect class="cls-2" x="153.09" y="103.82" width="12.36" height="12.35"/><rect class="cls-2" x="153.09" y="91.47" width="12.36" height="12.35"/><rect class="cls-5" x="153.09" y="79.12" width="12.36" height="12.35"/><rect class="cls-6" x="140.73" y="153.24" width="12.35" height="12.35"/><rect class="cls-6" x="140.73" y="140.88" width="12.35" height="12.35"/><rect class="cls-6" x="140.73" y="128.53" width="12.35" height="12.35"/><rect class="cls-6" x="140.73" y="116.18" width="12.35" height="12.36"/><rect class="cls-6" x="140.73" y="103.82" width="12.35" height="12.35"/><rect class="cls-2" x="140.73" y="91.47" width="12.35" height="12.35"/><rect class="cls-2" x="140.73" y="79.12" width="12.35" height="12.35"/><rect class="cls-5" x="140.73" y="66.76" width="12.35" height="12.36"/><rect class="cls-6" x="128.38" y="153.24" width="12.35" height="12.35"/><rect class="cls-6" x="128.38" y="140.88" width="12.35" height="12.35"/><rect class="cls-6" x="128.38" y="128.53" width="12.35" height="12.35"/><rect class="cls-6" x="128.38" y="116.18" width="12.35" height="12.36"/><rect class="cls-6" x="128.38" y="103.82" width="12.35" height="12.35"/><rect class="cls-6" x="128.38" y="91.47" width="12.35" height="12.35"/><rect class="cls-2" x="128.38" y="79.12" width="12.35" height="12.35"/><rect class="cls-5" x="128.38" y="66.76" width="12.35" height="12.36"/><rect class="cls-4" x="116.03" y="190.3" width="12.35" height="12.35"/><rect class="cls-6" x="116.03" y="177.94" width="12.35" height="12.35"/><rect class="cls-6" x="116.03" y="165.59" width="12.35" height="12.36"/><rect class="cls-4" x="103.68" y="190.3" width="12.35" height="12.35"/><rect class="cls-6" x="103.68" y="177.94" width="12.35" height="12.35"/><rect class="cls-3" x="103.68" y="165.59" width="12.35" height="12.36"/><rect class="cls-4" x="91.33" y="190.3" width="12.35" height="12.35"/><rect class="cls-3" x="91.33" y="177.94" width="12.35" height="12.35"/><rect class="cls-3" x="91.33" y="165.59" width="12.35" height="12.36"/><rect class="cls-4" x="78.97" y="190.3" width="12.36" height="12.35"/><rect class="cls-6" x="78.97" y="177.94" width="12.36" height="12.35"/><rect class="cls-3" x="78.97" y="165.59" width="12.36" height="12.36"/><rect class="cls-4" x="66.62" y="190.3" width="12.35" height="12.35"/><rect class="cls-6" x="66.62" y="177.94" width="12.35" height="12.35"/><rect class="cls-6" x="66.62" y="165.59" width="12.35" height="12.36"/><rect class="cls-1" x="54.27" y="190.3" width="12.35" height="12.35"/><rect class="cls-6" x="54.27" y="177.94" width="12.35" height="12.35"/><rect class="cls-6" x="54.27" y="165.59" width="12.35" height="12.36"/><rect class="cls-1" x="41.92" y="190.3" width="12.35" height="12.35"/><rect class="cls-4" x="41.91" y="177.94" width="12.35" height="12.35"/><rect class="cls-6" x="41.91" y="165.59" width="12.35" height="12.36"/><rect class="cls-5" x="29.56" y="190.3" width="12.36" height="12.35"/><rect class="cls-1" x="29.56" y="177.94" width="12.36" height="12.35"/><rect class="cls-4" x="29.56" y="165.59" width="12.36" height="12.36"/><rect class="cls-5" x="17.21" y="177.94" width="12.35" height="12.35"/><rect class="cls-1" x="17.21" y="165.59" width="12.35" height="12.36"/><rect class="cls-5" x="4.85" y="165.59" width="12.35" height="12.36"/><rect class="cls-5" x="177.79" y="165.59" width="12.35" height="12.36"/><rect class="cls-5" x="165.44" y="177.94" width="12.35" height="12.35"/><rect class="cls-1" x="165.44" y="165.59" width="12.35" height="12.36"/><rect class="cls-5" x="153.09" y="190.3" width="12.36" height="12.35"/><rect class="cls-1" x="153.09" y="177.94" width="12.36" height="12.35"/><rect class="cls-4" x="153.09" y="165.59" width="12.36" height="12.36"/><rect class="cls-1" x="140.74" y="190.3" width="12.35" height="12.35"/><rect class="cls-4" x="140.73" y="177.94" width="12.35" height="12.35"/><rect class="cls-6" x="140.73" y="165.59" width="12.35" height="12.36"/><rect class="cls-1" x="128.38" y="190.3" width="12.35" height="12.35"/><rect class="cls-5" x="116.03" y="202.65" width="12.35" height="12.35"/><rect class="cls-5" x="103.68" y="202.65" width="12.35" height="12.35"/><rect class="cls-5" x="91.33" y="202.65" width="12.35" height="12.35"/><rect class="cls-5" x="78.97" y="202.65" width="12.36" height="12.35"/><rect class="cls-5" x="66.62" y="202.65" width="12.35" height="12.35"/><rect class="cls-5" x="54.27" y="202.65" width="12.35" height="12.35"/><rect class="cls-5" x="41.91" y="202.65" width="12.35" height="12.35"/><rect class="cls-5" x="140.73" y="202.65" width="12.35" height="12.35"/><rect class="cls-5" x="128.38" y="202.65" width="12.35" height="12.35"/><rect class="cls-6" x="128.38" y="177.94" width="12.35" height="12.35"/><rect class="cls-6" x="128.38" y="165.59" width="12.35" height="12.36"/></svg>