<?xml version="1.0" encoding="UTF-8"?><svg id="Layer_1" xmlns="http://www.w3.org/2000/svg" viewBox="0 0 220 230"><defs><style>.cls-1{fill:#f9b13c;}.cls-2{fill:#4c4d71;}.cls-3{fill:#363555;}.cls-4{fill:#f15a24;}.cls-5{fill:#f7c73e;}.cls-6{fill:#8686af;}</style></defs><g><rect class="cls-3" x="128.53" y="65.59" width="12.35" height="12.35"/><rect class="cls-3" x="116.18" y="65.59" width="12.35" height="12.35"/><rect class="cls-3" x="103.82" y="53.24" width="12.36" height="12.35"/><rect class="cls-3" x="91.47" y="53.24" width="12.35" height="12.35"/><rect class="cls-3" x="91.47" y="40.88" width="12.35" height="12.35"/><rect class="cls-3" x="79.12" y="53.24" width="12.35" height="12.35"/><rect class="cls-3" x="66.77" y="53.24" width="12.35" height="12.35"/><rect class="cls-3" x="54.41" y="65.59" width="12.36" height="12.35"/><rect class="cls-3" x="42.06" y="65.59" width="12.35" height="12.35"/><rect class="cls-3" x="140.88" y="77.94" width="12.35" height="12.36"/><rect class="cls-3" x="29.71" y="77.94" width="12.35" height="12.36"/><rect class="cls-3" x="17.35" y="164.41" width="12.36" height="12.35"/><rect class="cls-3" x="17.35" y="102.65" width="12.36" height="12.35"/><rect class="cls-3" x="17.35" y="90.3" width="12.36" height="12.35"/><rect class="cls-3" x="5" y="152.06" width="12.35" height="12.35"/><rect class="cls-3" x="5" y="139.71" width="12.35" height="12.35"/><rect class="cls-3" x="5" y="127.35" width="12.35" height="12.36"/><rect class="cls-3" x="5" y="115" width="12.35" height="12.35"/><rect class="cls-3" x="165.59" y="152.06" width="12.35" height="12.35"/><rect class="cls-3" x="165.59" y="139.71" width="12.35" height="12.35"/><rect class="cls-3" x="165.59" y="127.35" width="12.35" height="12.36"/><rect class="cls-3" x="165.59" y="115" width="12.35" height="12.35"/><rect class="cls-3" x="153.24" y="164.41" width="12.35" height="12.35"/><rect class="cls-3" x="153.24" y="102.65" width="12.35" height="12.35"/><rect class="cls-3" x="153.24" y="90.3" width="12.35" height="12.35"/><rect class="cls-3" x="140.88" y="189.12" width="12.35" height="12.35"/><rect class="cls-3" x="128.53" y="201.47" width="12.35" height="12.35"/><rect class="cls-3" x="116.18" y="201.47" width="12.35" height="12.35"/><rect class="cls-3" x="103.82" y="213.82" width="12.36" height="12.35"/><rect class="cls-3" x="91.47" y="213.82" width="12.35" height="12.35"/><rect class="cls-3" x="79.12" y="213.82" width="12.35" height="12.35"/><rect class="cls-3" x="66.77" y="213.82" width="12.35" height="12.35"/><rect class="cls-3" x="54.41" y="201.47" width="12.36" height="12.35"/><rect class="cls-3" x="42.06" y="201.47" width="12.35" height="12.35"/><rect class="cls-3" x="29.71" y="189.12" width="12.35" height="12.35"/><rect class="cls-3" x="17.35" y="176.76" width="12.36" height="12.36"/><rect class="cls-3" x="153.24" y="176.76" width="12.35" height="12.36"/></g><g><rect class="cls-3" x="153.24" y="16.18" width="12.35" height="12.35"/><rect class="cls-3" x="116.18" y="3.82" width="12.35" height="12.35"/><rect class="cls-3" x="128.54" y="3.82" width="12.35" height="12.35"/><rect class="cls-3" x="140.89" y="3.82" width="12.35" height="12.35"/><rect class="cls-3" x="91.48" y="28.53" width="12.36" height="12.36"/><rect class="cls-3" x="103.83" y="16.18" width="12.36" height="12.35"/></g><g><rect class="cls-1" x="165.59" y="53.24" width="12.35" height="12.35"/><rect class="cls-4" x="165.59" y="40.88" width="12.35" height="12.35"/><rect class="cls-1" x="165.59" y="28.53" width="12.35" height="12.35"/><rect class="cls-5" x="153.24" y="40.88" width="12.35" height="12.35"/><rect class="cls-5" x="202.64" y="40.88" width="12.36" height="12.35"/><rect class="cls-1" x="190.29" y="53.24" width="12.35" height="12.35"/><rect class="cls-4" x="190.29" y="40.88" width="12.35" height="12.35"/><rect class="cls-1" x="190.29" y="28.53" width="12.35" height="12.35"/><rect class="cls-5" x="177.94" y="65.59" width="12.35" height="12.36"/><rect class="cls-4" x="177.94" y="53.24" width="12.35" height="12.35"/><rect class="cls-4" x="177.94" y="40.88" width="12.35" height="12.35"/><rect class="cls-4" x="177.94" y="28.53" width="12.35" height="12.35"/><rect class="cls-5" x="177.94" y="16.18" width="12.35" height="12.36"/></g><rect class="cls-3" x="103.82" y="65.59" width="12.36" height="12.35"/><rect class="cls-3" x="91.47" y="65.59" width="12.35" height="12.35"/><rect class="cls-3" x="79.12" y="65.59" width="12.35" height="12.35"/><rect class="cls-3" x="66.77" y="65.59" width="12.35" height="12.35"/><rect class="cls-2" x="140.88" y="164.41" width="12.35" height="12.35"/><rect class="cls-2" x="140.88" y="152.06" width="12.35" height="12.35"/><rect class="cls-2" x="140.88" y="139.71" width="12.35" height="12.35"/><rect class="cls-2" x="140.88" y="127.35" width="12.35" height="12.36"/><rect class="cls-2" x="140.88" y="115" width="12.35" height="12.35"/><rect class="cls-2" x="140.88" y="102.65" width="12.35" height="12.35"/><rect class="cls-2" x="140.88" y="90.3" width="12.35" height="12.35"/><rect class="cls-2" x="128.53" y="164.41" width="12.35" height="12.35"/><rect class="cls-2" x="128.53" y="152.06" width="12.35" height="12.35"/><rect class="cls-2" x="128.53" y="139.71" width="12.35" height="12.35"/><rect class="cls-2" x="128.53" y="127.35" width="12.35" height="12.36"/><rect class="cls-6" x="128.53" y="115" width="12.35" height="12.35"/><rect class="cls-6" x="128.53" y="102.65" width="12.35" height="12.35"/><rect class="cls-2" x="128.53" y="90.3" width="12.35" height="12.35"/><rect class="cls-2" x="128.53" y="77.94" width="12.35" height="12.36"/><rect class="cls-2" x="116.18" y="164.41" width="12.35" height="12.35"/><rect class="cls-2" x="116.18" y="152.06" width="12.35" height="12.35"/><rect class="cls-2" x="116.18" y="139.71" width="12.35" height="12.35"/><rect class="cls-2" x="116.18" y="127.35" width="12.35" height="12.36"/><rect class="cls-2" x="116.18" y="115" width="12.35" height="12.35"/><rect class="cls-2" x="116.18" y="102.65" width="12.35" height="12.35"/><rect class="cls-6" x="116.18" y="90.3" width="12.35" height="12.35"/><rect class="cls-2" x="116.18" y="77.94" width="12.35" height="12.36"/><rect class="cls-2" x="103.82" y="164.41" width="12.36" height="12.35"/><rect class="cls-2" x="103.82" y="152.06" width="12.36" height="12.35"/><rect class="cls-2" x="103.82" y="139.71" width="12.36" height="12.35"/><rect class="cls-2" x="103.82" y="127.35" width="12.36" height="12.36"/><rect class="cls-2" x="103.82" y="115" width="12.36" height="12.35"/><rect class="cls-2" x="103.82" y="102.65" width="12.36" height="12.35"/><rect class="cls-2" x="103.82" y="90.3" width="12.36" height="12.35"/><rect class="cls-2" x="103.82" y="77.94" width="12.36" height="12.36"/><rect class="cls-2" x="91.47" y="164.41" width="12.35" height="12.35"/><rect class="cls-2" x="91.47" y="152.06" width="12.35" height="12.35"/><rect class="cls-2" x="91.47" y="139.71" width="12.35" height="12.35"/><rect class="cls-2" x="91.47" y="127.35" width="12.35" height="12.36"/><rect class="cls-2" x="91.47" y="115" width="12.35" height="12.35"/><rect class="cls-2" x="91.47" y="102.65" width="12.35" height="12.35"/><rect class="cls-2" x="91.47" y="90.3" width="12.35" height="12.35"/><rect class="cls-2" x="91.47" y="77.94" width="12.35" height="12.36"/><rect class="cls-2" x="79.12" y="164.41" width="12.35" height="12.35"/><rect class="cls-2" x="79.12" y="152.06" width="12.35" height="12.35"/><rect class="cls-2" x="79.12" y="139.71" width="12.35" height="12.35"/><rect class="cls-2" x="79.12" y="127.35" width="12.35" height="12.36"/><rect class="cls-2" x="79.12" y="115" width="12.35" height="12.35"/><rect class="cls-2" x="79.12" y="102.65" width="12.35" height="12.35"/><rect class="cls-2" x="79.12" y="90.3" width="12.35" height="12.35"/><rect class="cls-3" x="79.12" y="77.94" width="12.35" height="12.36"/><rect class="cls-2" x="66.77" y="164.41" width="12.35" height="12.35"/><rect class="cls-2" x="66.77" y="152.06" width="12.35" height="12.35"/><rect class="cls-2" x="66.77" y="139.71" width="12.35" height="12.35"/><rect class="cls-2" x="66.77" y="127.35" width="12.35" height="12.36"/><rect class="cls-2" x="66.77" y="115" width="12.35" height="12.35"/><rect class="cls-2" x="66.77" y="102.65" width="12.35" height="12.35"/><rect class="cls-3" x="66.77" y="90.3" width="12.35" height="12.35"/><rect class="cls-3" x="66.77" y="77.94" width="12.35" height="12.36"/><rect class="cls-3" x="54.41" y="164.41" width="12.36" height="12.35"/><rect class="cls-3" x="54.41" y="152.06" width="12.36" height="12.35"/><rect class="cls-2" x="54.41" y="139.71" width="12.36" height="12.35"/><rect class="cls-2" x="54.41" y="127.35" width="12.36" height="12.36"/><rect class="cls-3" x="54.41" y="115" width="12.36" height="12.35"/><rect class="cls-3" x="54.41" y="102.65" width="12.36" height="12.35"/><rect class="cls-3" x="54.41" y="90.3" width="12.36" height="12.35"/><rect class="cls-3" x="54.41" y="77.94" width="12.36" height="12.36"/><rect class="cls-3" x="42.06" y="164.41" width="12.35" height="12.35"/><rect class="cls-3" x="42.06" y="152.06" width="12.35" height="12.35"/><rect class="cls-3" x="42.06" y="139.71" width="12.35" height="12.35"/><rect class="cls-3" x="42.06" y="127.35" width="12.35" height="12.36"/><rect class="cls-3" x="42.06" y="115" width="12.35" height="12.35"/><rect class="cls-3" x="42.06" y="102.65" width="12.35" height="12.35"/><rect class="cls-3" x="42.06" y="90.3" width="12.35" height="12.35"/><rect class="cls-3" x="42.06" y="77.94" width="12.35" height="12.36"/><rect class="cls-3" x="29.71" y="164.41" width="12.35" height="12.35"/><rect class="cls-3" x="29.71" y="152.06" width="12.35" height="12.35"/><rect class="cls-3" x="29.71" y="139.71" width="12.35" height="12.35"/><rect class="cls-3" x="29.71" y="127.35" width="12.35" height="12.36"/><rect class="cls-3" x="29.71" y="115" width="12.35" height="12.35"/><rect class="cls-3" x="29.71" y="102.65" width="12.35" height="12.35"/><rect class="cls-3" x="29.71" y="90.3" width="12.35" height="12.35"/><rect class="cls-3" x="17.35" y="152.06" width="12.36" height="12.35"/><rect class="cls-3" x="17.35" y="139.71" width="12.36" height="12.35"/><rect class="cls-3" x="17.35" y="127.35" width="12.36" height="12.36"/><rect class="cls-3" x="17.35" y="115" width="12.36" height="12.35"/><rect class="cls-2" x="153.24" y="152.06" width="12.35" height="12.35"/><rect class="cls-2" x="153.24" y="139.71" width="12.35" height="12.35"/><rect class="cls-2" x="153.24" y="127.35" width="12.35" height="12.36"/><rect class="cls-2" x="153.24" y="115" width="12.35" height="12.35"/><rect class="cls-2" x="140.88" y="176.76" width="12.35" height="12.36"/><rect class="cls-2" x="128.53" y="189.12" width="12.35" height="12.35"/><rect class="cls-2" x="128.53" y="176.76" width="12.35" height="12.36"/><rect class="cls-2" x="116.18" y="189.12" width="12.35" height="12.35"/><rect class="cls-2" x="116.18" y="176.76" width="12.35" height="12.36"/><rect class="cls-3" x="103.82" y="201.47" width="12.36" height="12.35"/><rect class="cls-2" x="103.82" y="189.12" width="12.36" height="12.35"/><rect class="cls-2" x="103.82" y="176.76" width="12.36" height="12.36"/><rect class="cls-3" x="91.47" y="201.47" width="12.35" height="12.35"/><rect class="cls-2" x="91.47" y="189.12" width="12.35" height="12.35"/><rect class="cls-2" x="91.47" y="176.76" width="12.35" height="12.36"/><rect class="cls-3" x="79.12" y="201.47" width="12.35" height="12.35"/><rect class="cls-3" x="79.12" y="189.12" width="12.35" height="12.35"/><rect class="cls-2" x="79.12" y="176.76" width="12.35" height="12.36"/><rect class="cls-3" x="66.77" y="201.47" width="12.35" height="12.35"/><rect class="cls-3" x="66.77" y="189.12" width="12.35" height="12.35"/><rect class="cls-3" x="66.77" y="176.76" width="12.35" height="12.36"/><rect class="cls-3" x="54.41" y="189.12" width="12.36" height="12.35"/><rect class="cls-3" x="54.41" y="176.76" width="12.36" height="12.36"/><rect class="cls-3" x="42.06" y="189.12" width="12.35" height="12.35"/><rect class="cls-3" x="42.06" y="176.76" width="12.35" height="12.36"/><rect class="cls-3" x="29.71" y="176.76" width="12.35" height="12.36"/></svg>