<?xml version="1.0" encoding="UTF-8"?><svg id="Layer_1" xmlns="http://www.w3.org/2000/svg" viewBox="0 0 165 220"><defs><style>.cls-1{fill:#f4c300;}.cls-2{fill:#d51e2f;}.cls-3{fill:#ff8325;}</style></defs><rect class="cls-2" x="104.61" y="5" width="11.05" height="11.05"/><rect class="cls-2" x="93.55" y="49.21" width="11.05" height="11.05"/><rect class="cls-2" x="93.55" y="38.16" width="11.05" height="11.05"/><rect class="cls-2" x="93.55" y="27.11" width="11.05" height="11.05"/><rect class="cls-2" x="93.55" y="16.05" width="11.05" height="11.06"/><rect class="cls-3" x="82.5" y="49.21" width="11.05" height="11.05"/><rect class="cls-3" x="82.5" y="38.16" width="11.05" height="11.05"/><rect class="cls-2" x="82.5" y="27.11" width="11.05" height="11.05"/><rect class="cls-2" x="82.5" y="16.05" width="11.05" height="11.06"/><rect class="cls-3" x="71.45" y="49.21" width="11.06" height="11.05"/><rect class="cls-2" x="71.45" y="38.16" width="11.06" height="11.05"/><rect class="cls-2" x="71.45" y="27.11" width="11.06" height="11.05"/><rect class="cls-2" x="60.39" y="49.21" width="11.05" height="11.05"/><rect class="cls-2" x="60.39" y="38.16" width="11.05" height="11.05"/><rect class="cls-2" x="27.24" y="49.21" width="11.06" height="11.05"/><rect class="cls-1" x="104.61" y="137.63" width="11.05" height="11.05"/><rect class="cls-3" x="104.61" y="126.58" width="11.05" height="11.05"/><rect class="cls-3" x="104.61" y="115.53" width="11.05" height="11.05"/><rect class="cls-3" x="104.61" y="104.47" width="11.05" height="11.06"/><rect class="cls-3" x="104.61" y="93.42" width="11.05" height="11.05"/><rect class="cls-2" x="104.61" y="82.37" width="11.05" height="11.05"/><rect class="cls-2" x="104.61" y="71.32" width="11.05" height="11.05"/><rect class="cls-2" x="104.61" y="60.26" width="11.05" height="11.06"/><rect class="cls-1" x="93.55" y="137.63" width="11.05" height="11.05"/><rect class="cls-1" x="93.55" y="126.58" width="11.05" height="11.05"/><rect class="cls-1" x="93.55" y="115.53" width="11.05" height="11.05"/><rect class="cls-3" x="93.55" y="104.47" width="11.05" height="11.06"/><rect class="cls-3" x="93.55" y="93.42" width="11.05" height="11.05"/><rect class="cls-3" x="93.55" y="82.37" width="11.05" height="11.05"/><rect class="cls-3" x="93.55" y="71.32" width="11.05" height="11.05"/><rect class="cls-2" x="93.55" y="60.26" width="11.05" height="11.06"/><rect class="cls-1" x="82.5" y="137.63" width="11.05" height="11.05"/><rect class="cls-1" x="82.5" y="126.58" width="11.05" height="11.05"/><rect class="cls-1" x="82.5" y="115.53" width="11.05" height="11.05"/><rect class="cls-1" x="82.5" y="104.47" width="11.05" height="11.06"/><rect class="cls-1" x="82.5" y="93.42" width="11.05" height="11.05"/><rect class="cls-1" x="82.5" y="82.37" width="11.05" height="11.05"/><rect class="cls-3" x="82.5" y="71.32" width="11.05" height="11.05"/><rect class="cls-3" x="82.5" y="60.26" width="11.05" height="11.06"/><rect class="cls-1" x="71.45" y="137.63" width="11.06" height="11.05"/><rect class="cls-1" x="71.45" y="126.58" width="11.06" height="11.05"/><rect class="cls-1" x="71.45" y="115.53" width="11.06" height="11.05"/><rect class="cls-1" x="71.45" y="104.47" width="11.06" height="11.06"/><rect class="cls-1" x="71.45" y="93.42" width="11.06" height="11.05"/><rect class="cls-3" x="71.45" y="82.37" width="11.06" height="11.05"/><rect class="cls-3" x="71.45" y="71.32" width="11.06" height="11.05"/><rect class="cls-3" x="71.45" y="60.26" width="11.06" height="11.06"/><rect class="cls-1" x="60.39" y="137.63" width="11.05" height="11.05"/><rect class="cls-1" x="60.39" y="126.58" width="11.05" height="11.05"/><rect class="cls-1" x="60.39" y="115.53" width="11.05" height="11.05"/><rect class="cls-1" x="60.39" y="104.47" width="11.05" height="11.06"/><rect class="cls-3" x="60.39" y="93.42" width="11.05" height="11.05"/><rect class="cls-3" x="60.39" y="82.37" width="11.05" height="11.05"/><rect class="cls-3" x="60.39" y="71.32" width="11.05" height="11.05"/><rect class="cls-2" x="60.39" y="60.26" width="11.05" height="11.06"/><rect class="cls-1" x="49.34" y="137.63" width="11.05" height="11.05"/><rect class="cls-1" x="49.34" y="126.58" width="11.05" height="11.05"/><rect class="cls-1" x="49.34" y="115.53" width="11.05" height="11.05"/><rect class="cls-3" x="49.34" y="104.47" width="11.05" height="11.06"/><rect class="cls-3" x="49.34" y="93.42" width="11.05" height="11.05"/><rect class="cls-3" x="49.34" y="82.37" width="11.05" height="11.05"/><rect class="cls-2" x="49.34" y="71.32" width="11.05" height="11.05"/><rect class="cls-2" x="49.34" y="60.26" width="11.05" height="11.06"/><rect class="cls-3" x="38.29" y="137.63" width="11.05" height="11.05"/><rect class="cls-3" x="38.29" y="126.58" width="11.05" height="11.05"/><rect class="cls-3" x="38.29" y="115.53" width="11.05" height="11.05"/><rect class="cls-3" x="38.29" y="104.47" width="11.05" height="11.06"/><rect class="cls-2" x="38.29" y="93.42" width="11.05" height="11.05"/><rect class="cls-2" x="38.29" y="82.37" width="11.05" height="11.05"/><rect class="cls-2" x="38.29" y="71.32" width="11.05" height="11.05"/><rect class="cls-3" x="27.24" y="137.63" width="11.06" height="11.05"/><rect class="cls-2" x="27.24" y="126.58" width="11.06" height="11.05"/><rect class="cls-2" x="27.24" y="115.53" width="11.06" height="11.05"/><rect class="cls-2" x="27.24" y="104.47" width="11.06" height="11.06"/><rect class="cls-2" x="16.18" y="137.63" width="11.05" height="11.05"/><rect class="cls-2" x="16.18" y="126.58" width="11.05" height="11.05"/><rect class="cls-2" x="16.18" y="115.53" width="11.05" height="11.05"/><rect class="cls-2" x="16.18" y="104.47" width="11.05" height="11.06"/><rect class="cls-2" x="16.18" y="93.42" width="11.05" height="11.05"/><rect class="cls-2" x="5.13" y="137.63" width="11.05" height="11.05"/><rect class="cls-2" x="148.82" y="137.63" width="11.05" height="11.05"/><rect class="cls-2" x="137.76" y="137.63" width="11.06" height="11.05"/><rect class="cls-2" x="137.76" y="126.58" width="11.06" height="11.05"/><rect class="cls-2" x="137.76" y="115.53" width="11.06" height="11.05"/><rect class="cls-3" x="126.71" y="137.63" width="11.05" height="11.05"/><rect class="cls-3" x="126.71" y="126.58" width="11.05" height="11.05"/><rect class="cls-2" x="126.71" y="115.53" width="11.05" height="11.05"/><rect class="cls-2" x="126.71" y="104.47" width="11.05" height="11.06"/><rect class="cls-2" x="126.71" y="93.42" width="11.05" height="11.05"/><rect class="cls-2" x="126.71" y="82.37" width="11.05" height="11.05"/><rect class="cls-2" x="126.71" y="71.32" width="11.05" height="11.05"/><rect class="cls-3" x="115.66" y="137.63" width="11.05" height="11.05"/><rect class="cls-3" x="115.66" y="126.58" width="11.05" height="11.05"/><rect class="cls-3" x="115.66" y="115.53" width="11.05" height="11.05"/><rect class="cls-3" x="115.66" y="104.47" width="11.05" height="11.06"/><rect class="cls-2" x="115.66" y="93.42" width="11.05" height="11.05"/><rect class="cls-2" x="115.66" y="82.37" width="11.05" height="11.05"/><rect class="cls-2" x="104.61" y="203.95" width="11.05" height="11.05"/><rect class="cls-3" x="104.61" y="192.89" width="11.05" height="11.06"/><rect class="cls-3" x="104.61" y="181.84" width="11.05" height="11.05"/><rect class="cls-1" x="104.61" y="170.79" width="11.05" height="11.05"/><rect class="cls-1" x="104.61" y="159.74" width="11.05" height="11.05"/><rect class="cls-1" x="104.61" y="148.68" width="11.05" height="11.06"/><rect class="cls-2" x="93.55" y="203.95" width="11.05" height="11.05"/><rect class="cls-3" x="93.55" y="192.89" width="11.05" height="11.06"/><rect class="cls-3" x="93.55" y="181.84" width="11.05" height="11.05"/><rect class="cls-1" x="93.55" y="170.79" width="11.05" height="11.05"/><rect class="cls-1" x="93.55" y="159.74" width="11.05" height="11.05"/><rect class="cls-1" x="93.55" y="148.68" width="11.05" height="11.06"/><rect class="cls-2" x="82.5" y="203.95" width="11.05" height="11.05"/><rect class="cls-3" x="82.5" y="192.89" width="11.05" height="11.06"/><rect class="cls-1" x="82.5" y="181.84" width="11.05" height="11.05"/><rect class="cls-1" x="82.5" y="170.79" width="11.05" height="11.05"/><rect class="cls-1" x="82.5" y="159.74" width="11.05" height="11.05"/><rect class="cls-1" x="82.5" y="148.68" width="11.05" height="11.06"/><rect class="cls-2" x="71.45" y="203.95" width="11.06" height="11.05"/><rect class="cls-3" x="71.45" y="192.89" width="11.06" height="11.06"/><rect class="cls-1" x="71.45" y="181.84" width="11.06" height="11.05"/><rect class="cls-1" x="71.45" y="170.79" width="11.06" height="11.05"/><rect class="cls-1" x="71.45" y="159.74" width="11.06" height="11.05"/><rect class="cls-1" x="71.45" y="148.68" width="11.06" height="11.06"/><rect class="cls-2" x="60.39" y="203.95" width="11.05" height="11.05"/><rect class="cls-3" x="60.39" y="192.89" width="11.05" height="11.06"/><rect class="cls-1" x="60.39" y="181.84" width="11.05" height="11.05"/><rect class="cls-1" x="60.39" y="170.79" width="11.05" height="11.05"/><rect class="cls-1" x="60.39" y="159.74" width="11.05" height="11.05"/><rect class="cls-1" x="60.39" y="148.68" width="11.05" height="11.06"/><rect class="cls-2" x="49.34" y="203.95" width="11.05" height="11.05"/><rect class="cls-3" x="49.34" y="192.89" width="11.05" height="11.06"/><rect class="cls-3" x="49.34" y="181.84" width="11.05" height="11.05"/><rect class="cls-1" x="49.34" y="170.79" width="11.05" height="11.05"/><rect class="cls-1" x="49.34" y="159.74" width="11.05" height="11.05"/><rect class="cls-1" x="49.34" y="148.68" width="11.05" height="11.06"/><rect class="cls-2" x="38.29" y="203.95" width="11.05" height="11.05"/><rect class="cls-2" x="38.29" y="192.89" width="11.05" height="11.06"/><rect class="cls-3" x="38.29" y="181.84" width="11.05" height="11.05"/><rect class="cls-3" x="38.29" y="170.79" width="11.05" height="11.05"/><rect class="cls-1" x="38.29" y="159.74" width="11.05" height="11.05"/><rect class="cls-1" x="38.29" y="148.68" width="11.05" height="11.06"/><rect class="cls-2" x="27.24" y="192.89" width="11.06" height="11.06"/><rect class="cls-2" x="27.24" y="181.84" width="11.06" height="11.05"/><rect class="cls-3" x="27.24" y="170.79" width="11.06" height="11.05"/><rect class="cls-3" x="27.24" y="159.74" width="11.06" height="11.05"/><rect class="cls-3" x="27.24" y="148.68" width="11.06" height="11.06"/><rect class="cls-2" x="16.18" y="181.84" width="11.05" height="11.05"/><rect class="cls-2" x="16.18" y="170.79" width="11.05" height="11.05"/><rect class="cls-2" x="16.18" y="159.74" width="11.05" height="11.05"/><rect class="cls-2" x="16.18" y="148.68" width="11.05" height="11.06"/><rect class="cls-2" x="5.13" y="159.74" width="11.05" height="11.05"/><rect class="cls-2" x="5.13" y="148.68" width="11.05" height="11.06"/><rect class="cls-2" x="148.82" y="159.74" width="11.05" height="11.05"/><rect class="cls-2" x="148.82" y="148.68" width="11.05" height="11.06"/><rect class="cls-2" x="137.76" y="192.89" width="11.06" height="11.06"/><rect class="cls-2" x="137.76" y="181.84" width="11.06" height="11.05"/><rect class="cls-2" x="137.76" y="170.79" width="11.06" height="11.05"/><rect class="cls-2" x="137.76" y="159.74" width="11.06" height="11.05"/><rect class="cls-2" x="137.76" y="148.68" width="11.06" height="11.06"/><rect class="cls-2" x="126.71" y="192.89" width="11.05" height="11.06"/><rect class="cls-3" x="126.71" y="181.84" width="11.05" height="11.05"/><rect class="cls-3" x="126.71" y="170.79" width="11.05" height="11.05"/><rect class="cls-3" x="126.71" y="159.74" width="11.05" height="11.05"/><rect class="cls-3" x="126.71" y="148.68" width="11.05" height="11.06"/><rect class="cls-2" x="115.66" y="203.95" width="11.05" height="11.05"/><rect class="cls-2" x="115.66" y="192.89" width="11.05" height="11.06"/><rect class="cls-3" x="115.66" y="181.84" width="11.05" height="11.05"/><rect class="cls-3" x="115.66" y="170.79" width="11.05" height="11.05"/><rect class="cls-1" x="115.66" y="159.74" width="11.05" height="11.05"/><rect class="cls-1" x="115.66" y="148.68" width="11.05" height="11.06"/></svg>