<?xml version="1.0" encoding="UTF-8"?><svg id="Layer_1" xmlns="http://www.w3.org/2000/svg" viewBox="0 0 220 175"><defs><style>.cls-1{fill:#59e14f;}.cls-2{fill:#228a4b;}.cls-3{fill:#3ac431;}.cls-4{fill:#9bed95;}</style></defs><rect class="cls-2" x="205" y="34.09" width="10" height="9.71"/><rect class="cls-2" x="195" y="43.8" width="10" height="9.71"/><rect class="cls-1" x="195" y="34.09" width="10" height="9.71"/><rect class="cls-2" x="195" y="24.37" width="10" height="9.71"/><rect class="cls-2" x="185" y="53.51" width="10" height="9.71"/><rect class="cls-1" x="185" y="43.8" width="10" height="9.71"/><rect class="cls-1" x="185" y="34.09" width="10" height="9.71"/><rect class="cls-1" x="185" y="24.37" width="10" height="9.71"/><rect class="cls-2" x="185" y="14.66" width="10" height="9.71"/><rect class="cls-2" x="175" y="63.22" width="10" height="9.71"/><rect class="cls-1" x="175" y="53.51" width="10" height="9.71"/><rect class="cls-1" x="175" y="43.8" width="10" height="9.71"/><rect class="cls-1" x="175" y="34.09" width="10" height="9.71"/><rect class="cls-1" x="175" y="24.37" width="10" height="9.71"/><rect class="cls-4" x="175" y="14.66" width="10" height="9.71"/><rect class="cls-2" x="175" y="4.95" width="10" height="9.71"/><rect class="cls-2" x="165" y="72.93" width="10" height="9.71"/><rect class="cls-1" x="165" y="63.22" width="10" height="9.71"/><rect class="cls-1" x="165" y="53.51" width="10" height="9.71"/><rect class="cls-1" x="165" y="43.8" width="10" height="9.71"/><rect class="cls-1" x="165" y="34.09" width="10" height="9.71"/><rect class="cls-4" x="165" y="24.37" width="10" height="9.71"/><rect class="cls-2" x="165" y="14.66" width="10" height="9.71"/><rect class="cls-2" x="155" y="82.64" width="10" height="9.71"/><rect class="cls-1" x="155" y="72.93" width="10" height="9.71"/><rect class="cls-1" x="155" y="63.22" width="10" height="9.71"/><rect class="cls-1" x="155" y="53.51" width="10" height="9.71"/><rect class="cls-1" x="155" y="43.8" width="10" height="9.71"/><rect class="cls-4" x="155" y="34.09" width="10" height="9.71"/><rect class="cls-2" x="155" y="24.37" width="10" height="9.71"/><rect class="cls-2" x="145" y="92.35" width="10" height="9.71"/><rect class="cls-1" x="145" y="82.64" width="10" height="9.71"/><rect class="cls-1" x="145" y="72.93" width="10" height="9.71"/><rect class="cls-1" x="145" y="63.22" width="10" height="9.71"/><rect class="cls-1" x="145" y="53.51" width="10" height="9.71"/><rect class="cls-4" x="145" y="43.8" width="10" height="9.71"/><rect class="cls-2" x="145" y="34.09" width="10" height="9.71"/><rect class="cls-2" x="135" y="102.07" width="10" height="9.71"/><rect class="cls-1" x="135" y="92.35" width="10" height="9.71"/><rect class="cls-1" x="135" y="82.64" width="10" height="9.71"/><rect class="cls-1" x="135" y="72.93" width="10" height="9.71"/><rect class="cls-1" x="135" y="63.22" width="10" height="9.71"/><rect class="cls-4" x="135" y="53.51" width="10" height="9.71"/><rect class="cls-2" x="135" y="43.8" width="10" height="9.71"/><rect class="cls-2" x="125" y="111.78" width="10" height="9.71"/><rect class="cls-1" x="125" y="102.07" width="10" height="9.71"/><rect class="cls-1" x="125" y="92.35" width="10" height="9.71"/><rect class="cls-1" x="125" y="82.64" width="10" height="9.71"/><rect class="cls-1" x="125" y="72.93" width="10" height="9.71"/><rect class="cls-4" x="125" y="63.22" width="10" height="9.71"/><rect class="cls-2" x="125" y="53.51" width="10" height="9.71"/><rect class="cls-2" x="115" y="121.49" width="10" height="9.71"/><rect class="cls-1" x="115" y="111.78" width="10" height="9.71"/><rect class="cls-1" x="115" y="102.07" width="10" height="9.71"/><rect class="cls-1" x="115" y="92.35" width="10" height="9.71"/><rect class="cls-1" x="115" y="82.64" width="10" height="9.71"/><rect class="cls-4" x="115" y="72.93" width="10" height="9.71"/><rect class="cls-2" x="115" y="63.22" width="10" height="9.71"/><rect class="cls-2" x="105" y="131.2" width="10" height="9.71"/><rect class="cls-1" x="105" y="121.49" width="10" height="9.71"/><rect class="cls-1" x="105" y="111.78" width="10" height="9.71"/><rect class="cls-1" x="105" y="102.07" width="10" height="9.71"/><rect class="cls-1" x="105" y="92.35" width="10" height="9.71"/><rect class="cls-4" x="105" y="82.64" width="10" height="9.71"/><rect class="cls-2" x="105" y="72.93" width="10" height="9.71"/><rect class="cls-2" x="95" y="140.91" width="10" height="9.71"/><rect class="cls-1" x="95" y="131.2" width="10" height="9.71"/><rect class="cls-1" x="95" y="121.49" width="10" height="9.71"/><rect class="cls-1" x="95" y="111.78" width="10" height="9.71"/><rect class="cls-1" x="95" y="102.07" width="10" height="9.71"/><rect class="cls-4" x="95" y="92.35" width="10" height="9.71"/><rect class="cls-2" x="95" y="82.64" width="10" height="9.71"/><rect class="cls-2" x="85" y="150.62" width="10" height="9.71"/><rect class="cls-1" x="85" y="140.91" width="10" height="9.71"/><rect class="cls-1" x="85" y="131.2" width="10" height="9.71"/><rect class="cls-1" x="85" y="121.49" width="10" height="9.71"/><rect class="cls-1" x="85" y="111.78" width="10" height="9.71"/><rect class="cls-4" x="85" y="102.07" width="10" height="9.71"/><rect class="cls-2" x="85" y="92.35" width="10" height="9.71"/><rect class="cls-2" x="75" y="160.34" width="10" height="9.71"/><rect class="cls-1" x="75" y="150.62" width="10" height="9.71"/><rect class="cls-3" x="195" y="34.09" width="10" height="9.71"/><rect class="cls-3" x="185" y="43.8" width="10" height="9.71"/><rect class="cls-3" x="175" y="53.51" width="10" height="9.71"/><rect class="cls-3" x="165" y="63.22" width="10" height="9.71"/><rect class="cls-3" x="155" y="72.93" width="10" height="9.71"/><rect class="cls-3" x="145" y="82.64" width="10" height="9.71"/><rect class="cls-3" x="135" y="92.35" width="10" height="9.71"/><rect class="cls-3" x="125" y="102.07" width="10" height="9.71"/><rect class="cls-3" x="115" y="111.78" width="10" height="9.71"/><rect class="cls-3" x="105" y="121.49" width="10" height="9.71"/><rect class="cls-3" x="95" y="131.2" width="10" height="9.71"/><rect class="cls-3" x="85" y="140.91" width="10" height="9.71"/><rect class="cls-3" x="75" y="150.62" width="10" height="9.71"/><rect class="cls-1" x="75" y="140.91" width="10" height="9.71"/><rect class="cls-1" x="75" y="131.2" width="10" height="9.71"/><rect class="cls-1" x="75" y="121.49" width="10" height="9.71"/><rect class="cls-1" x="75" y="111.78" width="10" height="9.71"/><rect class="cls-2" x="75" y="102.07" width="10" height="9.71"/><rect class="cls-2" x="65" y="150.62" width="10" height="9.71"/><rect class="cls-3" x="65" y="140.91" width="10" height="9.71"/><rect class="cls-1" x="65" y="131.2" width="10" height="9.71"/><rect class="cls-1" x="65" y="121.49" width="10" height="9.71"/><rect class="cls-1" x="65" y="111.78" width="10" height="9.71"/><rect class="cls-1" x="65" y="102.07" width="10" height="9.71"/><rect class="cls-2" x="65" y="92.35" width="10" height="9.71"/><rect class="cls-2" x="55" y="140.91" width="10" height="9.71"/><rect class="cls-3" x="55" y="131.2" width="10" height="9.71"/><rect class="cls-1" x="55" y="121.49" width="10" height="9.71"/><rect class="cls-1" x="55" y="111.78" width="10" height="9.71"/><rect class="cls-1" x="55" y="102.07" width="10" height="9.71"/><rect class="cls-1" x="55" y="92.35" width="10" height="9.71"/><rect class="cls-2" x="55" y="82.64" width="10" height="9.71"/><rect class="cls-2" x="45" y="131.2" width="10" height="9.71"/><rect class="cls-3" x="45" y="121.49" width="10" height="9.71"/><rect class="cls-1" x="45" y="111.78" width="10" height="9.71"/><rect class="cls-1" x="45" y="102.07" width="10" height="9.71"/><rect class="cls-1" x="45" y="92.35" width="10" height="9.71"/><rect class="cls-1" x="45" y="82.64" width="10" height="9.71"/><rect class="cls-2" x="45" y="72.93" width="10" height="9.71"/><rect class="cls-2" x="35" y="121.49" width="10" height="9.71"/><rect class="cls-3" x="35" y="111.78" width="10" height="9.71"/><rect class="cls-1" x="35" y="102.07" width="10" height="9.71"/><rect class="cls-1" x="35" y="92.35" width="10" height="9.71"/><rect class="cls-1" x="35" y="82.64" width="10" height="9.71"/><rect class="cls-4" x="35" y="72.93" width="10" height="9.71"/><rect class="cls-2" x="35" y="63.22" width="10" height="9.71"/><rect class="cls-2" x="25" y="111.78" width="10" height="9.71"/><rect class="cls-3" x="25" y="102.07" width="10" height="9.71"/><rect class="cls-1" x="25" y="92.35" width="10" height="9.71"/><rect class="cls-4" x="25" y="82.64" width="10" height="9.71"/><rect class="cls-2" x="25" y="72.93" width="10" height="9.71"/><rect class="cls-2" x="15" y="102.07" width="10" height="9.71"/><rect class="cls-4" x="15" y="92.35" width="10" height="9.71"/><rect class="cls-2" x="15" y="82.64" width="10" height="9.71"/><rect class="cls-2" x="5" y="92.35" width="10" height="9.71"/></svg>