<svg xmlns="http://www.w3.org/2000/svg" version="1.1" xmlns:xlink="http://www.w3.org/1999/xlink"
  xmlns:svgjs="http://svgjs.com/svgjs" width="512" height="512" x="0" y="0" viewBox="0 0 24 24"
  style="enable-background:new 0 0 512 512" xml:space="preserve" class=""><g><g fill="#000" fill-rule="evenodd" clip-rule="evenodd" data-darkreader-inline-fill="" style="--darkreader-inline-fill:#000000;"><path d="M5.293 5.293a1 1 0 0 0 0 1.414l6 6a1 1 0 0 0 1.414 0l6-6a1 1 0 0 0-1.414-1.414L12 10.586 6.707 5.293a1 1 0 0 0-1.414 0z" opacity=".4" fill="#ffffff" data-original="#000000" data-darkreader-inline-fill="" style="--darkreader-inline-fill:#181a1b;" class=""></path><path d="M5.293 11.293a1 1 0 0 0 0 1.414l6 6a1 1 0 0 0 1.414 0l6-6a1 1 0 0 0-1.414-1.414L12 16.586l-5.293-5.293a1 1 0 0 0-1.414 0z" fill="#ffffff" data-original="#000000" data-darkreader-inline-fill="" style="--darkreader-inline-fill:#181a1b;" class=""></path></g></g></svg>
