<?xml version="1.0" encoding="UTF-8"?><svg id="Layer_1" xmlns="http://www.w3.org/2000/svg" viewBox="0 0 220 220"><defs><style>.cls-1{fill:#bf1416;}.cls-2{fill:#ffa4a5;}.cls-3{fill:#800e0f;}.cls-4{fill:#ff1b1e;}</style></defs><rect class="cls-3" x="202.65" y="163.98" width="12.35" height="12"/><rect class="cls-3" x="202.65" y="44.02" width="12.35" height="12"/><rect class="cls-3" x="190.29" y="175.98" width="12.35" height="12"/><rect class="cls-4" x="190.29" y="163.98" width="12.35" height="12"/><rect class="cls-3" x="190.29" y="151.99" width="12.35" height="12"/><rect class="cls-3" x="190.29" y="56.02" width="12.35" height="12"/><rect class="cls-4" x="190.29" y="44.02" width="12.35" height="12"/><rect class="cls-3" x="190.29" y="32.02" width="12.35" height="12"/><rect class="cls-3" x="177.94" y="187.98" width="12.35" height="12"/><rect class="cls-4" x="177.94" y="175.98" width="12.35" height="12"/><rect class="cls-4" x="177.94" y="163.98" width="12.35" height="12"/><rect class="cls-4" x="177.94" y="151.99" width="12.35" height="12"/><rect class="cls-3" x="177.94" y="139.99" width="12.35" height="12"/><rect class="cls-3" x="177.94" y="68.01" width="12.35" height="12"/><rect class="cls-4" x="177.94" y="56.02" width="12.35" height="12"/><rect class="cls-4" x="177.94" y="44.02" width="12.35" height="12"/><rect class="cls-4" x="177.94" y="32.02" width="12.35" height="12"/><rect class="cls-3" x="177.94" y="20.03" width="12.35" height="12"/><rect class="cls-3" x="165.59" y="199.97" width="12.35" height="12"/><rect class="cls-4" x="165.59" y="187.98" width="12.35" height="12"/><rect class="cls-4" x="165.59" y="175.98" width="12.35" height="12"/><rect class="cls-4" x="165.59" y="163.98" width="12.35" height="12"/><rect class="cls-4" x="165.59" y="151.99" width="12.35" height="12"/><rect class="cls-4" x="165.59" y="139.99" width="12.35" height="12"/><rect class="cls-3" x="165.59" y="127.99" width="12.35" height="12"/><rect class="cls-3" x="165.59" y="80.01" width="12.35" height="12"/><rect class="cls-4" x="165.59" y="68.01" width="12.35" height="12"/><rect class="cls-4" x="165.59" y="56.02" width="12.35" height="12"/><rect class="cls-4" x="165.59" y="44.02" width="12.35" height="12"/><rect class="cls-4" x="165.59" y="32.02" width="12.35" height="12"/><rect class="cls-2" x="165.59" y="20.03" width="12.35" height="12"/><rect class="cls-3" x="165.59" y="8.03" width="12.35" height="12"/><rect class="cls-3" x="153.24" y="187.98" width="12.35" height="12"/><rect class="cls-4" x="153.24" y="175.98" width="12.35" height="12"/><rect class="cls-4" x="153.24" y="163.98" width="12.35" height="12"/><rect class="cls-4" x="153.24" y="151.99" width="12.35" height="12"/><rect class="cls-4" x="153.24" y="139.99" width="12.35" height="12"/><rect class="cls-4" x="153.24" y="127.99" width="12.35" height="12"/><rect class="cls-3" x="153.24" y="116" width="12.35" height="12"/><rect class="cls-3" x="153.24" y="92.01" width="12.35" height="12"/><rect class="cls-4" x="153.24" y="80.01" width="12.35" height="12"/><rect class="cls-4" x="153.24" y="68.01" width="12.35" height="12"/><rect class="cls-4" x="153.24" y="56.02" width="12.35" height="12"/><rect class="cls-4" x="153.24" y="44.02" width="12.35" height="12"/><rect class="cls-2" x="153.24" y="32.02" width="12.35" height="12"/><rect class="cls-3" x="153.24" y="20.03" width="12.35" height="12"/><rect class="cls-3" x="140.88" y="175.98" width="12.35" height="12"/><rect class="cls-3" x="128.53" y="163.98" width="12.35" height="12"/><rect class="cls-4" x="140.88" y="163.98" width="12.35" height="12"/><rect class="cls-4" x="140.88" y="151.99" width="12.35" height="12"/><rect class="cls-4" x="140.88" y="139.99" width="12.35" height="12"/><rect class="cls-4" x="140.88" y="127.99" width="12.35" height="12"/><rect class="cls-4" x="140.88" y="116" width="12.35" height="12"/><rect class="cls-3" x="140.88" y="104" width="12.35" height="12"/><rect class="cls-4" x="140.88" y="92.01" width="12.35" height="12"/><rect class="cls-4" x="140.88" y="80.01" width="12.35" height="12"/><rect class="cls-4" x="140.88" y="68.01" width="12.35" height="12"/><rect class="cls-4" x="140.88" y="56.02" width="12.35" height="12"/><rect class="cls-2" x="140.88" y="44.02" width="12.35" height="12"/><rect class="cls-3" x="140.88" y="32.02" width="12.35" height="12"/><rect class="cls-4" x="128.53" y="151.99" width="12.35" height="12"/><rect class="cls-4" x="128.53" y="139.99" width="12.35" height="12"/><rect class="cls-4" x="128.53" y="127.99" width="12.35" height="12"/><rect class="cls-4" x="128.53" y="116" width="12.35" height="12"/><rect class="cls-4" x="128.53" y="104" width="12.35" height="12"/><rect class="cls-4" x="128.53" y="92.01" width="12.35" height="12"/><rect class="cls-4" x="128.53" y="80.01" width="12.35" height="12"/><rect class="cls-4" x="128.53" y="68.01" width="12.35" height="12"/><rect class="cls-2" x="128.53" y="56.02" width="12.35" height="12"/><rect class="cls-3" x="128.53" y="44.02" width="12.35" height="12"/><rect class="cls-3" x="116.18" y="151.99" width="12.35" height="12"/><rect class="cls-4" x="116.18" y="139.99" width="12.35" height="12"/><rect class="cls-4" x="116.18" y="127.99" width="12.35" height="12"/><rect class="cls-4" x="116.18" y="116" width="12.35" height="12"/><rect class="cls-4" x="116.18" y="104" width="12.35" height="12"/><rect class="cls-4" x="116.18" y="92.01" width="12.35" height="12"/><rect class="cls-4" x="116.18" y="80.01" width="12.35" height="12"/><rect class="cls-2" x="116.18" y="68.01" width="12.35" height="12"/><rect class="cls-3" x="116.18" y="56.02" width="12.35" height="12"/><rect class="cls-3" x="103.82" y="139.99" width="12.35" height="12"/><rect class="cls-4" x="103.82" y="127.99" width="12.35" height="12"/><rect class="cls-4" x="103.82" y="116" width="12.35" height="12"/><rect class="cls-4" x="103.82" y="104" width="12.35" height="12"/><rect class="cls-4" x="103.82" y="92.01" width="12.35" height="12"/><rect class="cls-4" x="103.82" y="80.01" width="12.35" height="12"/><rect class="cls-3" x="103.82" y="68.01" width="12.35" height="12"/><rect class="cls-3" x="91.4" y="151.99" width="12.35" height="12"/><rect class="cls-4" x="91.47" y="139.99" width="12.35" height="12"/><rect class="cls-4" x="91.47" y="127.99" width="12.35" height="12"/><rect class="cls-4" x="91.47" y="116" width="12.35" height="12"/><rect class="cls-4" x="91.47" y="104" width="12.35" height="12"/><rect class="cls-4" x="91.47" y="92.01" width="12.35" height="12"/><rect class="cls-4" x="91.47" y="80.01" width="12.35" height="12"/><rect class="cls-4" x="91.47" y="68.01" width="12.35" height="12"/><rect class="cls-3" x="91.47" y="56.02" width="12.35" height="12"/><rect class="cls-3" x="79.05" y="163.99" width="12.35" height="12"/><rect class="cls-4" x="79.12" y="151.99" width="12.35" height="12"/><rect class="cls-4" x="79.12" y="139.99" width="12.35" height="12"/><rect class="cls-4" x="79.12" y="127.99" width="12.35" height="12"/><rect class="cls-4" x="79.12" y="116" width="12.35" height="12"/><rect class="cls-4" x="79.12" y="104" width="12.35" height="12"/><rect class="cls-4" x="79.12" y="92.01" width="12.35" height="12"/><rect class="cls-4" x="79.12" y="80.01" width="12.35" height="12"/><rect class="cls-4" x="79.12" y="68.01" width="12.35" height="12"/><rect class="cls-4" x="79.12" y="56.02" width="12.35" height="12"/><rect class="cls-3" x="79.12" y="44.02" width="12.35" height="12"/><rect class="cls-3" x="66.7" y="175.98" width="12.35" height="12"/><rect class="cls-4" x="66.76" y="163.98" width="12.35" height="12"/><rect class="cls-4" x="66.76" y="151.99" width="12.35" height="12"/><rect class="cls-4" x="66.76" y="139.99" width="12.35" height="12"/><rect class="cls-4" x="66.76" y="127.99" width="12.35" height="12"/><rect class="cls-2" x="66.76" y="116" width="12.35" height="12"/><rect class="cls-3" x="66.76" y="104" width="12.35" height="12"/><rect class="cls-4" x="66.76" y="92.01" width="12.35" height="12"/><rect class="cls-4" x="66.76" y="80.01" width="12.35" height="12"/><rect class="cls-4" x="66.76" y="68.01" width="12.35" height="12"/><rect class="cls-4" x="66.76" y="56.02" width="12.35" height="12"/><rect class="cls-4" x="66.76" y="44.02" width="12.35" height="12"/><rect class="cls-3" x="66.76" y="32.02" width="12.35" height="12"/><rect class="cls-3" x="54.41" y="187.98" width="12.35" height="12"/><rect class="cls-4" x="54.41" y="175.98" width="12.35" height="12"/><rect class="cls-4" x="54.41" y="163.98" width="12.35" height="12"/><rect class="cls-4" x="54.41" y="151.99" width="12.35" height="12"/><rect class="cls-4" x="54.41" y="139.99" width="12.35" height="12"/><rect class="cls-2" x="54.41" y="127.99" width="12.35" height="12"/><rect class="cls-3" x="54.41" y="116" width="12.35" height="12"/><rect class="cls-3" x="54.41" y="92.01" width="12.35" height="12"/><rect class="cls-4" x="54.41" y="80.01" width="12.35" height="12"/><rect class="cls-4" x="54.41" y="68.01" width="12.35" height="12"/><rect class="cls-4" x="54.41" y="56.02" width="12.35" height="12"/><rect class="cls-4" x="54.41" y="44.02" width="12.35" height="12"/><rect class="cls-4" x="54.41" y="32.02" width="12.35" height="12"/><rect class="cls-3" x="54.41" y="20.03" width="12.35" height="12"/><rect class="cls-3" x="42.08" y="199.97" width="12.35" height="12"/><rect class="cls-4" x="42.06" y="187.98" width="12.35" height="12"/><rect class="cls-1" x="190.29" y="163.98" width="12.35" height="12"/><rect class="cls-1" x="190.29" y="44.02" width="12.35" height="12"/><rect class="cls-1" x="177.94" y="175.98" width="12.35" height="12"/><rect class="cls-1" x="177.94" y="56.02" width="12.35" height="12"/><rect class="cls-1" x="165.59" y="187.98" width="12.35" height="12"/><rect class="cls-1" x="165.59" y="68.01" width="12.35" height="12"/><rect class="cls-1" x="153.24" y="80.01" width="12.35" height="12"/><rect class="cls-1" x="140.88" y="92.01" width="12.35" height="12"/><rect class="cls-1" x="91.47" y="139.99" width="12.35" height="12"/><rect class="cls-1" x="79.12" y="151.99" width="12.35" height="12"/><rect class="cls-1" x="66.76" y="163.98" width="12.35" height="12"/><rect class="cls-1" x="54.41" y="175.98" width="12.35" height="12"/><rect class="cls-1" x="42.06" y="187.98" width="12.35" height="12"/><rect class="cls-4" x="42.06" y="175.98" width="12.35" height="12"/><rect class="cls-4" x="42.06" y="163.98" width="12.35" height="12"/><rect class="cls-4" x="42.06" y="151.99" width="12.35" height="12"/><rect class="cls-2" x="42.06" y="139.99" width="12.35" height="12"/><rect class="cls-3" x="42.06" y="127.99" width="12.35" height="12"/><rect class="cls-3" x="42.06" y="80.01" width="12.35" height="12"/><rect class="cls-4" x="42.06" y="68.01" width="12.35" height="12"/><rect class="cls-4" x="42.06" y="56.02" width="12.35" height="12"/><rect class="cls-4" x="42.06" y="44.02" width="12.35" height="12"/><rect class="cls-4" x="42.06" y="32.02" width="12.35" height="12"/><rect class="cls-2" x="42.06" y="20.03" width="12.35" height="12"/><rect class="cls-3" x="42.06" y="8.03" width="12.35" height="12"/><rect class="cls-3" x="29.73" y="188" width="12.35" height="12"/><rect class="cls-4" x="29.71" y="175.98" width="12.35" height="12"/><rect class="cls-4" x="29.71" y="163.98" width="12.35" height="12"/><rect class="cls-2" x="29.71" y="151.99" width="12.35" height="12"/><rect class="cls-3" x="29.71" y="139.99" width="12.35" height="12"/><rect class="cls-3" x="29.71" y="68.01" width="12.35" height="12"/><rect class="cls-4" x="29.71" y="56.02" width="12.35" height="12"/><rect class="cls-4" x="29.71" y="44.02" width="12.35" height="12"/><rect class="cls-2" x="29.71" y="32.02" width="12.35" height="12"/><rect class="cls-3" x="29.71" y="20.03" width="12.35" height="12"/><rect class="cls-3" x="17.37" y="176" width="12.35" height="12"/><rect class="cls-2" x="17.35" y="163.98" width="12.35" height="12"/><rect class="cls-3" x="17.35" y="151.99" width="12.35" height="12"/><rect class="cls-3" x="17.35" y="56.02" width="12.35" height="12"/><rect class="cls-2" x="17.35" y="44.02" width="12.35" height="12"/><rect class="cls-3" x="17.35" y="32.02" width="12.35" height="12"/><rect class="cls-3" x="5" y="163.98" width="12.35" height="12"/><rect class="cls-3" x="5" y="44.02" width="12.35" height="12"/></svg>