<?xml version="1.0" encoding="UTF-8"?><svg id="Layer_1" xmlns="http://www.w3.org/2000/svg" viewBox="0 0 220 220"><defs><style>.cls-1{fill:#656a91;}.cls-2{fill:#ccdee9;}.cls-3{fill:#91a5c5;}</style></defs><g><rect class="cls-2" x="134.71" y="54.41" width="12.35" height="12.35"/><rect class="cls-2" x="134.71" y="42.06" width="12.35" height="12.35"/><rect class="cls-2" x="134.71" y="29.71" width="12.35" height="12.35"/><rect class="cls-2" x="134.71" y="17.35" width="12.35" height="12.36"/><rect class="cls-2" x="122.36" y="54.41" width="12.35" height="12.35"/><rect class="cls-2" x="122.36" y="42.06" width="12.35" height="12.35"/><rect class="cls-2" x="122.36" y="29.71" width="12.35" height="12.35"/><rect class="cls-2" x="122.36" y="17.35" width="12.35" height="12.36"/><rect class="cls-2" x="122.36" y="5" width="12.35" height="12.35"/><rect class="cls-2" x="110" y="54.41" width="12.35" height="12.35"/><rect class="cls-2" x="110" y="42.06" width="12.35" height="12.35"/><rect class="cls-2" x="110" y="29.71" width="12.35" height="12.35"/><rect class="cls-2" x="110" y="17.35" width="12.35" height="12.36"/><rect class="cls-2" x="110" y="5" width="12.35" height="12.35"/><rect class="cls-2" x="97.65" y="54.41" width="12.36" height="12.35"/><rect class="cls-2" x="97.65" y="42.06" width="12.36" height="12.35"/><rect class="cls-2" x="97.65" y="29.71" width="12.36" height="12.35"/><rect class="cls-2" x="97.65" y="17.35" width="12.36" height="12.36"/><rect class="cls-2" x="97.65" y="5" width="12.36" height="12.35"/><rect class="cls-2" x="85.3" y="54.41" width="12.35" height="12.35"/><rect class="cls-2" x="85.3" y="42.06" width="12.35" height="12.35"/><rect class="cls-2" x="85.3" y="29.71" width="12.35" height="12.35"/><rect class="cls-2" x="85.3" y="17.35" width="12.35" height="12.36"/><rect class="cls-2" x="85.3" y="5" width="12.35" height="12.35"/><rect class="cls-2" x="72.94" y="54.41" width="12.35" height="12.35"/><rect class="cls-2" x="72.94" y="42.06" width="12.35" height="12.35"/><rect class="cls-2" x="72.94" y="29.71" width="12.35" height="12.35"/><rect class="cls-2" x="72.94" y="17.35" width="12.35" height="12.36"/><rect class="cls-2" x="60.59" y="54.41" width="12.35" height="12.35"/><rect class="cls-2" x="60.59" y="42.06" width="12.35" height="12.35"/><rect class="cls-2" x="60.59" y="29.71" width="12.35" height="12.35"/><rect class="cls-2" x="60.59" y="17.35" width="12.35" height="12.36"/><rect class="cls-2" x="48.24" y="54.41" width="12.36" height="12.35"/><rect class="cls-2" x="48.24" y="42.06" width="12.36" height="12.35"/><rect class="cls-2" x="48.24" y="29.71" width="12.36" height="12.35"/><rect class="cls-2" x="35.88" y="54.41" width="12.35" height="12.35"/><rect class="cls-2" x="35.88" y="42.06" width="12.35" height="12.35"/><rect class="cls-2" x="35.88" y="29.71" width="12.35" height="12.35"/><rect class="cls-2" x="23.53" y="54.41" width="12.35" height="12.35"/><rect class="cls-2" x="23.53" y="42.06" width="12.35" height="12.35"/><rect class="cls-1" x="11.18" y="54.41" width="12.36" height="12.35"/><rect class="cls-3" x="196.47" y="54.41" width="12.35" height="12.35"/><rect class="cls-2" x="184.12" y="54.41" width="12.35" height="12.35"/><rect class="cls-2" x="184.12" y="42.06" width="12.35" height="12.35"/><rect class="cls-2" x="171.76" y="54.41" width="12.36" height="12.35"/><rect class="cls-2" x="171.76" y="42.06" width="12.36" height="12.35"/><rect class="cls-2" x="171.76" y="29.71" width="12.36" height="12.35"/><rect class="cls-2" x="159.41" y="54.41" width="12.35" height="12.35"/><rect class="cls-2" x="159.41" y="42.06" width="12.35" height="12.35"/><rect class="cls-2" x="159.41" y="29.71" width="12.35" height="12.35"/><rect class="cls-2" x="147.06" y="54.41" width="12.35" height="12.35"/><rect class="cls-2" x="147.06" y="42.06" width="12.35" height="12.35"/><rect class="cls-2" x="147.06" y="29.71" width="12.35" height="12.35"/><rect class="cls-2" x="147.06" y="17.35" width="12.35" height="12.36"/><rect class="cls-3" x="134.71" y="153.24" width="12.35" height="12.35"/><rect class="cls-3" x="134.71" y="140.88" width="12.35" height="12.35"/><rect class="cls-3" x="134.71" y="128.53" width="12.35" height="12.35"/><rect class="cls-3" x="134.71" y="116.18" width="12.35" height="12.36"/><rect class="cls-3" x="134.71" y="103.82" width="12.35" height="12.35"/><rect class="cls-3" x="134.71" y="91.47" width="12.35" height="12.35"/><rect class="cls-2" x="134.71" y="79.12" width="12.35" height="12.35"/><rect class="cls-2" x="134.71" y="66.76" width="12.35" height="12.36"/><rect class="cls-3" x="122.36" y="153.24" width="12.35" height="12.35"/><rect class="cls-3" x="122.36" y="140.88" width="12.35" height="12.35"/><rect class="cls-3" x="122.36" y="128.53" width="12.35" height="12.35"/><rect class="cls-3" x="122.36" y="116.18" width="12.35" height="12.36"/><rect class="cls-3" x="122.36" y="103.82" width="12.35" height="12.35"/><rect class="cls-3" x="122.36" y="91.47" width="12.35" height="12.35"/><rect class="cls-2" x="122.36" y="79.12" width="12.35" height="12.35"/><rect class="cls-2" x="122.36" y="66.76" width="12.35" height="12.36"/><rect class="cls-3" x="110" y="153.24" width="12.35" height="12.35"/><rect class="cls-3" x="110" y="140.88" width="12.35" height="12.35"/><rect class="cls-3" x="110" y="128.53" width="12.35" height="12.35"/><rect class="cls-3" x="110" y="116.18" width="12.35" height="12.36"/><rect class="cls-3" x="110" y="103.82" width="12.35" height="12.35"/><rect class="cls-2" x="110" y="91.47" width="12.35" height="12.35"/><rect class="cls-2" x="110" y="79.12" width="12.35" height="12.35"/><rect class="cls-2" x="110" y="66.76" width="12.35" height="12.36"/><rect class="cls-1" x="97.65" y="153.24" width="12.36" height="12.35"/><rect class="cls-1" x="97.65" y="140.88" width="12.36" height="12.35"/><rect class="cls-1" x="97.65" y="128.53" width="12.36" height="12.35"/><rect class="cls-1" x="97.65" y="116.18" width="12.36" height="12.36"/><rect class="cls-1" x="97.65" y="103.82" width="12.36" height="12.35"/><rect class="cls-2" x="97.65" y="91.47" width="12.36" height="12.35"/><rect class="cls-2" x="97.65" y="79.12" width="12.36" height="12.35"/><rect class="cls-2" x="97.65" y="66.76" width="12.36" height="12.36"/><rect class="cls-1" x="85.3" y="153.24" width="12.35" height="12.35"/><rect class="cls-1" x="85.3" y="140.88" width="12.35" height="12.35"/><rect class="cls-1" x="85.3" y="128.53" width="12.35" height="12.35"/><rect class="cls-1" x="85.3" y="116.18" width="12.35" height="12.36"/><rect class="cls-1" x="85.3" y="103.82" width="12.35" height="12.35"/><rect class="cls-1" x="85.3" y="91.47" width="12.35" height="12.35"/><rect class="cls-2" x="85.3" y="79.12" width="12.35" height="12.35"/><rect class="cls-2" x="85.3" y="66.76" width="12.35" height="12.36"/><rect class="cls-1" x="72.94" y="153.24" width="12.35" height="12.35"/><rect class="cls-1" x="72.94" y="140.88" width="12.35" height="12.35"/><rect class="cls-1" x="72.94" y="128.53" width="12.35" height="12.35"/><rect class="cls-1" x="72.94" y="116.18" width="12.35" height="12.36"/><rect class="cls-1" x="72.94" y="103.82" width="12.35" height="12.35"/><rect class="cls-1" x="72.94" y="91.47" width="12.35" height="12.35"/><rect class="cls-2" x="72.94" y="79.12" width="12.35" height="12.35"/><rect class="cls-2" x="72.94" y="66.76" width="12.35" height="12.36"/><rect class="cls-1" x="60.59" y="153.24" width="12.35" height="12.35"/><rect class="cls-1" x="60.59" y="140.88" width="12.35" height="12.35"/><rect class="cls-1" x="60.59" y="128.53" width="12.35" height="12.35"/><rect class="cls-1" x="60.59" y="116.18" width="12.35" height="12.36"/><rect class="cls-1" x="60.59" y="103.82" width="12.35" height="12.35"/><rect class="cls-1" x="60.59" y="91.47" width="12.35" height="12.35"/><rect class="cls-1" x="60.59" y="79.12" width="12.35" height="12.35"/><rect class="cls-2" x="60.59" y="66.76" width="12.35" height="12.36"/><rect class="cls-1" x="48.24" y="153.24" width="12.36" height="12.35"/><rect class="cls-1" x="48.24" y="140.88" width="12.36" height="12.35"/><rect class="cls-1" x="48.24" y="128.53" width="12.36" height="12.35"/><rect class="cls-1" x="48.24" y="116.18" width="12.36" height="12.36"/><rect class="cls-1" x="48.24" y="103.82" width="12.36" height="12.35"/><rect class="cls-1" x="48.24" y="91.47" width="12.36" height="12.35"/><rect class="cls-1" x="48.24" y="79.12" width="12.36" height="12.35"/><rect class="cls-2" x="48.24" y="66.76" width="12.36" height="12.36"/><rect class="cls-1" x="35.88" y="153.24" width="12.35" height="12.35"/><rect class="cls-1" x="35.88" y="140.88" width="12.35" height="12.35"/><rect class="cls-1" x="35.88" y="128.53" width="12.35" height="12.35"/><rect class="cls-1" x="35.88" y="116.18" width="12.35" height="12.36"/><rect class="cls-1" x="35.88" y="103.82" width="12.35" height="12.35"/><rect class="cls-1" x="35.88" y="91.47" width="12.35" height="12.35"/><rect class="cls-1" x="35.88" y="79.12" width="12.35" height="12.35"/><rect class="cls-1" x="35.88" y="66.76" width="12.35" height="12.36"/><rect class="cls-1" x="23.53" y="153.24" width="12.35" height="12.35"/><rect class="cls-1" x="23.53" y="140.88" width="12.35" height="12.35"/><rect class="cls-1" x="23.53" y="128.53" width="12.35" height="12.35"/><rect class="cls-1" x="23.53" y="116.18" width="12.35" height="12.36"/><rect class="cls-1" x="23.53" y="103.82" width="12.35" height="12.35"/><rect class="cls-1" x="23.53" y="91.47" width="12.35" height="12.35"/><rect class="cls-1" x="23.53" y="79.12" width="12.35" height="12.35"/><rect class="cls-1" x="23.53" y="66.76" width="12.35" height="12.36"/><rect class="cls-1" x="11.18" y="153.24" width="12.36" height="12.35"/><rect class="cls-1" x="11.18" y="140.88" width="12.36" height="12.35"/><rect class="cls-1" x="11.18" y="128.53" width="12.36" height="12.35"/><rect class="cls-1" x="11.18" y="116.18" width="12.36" height="12.36"/><rect class="cls-1" x="11.18" y="103.82" width="12.36" height="12.35"/><rect class="cls-1" x="11.18" y="91.47" width="12.36" height="12.35"/><rect class="cls-1" x="11.18" y="79.12" width="12.36" height="12.35"/><rect class="cls-1" x="11.18" y="66.76" width="12.36" height="12.36"/><rect class="cls-3" x="196.47" y="153.24" width="12.35" height="12.35"/><rect class="cls-3" x="196.47" y="140.88" width="12.35" height="12.35"/><rect class="cls-3" x="196.47" y="128.53" width="12.35" height="12.35"/><rect class="cls-3" x="196.47" y="116.18" width="12.35" height="12.36"/><rect class="cls-3" x="196.47" y="103.82" width="12.35" height="12.35"/><rect class="cls-3" x="196.47" y="91.47" width="12.35" height="12.35"/><rect class="cls-3" x="196.47" y="79.12" width="12.35" height="12.35"/><rect class="cls-3" x="196.47" y="66.76" width="12.35" height="12.36"/><rect class="cls-3" x="184.12" y="153.24" width="12.35" height="12.35"/><rect class="cls-3" x="184.12" y="140.88" width="12.35" height="12.35"/><rect class="cls-3" x="184.12" y="128.53" width="12.35" height="12.35"/><rect class="cls-3" x="184.12" y="116.18" width="12.35" height="12.36"/><rect class="cls-3" x="184.12" y="103.82" width="12.35" height="12.35"/><rect class="cls-3" x="184.12" y="91.47" width="12.35" height="12.35"/><rect class="cls-3" x="184.12" y="79.12" width="12.35" height="12.35"/><rect class="cls-3" x="184.12" y="66.76" width="12.35" height="12.36"/><rect class="cls-3" x="171.76" y="153.24" width="12.36" height="12.35"/><rect class="cls-3" x="171.76" y="140.88" width="12.36" height="12.35"/><rect class="cls-3" x="171.76" y="128.53" width="12.36" height="12.35"/><rect class="cls-3" x="171.76" y="116.18" width="12.36" height="12.36"/><rect class="cls-3" x="171.76" y="103.82" width="12.36" height="12.35"/><rect class="cls-3" x="171.76" y="91.47" width="12.36" height="12.35"/><rect class="cls-3" x="171.76" y="79.12" width="12.36" height="12.35"/><rect class="cls-3" x="171.76" y="66.76" width="12.36" height="12.36"/><rect class="cls-3" x="159.41" y="153.24" width="12.35" height="12.35"/><rect class="cls-3" x="159.41" y="140.88" width="12.35" height="12.35"/><rect class="cls-3" x="159.41" y="128.53" width="12.35" height="12.35"/><rect class="cls-3" x="159.41" y="116.18" width="12.35" height="12.36"/><rect class="cls-3" x="159.41" y="103.82" width="12.35" height="12.35"/><rect class="cls-3" x="159.41" y="91.47" width="12.35" height="12.35"/><rect class="cls-3" x="159.41" y="79.12" width="12.35" height="12.35"/><rect class="cls-2" x="159.41" y="66.76" width="12.35" height="12.36"/><rect class="cls-3" x="147.06" y="153.24" width="12.35" height="12.35"/><rect class="cls-3" x="147.06" y="140.88" width="12.35" height="12.35"/><rect class="cls-3" x="147.06" y="128.53" width="12.35" height="12.35"/><rect class="cls-3" x="147.06" y="116.18" width="12.35" height="12.36"/><rect class="cls-3" x="147.06" y="103.82" width="12.35" height="12.35"/><rect class="cls-3" x="147.06" y="91.47" width="12.35" height="12.35"/><rect class="cls-3" x="147.06" y="79.12" width="12.35" height="12.35"/><rect class="cls-2" x="147.06" y="66.76" width="12.35" height="12.36"/><rect class="cls-3" x="134.71" y="190.3" width="12.35" height="12.35"/><rect class="cls-3" x="134.71" y="177.94" width="12.35" height="12.35"/><rect class="cls-3" x="134.71" y="165.59" width="12.35" height="12.36"/><rect class="cls-3" x="122.36" y="202.65" width="12.35" height="12.35"/><rect class="cls-3" x="122.36" y="190.3" width="12.35" height="12.35"/><rect class="cls-3" x="122.36" y="177.94" width="12.35" height="12.35"/><rect class="cls-3" x="122.36" y="165.59" width="12.35" height="12.36"/><rect class="cls-3" x="110" y="202.65" width="12.35" height="12.35"/><rect class="cls-3" x="110" y="190.3" width="12.35" height="12.35"/><rect class="cls-3" x="110" y="177.94" width="12.35" height="12.35"/><rect class="cls-3" x="110" y="165.59" width="12.35" height="12.36"/><rect class="cls-1" x="97.65" y="202.65" width="12.36" height="12.35"/><rect class="cls-1" x="97.65" y="190.3" width="12.36" height="12.35"/><rect class="cls-1" x="97.65" y="177.94" width="12.36" height="12.35"/><rect class="cls-1" x="97.65" y="165.59" width="12.36" height="12.36"/><rect class="cls-1" x="85.3" y="202.65" width="12.35" height="12.35"/><rect class="cls-1" x="85.3" y="190.3" width="12.35" height="12.35"/><rect class="cls-1" x="85.3" y="177.94" width="12.35" height="12.35"/><rect class="cls-1" x="85.3" y="165.59" width="12.35" height="12.36"/><rect class="cls-1" x="72.94" y="190.3" width="12.35" height="12.35"/><rect class="cls-1" x="72.94" y="177.94" width="12.35" height="12.35"/><rect class="cls-1" x="72.94" y="165.59" width="12.35" height="12.36"/><rect class="cls-1" x="60.59" y="190.3" width="12.35" height="12.35"/><rect class="cls-1" x="60.59" y="177.94" width="12.35" height="12.35"/><rect class="cls-1" x="60.59" y="165.59" width="12.35" height="12.36"/><rect class="cls-1" x="48.24" y="177.94" width="12.36" height="12.35"/><rect class="cls-1" x="48.24" y="165.59" width="12.36" height="12.36"/><rect class="cls-1" x="35.88" y="177.94" width="12.35" height="12.35"/><rect class="cls-1" x="35.88" y="165.59" width="12.35" height="12.36"/><rect class="cls-1" x="23.53" y="165.59" width="12.35" height="12.36"/><rect class="cls-3" x="184.12" y="165.59" width="12.35" height="12.36"/><rect class="cls-3" x="171.76" y="177.94" width="12.36" height="12.35"/><rect class="cls-3" x="171.76" y="165.59" width="12.36" height="12.36"/><rect class="cls-3" x="159.41" y="177.94" width="12.35" height="12.35"/><rect class="cls-3" x="159.41" y="165.59" width="12.35" height="12.36"/><rect class="cls-3" x="147.06" y="190.3" width="12.35" height="12.35"/><rect class="cls-3" x="147.06" y="177.94" width="12.35" height="12.35"/><rect class="cls-3" x="147.06" y="165.59" width="12.35" height="12.36"/></g><rect x="32.84" y="100.71" width="17.19" height="17.19"/><rect x="53.79" y="131" width="17.19" height="17.19"/><rect x="74.74" y="159.27" width="17.19" height="17.19"/><rect x="162.82" y="100.71" width="17.19" height="17.19"/><rect x="133.62" y="157.66" width="17.19" height="17.19"/><rect x="101.41" y="49.57" width="17.19" height="17.19"/></svg>