<?xml version="1.0" encoding="UTF-8"?><svg id="Layer_1" xmlns="http://www.w3.org/2000/svg" viewBox="0 0 220 175"><defs><style>.cls-1{fill:#5662f6;}.cls-2{fill:#414ab9;}.cls-3{fill:#5368ed;}</style></defs><rect class="cls-1" x="131" y="40.25" width="10.5" height="10.5"/><rect class="cls-1" x="131" y="29.75" width="10.5" height="10.5"/><rect class="cls-1" x="131" y="19.25" width="10.5" height="10.5"/><rect class="cls-1" x="131" y="8.75" width="10.5" height="10.5"/><rect class="cls-1" x="120.5" y="40.25" width="10.5" height="10.5"/><rect class="cls-1" x="120.5" y="29.75" width="10.5" height="10.5"/><rect class="cls-1" x="120.5" y="19.25" width="10.5" height="10.5"/><rect class="cls-1" x="110" y="40.25" width="10.5" height="10.5"/><rect class="cls-1" x="110" y="29.75" width="10.5" height="10.5"/><rect class="cls-1" x="99.5" y="40.25" width="10.5" height="10.5"/><rect class="cls-1" x="99.5" y="29.75" width="10.5" height="10.5"/><rect class="cls-1" x="89" y="40.25" width="10.5" height="10.5"/><rect class="cls-1" x="89" y="29.75" width="10.5" height="10.5"/><rect class="cls-1" x="89" y="19.25" width="10.5" height="10.5"/><rect class="cls-1" x="78.5" y="40.25" width="10.5" height="10.5"/><rect class="cls-1" x="78.5" y="29.75" width="10.5" height="10.5"/><rect class="cls-1" x="78.5" y="19.25" width="10.5" height="10.5"/><rect class="cls-1" x="78.5" y="8.75" width="10.5" height="10.5"/><rect class="cls-1" x="68" y="40.25" width="10.5" height="10.5"/><rect class="cls-1" x="68" y="29.75" width="10.5" height="10.5"/><rect class="cls-1" x="68" y="19.25" width="10.5" height="10.5"/><rect class="cls-1" x="68" y="8.75" width="10.5" height="10.5"/><rect class="cls-1" x="57.5" y="40.25" width="10.5" height="10.5"/><rect class="cls-1" x="57.5" y="29.75" width="10.5" height="10.5"/><rect class="cls-1" x="57.5" y="19.25" width="10.5" height="10.5"/><rect class="cls-1" x="57.5" y="8.75" width="10.5" height="10.5"/><rect class="cls-1" x="47" y="40.25" width="10.5" height="10.5"/><rect class="cls-1" x="47" y="29.75" width="10.5" height="10.5"/><rect class="cls-1" x="47" y="19.25" width="10.5" height="10.5"/><rect class="cls-1" x="36.5" y="40.25" width="10.5" height="10.5"/><rect class="cls-1" x="36.5" y="29.75" width="10.5" height="10.5"/><rect class="cls-1" x="173" y="40.25" width="10.5" height="10.5"/><rect class="cls-1" x="173" y="29.75" width="10.5" height="10.5"/><rect class="cls-1" x="162.5" y="40.25" width="10.5" height="10.5"/><rect class="cls-1" x="162.5" y="29.75" width="10.5" height="10.5"/><rect class="cls-1" x="162.5" y="19.25" width="10.5" height="10.5"/><rect class="cls-1" x="152" y="40.25" width="10.5" height="10.5"/><rect class="cls-1" x="152" y="29.75" width="10.5" height="10.5"/><rect class="cls-1" x="152" y="19.25" width="10.5" height="10.5"/><rect class="cls-1" x="152" y="8.75" width="10.5" height="10.5"/><rect class="cls-1" x="141.5" y="40.25" width="10.5" height="10.5"/><rect class="cls-1" x="141.5" y="29.75" width="10.5" height="10.5"/><rect class="cls-1" x="141.5" y="19.25" width="10.5" height="10.5"/><rect class="cls-1" x="141.5" y="8.75" width="10.5" height="10.5"/><rect class="cls-3" x="131" y="124.25" width="10.5" height="10.5"/><rect class="cls-1" x="131" y="113.75" width="10.5" height="10.5"/><rect class="cls-1" x="131" y="103.25" width="10.5" height="10.5"/><rect class="cls-2" x="131" y="50.75" width="10.5" height="10.5"/><rect class="cls-3" x="120.5" y="124.25" width="10.5" height="10.5"/><rect class="cls-1" x="120.5" y="113.75" width="10.5" height="10.5"/><rect class="cls-1" x="120.5" y="103.25" width="10.5" height="10.5"/><rect class="cls-1" x="120.5" y="92.75" width="10.5" height="10.5"/><rect class="cls-2" x="120.5" y="61.25" width="10.5" height="10.5"/><rect class="cls-1" x="120.5" y="50.75" width="10.5" height="10.5"/><rect class="cls-3" x="110" y="124.25" width="10.5" height="10.5"/><rect class="cls-1" x="110" y="113.75" width="10.5" height="10.5"/><rect class="cls-1" x="110" y="103.25" width="10.5" height="10.5"/><rect class="cls-1" x="110" y="92.75" width="10.5" height="10.5"/><rect class="cls-1" x="110" y="82.25" width="10.5" height="10.5"/><rect class="cls-1" x="110" y="71.75" width="10.5" height="10.5"/><rect class="cls-1" x="110" y="61.25" width="10.5" height="10.5"/><rect class="cls-1" x="110" y="50.75" width="10.5" height="10.5"/><rect class="cls-3" x="99.5" y="124.25" width="10.5" height="10.5"/><rect class="cls-1" x="99.5" y="113.75" width="10.5" height="10.5"/><rect class="cls-1" x="99.5" y="103.25" width="10.5" height="10.5"/><rect class="cls-1" x="99.5" y="92.75" width="10.5" height="10.5"/><rect class="cls-1" x="99.5" y="82.25" width="10.5" height="10.5"/><rect class="cls-1" x="99.5" y="71.75" width="10.5" height="10.5"/><rect class="cls-1" x="99.5" y="61.25" width="10.5" height="10.5"/><rect class="cls-1" x="99.5" y="50.75" width="10.5" height="10.5"/><rect class="cls-3" x="89" y="124.25" width="10.5" height="10.5"/><rect class="cls-1" x="89" y="113.75" width="10.5" height="10.5"/><rect class="cls-1" x="89" y="103.25" width="10.5" height="10.5"/><rect class="cls-1" x="89" y="92.75" width="10.5" height="10.5"/><rect class="cls-2" x="89" y="61.25" width="10.5" height="10.5"/><rect class="cls-1" x="89" y="50.75" width="10.5" height="10.5"/><rect class="cls-3" x="78.5" y="124.25" width="10.5" height="10.5"/><rect class="cls-1" x="78.5" y="113.75" width="10.5" height="10.5"/><rect class="cls-1" x="78.5" y="103.25" width="10.5" height="10.5"/><rect class="cls-2" x="78.5" y="50.75" width="10.5" height="10.5"/><rect class="cls-2" x="68" y="124.25" width="10.5" height="10.5"/><rect class="cls-3" x="68" y="113.75" width="10.5" height="10.5"/><rect class="cls-1" x="68" y="103.25" width="10.5" height="10.5"/><rect class="cls-2" x="68" y="50.75" width="10.5" height="10.5"/><rect class="cls-2" x="57.5" y="124.25" width="10.5" height="10.5"/><rect class="cls-3" x="57.5" y="113.75" width="10.5" height="10.5"/><rect class="cls-1" x="57.5" y="103.25" width="10.5" height="10.5"/><rect class="cls-1" x="57.5" y="92.75" width="10.5" height="10.5"/><rect class="cls-2" x="57.5" y="61.25" width="10.5" height="10.5"/><rect class="cls-1" x="57.5" y="50.75" width="10.5" height="10.5"/><rect class="cls-1" x="47" y="124.25" width="10.5" height="10.5"/><rect class="cls-1" x="47" y="113.75" width="10.5" height="10.5"/><rect class="cls-1" x="47" y="103.25" width="10.5" height="10.5"/><rect class="cls-1" x="47" y="92.75" width="10.5" height="10.5"/><rect class="cls-1" x="47" y="82.25" width="10.5" height="10.5"/><rect class="cls-1" x="47" y="71.75" width="10.5" height="10.5"/><rect class="cls-1" x="47" y="61.25" width="10.5" height="10.5"/><rect class="cls-1" x="47" y="50.75" width="10.5" height="10.5"/><rect class="cls-1" x="36.5" y="124.25" width="10.5" height="10.5"/><rect class="cls-1" x="36.5" y="113.75" width="10.5" height="10.5"/><rect class="cls-1" x="36.5" y="103.25" width="10.5" height="10.5"/><rect class="cls-1" x="36.5" y="92.75" width="10.5" height="10.5"/><rect class="cls-1" x="36.5" y="82.25" width="10.5" height="10.5"/><rect class="cls-1" x="36.5" y="71.75" width="10.5" height="10.5"/><rect class="cls-1" x="36.5" y="61.25" width="10.5" height="10.5"/><rect class="cls-1" x="36.5" y="50.75" width="10.5" height="10.5"/><rect class="cls-1" x="26" y="124.25" width="10.5" height="10.5"/><rect class="cls-1" x="26" y="113.75" width="10.5" height="10.5"/><rect class="cls-1" x="26" y="103.25" width="10.5" height="10.5"/><rect class="cls-1" x="26" y="92.75" width="10.5" height="10.5"/><rect class="cls-1" x="26" y="82.25" width="10.5" height="10.5"/><rect class="cls-1" x="26" y="71.75" width="10.5" height="10.5"/><rect class="cls-1" x="26" y="61.25" width="10.5" height="10.5"/><rect class="cls-1" x="26" y="50.75" width="10.5" height="10.5"/><rect class="cls-2" x="15.5" y="124.25" width="10.5" height="10.5"/><rect class="cls-1" x="15.5" y="113.75" width="10.5" height="10.5"/><rect class="cls-1" x="15.5" y="103.25" width="10.5" height="10.5"/><rect class="cls-1" x="15.5" y="92.75" width="10.5" height="10.5"/><rect class="cls-1" x="15.5" y="82.25" width="10.5" height="10.5"/><rect class="cls-1" x="15.5" y="71.75" width="10.5" height="10.5"/><rect class="cls-2" x="5" y="113.75" width="10.5" height="10.5"/><rect class="cls-1" x="5" y="103.25" width="10.5" height="10.5"/><rect class="cls-1" x="5" y="92.75" width="10.5" height="10.5"/><rect class="cls-2" x="204.5" y="113.75" width="10.5" height="10.5"/><rect class="cls-1" x="204.5" y="103.25" width="10.5" height="10.5"/><rect class="cls-1" x="204.5" y="92.75" width="10.5" height="10.5"/><rect class="cls-2" x="194" y="124.25" width="10.5" height="10.5"/><rect class="cls-1" x="194" y="113.75" width="10.5" height="10.5"/><rect class="cls-1" x="194" y="103.25" width="10.5" height="10.5"/><rect class="cls-1" x="194" y="92.75" width="10.5" height="10.5"/><rect class="cls-1" x="194" y="82.25" width="10.5" height="10.5"/><rect class="cls-1" x="194" y="71.75" width="10.5" height="10.5"/><rect class="cls-1" x="183.5" y="124.25" width="10.5" height="10.5"/><rect class="cls-1" x="183.5" y="113.75" width="10.5" height="10.5"/><rect class="cls-1" x="183.5" y="103.25" width="10.5" height="10.5"/><rect class="cls-1" x="183.5" y="92.75" width="10.5" height="10.5"/><rect class="cls-1" x="183.5" y="82.25" width="10.5" height="10.5"/><rect class="cls-1" x="183.5" y="71.75" width="10.5" height="10.5"/><rect class="cls-1" x="183.5" y="61.25" width="10.5" height="10.5"/><rect class="cls-1" x="183.5" y="50.75" width="10.5" height="10.5"/><rect class="cls-1" x="173" y="124.25" width="10.5" height="10.5"/><rect class="cls-1" x="173" y="113.75" width="10.5" height="10.5"/><rect class="cls-1" x="173" y="103.25" width="10.5" height="10.5"/><rect class="cls-1" x="173" y="92.75" width="10.5" height="10.5"/><rect class="cls-1" x="173" y="82.25" width="10.5" height="10.5"/><rect class="cls-1" x="173" y="71.75" width="10.5" height="10.5"/><rect class="cls-1" x="173" y="61.25" width="10.5" height="10.5"/><rect class="cls-1" x="173" y="50.75" width="10.5" height="10.5"/><rect class="cls-1" x="162.5" y="124.25" width="10.5" height="10.5"/><rect class="cls-1" x="162.5" y="113.75" width="10.5" height="10.5"/><rect class="cls-1" x="162.5" y="103.25" width="10.5" height="10.5"/><rect class="cls-1" x="162.5" y="92.75" width="10.5" height="10.5"/><rect class="cls-1" x="162.5" y="82.25" width="10.5" height="10.5"/><rect class="cls-1" x="162.5" y="71.75" width="10.5" height="10.5"/><rect class="cls-1" x="162.5" y="61.25" width="10.5" height="10.5"/><rect class="cls-1" x="162.5" y="50.75" width="10.5" height="10.5"/><rect class="cls-2" x="152" y="124.25" width="10.5" height="10.5"/><rect class="cls-1" x="152" y="113.75" width="10.5" height="10.5"/><rect class="cls-1" x="152" y="103.25" width="10.5" height="10.5"/><rect class="cls-1" x="152" y="92.75" width="10.5" height="10.5"/><rect class="cls-2" x="152" y="61.25" width="10.5" height="10.5"/><rect class="cls-1" x="152" y="50.75" width="10.5" height="10.5"/><rect class="cls-2" x="141.5" y="124.25" width="10.5" height="10.5"/><rect class="cls-1" x="141.5" y="113.75" width="10.5" height="10.5"/><rect class="cls-1" x="141.5" y="103.25" width="10.5" height="10.5"/><rect class="cls-2" x="141.5" y="50.75" width="10.5" height="10.5"/><rect class="cls-2" x="131" y="145.25" width="10.5" height="10.5"/><rect class="cls-2" x="131" y="134.75" width="10.5" height="10.5"/><rect class="cls-2" x="120.5" y="134.75" width="10.5" height="10.5"/><rect class="cls-2" x="110" y="134.75" width="10.5" height="10.5"/><rect class="cls-2" x="99.5" y="134.75" width="10.5" height="10.5"/><rect class="cls-2" x="89" y="134.75" width="10.5" height="10.5"/><rect class="cls-2" x="78.5" y="145.25" width="10.5" height="10.5"/><rect class="cls-2" x="78.5" y="134.75" width="10.5" height="10.5"/><rect class="cls-2" x="68" y="155.75" width="10.5" height="10.5"/><rect class="cls-1" x="68" y="145.25" width="10.5" height="10.5"/><rect class="cls-2" x="68" y="134.75" width="10.5" height="10.5"/><rect class="cls-2" x="57.5" y="155.75" width="10.5" height="10.5"/><rect class="cls-1" x="57.5" y="145.25" width="10.5" height="10.5"/><rect class="cls-1" x="57.5" y="134.75" width="10.5" height="10.5"/><rect class="cls-2" x="47" y="155.75" width="10.5" height="10.5"/><rect class="cls-1" x="47" y="145.25" width="10.5" height="10.5"/><rect class="cls-1" x="47" y="134.75" width="10.5" height="10.5"/><rect class="cls-2" x="36.5" y="145.25" width="10.5" height="10.5"/><rect class="cls-1" x="36.5" y="134.75" width="10.5" height="10.5"/><rect class="cls-2" x="26" y="134.75" width="10.5" height="10.5"/><rect class="cls-2" x="183.5" y="134.75" width="10.5" height="10.5"/><rect class="cls-2" x="173" y="145.25" width="10.5" height="10.5"/><rect class="cls-1" x="173" y="134.75" width="10.5" height="10.5"/><rect class="cls-2" x="162.5" y="155.75" width="10.5" height="10.5"/><rect class="cls-1" x="162.5" y="145.25" width="10.5" height="10.5"/><rect class="cls-1" x="162.5" y="134.75" width="10.5" height="10.5"/><rect class="cls-2" x="152" y="155.75" width="10.5" height="10.5"/><rect class="cls-1" x="152" y="145.25" width="10.5" height="10.5"/><rect class="cls-1" x="152" y="134.75" width="10.5" height="10.5"/><rect class="cls-2" x="141.5" y="155.75" width="10.5" height="10.5"/><rect class="cls-1" x="141.5" y="145.25" width="10.5" height="10.5"/><rect class="cls-2" x="141.5" y="134.75" width="10.5" height="10.5"/></svg>