<?xml version="1.0" encoding="UTF-8"?><svg id="Layer_1" xmlns="http://www.w3.org/2000/svg" viewBox="0 0 175 220"><defs><style>.cls-1{fill:#fff;}</style></defs><g><rect class="cls-1" x="118.38" y="54.41" width="12.35" height="12.35"/><rect class="cls-1" x="118.38" y="42.06" width="12.35" height="12.35"/><rect class="cls-1" x="118.38" y="29.71" width="12.35" height="12.35"/><rect class="cls-1" x="118.38" y="17.35" width="12.35" height="12.36"/><rect class="cls-1" x="118.38" y="5" width="12.35" height="12.35"/><rect class="cls-1" x="106.03" y="54.41" width="12.35" height="12.35"/><rect class="cls-1" x="106.03" y="42.06" width="12.35" height="12.35"/><rect class="cls-1" x="106.03" y="29.71" width="12.35" height="12.35"/><rect class="cls-1" x="106.03" y="17.35" width="12.35" height="12.36"/><rect class="cls-1" x="106.03" y="5" width="12.35" height="12.35"/><rect class="cls-1" x="93.68" y="54.41" width="12.35" height="12.35"/><rect class="cls-1" x="93.68" y="42.06" width="12.35" height="12.35"/><rect class="cls-1" x="93.68" y="29.71" width="12.35" height="12.35"/><rect class="cls-1" x="93.68" y="17.35" width="12.35" height="12.36"/><rect class="cls-1" x="93.68" y="5" width="12.35" height="12.35"/><rect class="cls-1" x="81.32" y="54.41" width="12.36" height="12.35"/><rect class="cls-1" x="81.32" y="42.06" width="12.36" height="12.35"/><rect class="cls-1" x="81.32" y="29.71" width="12.36" height="12.35"/><rect class="cls-1" x="81.32" y="17.35" width="12.36" height="12.36"/><rect class="cls-1" x="81.32" y="5" width="12.36" height="12.35"/><rect class="cls-1" x="68.97" y="54.41" width="12.35" height="12.35"/><rect class="cls-1" x="68.97" y="42.06" width="12.35" height="12.35"/><rect class="cls-1" x="68.97" y="29.71" width="12.35" height="12.35"/><rect class="cls-1" x="68.97" y="17.35" width="12.35" height="12.36"/><rect class="cls-1" x="68.97" y="5" width="12.35" height="12.35"/><rect x="56.62" y="54.41" width="12.35" height="12.35"/><rect x="56.62" y="42.06" width="12.35" height="12.35"/><rect x="56.62" y="29.71" width="12.35" height="12.35"/><rect x="56.62" y="17.35" width="12.35" height="12.36"/><rect x="56.62" y="5" width="12.35" height="12.35"/><rect x="44.27" y="54.41" width="12.35" height="12.35"/><rect class="cls-1" x="44.27" y="42.06" width="12.35" height="12.35"/><rect class="cls-1" x="44.27" y="29.71" width="12.35" height="12.35"/><rect class="cls-1" x="44.27" y="17.35" width="12.35" height="12.36"/><rect class="cls-1" x="44.27" y="5" width="12.35" height="12.35"/><rect x="31.91" y="54.41" width="12.36" height="12.35"/><rect class="cls-1" x="31.91" y="42.06" width="12.36" height="12.35"/><rect class="cls-1" x="31.91" y="29.71" width="12.36" height="12.35"/><rect class="cls-1" x="31.91" y="17.35" width="12.36" height="12.36"/><rect x="19.56" y="54.41" width="12.35" height="12.35"/><rect class="cls-1" x="19.56" y="42.06" width="12.35" height="12.35"/><rect class="cls-1" x="19.56" y="29.71" width="12.35" height="12.35"/><rect x="7.21" y="54.41" width="12.35" height="12.35"/><rect class="cls-1" x="7.21" y="42.06" width="12.35" height="12.35"/><rect class="cls-1" x="155.44" y="54.41" width="12.36" height="12.35"/><rect class="cls-1" x="155.44" y="42.06" width="12.36" height="12.35"/><rect class="cls-1" x="155.44" y="29.71" width="12.36" height="12.35"/><rect class="cls-1" x="155.44" y="17.35" width="12.36" height="12.36"/><rect class="cls-1" x="143.09" y="54.41" width="12.35" height="12.35"/><rect class="cls-1" x="143.09" y="42.06" width="12.35" height="12.35"/><rect class="cls-1" x="143.09" y="29.71" width="12.35" height="12.35"/><rect class="cls-1" x="143.09" y="17.35" width="12.35" height="12.36"/><rect class="cls-1" x="143.09" y="5" width="12.35" height="12.35"/><rect class="cls-1" x="130.73" y="54.41" width="12.35" height="12.35"/><rect class="cls-1" x="130.73" y="42.06" width="12.35" height="12.35"/><rect class="cls-1" x="130.73" y="29.71" width="12.35" height="12.35"/><rect class="cls-1" x="130.73" y="17.35" width="12.35" height="12.36"/><rect class="cls-1" x="130.73" y="5" width="12.35" height="12.35"/><rect class="cls-1" x="118.38" y="153.24" width="12.35" height="12.35"/><rect class="cls-1" x="118.38" y="140.88" width="12.35" height="12.35"/><rect class="cls-1" x="118.38" y="128.53" width="12.35" height="12.35"/><rect class="cls-1" x="118.38" y="116.18" width="12.35" height="12.36"/><rect class="cls-1" x="118.38" y="103.82" width="12.35" height="12.35"/><rect class="cls-1" x="118.38" y="91.47" width="12.35" height="12.35"/><rect class="cls-1" x="118.38" y="79.12" width="12.35" height="12.35"/><rect class="cls-1" x="118.38" y="66.76" width="12.35" height="12.36"/><rect class="cls-1" x="106.03" y="153.24" width="12.35" height="12.35"/><rect class="cls-1" x="106.03" y="140.88" width="12.35" height="12.35"/><rect class="cls-1" x="106.03" y="128.53" width="12.35" height="12.35"/><rect class="cls-1" x="106.03" y="116.18" width="12.35" height="12.36"/><rect class="cls-1" x="106.03" y="103.82" width="12.35" height="12.35"/><rect class="cls-1" x="106.03" y="91.47" width="12.35" height="12.35"/><rect class="cls-1" x="106.03" y="79.12" width="12.35" height="12.35"/><rect class="cls-1" x="106.03" y="66.76" width="12.35" height="12.36"/><rect class="cls-1" x="93.68" y="153.24" width="12.35" height="12.35"/><rect class="cls-1" x="93.68" y="140.88" width="12.35" height="12.35"/><rect class="cls-1" x="93.68" y="128.53" width="12.35" height="12.35"/><rect class="cls-1" x="93.68" y="116.18" width="12.35" height="12.36"/><rect class="cls-1" x="93.68" y="103.82" width="12.35" height="12.35"/><rect class="cls-1" x="93.68" y="91.47" width="12.35" height="12.35"/><rect class="cls-1" x="93.68" y="79.12" width="12.35" height="12.35"/><rect class="cls-1" x="93.68" y="66.76" width="12.35" height="12.36"/><rect class="cls-1" x="81.32" y="153.24" width="12.36" height="12.35"/><rect class="cls-1" x="81.32" y="140.88" width="12.36" height="12.35"/><rect class="cls-1" x="81.32" y="128.53" width="12.36" height="12.35"/><rect class="cls-1" x="81.32" y="116.18" width="12.36" height="12.36"/><rect class="cls-1" x="81.32" y="103.82" width="12.36" height="12.35"/><rect class="cls-1" x="81.32" y="91.47" width="12.36" height="12.35"/><rect class="cls-1" x="81.32" y="79.12" width="12.36" height="12.35"/><rect class="cls-1" x="81.32" y="66.76" width="12.36" height="12.36"/><rect class="cls-1" x="68.97" y="153.24" width="12.35" height="12.35"/><rect class="cls-1" x="68.97" y="140.88" width="12.35" height="12.35"/><rect class="cls-1" x="68.97" y="128.53" width="12.35" height="12.35"/><rect class="cls-1" x="68.97" y="116.18" width="12.35" height="12.36"/><rect class="cls-1" x="68.97" y="103.82" width="12.35" height="12.35"/><rect class="cls-1" x="68.97" y="91.47" width="12.35" height="12.35"/><rect class="cls-1" x="68.97" y="79.12" width="12.35" height="12.35"/><rect class="cls-1" x="68.97" y="66.76" width="12.35" height="12.36"/><rect class="cls-1" x="56.62" y="153.24" width="12.35" height="12.35"/><rect class="cls-1" x="56.62" y="140.88" width="12.35" height="12.35"/><rect class="cls-1" x="56.62" y="128.53" width="12.35" height="12.35"/><rect class="cls-1" x="56.62" y="116.18" width="12.35" height="12.36"/><rect class="cls-1" x="56.62" y="103.82" width="12.35" height="12.35"/><rect class="cls-1" x="56.62" y="91.47" width="12.35" height="12.35"/><rect class="cls-1" x="56.62" y="79.12" width="12.35" height="12.35"/><rect class="cls-1" x="56.62" y="66.76" width="12.35" height="12.36"/><rect class="cls-1" x="44.27" y="153.24" width="12.35" height="12.35"/><rect class="cls-1" x="44.27" y="140.88" width="12.35" height="12.35"/><rect class="cls-1" x="44.27" y="128.53" width="12.35" height="12.35"/><rect class="cls-1" x="44.27" y="116.18" width="12.35" height="12.36"/><rect class="cls-1" x="44.27" y="103.82" width="12.35" height="12.35"/><rect class="cls-1" x="44.27" y="91.47" width="12.35" height="12.35"/><rect class="cls-1" x="44.27" y="79.12" width="12.35" height="12.35"/><rect class="cls-1" x="44.27" y="66.76" width="12.35" height="12.36"/><rect class="cls-1" x="31.91" y="153.24" width="12.36" height="12.35"/><rect class="cls-1" x="31.91" y="140.88" width="12.36" height="12.35"/><rect class="cls-1" x="31.91" y="128.53" width="12.36" height="12.35"/><rect class="cls-1" x="31.91" y="116.18" width="12.36" height="12.36"/><rect class="cls-1" x="31.91" y="103.82" width="12.36" height="12.35"/><rect class="cls-1" x="31.91" y="91.47" width="12.36" height="12.35"/><rect class="cls-1" x="31.91" y="79.12" width="12.36" height="12.35"/><rect class="cls-1" x="31.91" y="66.76" width="12.36" height="12.36"/><rect class="cls-1" x="19.56" y="153.24" width="12.35" height="12.35"/><rect class="cls-1" x="19.56" y="140.88" width="12.35" height="12.35"/><rect class="cls-1" x="19.56" y="128.53" width="12.35" height="12.35"/><rect class="cls-1" x="19.56" y="116.18" width="12.35" height="12.36"/><rect class="cls-1" x="19.56" y="103.82" width="12.35" height="12.35"/><rect class="cls-1" x="19.56" y="91.47" width="12.35" height="12.35"/><rect class="cls-1" x="19.56" y="79.12" width="12.35" height="12.35"/><rect class="cls-1" x="19.56" y="66.76" width="12.35" height="12.36"/><rect class="cls-1" x="7.21" y="153.24" width="12.35" height="12.35"/><rect class="cls-1" x="7.21" y="140.88" width="12.35" height="12.35"/><rect class="cls-1" x="7.21" y="128.53" width="12.35" height="12.35"/><rect class="cls-1" x="7.21" y="116.18" width="12.35" height="12.36"/><rect class="cls-1" x="7.21" y="103.82" width="12.35" height="12.35"/><rect class="cls-1" x="7.21" y="91.47" width="12.35" height="12.35"/><rect class="cls-1" x="7.21" y="79.12" width="12.35" height="12.35"/><rect class="cls-1" x="7.21" y="66.76" width="12.35" height="12.36"/><rect class="cls-1" x="155.44" y="153.24" width="12.36" height="12.35"/><rect class="cls-1" x="155.44" y="140.88" width="12.36" height="12.35"/><rect class="cls-1" x="155.44" y="128.53" width="12.36" height="12.35"/><rect class="cls-1" x="155.44" y="116.18" width="12.36" height="12.36"/><rect class="cls-1" x="155.44" y="103.82" width="12.36" height="12.35"/><rect class="cls-1" x="155.44" y="91.47" width="12.36" height="12.35"/><rect class="cls-1" x="155.44" y="79.12" width="12.36" height="12.35"/><rect class="cls-1" x="155.44" y="66.76" width="12.36" height="12.36"/><rect class="cls-1" x="143.09" y="153.24" width="12.35" height="12.35"/><rect class="cls-1" x="143.09" y="140.88" width="12.35" height="12.35"/><rect class="cls-1" x="143.09" y="128.53" width="12.35" height="12.35"/><rect class="cls-1" x="143.09" y="116.18" width="12.35" height="12.36"/><rect class="cls-1" x="143.09" y="103.82" width="12.35" height="12.35"/><rect class="cls-1" x="143.09" y="91.47" width="12.35" height="12.35"/><rect class="cls-1" x="143.09" y="79.12" width="12.35" height="12.35"/><rect class="cls-1" x="143.09" y="66.76" width="12.35" height="12.36"/><rect class="cls-1" x="130.73" y="153.24" width="12.35" height="12.35"/><rect class="cls-1" x="130.73" y="140.88" width="12.35" height="12.35"/><rect class="cls-1" x="130.73" y="128.53" width="12.35" height="12.35"/><rect class="cls-1" x="130.73" y="116.18" width="12.35" height="12.36"/><rect class="cls-1" x="130.73" y="103.82" width="12.35" height="12.35"/><rect class="cls-1" x="130.73" y="91.47" width="12.35" height="12.35"/><rect class="cls-1" x="130.73" y="79.12" width="12.35" height="12.35"/><rect class="cls-1" x="130.73" y="66.76" width="12.35" height="12.36"/><rect class="cls-1" x="118.38" y="202.65" width="12.35" height="12.35"/><rect class="cls-1" x="118.38" y="190.3" width="12.35" height="12.35"/><rect class="cls-1" x="118.38" y="177.94" width="12.35" height="12.35"/><rect class="cls-1" x="118.38" y="165.59" width="12.35" height="12.36"/><rect class="cls-1" x="106.03" y="202.65" width="12.35" height="12.35"/><rect class="cls-1" x="106.03" y="190.3" width="12.35" height="12.35"/><rect class="cls-1" x="106.03" y="177.94" width="12.35" height="12.35"/><rect class="cls-1" x="106.03" y="165.59" width="12.35" height="12.36"/><rect class="cls-1" x="93.68" y="202.65" width="12.35" height="12.35"/><rect class="cls-1" x="93.68" y="190.3" width="12.35" height="12.35"/><rect class="cls-1" x="93.68" y="177.94" width="12.35" height="12.35"/><rect class="cls-1" x="93.68" y="165.59" width="12.35" height="12.36"/><rect class="cls-1" x="81.32" y="202.65" width="12.36" height="12.35"/><rect class="cls-1" x="81.32" y="190.3" width="12.36" height="12.35"/><rect class="cls-1" x="81.32" y="177.94" width="12.36" height="12.35"/><rect class="cls-1" x="81.32" y="165.59" width="12.36" height="12.36"/><rect class="cls-1" x="68.97" y="202.65" width="12.35" height="12.35"/><rect class="cls-1" x="68.97" y="190.3" width="12.35" height="12.35"/><rect class="cls-1" x="68.97" y="177.94" width="12.35" height="12.35"/><rect class="cls-1" x="68.97" y="165.59" width="12.35" height="12.36"/><rect class="cls-1" x="56.62" y="202.65" width="12.35" height="12.35"/><rect class="cls-1" x="56.62" y="190.3" width="12.35" height="12.35"/><rect class="cls-1" x="56.62" y="177.94" width="12.35" height="12.35"/><rect class="cls-1" x="56.62" y="165.59" width="12.35" height="12.36"/><rect class="cls-1" x="44.27" y="202.65" width="12.35" height="12.35"/><rect class="cls-1" x="44.27" y="190.3" width="12.35" height="12.35"/><rect class="cls-1" x="44.27" y="177.94" width="12.35" height="12.35"/><rect class="cls-1" x="44.27" y="165.59" width="12.35" height="12.36"/><rect class="cls-1" x="31.91" y="202.65" width="12.36" height="12.35"/><rect class="cls-1" x="31.91" y="190.3" width="12.36" height="12.35"/><rect class="cls-1" x="31.91" y="177.94" width="12.36" height="12.35"/><rect class="cls-1" x="31.91" y="165.59" width="12.36" height="12.36"/><rect class="cls-1" x="19.56" y="202.65" width="12.35" height="12.35"/><rect class="cls-1" x="19.56" y="190.3" width="12.35" height="12.35"/><rect class="cls-1" x="19.56" y="177.94" width="12.35" height="12.35"/><rect class="cls-1" x="19.56" y="165.59" width="12.35" height="12.36"/><rect class="cls-1" x="7.21" y="190.3" width="12.35" height="12.35"/><rect class="cls-1" x="7.21" y="177.94" width="12.35" height="12.35"/><rect class="cls-1" x="7.21" y="165.59" width="12.35" height="12.36"/><rect class="cls-1" x="155.44" y="190.3" width="12.36" height="12.35"/><rect class="cls-1" x="155.44" y="177.94" width="12.36" height="12.35"/><rect class="cls-1" x="155.44" y="165.59" width="12.36" height="12.36"/><rect class="cls-1" x="143.09" y="202.65" width="12.35" height="12.35"/><rect class="cls-1" x="143.09" y="190.3" width="12.35" height="12.35"/><rect class="cls-1" x="143.09" y="177.94" width="12.35" height="12.35"/><rect class="cls-1" x="143.09" y="165.59" width="12.35" height="12.36"/><rect class="cls-1" x="130.73" y="202.65" width="12.35" height="12.35"/><rect class="cls-1" x="130.73" y="190.3" width="12.35" height="12.35"/><rect class="cls-1" x="130.73" y="177.94" width="12.35" height="12.35"/><rect class="cls-1" x="130.73" y="165.59" width="12.35" height="12.36"/></g><g><rect x="118.38" y="153.24" width="12.35" height="12.35"/><rect x="106.03" y="153.24" width="12.35" height="12.35"/><rect x="93.68" y="153.24" width="12.35" height="12.35"/><rect x="81.32" y="153.24" width="12.36" height="12.35"/><rect x="68.97" y="153.24" width="12.35" height="12.35"/><rect x="56.62" y="153.24" width="12.35" height="12.35"/><rect x="44.27" y="153.24" width="12.35" height="12.35"/></g><g><rect x="118.38" y="125.04" width="12.35" height="12.35"/><rect x="106.03" y="125.04" width="12.35" height="12.35"/><rect x="93.68" y="125.04" width="12.35" height="12.35"/><rect x="81.32" y="125.04" width="12.36" height="12.35"/><rect x="68.97" y="125.04" width="12.35" height="12.35"/><rect x="56.62" y="125.04" width="12.35" height="12.35"/><rect x="44.27" y="125.04" width="12.35" height="12.35"/></g><g><rect x="118.38" y="96.84" width="12.35" height="12.35"/><rect x="106.03" y="96.84" width="12.35" height="12.35"/><rect x="93.68" y="96.84" width="12.35" height="12.35"/><rect x="81.32" y="96.84" width="12.36" height="12.35"/><rect x="68.97" y="96.84" width="12.35" height="12.35"/><rect x="56.62" y="96.84" width="12.35" height="12.35"/><rect x="44.27" y="96.84" width="12.35" height="12.35"/></g></svg>