<?xml version="1.0" encoding="UTF-8"?><svg id="a" xmlns="http://www.w3.org/2000/svg" xmlns:xlink="http://www.w3.org/1999/xlink" viewBox="0 0 500 500"><defs><style>.c{fill:#fff;}.d{fill:#0a0a0a;}.e{fill:url(#b);}.f{fill:none;stroke:#0a0a0a;stroke-miterlimit:10;stroke-width:9.45px;}</style><linearGradient id="b" x1="97.12" y1="64.56" x2="400.67" y2="432.32" gradientTransform="matrix(1, 0, 0, 1, 0, 0)" gradientUnits="userSpaceOnUse"><stop offset="0" stop-color="#ffcd9e"/><stop offset=".25" stop-color="#ff5e4f"/><stop offset=".55" stop-color="#d900d5"/><stop offset="1" stop-color="#203aeb"/></linearGradient></defs><circle class="d" cx="250" cy="250" r="237.5"/><path class="e" d="M417.51,250c0,92.51-75,167.51-167.51,167.51S82.49,342.51,82.49,250,157.49,82.49,250,82.49s167.51,75,167.51,167.51Zm-190.45,183.7c-20.55-2.54-40.06-8.45-57.95-17.16l-17.54,35.87c21.77,10.61,45.51,17.81,70.52,20.9l4.97-39.62Zm46.1-367.38c20.8,2.6,40.53,8.65,58.6,17.56l17.54-35.87c-21.95-10.81-45.91-18.15-71.17-21.3l-4.97,39.62Zm-103.77,17c17.92-8.68,37.45-14.56,58.02-17.06l-4.94-39.62c-25,3.05-48.74,10.2-70.51,20.75l17.43,35.93Zm161.66,333.15c-17.86,8.71-37.33,14.64-57.85,17.2l4.94,39.62c24.95-3.11,48.62-10.31,70.35-20.89l-17.43-35.93Zm103.12-143.12c-2.54,20.55-8.45,40.06-17.16,57.95l35.87,17.54c10.61-21.77,17.81-45.51,20.9-70.52l-39.62-4.97ZM66.77,227.25c2.6-20.8,8.65-40.53,17.56-58.6l-35.87-17.54c-10.81,21.95-18.15,45.91-21.3,71.17l39.62,4.97Zm17,103.77c-8.68-17.92-14.56-37.45-17.06-58.02l-39.62,4.94c3.05,25,10.2,48.74,20.75,70.51l35.93-17.43ZM416.92,169.37c8.71,17.86,14.64,37.33,17.2,57.85l39.62-4.94c-3.11-24.95-10.31-48.62-20.89-70.35l-35.93,17.43ZM119.12,391.76c-2.84-7.14-9.97-3.57-9.97-3.57,0,0,3.57-7.12-3.57-9.97-7.14-2.84-14.09,8.62-11.08,24.61,15.99,3.01,27.45-3.94,24.61-11.08Zm-7.74-290.72c-2.28-1.04-4.57-.93-6.99-.54-2.5,.4-4.92,.09-7.33-.65-.89-.27-1.76-.59-2.62-.96-.27-.12-.77-.24-.99-.46,.22,.22,.34,.72,.46,.99,.37,.85,.69,1.73,.96,2.62,.74,2.41,1.05,4.83,.65,7.33-.39,2.42-.51,4.71,.54,6.99,.77,1.67,2.13,3.23,4.03,3.52,1.07,.17,2.15-.1,3.11-.57,4.01-1.98,2.49-7.64,2.49-7.64,0,0,7.17,5.4,.59,12.57l.63,.63,6.5-6.5,6.5-6.5-.63-.63c-7.17,6.58-12.57-.59-12.57-.59,0,0,5.65,1.52,7.64-2.49,.47-.96,.74-2.04,.57-3.11-.3-1.9-1.85-3.27-3.52-4.03Zm294.01,15.31c.71-2.37-.32-4.5-2.23-5.95-.62-.47-1.36-.81-2.13-.81,1.32-.23,2.62-.76,3.61-1.66,1.78-1.63,1.78-4.37,.86-6.44-.2-.45-.54-.86-1.03-1.36h0l-.02-.02-.02-.02h0c-.49-.49-.91-.84-1.36-1.03-2.07-.92-4.81-.92-6.44,.86-.9,.99-1.43,2.29-1.66,3.61,0-.77-.34-1.52-.81-2.13-1.46-1.91-3.59-2.94-5.95-2.23-1.92,.58-3.61,2.14-4.16,4.1-.59,2.11,.07,4.85,2,6.07,2.78,1.75,7.65,.98,7.65,.98,0,0-5.9,6.5-12.36,.81l-.86,.51,6.2,6.2,.04,.04,6.2,6.2,.51-.86c-5.69-6.46,.81-12.36,.81-12.36,0,0-.77,4.87,.98,7.65,1.22,1.93,3.96,2.59,6.07,2,1.96-.55,3.52-2.24,4.1-4.16Zm-21.68,264.82l3.8,19.02,18.59,3.38-3.38-18.59-19.02-3.8Z"/><circle class="f" cx="250" cy="250" r="167.51"/><circle class="f" cx="250" cy="250" r="237.5"/><polygon class="c" points="310.83 170.23 328.26 170.23 328.26 187.66 328.26 204.92 310.83 204.92 293.57 204.92 276.31 204.92 258.88 204.92 241.62 204.92 224.36 204.92 224.36 222.35 224.36 239.61 241.62 239.61 258.88 239.61 276.31 239.61 293.57 239.61 310.83 239.61 310.83 256.87 293.57 256.87 293.57 274.3 276.31 274.3 258.88 274.3 241.62 274.3 224.36 274.3 224.36 291.56 224.36 308.82 224.36 326.24 224.36 343.5 206.93 343.5 189.67 343.5 189.67 326.24 189.67 308.82 189.67 291.56 189.67 274.3 189.67 256.87 189.67 239.61 189.67 222.35 189.67 204.92 189.67 187.66 189.67 170.23 206.93 170.23 224.36 170.23 241.62 170.23 258.88 170.23 276.31 170.23 293.57 170.23 310.83 170.23"/></svg>