<?xml version="1.0" encoding="UTF-8"?><svg id="Layer_1" xmlns="http://www.w3.org/2000/svg" viewBox="0 0 220 220"><defs><style>.cls-1{fill:#fff;}</style></defs><polygon class="cls-1" points="85.3 91.47 85.3 79.12 85.3 66.76 72.94 66.76 60.59 66.76 60.59 79.12 60.59 91.47 72.94 91.47 85.3 91.47"/><polygon class="cls-1" points="147.06 128.53 134.71 128.53 122.36 128.53 110 128.53 97.65 128.53 85.3 128.53 72.94 128.53 60.59 128.53 48.24 128.53 48.24 140.88 60.59 140.88 60.59 153.24 72.94 153.24 72.94 165.59 85.3 165.59 97.65 165.59 110 165.59 122.36 165.59 134.71 165.59 147.06 165.59 147.06 153.24 159.41 153.24 159.41 140.88 171.76 140.88 171.76 128.53 159.41 128.53 147.06 128.53"/><polygon class="cls-1" points="159.41 91.47 159.41 79.12 159.41 66.76 147.06 66.76 134.71 66.76 134.71 79.12 134.71 91.47 147.06 91.47 159.41 91.47"/><polygon class="cls-1" points="153.24 29.7 165.59 29.7 165.59 17.35 153.24 17.35 140.88 17.35 140.88 29.7 153.24 29.7"/><polygon class="cls-1" points="103.82 17.35 116.18 17.35 128.53 17.35 140.88 17.35 140.88 5 128.53 5 116.18 5 103.82 5 91.47 5 79.12 5 79.12 17.35 91.47 17.35 103.82 17.35"/><polygon class="cls-1" points="79.12 29.7 79.12 17.35 66.76 17.35 54.41 17.35 54.41 29.7 66.76 29.7 79.12 29.7"/><rect class="cls-1" x="42.06" y="29.7" width="12.35" height="12.35"/><rect class="cls-1" x="29.7" y="42.06" width="12.36" height="12.36"/><polygon class="cls-1" points="29.7 66.76 29.7 54.41 17.35 54.41 17.35 66.76 17.35 79.12 29.7 79.12 29.7 66.76"/><rect class="cls-1" x="177.94" y="42.06" width="12.35" height="12.36"/><rect class="cls-1" x="165.59" y="29.7" width="12.35" height="12.35"/><rect class="cls-1" x="42.06" y="177.94" width="12.35" height="12.35"/><rect class="cls-1" x="29.7" y="165.59" width="12.36" height="12.35"/><polygon class="cls-1" points="29.7 140.88 17.35 140.88 17.35 153.24 17.35 165.59 29.7 165.59 29.7 153.24 29.7 140.88"/><polygon class="cls-1" points="17.35 116.18 17.35 103.82 17.35 91.47 17.35 79.12 5 79.12 5 91.47 5 103.82 5 116.18 5 128.53 5 140.88 17.35 140.88 17.35 128.53 17.35 116.18"/><rect class="cls-1" x="177.94" y="165.59" width="12.35" height="12.35"/><rect class="cls-1" x="165.59" y="177.94" width="12.35" height="12.35"/><polygon class="cls-1" points="140.88 190.29 140.88 202.64 128.53 202.64 116.18 202.64 103.82 202.64 91.47 202.64 79.12 202.64 79.12 190.29 66.76 190.29 54.41 190.29 54.41 202.65 66.76 202.65 79.12 202.65 79.12 215 91.47 215 103.82 215 116.18 215 128.53 215 140.88 215 140.88 202.65 153.24 202.65 165.59 202.65 165.59 190.29 153.24 190.29 140.88 190.29"/><polygon class="cls-1" points="202.65 79.12 202.65 66.76 202.65 54.41 190.29 54.41 190.29 66.76 190.29 79.12 202.64 79.12 202.64 91.47 202.64 103.82 202.64 116.18 202.64 128.53 202.64 140.88 190.29 140.88 190.29 153.24 190.29 165.59 202.65 165.59 202.65 153.24 202.65 140.88 215 140.88 215 128.53 215 116.18 215 103.82 215 91.47 215 79.12 202.65 79.12"/></svg>