<svg id="Layer_1" data-name="Layer 1" xmlns="http://www.w3.org/2000/svg" viewBox="0 0 575 270"><defs><style>.cls-1{fill:#4af5d3;}</style></defs><path class="cls-1" d="M178.14,209.55h6.18v24.79h-6.18v6.18h-6.25v6.25H147.11v18.6H134.68V203.31h43.46Zm-6.25,6.19H147.11v18.6h24.78v-18.6Zm85.35,31V253H232.39V203.31H220v62.06h49.64v-18.6H257.24Zm91.58-31H355v49.63H342.64v-18.6H317.79v18.6H305.37V215.74h6.24v-6.19h6.18v-6.24h24.85v6.24h6.18Zm-6.12,6.18h-6.24v-6.25H324v6.25h-6.18v12.36H342.7V221.92Zm91.44-18.61h-6.25v18.61h-6.18v6.24H409.29v-6.24h-6.18V203.31H390.68v24.85h6.24v6.18h6.19v6.18h6.18v24.85h12.42V240.52h6.18v-6.18h6.25v-6.18h6.18V203.31Z"/><path class="cls-1" d="M113,4.63h15.53V35.55H35.92V66.46H113V81.85H97.6V97.38H35.92v61.69H5V4.63H113ZM259.83,35.7h15.38V159.22H244.44v-46.3H182.61v46.3H151.69V35.7h15.53V20.31h15.39V4.78h61.83V20.31h15.39ZM244.59,51.08H229.06V35.55H198.14V51.08H182.76V81.85h61.83V51.08ZM406.52,20.31H421.9V82H406.52V97.38H391v15.54h15.54V128.3H421.9v30.92H391V143.68H375.6V128.3H360.06V112.92H329.3v46.3H298.38V4.78H406.52ZM391,35.7H329.3V82H391V35.7ZM554.6,4.78H570V35.73H477.31v31H554.6V82.07H539.05V97.62H477.31v30.8H570v31H446.36V4.78H554.6Z"/></svg>