<?xml version="1.0" encoding="UTF-8"?><svg id="Layer_1" xmlns="http://www.w3.org/2000/svg" viewBox="0 0 190 220"><defs><style>.cls-1{fill:#c8e6c8;}.cls-2{fill:#4fb849;}.cls-3{fill:#329045;}.cls-4{fill:#066938;}</style></defs><rect class="cls-2" x="130" y="47" width="14" height="14"/><rect class="cls-1" x="130" y="33" width="14" height="14"/><rect class="cls-2" x="130" y="19" width="14" height="14"/><rect class="cls-4" x="130" y="5" width="14" height="14"/><rect class="cls-2" x="116" y="47" width="14" height="14"/><rect class="cls-2" x="116" y="33" width="14" height="14"/><rect class="cls-2" x="116" y="19" width="14" height="14"/><rect class="cls-4" x="116" y="5" width="14" height="14"/><rect class="cls-2" x="102" y="47" width="14" height="14"/><rect class="cls-3" x="102" y="33" width="14" height="14"/><rect class="cls-4" x="102" y="19" width="14" height="14"/><rect class="cls-3" x="88" y="47" width="14" height="14"/><rect class="cls-4" x="88" y="33" width="14" height="14"/><rect class="cls-2" x="74" y="47" width="14" height="14"/><rect class="cls-3" x="74" y="33" width="14" height="14"/><rect class="cls-4" x="74" y="19" width="14" height="14"/><rect class="cls-2" x="60" y="47" width="14" height="14"/><rect class="cls-2" x="60" y="33" width="14" height="14"/><rect class="cls-2" x="60" y="19" width="14" height="14"/><rect class="cls-4" x="60" y="5" width="14" height="14"/><rect class="cls-2" x="46" y="47" width="14" height="14"/><rect class="cls-2" x="46" y="33" width="14" height="14"/><rect class="cls-2" x="46" y="19" width="14" height="14"/><rect class="cls-4" x="46" y="5" width="14" height="14"/><rect class="cls-2" x="32" y="47" width="14" height="14"/><rect class="cls-2" x="32" y="33" width="14" height="14"/><rect class="cls-3" x="32" y="19" width="14" height="14"/><rect class="cls-4" x="32" y="5" width="14" height="14"/><rect class="cls-3" x="18" y="47" width="14" height="14"/><rect class="cls-3" x="18" y="33" width="14" height="14"/><rect class="cls-4" x="18" y="19" width="14" height="14"/><rect class="cls-4" x="4" y="47" width="14" height="14"/><rect class="cls-4" x="4" y="33" width="14" height="14"/><rect class="cls-4" x="172" y="47" width="14" height="14"/><rect class="cls-4" x="172" y="33" width="14" height="14"/><rect class="cls-2" x="158" y="47" width="14" height="14"/><rect class="cls-2" x="158" y="33" width="14" height="14"/><rect class="cls-4" x="158" y="19" width="14" height="14"/><rect class="cls-1" x="144" y="47" width="14" height="14"/><rect class="cls-2" x="144" y="33" width="14" height="14"/><rect class="cls-2" x="144" y="19" width="14" height="14"/><rect class="cls-4" x="144" y="5" width="14" height="14"/><rect class="cls-3" x="130" y="159" width="14" height="14"/><rect class="cls-2" x="130" y="145" width="14" height="14"/><rect class="cls-2" x="130" y="131" width="14" height="14"/><rect class="cls-2" x="130" y="117" width="14" height="14"/><rect class="cls-2" x="130" y="103" width="14" height="14"/><rect class="cls-2" x="130" y="89" width="14" height="14"/><rect class="cls-2" x="130" y="75" width="14" height="14"/><rect class="cls-2" x="130" y="61" width="14" height="14"/><rect class="cls-3" x="116" y="159" width="14" height="14"/><rect class="cls-2" x="116" y="145" width="14" height="14"/><rect class="cls-2" x="116" y="131" width="14" height="14"/><rect class="cls-2" x="116" y="117" width="14" height="14"/><rect class="cls-2" x="116" y="103" width="14" height="14"/><rect class="cls-2" x="116" y="89" width="14" height="14"/><rect class="cls-2" x="116" y="75" width="14" height="14"/><rect class="cls-2" x="116" y="61" width="14" height="14"/><rect class="cls-4" x="102" y="159" width="14" height="14"/><rect class="cls-3" x="102" y="145" width="14" height="14"/><rect class="cls-2" x="102" y="131" width="14" height="14"/><rect class="cls-2" x="102" y="117" width="14" height="14"/><rect class="cls-2" x="102" y="103" width="14" height="14"/><rect class="cls-2" x="102" y="89" width="14" height="14"/><rect class="cls-2" x="102" y="75" width="14" height="14"/><rect class="cls-2" x="102" y="61" width="14" height="14"/><rect class="cls-4" x="88" y="159" width="14" height="14"/><rect class="cls-4" x="88" y="145" width="14" height="14"/><rect class="cls-3" x="88" y="131" width="14" height="14"/><rect class="cls-2" x="88" y="117" width="14" height="14"/><rect class="cls-2" x="88" y="103" width="14" height="14"/><rect class="cls-2" x="88" y="89" width="14" height="14"/><rect class="cls-2" x="88" y="75" width="14" height="14"/><rect class="cls-2" x="88" y="61" width="14" height="14"/><rect class="cls-4" x="74" y="159" width="14" height="14"/><rect class="cls-2" x="74" y="145" width="14" height="14"/><rect class="cls-2" x="74" y="131" width="14" height="14"/><rect class="cls-2" x="74" y="117" width="14" height="14"/><rect class="cls-2" x="74" y="103" width="14" height="14"/><rect class="cls-2" x="74" y="89" width="14" height="14"/><rect class="cls-2" x="74" y="75" width="14" height="14"/><rect class="cls-2" x="74" y="61" width="14" height="14"/><rect class="cls-3" x="60" y="159" width="14" height="14"/><rect class="cls-2" x="60" y="145" width="14" height="14"/><rect class="cls-2" x="60" y="131" width="14" height="14"/><rect class="cls-2" x="60" y="117" width="14" height="14"/><rect class="cls-2" x="60" y="103" width="14" height="14"/><rect class="cls-2" x="60" y="89" width="14" height="14"/><rect class="cls-2" x="60" y="75" width="14" height="14"/><rect class="cls-2" x="60" y="61" width="14" height="14"/><rect class="cls-3" x="46" y="159" width="14" height="14"/><rect class="cls-2" x="46" y="145" width="14" height="14"/><rect class="cls-2" x="46" y="131" width="14" height="14"/><rect class="cls-2" x="46" y="117" width="14" height="14"/><rect class="cls-2" x="46" y="103" width="14" height="14"/><rect class="cls-3" x="46" y="89" width="14" height="14"/><rect class="cls-2" x="46" y="75" width="14" height="14"/><rect class="cls-2" x="46" y="61" width="14" height="14"/><rect class="cls-3" x="32" y="159" width="14" height="14"/><rect class="cls-3" x="32" y="145" width="14" height="14"/><rect class="cls-2" x="32" y="131" width="14" height="14"/><rect class="cls-2" x="32" y="117" width="14" height="14"/><rect class="cls-2" x="32" y="103" width="14" height="14"/><rect class="cls-4" x="32" y="89" width="14" height="14"/><rect class="cls-3" x="32" y="75" width="14" height="14"/><rect class="cls-2" x="32" y="61" width="14" height="14"/><rect class="cls-4" x="18" y="159" width="14" height="14"/><rect class="cls-3" x="18" y="145" width="14" height="14"/><rect class="cls-3" x="18" y="131" width="14" height="14"/><rect class="cls-3" x="18" y="117" width="14" height="14"/><rect class="cls-4" x="18" y="103" width="14" height="14"/><rect class="cls-4" x="18" y="75" width="14" height="14"/><rect class="cls-3" x="18" y="61" width="14" height="14"/><rect class="cls-4" x="4" y="145" width="14" height="14"/><rect class="cls-4" x="4" y="131" width="14" height="14"/><rect class="cls-4" x="4" y="117" width="14" height="14"/><rect class="cls-4" x="4" y="61" width="14" height="14"/><rect class="cls-4" x="172" y="145" width="14" height="14"/><rect class="cls-4" x="172" y="131" width="14" height="14"/><rect class="cls-4" x="172" y="117" width="14" height="14"/><rect class="cls-4" x="172" y="61" width="14" height="14"/><rect class="cls-4" x="158" y="159" width="14" height="14"/><rect class="cls-2" x="158" y="145" width="14" height="14"/><rect class="cls-2" x="158" y="131" width="14" height="14"/><rect class="cls-2" x="158" y="117" width="14" height="14"/><rect class="cls-4" x="158" y="103" width="14" height="14"/><rect class="cls-4" x="158" y="75" width="14" height="14"/><rect class="cls-2" x="158" y="61" width="14" height="14"/><rect class="cls-3" x="144" y="159" width="14" height="14"/><rect class="cls-2" x="144" y="145" width="14" height="14"/><rect class="cls-2" x="144" y="131" width="14" height="14"/><rect class="cls-2" x="144" y="117" width="14" height="14"/><rect class="cls-2" x="144" y="103" width="14" height="14"/><rect class="cls-4" x="144" y="89" width="14" height="14"/><rect class="cls-3" x="144" y="75" width="14" height="14"/><rect class="cls-2" x="144" y="61" width="14" height="14"/><rect class="cls-4" x="130" y="173" width="14" height="14"/><rect class="cls-4" x="116" y="173" width="14" height="14"/><rect class="cls-4" x="88" y="187" width="14" height="14"/><rect class="cls-4" x="88" y="173" width="14" height="14"/><rect class="cls-4" x="74" y="201" width="14" height="14"/><rect class="cls-4" x="60" y="173" width="14" height="14"/><rect class="cls-4" x="46" y="173" width="14" height="14"/><rect class="cls-4" x="32" y="173" width="14" height="14"/><rect class="cls-4" x="144" y="173" width="14" height="14"/></svg>