<svg id="Layer_1" data-name="Layer 1" xmlns="http://www.w3.org/2000/svg" viewBox="0 0 715 102"><defs><style>.cls-1{fill:#fff;}</style></defs><path class="cls-1" d="M69.19,5.13h9.22V23.48h-55V41.83H69.19V51H60.06v9.21H23.45V96.78H5.1V5.13H69.19Z"/><path class="cls-1" d="M155.12,23.56h9.13V96.87H146V69.39h-36.7V96.87H90.94V23.56h9.22V14.43h9.13V5.22H146v9.21h9.13Zm-9,18.27V32.7h-9.22V23.48H118.51V32.7h-9.13V51h36.7Z"/><path class="cls-1" d="M241,14.43h9.13V51H241v9.13h-9.22v9.22H241v9.13h9.13V96.87H231.74V87.65h-9.13V78.52h-9.22V69.39H195.13V96.87H176.78V5.22H241ZM222.61,51h9.13V23.56H195.13V51h27.48Z"/><path class="cls-1" d="M326.8,5.13h9.13V23.48H281V41.83H326.8V51h-9.22v9.21H281V78.44h55V96.78H262.62V5.13H326.8Z"/><path class="cls-1" d="M443.25,14.43h9.13V51h-9.13v9.13H434v9.22H397.42V96.87H379.07V5.22h64.18ZM424.9,51H434V23.56H397.42V51H424.9Z"/><path class="cls-1" d="M529,69.39h9.22V96.87H464.91V5.22h18.26v73.3h36.7V69.39Z"/><path class="cls-1" d="M614.93,23.56h9.13V96.87H605.8V69.39H569.1V96.87H550.75V23.56H560V14.43h9.13V5.22h36.7v9.21h9.13Zm-9,18.27V32.7h-9.22V23.48H578.32V32.7h-9.13V51h36.7Z"/><path class="cls-1" d="M700.77,5.22h9.13V41.91h-9.13V51h-9.22v9.13h-9.13v36.7H664.07V60.17h-9.13V51h-9.13V41.91h-9.22V5.22h18.35V32.7h9.13v9.21h18.35V32.7h9.13V5.22Z"/></svg>