<?xml version="1.0" encoding="UTF-8"?><svg id="Layer_1" xmlns="http://www.w3.org/2000/svg" viewBox="0 0 220 210"><defs><style>.cls-1{fill:#fff;}.cls-2{fill:#f05d80;}.cls-3{fill:#7725eb;}.cls-4{fill:#872fff;}.cls-5{fill:#200065;}.cls-6{fill:#4801a7;}.cls-7{fill:#f37d9a;}</style></defs><rect class="cls-4" x="140.86" y="55.63" width="12.34" height="12.34"/><rect class="cls-5" x="140.86" y="43.29" width="12.34" height="12.34"/><rect class="cls-4" x="128.52" y="55.63" width="12.34" height="12.34"/><rect class="cls-4" x="128.52" y="43.29" width="12.34" height="12.34"/><rect class="cls-5" x="128.52" y="30.95" width="12.34" height="12.34"/><rect class="cls-4" x="116.17" y="55.63" width="12.34" height="12.34"/><rect class="cls-4" x="116.17" y="43.29" width="12.34" height="12.34"/><rect class="cls-4" x="116.17" y="30.95" width="12.34" height="12.34"/><rect class="cls-5" x="116.17" y="18.6" width="12.34" height="12.34"/><rect class="cls-4" x="103.83" y="55.63" width="12.34" height="12.34"/><rect class="cls-1" x="103.83" y="43.29" width="12.34" height="12.34"/><rect class="cls-4" x="103.83" y="30.95" width="12.34" height="12.34"/><rect class="cls-4" x="103.83" y="18.6" width="12.34" height="12.34"/><rect class="cls-5" x="103.83" y="6.26" width="12.34" height="12.34"/><rect class="cls-4" x="91.49" y="55.63" width="12.34" height="12.34"/><rect class="cls-4" x="91.49" y="43.29" width="12.34" height="12.34"/><rect class="cls-4" x="91.49" y="30.95" width="12.34" height="12.34"/><rect class="cls-5" x="91.49" y="18.6" width="12.34" height="12.34"/><rect class="cls-4" x="79.15" y="55.63" width="12.34" height="12.34"/><rect class="cls-4" x="79.15" y="43.29" width="12.34" height="12.34"/><rect class="cls-5" x="79.15" y="30.95" width="12.34" height="12.34"/><rect class="cls-4" x="66.81" y="55.63" width="12.34" height="12.34"/><rect class="cls-5" x="66.81" y="43.29" width="12.34" height="12.34"/><rect class="cls-5" x="54.46" y="55.63" width="12.34" height="12.34"/><rect class="cls-5" x="153.2" y="55.63" width="12.34" height="12.34"/><rect class="cls-3" x="140.86" y="154.37" width="12.34" height="12.34"/><rect class="cls-4" x="140.86" y="142.03" width="12.34" height="12.34"/><rect class="cls-4" x="140.86" y="129.69" width="12.34" height="12.34"/><rect class="cls-4" x="140.86" y="117.34" width="12.34" height="12.34"/><rect class="cls-4" x="140.86" y="105" width="12.34" height="12.34"/><rect class="cls-4" x="140.86" y="92.66" width="12.34" height="12.34"/><rect class="cls-4" x="140.86" y="80.32" width="12.34" height="12.34"/><rect class="cls-4" x="140.86" y="67.97" width="12.34" height="12.34"/><rect class="cls-3" x="128.52" y="154.37" width="12.34" height="12.34"/><rect class="cls-4" x="128.52" y="142.03" width="12.34" height="12.34"/><rect class="cls-4" x="128.52" y="129.69" width="12.34" height="12.34"/><rect class="cls-1" x="128.52" y="117.34" width="12.34" height="12.34"/><rect class="cls-4" x="128.52" y="105" width="12.34" height="12.34"/><rect class="cls-4" x="128.52" y="92.66" width="12.34" height="12.34"/><rect class="cls-4" x="128.52" y="80.32" width="12.34" height="12.34"/><rect class="cls-1" x="128.52" y="67.97" width="12.34" height="12.34"/><rect class="cls-3" x="116.17" y="154.37" width="12.34" height="12.34"/><rect class="cls-4" x="116.17" y="142.03" width="12.34" height="12.34"/><rect class="cls-4" x="116.17" y="129.69" width="12.34" height="12.34"/><rect class="cls-4" x="116.17" y="117.34" width="12.34" height="12.34"/><rect class="cls-4" x="116.17" y="105" width="12.34" height="12.34"/><rect class="cls-4" x="116.17" y="92.66" width="12.34" height="12.34"/><rect class="cls-4" x="116.17" y="80.32" width="12.34" height="12.34"/><rect class="cls-4" x="116.17" y="67.97" width="12.34" height="12.34"/><rect class="cls-3" x="103.83" y="154.37" width="12.34" height="12.34"/><rect class="cls-4" x="103.83" y="142.03" width="12.34" height="12.34"/><rect class="cls-4" x="103.83" y="129.69" width="12.34" height="12.34"/><rect class="cls-4" x="103.83" y="117.34" width="12.34" height="12.34"/><rect class="cls-4" x="103.83" y="105" width="12.34" height="12.34"/><rect class="cls-1" x="103.83" y="92.66" width="12.34" height="12.34"/><rect class="cls-4" x="103.83" y="80.32" width="12.34" height="12.34"/><rect class="cls-4" x="103.83" y="67.97" width="12.34" height="12.34"/><rect class="cls-3" x="91.49" y="154.37" width="12.34" height="12.34"/><rect class="cls-4" x="91.49" y="142.03" width="12.34" height="12.34"/><rect class="cls-4" x="91.49" y="129.69" width="12.34" height="12.34"/><rect class="cls-4" x="91.49" y="117.34" width="12.34" height="12.34"/><rect class="cls-4" x="91.49" y="105" width="12.34" height="12.34"/><rect class="cls-4" x="91.49" y="92.66" width="12.34" height="12.34"/><rect class="cls-4" x="91.49" y="80.32" width="12.34" height="12.34"/><rect class="cls-4" x="91.49" y="67.97" width="12.34" height="12.34"/><rect class="cls-3" x="79.15" y="154.37" width="12.34" height="12.34"/><rect class="cls-4" x="79.15" y="142.03" width="12.34" height="12.34"/><rect class="cls-4" x="79.15" y="129.69" width="12.34" height="12.34"/><rect class="cls-1" x="79.15" y="117.34" width="12.34" height="12.34"/><rect class="cls-4" x="79.15" y="105" width="12.34" height="12.34"/><rect class="cls-4" x="79.15" y="92.66" width="12.34" height="12.34"/><rect class="cls-4" x="79.15" y="80.32" width="12.34" height="12.34"/><rect class="cls-1" x="79.15" y="67.97" width="12.34" height="12.34"/><rect class="cls-3" x="66.81" y="154.37" width="12.34" height="12.34"/><rect class="cls-4" x="66.81" y="142.03" width="12.34" height="12.34"/><rect class="cls-4" x="66.81" y="129.69" width="12.34" height="12.34"/><rect class="cls-4" x="66.81" y="117.34" width="12.34" height="12.34"/><rect class="cls-4" x="66.81" y="105" width="12.34" height="12.34"/><rect class="cls-4" x="66.81" y="92.66" width="12.34" height="12.34"/><rect class="cls-4" x="66.81" y="80.32" width="12.34" height="12.34"/><rect class="cls-4" x="66.81" y="67.97" width="12.34" height="12.34"/><rect class="cls-3" x="54.46" y="154.37" width="12.34" height="12.34"/><rect class="cls-4" x="54.46" y="142.03" width="12.34" height="12.34"/><rect class="cls-4" x="54.46" y="129.69" width="12.34" height="12.34"/><rect class="cls-4" x="54.46" y="117.34" width="12.34" height="12.34"/><rect class="cls-4" x="54.46" y="105" width="12.34" height="12.34"/><rect class="cls-1" x="54.46" y="92.66" width="12.34" height="12.34"/><rect class="cls-4" x="54.46" y="80.32" width="12.34" height="12.34"/><rect class="cls-4" x="54.46" y="67.97" width="12.34" height="12.34"/><rect class="cls-3" x="42.12" y="154.37" width="12.34" height="12.34"/><rect class="cls-4" x="42.12" y="142.03" width="12.34" height="12.34"/><rect class="cls-4" x="42.12" y="129.69" width="12.34" height="12.34"/><rect class="cls-4" x="42.12" y="117.34" width="12.34" height="12.34"/><rect class="cls-4" x="42.12" y="105" width="12.34" height="12.34"/><rect class="cls-4" x="42.12" y="92.66" width="12.34" height="12.34"/><rect class="cls-4" x="42.12" y="80.32" width="12.34" height="12.34"/><rect class="cls-5" x="42.12" y="67.97" width="12.34" height="12.34"/><rect class="cls-4" x="29.78" y="154.37" width="12.34" height="12.34"/><rect class="cls-4" x="29.78" y="142.03" width="12.34" height="12.34"/><rect class="cls-4" x="29.78" y="129.69" width="12.34" height="12.34"/><rect class="cls-1" x="29.78" y="117.34" width="12.34" height="12.34"/><rect class="cls-4" x="29.78" y="105" width="12.34" height="12.34"/><rect class="cls-4" x="29.78" y="92.66" width="12.34" height="12.34"/><rect class="cls-5" x="29.78" y="80.32" width="12.34" height="12.34"/><rect class="cls-4" x="17.43" y="154.37" width="12.34" height="12.34"/><rect class="cls-4" x="17.43" y="142.03" width="12.34" height="12.34"/><rect class="cls-4" x="17.43" y="129.69" width="12.34" height="12.34"/><rect class="cls-4" x="17.43" y="117.34" width="12.34" height="12.34"/><rect class="cls-4" x="17.43" y="105" width="12.34" height="12.34"/><rect class="cls-5" x="17.43" y="92.66" width="12.34" height="12.34"/><rect class="cls-5" x="5.09" y="154.37" width="12.34" height="12.34"/><rect class="cls-5" x="5.09" y="142.03" width="12.34" height="12.34"/><rect class="cls-5" x="5.09" y="129.69" width="12.34" height="12.34"/><rect class="cls-5" x="5.09" y="117.34" width="12.34" height="12.34"/><rect class="cls-5" x="5.09" y="105" width="12.34" height="12.34"/><rect class="cls-5" x="202.57" y="154.37" width="12.34" height="12.34"/><rect class="cls-5" x="202.57" y="142.03" width="12.34" height="12.34"/><rect class="cls-5" x="202.57" y="129.69" width="12.34" height="12.34"/><rect class="cls-5" x="202.57" y="117.34" width="12.34" height="12.34"/><rect class="cls-5" x="202.57" y="105" width="12.34" height="12.34"/><rect class="cls-4" x="190.22" y="154.37" width="12.34" height="12.34"/><rect class="cls-4" x="190.22" y="142.03" width="12.34" height="12.34"/><rect class="cls-4" x="190.22" y="129.69" width="12.34" height="12.34"/><rect class="cls-4" x="190.22" y="117.34" width="12.34" height="12.34"/><rect class="cls-4" x="190.22" y="105" width="12.34" height="12.34"/><rect class="cls-5" x="190.22" y="92.66" width="12.34" height="12.34"/><rect class="cls-4" x="177.88" y="154.37" width="12.34" height="12.34"/><rect class="cls-4" x="177.88" y="142.03" width="12.34" height="12.34"/><rect class="cls-4" x="177.88" y="129.69" width="12.34" height="12.34"/><rect class="cls-1" x="177.88" y="117.34" width="12.34" height="12.34"/><rect class="cls-4" x="177.88" y="105" width="12.34" height="12.34"/><rect class="cls-4" x="177.88" y="92.66" width="12.34" height="12.34"/><rect class="cls-5" x="177.88" y="80.32" width="12.34" height="12.34"/><rect class="cls-3" x="165.54" y="154.37" width="12.34" height="12.34"/><rect class="cls-4" x="165.54" y="142.03" width="12.34" height="12.34"/><rect class="cls-4" x="165.54" y="129.69" width="12.34" height="12.34"/><rect class="cls-4" x="165.54" y="117.34" width="12.34" height="12.34"/><rect class="cls-4" x="165.54" y="105" width="12.34" height="12.34"/><rect class="cls-4" x="165.54" y="92.66" width="12.34" height="12.34"/><rect class="cls-4" x="165.54" y="80.32" width="12.34" height="12.34"/><rect class="cls-5" x="165.54" y="67.97" width="12.34" height="12.34"/><rect class="cls-3" x="153.2" y="154.37" width="12.34" height="12.34"/><rect class="cls-4" x="153.2" y="142.03" width="12.34" height="12.34"/><rect class="cls-4" x="153.2" y="129.69" width="12.34" height="12.34"/><rect class="cls-4" x="153.2" y="117.34" width="12.34" height="12.34"/><rect class="cls-4" x="153.2" y="105" width="12.34" height="12.34"/><rect class="cls-1" x="153.2" y="92.66" width="12.34" height="12.34"/><rect class="cls-4" x="153.2" y="80.32" width="12.34" height="12.34"/><rect class="cls-4" x="153.2" y="67.97" width="12.34" height="12.34"/><rect class="cls-2" x="140.86" y="191.4" width="12.34" height="12.34"/><rect class="cls-5" x="140.86" y="166.71" width="12.34" height="12.34"/><rect class="cls-2" x="128.52" y="191.4" width="12.34" height="12.34"/><rect class="cls-5" x="128.52" y="166.71" width="12.34" height="12.34"/><rect class="cls-7" x="116.17" y="191.4" width="12.34" height="12.34"/><rect class="cls-5" x="116.17" y="166.71" width="12.34" height="12.34"/><rect class="cls-7" x="103.83" y="191.4" width="12.34" height="12.34"/><rect class="cls-5" x="103.83" y="166.71" width="12.34" height="12.34"/><rect class="cls-7" x="91.49" y="191.4" width="12.34" height="12.34"/><rect class="cls-5" x="91.49" y="166.71" width="12.34" height="12.34"/><rect class="cls-2" x="79.15" y="191.4" width="12.34" height="12.34"/><rect class="cls-5" x="79.15" y="166.71" width="12.34" height="12.34"/><rect class="cls-2" x="66.81" y="191.4" width="12.34" height="12.34"/><rect class="cls-5" x="66.81" y="166.71" width="12.34" height="12.34"/><rect class="cls-3" x="54.46" y="191.4" width="12.34" height="12.34"/><rect class="cls-5" x="54.46" y="166.71" width="12.34" height="12.34"/><rect class="cls-3" x="42.12" y="191.4" width="12.34" height="12.34"/><rect class="cls-5" x="42.12" y="166.71" width="12.34" height="12.34"/><rect class="cls-6" x="29.78" y="191.4" width="12.34" height="12.34"/><rect class="cls-5" x="29.78" y="166.71" width="12.34" height="12.34"/><rect class="cls-6" x="17.43" y="191.4" width="12.34" height="12.34"/><rect class="cls-5" x="17.43" y="166.71" width="12.34" height="12.34"/><rect class="cls-5" x="5.09" y="166.71" width="12.34" height="12.34"/><rect class="cls-5" x="202.57" y="166.71" width="12.34" height="12.34"/><rect class="cls-6" x="190.22" y="191.4" width="12.34" height="12.34"/><rect class="cls-5" x="190.22" y="166.71" width="12.34" height="12.34"/><rect class="cls-6" x="177.88" y="191.4" width="12.34" height="12.34"/><rect class="cls-5" x="177.88" y="166.71" width="12.34" height="12.34"/><rect class="cls-3" x="165.54" y="191.4" width="12.34" height="12.34"/><rect class="cls-5" x="165.54" y="166.71" width="12.34" height="12.34"/><rect class="cls-3" x="153.2" y="191.4" width="12.34" height="12.34"/><rect class="cls-5" x="153.2" y="166.71" width="12.34" height="12.34"/></svg>