<?xml version="1.0" encoding="UTF-8"?><svg id="Layer_1" xmlns="http://www.w3.org/2000/svg" viewBox="0 0 220 220"><defs><style>.cls-1{fill:#fff;}.cls-2{fill:#633d0d;}.cls-3{fill:#a0601c;}.cls-4{fill:#c5791a;}.cls-5{fill:#ffd800;}</style></defs><rect class="cls-2" x="5" y="202.64" width="12.36" height="12.36"/><rect class="cls-2" x="5" y="190.3" width="12.36" height="12.34"/><rect class="cls-2" x="5" y="177.93" width="12.36" height="12.36"/><rect class="cls-2" x="5" y="165.59" width="12.36" height="12.34"/><rect class="cls-2" x="5" y="153.23" width="12.36" height="12.36"/><rect class="cls-2" x="5" y="140.89" width="12.36" height="12.34"/><rect class="cls-2" x="5" y="128.52" width="12.36" height="12.36"/><rect class="cls-2" x="5" y="116.18" width="12.36" height="12.34"/><rect class="cls-2" x="5" y="103.82" width="12.36" height="12.36"/><rect class="cls-2" x="5" y="91.48" width="12.36" height="12.34"/><rect class="cls-2" x="5" y="42.07" width="12.36" height="12.34"/><rect class="cls-2" x="5" y="29.7" width="12.36" height="12.36"/><rect class="cls-2" x="17.36" y="202.64" width="12.36" height="12.36"/><rect class="cls-5" x="17.36" y="190.3" width="12.36" height="12.34"/><rect class="cls-5" x="17.36" y="177.93" width="12.36" height="12.36"/><rect class="cls-5" x="17.36" y="165.59" width="12.36" height="12.34"/><rect class="cls-5" x="17.36" y="153.23" width="12.36" height="12.36"/><rect class="cls-5" x="17.36" y="140.89" width="12.36" height="12.34"/><rect class="cls-5" x="17.36" y="128.52" width="12.36" height="12.36"/><rect class="cls-5" x="17.36" y="116.18" width="12.36" height="12.34"/><rect class="cls-5" x="17.36" y="103.82" width="12.36" height="12.36"/><rect class="cls-2" x="17.36" y="91.48" width="12.36" height="12.34"/><rect class="cls-2" x="17.36" y="54.41" width="12.36" height="12.36"/><rect class="cls-2" x="17.36" y="42.07" width="12.36" height="12.34"/><rect class="cls-1" x="17.36" y="29.7" width="12.36" height="12.36"/><rect class="cls-2" x="17.36" y="17.36" width="12.36" height="12.34"/><rect class="cls-2" x="29.73" y="202.64" width="12.34" height="12.36"/><rect class="cls-5" x="29.73" y="190.3" width="12.34" height="12.34"/><rect class="cls-3" x="29.73" y="177.93" width="12.34" height="12.36"/><rect class="cls-3" x="29.73" y="165.59" width="12.34" height="12.34"/><rect class="cls-3" x="29.73" y="153.23" width="12.34" height="12.36"/><rect class="cls-3" x="29.73" y="140.89" width="12.34" height="12.34"/><rect class="cls-3" x="29.73" y="128.52" width="12.34" height="12.36"/><rect class="cls-3" x="29.73" y="116.18" width="12.34" height="12.34"/><rect class="cls-5" x="29.73" y="103.82" width="12.34" height="12.36"/><rect class="cls-2" x="29.73" y="91.48" width="12.34" height="12.34"/><rect class="cls-2" x="29.73" y="66.77" width="12.34" height="12.34"/><rect class="cls-3" x="29.73" y="54.41" width="12.34" height="12.36"/><rect class="cls-2" x="29.73" y="42.07" width="12.34" height="12.34"/><rect class="cls-5" x="29.73" y="29.7" width="12.34" height="12.36"/><rect class="cls-1" x="29.73" y="17.36" width="12.34" height="12.34"/><rect class="cls-2" x="29.73" y="5" width="12.34" height="12.36"/><rect class="cls-2" x="42.07" y="202.64" width="12.36" height="12.36"/><rect class="cls-5" x="42.07" y="190.3" width="12.36" height="12.34"/><rect class="cls-4" x="42.07" y="177.93" width="12.36" height="12.36"/><rect class="cls-4" x="42.07" y="165.59" width="12.36" height="12.34"/><rect class="cls-4" x="42.07" y="153.23" width="12.36" height="12.36"/><rect class="cls-4" x="42.07" y="140.89" width="12.36" height="12.34"/><rect class="cls-4" x="42.07" y="128.52" width="12.36" height="12.36"/><rect class="cls-3" x="42.07" y="116.18" width="12.36" height="12.34"/><rect class="cls-5" x="42.07" y="103.82" width="12.36" height="12.36"/><rect class="cls-2" x="42.07" y="91.48" width="12.36" height="12.34"/><rect class="cls-2" x="42.07" y="79.11" width="12.36" height="12.36"/><rect class="cls-3" x="42.07" y="66.77" width="12.36" height="12.34"/><rect class="cls-3" x="42.07" y="54.41" width="12.36" height="12.36"/><rect class="cls-2" x="42.07" y="42.07" width="12.36" height="12.34"/><rect class="cls-5" x="42.07" y="29.7" width="12.36" height="12.36"/><rect class="cls-4" x="42.07" y="17.36" width="12.36" height="12.34"/><rect class="cls-2" x="42.07" y="5" width="12.36" height="12.36"/><rect class="cls-2" x="54.43" y="202.64" width="12.34" height="12.36"/><rect class="cls-5" x="54.43" y="190.3" width="12.34" height="12.34"/><rect class="cls-4" x="54.43" y="177.93" width="12.34" height="12.36"/><rect class="cls-4" x="54.43" y="165.59" width="12.34" height="12.34"/><rect class="cls-4" x="54.43" y="153.23" width="12.34" height="12.36"/><rect class="cls-3" x="54.43" y="140.89" width="12.34" height="12.34"/><rect class="cls-5" x="54.43" y="128.52" width="12.34" height="12.36"/><rect class="cls-5" x="54.43" y="116.18" width="12.34" height="12.34"/><rect class="cls-5" x="54.43" y="103.82" width="12.34" height="12.36"/><rect class="cls-2" x="54.43" y="91.48" width="12.34" height="12.34"/><rect class="cls-4" x="54.43" y="79.11" width="12.34" height="12.36"/><rect class="cls-3" x="54.43" y="66.77" width="12.34" height="12.34"/><rect class="cls-3" x="54.43" y="54.41" width="12.34" height="12.36"/><rect class="cls-2" x="54.43" y="42.07" width="12.34" height="12.34"/><rect class="cls-5" x="54.43" y="29.7" width="12.34" height="12.36"/><rect class="cls-4" x="54.43" y="17.36" width="12.34" height="12.34"/><rect class="cls-2" x="54.43" y="5" width="12.34" height="12.36"/><rect class="cls-2" x="66.77" y="202.64" width="12.36" height="12.36"/><rect class="cls-5" x="66.77" y="190.3" width="12.36" height="12.34"/><rect class="cls-5" x="66.77" y="177.93" width="12.36" height="12.36"/><rect class="cls-5" x="66.77" y="165.59" width="12.36" height="12.34"/><rect class="cls-5" x="66.77" y="153.23" width="12.36" height="12.36"/><rect class="cls-5" x="66.77" y="140.89" width="12.36" height="12.34"/><rect class="cls-5" x="66.77" y="128.52" width="12.36" height="12.36"/><rect class="cls-2" x="66.77" y="116.18" width="12.36" height="12.34"/><rect class="cls-5" x="66.77" y="103.82" width="12.36" height="12.36"/><rect class="cls-2" x="66.77" y="91.48" width="12.36" height="12.34"/><rect class="cls-4" x="66.77" y="79.11" width="12.36" height="12.36"/><rect class="cls-3" x="66.77" y="66.77" width="12.36" height="12.34"/><rect class="cls-3" x="66.77" y="54.41" width="12.36" height="12.36"/><rect class="cls-2" x="66.77" y="42.07" width="12.36" height="12.34"/><rect class="cls-5" x="66.77" y="29.7" width="12.36" height="12.36"/><rect class="cls-4" x="66.77" y="17.36" width="12.36" height="12.34"/><rect class="cls-2" x="66.77" y="5" width="12.36" height="12.36"/><rect class="cls-2" x="79.14" y="202.64" width="12.34" height="12.36"/><rect class="cls-5" x="79.14" y="190.3" width="12.34" height="12.34"/><rect class="cls-4" x="79.14" y="177.93" width="12.34" height="12.36"/><rect class="cls-4" x="79.14" y="165.59" width="12.34" height="12.34"/><rect class="cls-4" x="79.14" y="153.23" width="12.34" height="12.36"/><rect class="cls-3" x="79.14" y="140.89" width="12.34" height="12.34"/><rect class="cls-5" x="79.14" y="128.52" width="12.34" height="12.36"/><rect class="cls-5" x="79.14" y="116.18" width="12.34" height="12.34"/><rect class="cls-5" x="79.14" y="103.82" width="12.34" height="12.36"/><rect class="cls-2" x="79.14" y="91.48" width="12.34" height="12.34"/><rect class="cls-4" x="79.14" y="79.11" width="12.34" height="12.36"/><rect class="cls-3" x="79.14" y="66.77" width="12.34" height="12.34"/><rect class="cls-3" x="79.14" y="54.41" width="12.34" height="12.36"/><rect class="cls-2" x="79.14" y="42.07" width="12.34" height="12.34"/><rect class="cls-5" x="79.14" y="29.7" width="12.34" height="12.36"/><rect class="cls-4" x="79.14" y="17.36" width="12.34" height="12.34"/><rect class="cls-2" x="79.14" y="5" width="12.34" height="12.36"/><rect class="cls-2" x="91.48" y="202.64" width="12.36" height="12.36"/><rect class="cls-5" x="91.48" y="190.3" width="12.36" height="12.34"/><rect class="cls-4" x="91.48" y="177.93" width="12.36" height="12.36"/><rect class="cls-4" x="91.48" y="165.59" width="12.36" height="12.34"/><rect class="cls-4" x="91.48" y="153.23" width="12.36" height="12.36"/><rect class="cls-3" x="91.48" y="140.89" width="12.36" height="12.34"/><rect class="cls-3" x="91.48" y="128.52" width="12.36" height="12.36"/><rect class="cls-3" x="91.48" y="116.18" width="12.36" height="12.34"/><rect class="cls-5" x="91.48" y="103.82" width="12.36" height="12.36"/><rect class="cls-2" x="91.48" y="91.48" width="12.36" height="12.34"/><rect class="cls-4" x="91.48" y="79.11" width="12.36" height="12.36"/><rect class="cls-3" x="91.48" y="66.77" width="12.36" height="12.34"/><rect class="cls-3" x="91.48" y="54.41" width="12.36" height="12.36"/><rect class="cls-2" x="91.48" y="42.07" width="12.36" height="12.34"/><rect class="cls-5" x="91.48" y="29.7" width="12.36" height="12.36"/><rect class="cls-4" x="91.48" y="17.36" width="12.36" height="12.34"/><rect class="cls-2" x="91.48" y="5" width="12.36" height="12.36"/><rect class="cls-2" x="103.84" y="202.64" width="12.34" height="12.36"/><rect class="cls-5" x="103.84" y="190.3" width="12.34" height="12.34"/><rect class="cls-4" x="103.84" y="177.93" width="12.34" height="12.36"/><rect class="cls-4" x="103.84" y="165.59" width="12.34" height="12.34"/><rect class="cls-4" x="103.84" y="153.23" width="12.34" height="12.36"/><rect class="cls-4" x="103.84" y="140.89" width="12.34" height="12.34"/><rect class="cls-4" x="103.84" y="128.52" width="12.34" height="12.36"/><rect class="cls-3" x="103.84" y="116.18" width="12.34" height="12.34"/><rect class="cls-5" x="103.84" y="103.82" width="12.34" height="12.36"/><rect class="cls-2" x="103.84" y="91.48" width="12.34" height="12.34"/><rect class="cls-4" x="103.84" y="79.11" width="12.34" height="12.36"/><rect class="cls-3" x="103.84" y="66.77" width="12.34" height="12.34"/><rect class="cls-3" x="103.84" y="54.41" width="12.34" height="12.36"/><rect class="cls-2" x="103.84" y="42.07" width="12.34" height="12.34"/><rect class="cls-5" x="103.84" y="29.7" width="12.34" height="12.36"/><rect class="cls-4" x="103.84" y="17.36" width="12.34" height="12.34"/><rect class="cls-2" x="103.84" y="5" width="12.34" height="12.36"/><rect class="cls-2" x="116.18" y="202.64" width="12.36" height="12.36"/><rect class="cls-5" x="116.18" y="190.3" width="12.36" height="12.34"/><rect class="cls-4" x="116.18" y="177.93" width="12.36" height="12.36"/><rect class="cls-4" x="116.18" y="165.59" width="12.36" height="12.34"/><rect class="cls-4" x="116.18" y="153.23" width="12.36" height="12.36"/><rect class="cls-4" x="116.18" y="140.89" width="12.36" height="12.34"/><rect class="cls-4" x="116.18" y="128.52" width="12.36" height="12.36"/><rect class="cls-3" x="116.18" y="116.18" width="12.36" height="12.34"/><rect class="cls-5" x="116.18" y="103.82" width="12.36" height="12.36"/><rect class="cls-2" x="116.18" y="91.48" width="12.36" height="12.34"/><rect class="cls-4" x="116.18" y="79.11" width="12.36" height="12.36"/><rect class="cls-3" x="116.18" y="66.77" width="12.36" height="12.34"/><rect class="cls-3" x="116.18" y="54.41" width="12.36" height="12.36"/><rect class="cls-2" x="116.18" y="42.07" width="12.36" height="12.34"/><rect class="cls-5" x="116.18" y="29.7" width="12.36" height="12.36"/><rect class="cls-4" x="116.18" y="17.36" width="12.36" height="12.34"/><rect class="cls-2" x="116.18" y="5" width="12.36" height="12.36"/><rect class="cls-2" x="128.55" y="202.64" width="12.34" height="12.36"/><rect class="cls-5" x="128.55" y="190.3" width="12.34" height="12.34"/><rect class="cls-5" x="128.55" y="177.93" width="12.34" height="12.36"/><rect class="cls-5" x="128.55" y="165.59" width="12.34" height="12.34"/><rect class="cls-5" x="128.55" y="153.23" width="12.34" height="12.36"/><rect class="cls-5" x="128.55" y="140.89" width="12.34" height="12.34"/><rect class="cls-5" x="128.55" y="128.52" width="12.34" height="12.36"/><rect class="cls-5" x="128.55" y="116.18" width="12.34" height="12.34"/><rect class="cls-5" x="128.55" y="103.82" width="12.34" height="12.36"/><rect class="cls-2" x="128.55" y="91.48" width="12.34" height="12.34"/><rect class="cls-4" x="128.55" y="79.11" width="12.34" height="12.36"/><rect class="cls-3" x="128.55" y="66.77" width="12.34" height="12.34"/><rect class="cls-3" x="128.55" y="54.41" width="12.34" height="12.36"/><rect class="cls-2" x="128.55" y="42.07" width="12.34" height="12.34"/><rect class="cls-5" x="128.55" y="29.7" width="12.34" height="12.36"/><rect class="cls-4" x="128.55" y="17.36" width="12.34" height="12.34"/><rect class="cls-2" x="128.55" y="5" width="12.34" height="12.36"/><rect class="cls-2" x="140.89" y="202.64" width="12.36" height="12.36"/><rect class="cls-2" x="140.89" y="190.3" width="12.36" height="12.34"/><rect class="cls-2" x="140.89" y="177.93" width="12.36" height="12.36"/><rect class="cls-2" x="140.89" y="165.59" width="12.36" height="12.34"/><rect class="cls-2" x="140.89" y="153.23" width="12.36" height="12.36"/><rect class="cls-2" x="140.89" y="140.89" width="12.36" height="12.34"/><rect class="cls-2" x="140.89" y="128.52" width="12.36" height="12.36"/><rect class="cls-2" x="140.89" y="116.18" width="12.36" height="12.34"/><rect class="cls-2" x="140.89" y="103.82" width="12.36" height="12.36"/><rect class="cls-2" x="140.89" y="91.48" width="12.36" height="12.34"/><rect class="cls-4" x="140.89" y="79.11" width="12.36" height="12.36"/><rect class="cls-3" x="140.89" y="66.77" width="12.36" height="12.34"/><rect class="cls-3" x="140.89" y="54.41" width="12.36" height="12.36"/><rect class="cls-2" x="140.89" y="42.07" width="12.36" height="12.34"/><rect class="cls-5" x="140.89" y="29.7" width="12.36" height="12.36"/><rect class="cls-4" x="140.89" y="17.36" width="12.36" height="12.34"/><rect class="cls-2" x="140.89" y="5" width="12.36" height="12.36"/><rect class="cls-2" x="153.25" y="202.64" width="12.34" height="12.36"/><rect class="cls-5" x="153.25" y="190.3" width="12.34" height="12.34"/><rect class="cls-5" x="153.25" y="177.93" width="12.34" height="12.36"/><rect class="cls-5" x="153.25" y="165.59" width="12.34" height="12.34"/><rect class="cls-5" x="153.25" y="153.23" width="12.34" height="12.36"/><rect class="cls-5" x="153.25" y="140.89" width="12.34" height="12.34"/><rect class="cls-5" x="153.25" y="128.52" width="12.34" height="12.36"/><rect class="cls-5" x="153.25" y="116.18" width="12.34" height="12.34"/><rect class="cls-5" x="153.25" y="103.82" width="12.34" height="12.36"/><rect class="cls-2" x="153.25" y="91.48" width="12.34" height="12.34"/><rect class="cls-4" x="153.25" y="79.11" width="12.34" height="12.36"/><rect class="cls-3" x="153.25" y="66.77" width="12.34" height="12.34"/><rect class="cls-3" x="153.25" y="54.41" width="12.34" height="12.36"/><rect class="cls-2" x="153.25" y="42.07" width="12.34" height="12.34"/><rect class="cls-5" x="153.25" y="29.7" width="12.34" height="12.36"/><rect class="cls-4" x="153.25" y="17.36" width="12.34" height="12.34"/><rect class="cls-2" x="153.25" y="5" width="12.34" height="12.36"/><rect class="cls-2" x="165.59" y="202.64" width="12.36" height="12.36"/><rect class="cls-5" x="165.59" y="190.3" width="12.36" height="12.34"/><rect class="cls-3" x="165.59" y="177.93" width="12.36" height="12.36"/><rect class="cls-3" x="165.59" y="165.59" width="12.36" height="12.34"/><rect class="cls-3" x="165.59" y="153.23" width="12.36" height="12.36"/><rect class="cls-3" x="165.59" y="140.89" width="12.36" height="12.34"/><rect class="cls-3" x="165.59" y="128.52" width="12.36" height="12.36"/><rect class="cls-3" x="165.59" y="116.18" width="12.36" height="12.34"/><rect class="cls-5" x="165.59" y="103.82" width="12.36" height="12.36"/><rect class="cls-2" x="165.59" y="91.48" width="12.36" height="12.34"/><rect class="cls-4" x="165.59" y="79.11" width="12.36" height="12.36"/><rect class="cls-3" x="165.59" y="66.77" width="12.36" height="12.34"/><rect class="cls-2" x="165.59" y="54.41" width="12.36" height="12.36"/><rect class="cls-3" x="165.59" y="42.07" width="12.36" height="12.34"/><rect class="cls-2" x="165.59" y="29.7" width="12.36" height="12.36"/><rect class="cls-5" x="165.59" y="17.36" width="12.36" height="12.34"/><rect class="cls-2" x="165.59" y="5" width="12.36" height="12.36"/><rect class="cls-2" x="177.96" y="202.64" width="12.34" height="12.36"/><rect class="cls-5" x="177.96" y="190.3" width="12.34" height="12.34"/><rect class="cls-3" x="177.96" y="177.93" width="12.34" height="12.36"/><rect class="cls-3" x="177.96" y="165.59" width="12.34" height="12.34"/><rect class="cls-3" x="177.96" y="153.23" width="12.34" height="12.36"/><rect class="cls-3" x="177.96" y="140.89" width="12.34" height="12.34"/><rect class="cls-3" x="177.96" y="128.52" width="12.34" height="12.36"/><rect class="cls-3" x="177.96" y="116.18" width="12.34" height="12.34"/><rect class="cls-5" x="177.96" y="103.82" width="12.34" height="12.36"/><rect class="cls-2" x="177.96" y="91.48" width="12.34" height="12.34"/><rect class="cls-4" x="177.96" y="79.11" width="12.34" height="12.36"/><rect class="cls-2" x="177.96" y="66.77" width="12.34" height="12.34"/><rect class="cls-3" x="177.96" y="54.41" width="12.34" height="12.36"/><rect class="cls-3" x="177.96" y="42.07" width="12.34" height="12.34"/><rect class="cls-5" x="177.96" y="29.7" width="12.34" height="12.36"/><rect class="cls-2" x="177.96" y="17.36" width="12.34" height="12.34"/><rect class="cls-2" x="190.3" y="202.64" width="12.36" height="12.36"/><rect class="cls-5" x="190.3" y="190.3" width="12.36" height="12.34"/><rect class="cls-5" x="190.3" y="177.93" width="12.36" height="12.36"/><rect class="cls-5" x="190.3" y="165.59" width="12.36" height="12.34"/><rect class="cls-5" x="190.3" y="153.23" width="12.36" height="12.36"/><rect class="cls-5" x="190.3" y="140.89" width="12.36" height="12.34"/><rect class="cls-5" x="190.3" y="128.52" width="12.36" height="12.36"/><rect class="cls-5" x="190.3" y="116.18" width="12.36" height="12.34"/><rect class="cls-5" x="190.3" y="103.82" width="12.36" height="12.36"/><rect class="cls-2" x="190.3" y="91.48" width="12.36" height="12.34"/><rect class="cls-2" x="190.3" y="79.11" width="12.36" height="12.36"/><rect class="cls-5" x="190.3" y="66.77" width="12.36" height="12.34"/><rect class="cls-5" x="190.3" y="54.41" width="12.36" height="12.36"/><rect class="cls-5" x="190.3" y="42.07" width="12.36" height="12.34"/><rect class="cls-2" x="190.3" y="29.7" width="12.36" height="12.36"/><rect class="cls-2" x="202.66" y="202.64" width="12.34" height="12.36"/><rect class="cls-2" x="202.66" y="190.3" width="12.34" height="12.34"/><rect class="cls-2" x="202.66" y="177.93" width="12.34" height="12.36"/><rect class="cls-2" x="202.66" y="165.59" width="12.34" height="12.34"/><rect class="cls-2" x="202.66" y="153.23" width="12.34" height="12.36"/><rect class="cls-2" x="202.66" y="140.89" width="12.34" height="12.34"/><rect class="cls-2" x="202.66" y="128.52" width="12.34" height="12.36"/><rect class="cls-2" x="202.66" y="116.18" width="12.34" height="12.34"/><rect class="cls-2" x="202.66" y="103.82" width="12.34" height="12.36"/><rect class="cls-2" x="202.66" y="91.48" width="12.34" height="12.34"/><rect class="cls-2" x="202.66" y="79.11" width="12.34" height="12.36"/><rect class="cls-2" x="202.66" y="66.77" width="12.34" height="12.34"/><rect class="cls-2" x="202.66" y="54.41" width="12.34" height="12.36"/><rect class="cls-2" x="202.66" y="42.07" width="12.34" height="12.34"/></svg>