<?xml version="1.0" encoding="UTF-8"?><svg id="Layer_1" xmlns="http://www.w3.org/2000/svg" viewBox="0 0 250 220"><defs><style>.cls-1{fill:#e43b44;}.cls-2{fill:#f77622;}.cls-3{fill:#be4a2f;}.cls-4{fill:#d77643;}.cls-5{fill:#e9e5e1;}.cls-6{fill:#c0cbdc;}.cls-7{fill:#8b9bb4;}.cls-8{fill:#feae34;}.cls-9{fill:#fee761;}</style></defs><polygon class="cls-5" points="180 115 180 125 200 125 200 105 190 105 190 115 180 115"/><polygon class="cls-5" points="90 125 90 75 50 75 50 85 80 85 80 105 70 105 70 115 60 115 60 125 90 125"/><polygon class="cls-5" points="130 105 130 95 110 95 110 115 120 115 120 105 130 105"/><polygon class="cls-5" points="70 105 70 95 50 95 50 115 60 115 60 105 70 105"/><polygon class="cls-5" points="160 75 160 125 170 125 170 115 180 115 180 105 190 105 190 95 170 95 170 85 200 85 200 75 160 75"/><polygon class="cls-5" points="110 75 110 85 140 85 140 105 130 105 130 115 120 115 120 125 150 125 150 75 110 75"/><rect class="cls-1" x="170" y="115" width="10" height="20"/><rect class="cls-1" x="110" y="115" width="10" height="20"/><rect class="cls-1" x="50" y="115" width="10" height="20"/><rect class="cls-1" x="180" y="105" width="10" height="10"/><rect class="cls-1" x="120" y="105" width="10" height="10"/><rect class="cls-1" x="60" y="105" width="10" height="10"/><polygon class="cls-6" points="210 145 210 75 200 75 200 125 180 125 180 135 170 135 170 125 160 125 160 145 210 145"/><polygon class="cls-6" points="150 145 150 125 120 125 120 135 110 135 110 75 100 75 100 145 150 145"/><polygon class="cls-6" points="90 125 60 125 60 135 50 135 50 75 40 75 40 145 90 145 90 125"/><rect class="cls-4" x="20" y="165" width="210" height="10"/><rect class="cls-4" x="230" y="145" width="10" height="10"/><rect class="cls-4" x="10" y="145" width="10" height="10"/><rect class="cls-4" x="210" y="135" width="20" height="10"/><rect class="cls-4" x="20" y="135" width="20" height="10"/><polygon class="cls-3" points="210 145 210 155 160 155 160 145 150 145 150 155 100 155 100 145 90 145 90 155 40 155 40 145 20 145 20 165 230 165 230 145 210 145"/><rect class="cls-3" x="230" y="125" width="10" height="20"/><rect class="cls-3" x="10" y="125" width="10" height="20"/><rect class="cls-7" x="160" y="145" width="50" height="10"/><rect class="cls-7" x="100" y="145" width="50" height="10"/><rect class="cls-7" x="40" y="145" width="50" height="10"/><rect class="cls-7" x="160" y="65" width="50" height="10"/><rect class="cls-7" x="100" y="65" width="50" height="10"/><rect class="cls-7" x="40" y="65" width="50" height="10"/><rect class="cls-2" x="150" y="115" width="10" height="10"/><rect class="cls-2" x="90" y="115" width="10" height="10"/><polygon class="cls-2" points="40 125 40 115 20 115 20 105 10 105 10 125 40 125"/><polygon class="cls-2" points="230 115 210 115 210 125 240 125 240 105 230 105 230 115"/><polygon class="cls-2" points="140 105 140 85 110 85 110 95 130 95 130 105 140 105"/><polygon class="cls-2" points="170 85 170 95 190 95 190 105 200 105 200 85 170 85"/><polygon class="cls-2" points="70 95 70 105 80 105 80 85 50 85 50 95 70 95"/><rect class="cls-8" x="190" y="195" width="10" height="10"/><rect class="cls-8" x="120" y="185" width="10" height="20"/><rect class="cls-8" x="50" y="195" width="10" height="10"/><rect class="cls-8" x="180" y="185" width="10" height="10"/><rect class="cls-8" x="60" y="185" width="10" height="10"/><rect class="cls-8" x="210" y="125" width="20" height="10"/><rect class="cls-8" x="150" y="125" width="10" height="20"/><rect class="cls-8" x="90" y="125" width="10" height="20"/><rect class="cls-8" x="20" y="125" width="20" height="10"/><rect class="cls-8" x="210" y="105" width="20" height="10"/><rect class="cls-8" x="150" y="105" width="10" height="10"/><rect class="cls-8" x="90" y="105" width="10" height="10"/><rect class="cls-8" x="20" y="105" width="20" height="10"/><rect class="cls-8" x="230" y="95" width="10" height="10"/><rect class="cls-8" x="10" y="95" width="10" height="10"/><rect class="cls-8" x="210" y="85" width="20" height="10"/><rect class="cls-8" x="150" y="85" width="10" height="10"/><rect class="cls-8" x="90" y="85" width="10" height="10"/><rect class="cls-8" x="20" y="85" width="20" height="10"/><rect class="cls-8" x="230" y="65" width="10" height="10"/><rect class="cls-8" x="10" y="65" width="10" height="10"/><rect class="cls-8" x="20" y="45" width="210" height="10"/><rect class="cls-8" x="180" y="25" width="10" height="10"/><rect class="cls-8" x="120" y="15" width="10" height="20"/><rect class="cls-8" x="60" y="25" width="10" height="10"/><rect class="cls-8" x="190" y="15" width="10" height="10"/><rect class="cls-8" x="50" y="15" width="10" height="10"/><rect class="cls-9" x="200" y="205" width="10" height="10"/><rect class="cls-9" x="120" y="205" width="10" height="10"/><rect class="cls-9" x="40" y="205" width="10" height="10"/><rect class="cls-9" x="210" y="95" width="20" height="10"/><rect class="cls-9" x="150" y="95" width="10" height="10"/><rect class="cls-9" x="90" y="95" width="10" height="10"/><rect class="cls-9" x="20" y="95" width="20" height="10"/><polygon class="cls-9" points="230 55 20 55 20 75 10 75 10 95 20 95 20 85 40 85 40 65 90 65 90 85 100 85 100 65 150 65 150 85 160 85 160 65 210 65 210 85 230 85 230 95 240 95 240 75 230 75 230 55"/><rect class="cls-9" x="200" y="5" width="10" height="10"/><rect class="cls-9" x="120" y="5" width="10" height="10"/><rect class="cls-9" x="40" y="5" width="10" height="10"/></svg>