<?xml version="1.0" encoding="UTF-8"?><svg id="Layer_1" xmlns="http://www.w3.org/2000/svg" viewBox="0 0 220 220"><defs><style>.cls-1{opacity:.85;}.cls-2{fill:#fff;}.cls-3{opacity:.9;}.cls-4{fill:#fe9800;}.cls-5{fill:#0a0;}.cls-6{fill:#10b0a3;}.cls-7{fill:#3c15bc;}.cls-8{fill:#9c26af;}.cls-9{fill:#fe0000;}.cls-10{fill:#203aeb;}.cls-11{fill:#ff0;}</style></defs><g class="cls-3"><g><rect class="cls-2" x="140.88" y="54.41" width="12.35" height="12.35"/><rect class="cls-2" x="140.88" y="42.06" width="12.35" height="12.35"/><rect class="cls-2" x="140.88" y="29.71" width="12.35" height="12.35"/><rect class="cls-2" x="128.53" y="54.41" width="12.35" height="12.35"/><rect class="cls-2" x="128.53" y="42.06" width="12.35" height="12.35"/><rect class="cls-2" x="128.53" y="29.71" width="12.35" height="12.35"/><rect class="cls-2" x="128.53" y="17.35" width="12.35" height="12.36"/><rect class="cls-2" x="116.18" y="54.41" width="12.35" height="12.35"/><rect class="cls-2" x="116.18" y="42.06" width="12.35" height="12.35"/><rect class="cls-2" x="116.18" y="29.71" width="12.35" height="12.35"/><rect class="cls-2" x="116.18" y="17.35" width="12.35" height="12.36"/><rect class="cls-2" x="91.47" y="54.41" width="12.35" height="12.35"/><rect class="cls-2" x="91.47" y="42.06" width="12.35" height="12.35"/><rect class="cls-2" x="91.47" y="29.71" width="12.35" height="12.35"/><rect class="cls-2" x="91.47" y="17.35" width="12.35" height="12.36"/><rect class="cls-2" x="79.12" y="54.41" width="12.35" height="12.35"/><rect class="cls-2" x="79.12" y="42.06" width="12.35" height="12.35"/><rect class="cls-2" x="79.12" y="29.71" width="12.35" height="12.35"/><rect class="cls-2" x="79.12" y="17.35" width="12.35" height="12.36"/><rect class="cls-2" x="66.77" y="54.41" width="12.35" height="12.35"/><rect class="cls-2" x="66.77" y="42.06" width="12.35" height="12.35"/><rect class="cls-2" x="66.77" y="29.71" width="12.35" height="12.35"/><rect class="cls-2" x="54.41" y="42.06" width="12.36" height="12.35"/><rect class="cls-2" x="54.41" y="29.71" width="12.36" height="12.35"/><rect class="cls-2" x="42.06" y="54.41" width="12.35" height="12.35"/><rect class="cls-2" x="29.71" y="54.41" width="12.35" height="12.35"/><rect class="cls-2" x="177.94" y="54.41" width="12.36" height="12.35"/><rect class="cls-2" x="165.59" y="54.41" width="12.35" height="12.35"/><rect class="cls-2" x="153.23" y="42.06" width="12.35" height="12.35"/><rect class="cls-2" x="153.23" y="29.71" width="12.35" height="12.35"/><rect class="cls-2" x="140.88" y="153.24" width="12.35" height="12.35"/><rect class="cls-2" x="140.88" y="128.53" width="12.35" height="12.35"/><rect class="cls-2" x="140.88" y="110" width="12.35" height="18.53"/><rect class="cls-2" x="140.88" y="103.82" width="12.35" height="6.18"/><rect class="cls-2" x="140.88" y="91.47" width="12.35" height="12.35"/><rect class="cls-2" x="140.88" y="79.12" width="12.35" height="12.35"/><rect class="cls-2" x="128.53" y="153.24" width="12.35" height="12.35"/><rect class="cls-2" x="128.53" y="140.88" width="12.35" height="12.35"/><rect class="cls-2" x="128.53" y="110" width="12.35" height="18.53"/><rect class="cls-2" x="128.53" y="103.82" width="12.35" height="6.18"/><rect class="cls-2" x="128.53" y="91.47" width="12.35" height="12.35"/><rect class="cls-2" x="128.53" y="66.76" width="12.35" height="12.36"/><rect class="cls-2" x="116.18" y="153.24" width="12.35" height="12.35"/><rect class="cls-2" x="116.18" y="140.88" width="12.35" height="12.35"/><rect class="cls-2" x="116.18" y="128.53" width="12.35" height="12.35"/><rect class="cls-2" x="116.18" y="79.12" width="12.35" height="12.35"/><rect class="cls-2" x="116.18" y="66.76" width="12.35" height="12.36"/><rect class="cls-2" x="103.82" y="103.82" width="12.36" height="12.35"/><rect class="cls-2" x="91.47" y="153.24" width="12.35" height="12.35"/><rect class="cls-2" x="91.47" y="140.88" width="12.35" height="12.35"/><rect class="cls-2" x="91.47" y="128.53" width="12.35" height="12.35"/><rect class="cls-2" x="91.47" y="79.12" width="12.35" height="12.35"/><rect class="cls-2" x="91.47" y="66.76" width="12.35" height="12.36"/><rect class="cls-2" x="79.12" y="153.24" width="12.35" height="12.35"/><rect class="cls-2" x="79.12" y="140.88" width="12.35" height="12.35"/><rect class="cls-2" x="79.12" y="116.18" width="12.35" height="12.36"/><rect class="cls-2" x="79.12" y="91.47" width="12.35" height="12.35"/><rect class="cls-2" x="79.12" y="66.76" width="12.35" height="12.36"/><rect class="cls-2" x="66.77" y="153.24" width="12.35" height="12.35"/><rect class="cls-2" x="66.77" y="128.53" width="12.35" height="12.35"/><rect class="cls-2" x="66.77" y="116.18" width="12.35" height="12.36"/><rect class="cls-2" x="66.77" y="91.47" width="12.35" height="12.35"/><rect class="cls-2" x="66.77" y="79.12" width="12.35" height="12.35"/><rect class="cls-2" x="54.41" y="140.88" width="12.36" height="12.35"/><rect class="cls-2" x="54.41" y="128.53" width="12.36" height="12.35"/><rect class="cls-2" x="54.41" y="116.18" width="12.36" height="12.36"/><rect class="cls-2" x="54.41" y="91.47" width="12.36" height="12.35"/><rect class="cls-2" x="54.41" y="79.12" width="12.36" height="12.35"/><rect class="cls-2" x="54.41" y="66.76" width="12.36" height="12.36"/><rect class="cls-2" x="42.06" y="153.24" width="12.35" height="12.35"/><rect class="cls-2" x="42.06" y="140.88" width="12.35" height="12.35"/><rect class="cls-2" x="42.06" y="128.53" width="12.35" height="12.35"/><rect class="cls-2" x="42.06" y="116.18" width="12.35" height="12.36"/><rect class="cls-2" x="42.06" y="91.47" width="12.35" height="12.35"/><rect class="cls-2" x="42.06" y="79.12" width="12.35" height="12.35"/><rect class="cls-2" x="42.06" y="66.76" width="12.35" height="12.36"/><rect class="cls-2" x="29.71" y="153.24" width="12.35" height="12.35"/><rect class="cls-2" x="29.71" y="140.88" width="12.35" height="12.35"/><rect class="cls-2" x="29.71" y="128.53" width="12.35" height="12.35"/><rect class="cls-2" x="29.71" y="116.18" width="12.35" height="12.36"/><rect class="cls-2" x="29.71" y="91.47" width="12.35" height="12.35"/><rect class="cls-2" x="29.71" y="79.12" width="12.35" height="12.35"/><rect class="cls-2" x="29.71" y="66.76" width="12.35" height="12.36"/><rect class="cls-2" x="17.35" y="128.53" width="12.36" height="12.35"/><rect class="cls-2" x="17.35" y="116.18" width="12.36" height="12.36"/><rect class="cls-2" x="17.35" y="91.47" width="12.36" height="12.35"/><rect class="cls-2" x="17.35" y="79.12" width="12.36" height="12.35"/><rect class="cls-2" x="190.29" y="128.53" width="12.35" height="12.35"/><rect class="cls-2" x="190.29" y="110" width="12.35" height="18.53"/><rect class="cls-2" x="190.29" y="103.82" width="12.35" height="6.18"/><rect class="cls-2" x="190.29" y="91.47" width="12.35" height="12.35"/><rect class="cls-2" x="190.29" y="79.12" width="12.35" height="12.35"/><rect class="cls-2" x="177.94" y="153.24" width="12.36" height="12.35"/><rect class="cls-2" x="177.94" y="140.88" width="12.36" height="12.35"/><rect class="cls-2" x="177.94" y="128.53" width="12.36" height="12.35"/><rect class="cls-2" x="177.94" y="110" width="12.36" height="18.53"/><rect class="cls-2" x="177.94" y="103.82" width="12.36" height="6.18"/><rect class="cls-2" x="177.94" y="91.47" width="12.36" height="12.35"/><rect class="cls-2" x="177.94" y="79.12" width="12.36" height="12.35"/><rect class="cls-2" x="177.94" y="66.76" width="12.36" height="12.36"/><rect class="cls-2" x="165.59" y="153.24" width="12.35" height="12.35"/><rect class="cls-2" x="165.59" y="140.88" width="12.35" height="12.35"/><rect class="cls-2" x="165.59" y="128.53" width="12.35" height="12.35"/><rect class="cls-2" x="165.59" y="110" width="12.35" height="18.53"/><rect class="cls-2" x="165.59" y="103.82" width="12.35" height="6.18"/><rect class="cls-2" x="165.59" y="91.47" width="12.35" height="12.35"/><rect class="cls-2" x="165.59" y="79.12" width="12.35" height="12.35"/><rect class="cls-2" x="165.59" y="66.76" width="12.35" height="12.36"/><rect class="cls-2" x="153.23" y="140.88" width="12.35" height="12.35"/><rect class="cls-2" x="153.23" y="128.53" width="12.35" height="12.35"/><rect class="cls-2" x="153.23" y="110" width="12.35" height="18.53"/><rect class="cls-2" x="153.23" y="103.82" width="12.35" height="6.18"/><rect class="cls-2" x="153.23" y="91.47" width="12.35" height="12.35"/><rect class="cls-2" x="153.23" y="79.12" width="12.35" height="12.35"/><rect class="cls-2" x="153.23" y="66.76" width="12.35" height="12.36"/><rect class="cls-2" x="140.88" y="177.94" width="12.35" height="12.35"/><rect class="cls-2" x="140.88" y="165.59" width="12.35" height="12.36"/><rect class="cls-2" x="128.53" y="190.3" width="12.35" height="12.35"/><rect class="cls-2" x="128.53" y="177.94" width="12.35" height="12.35"/><rect class="cls-2" x="128.53" y="165.59" width="12.35" height="12.36"/><rect class="cls-2" x="116.18" y="190.3" width="12.35" height="12.35"/><rect class="cls-2" x="116.18" y="177.94" width="12.35" height="12.35"/><rect class="cls-2" x="116.18" y="165.59" width="12.35" height="12.36"/><rect class="cls-2" x="91.47" y="190.3" width="12.35" height="12.35"/><rect class="cls-2" x="91.47" y="177.94" width="12.35" height="12.35"/><rect class="cls-2" x="91.47" y="165.59" width="12.35" height="12.36"/><rect class="cls-2" x="79.12" y="190.3" width="12.35" height="12.35"/><rect class="cls-2" x="79.12" y="177.94" width="12.35" height="12.35"/><rect class="cls-2" x="79.12" y="165.59" width="12.35" height="12.36"/><rect class="cls-2" x="66.77" y="177.94" width="12.35" height="12.35"/><rect class="cls-2" x="66.77" y="165.59" width="12.35" height="12.36"/><rect class="cls-2" x="54.41" y="177.94" width="12.36" height="12.35"/><rect class="cls-2" x="54.41" y="165.59" width="12.36" height="12.36"/><rect class="cls-2" x="153.23" y="177.94" width="12.35" height="12.35"/><rect class="cls-2" x="153.23" y="165.59" width="12.35" height="12.36"/></g></g><g class="cls-1"><g><rect class="cls-9" x="140.88" y="54.41" width="12.35" height="12.35"/><rect class="cls-9" x="140.88" y="42.06" width="12.35" height="12.35"/><rect class="cls-9" x="140.88" y="29.71" width="12.35" height="12.35"/><rect class="cls-9" x="128.53" y="54.41" width="12.35" height="12.35"/><rect class="cls-9" x="128.53" y="42.06" width="12.35" height="12.35"/><rect class="cls-9" x="128.53" y="29.71" width="12.35" height="12.35"/><rect class="cls-9" x="128.53" y="17.35" width="12.35" height="12.36"/><rect class="cls-9" x="116.18" y="54.41" width="12.35" height="12.35"/><rect class="cls-9" x="116.18" y="42.06" width="12.35" height="12.35"/><rect class="cls-9" x="116.18" y="29.71" width="12.35" height="12.35"/><rect class="cls-9" x="116.18" y="17.35" width="12.35" height="12.36"/><rect class="cls-8" x="91.47" y="54.41" width="12.35" height="12.35"/><rect class="cls-8" x="91.47" y="42.06" width="12.35" height="12.35"/><rect class="cls-8" x="91.47" y="29.71" width="12.35" height="12.35"/><rect class="cls-8" x="91.47" y="17.35" width="12.35" height="12.36"/><rect class="cls-8" x="79.12" y="54.41" width="12.35" height="12.35"/><rect class="cls-8" x="79.12" y="42.06" width="12.35" height="12.35"/><rect class="cls-8" x="79.12" y="29.71" width="12.35" height="12.35"/><rect class="cls-8" x="79.12" y="17.35" width="12.35" height="12.36"/><rect class="cls-8" x="66.77" y="54.41" width="12.35" height="12.35"/><rect class="cls-8" x="66.77" y="42.06" width="12.35" height="12.35"/><rect class="cls-8" x="66.77" y="29.71" width="12.35" height="12.35"/><rect class="cls-8" x="54.41" y="42.06" width="12.36" height="12.35"/><rect class="cls-8" x="54.41" y="29.71" width="12.36" height="12.35"/><rect class="cls-7" x="42.06" y="54.41" width="12.35" height="12.35"/><rect class="cls-7" x="29.71" y="54.41" width="12.35" height="12.35"/><rect class="cls-4" x="177.94" y="54.41" width="12.36" height="12.35"/><rect class="cls-4" x="165.59" y="54.41" width="12.35" height="12.35"/><rect class="cls-9" x="153.23" y="42.06" width="12.35" height="12.35"/><rect class="cls-9" x="153.23" y="29.71" width="12.35" height="12.35"/><rect class="cls-5" x="140.88" y="153.24" width="12.35" height="12.35"/><rect class="cls-11" x="140.88" y="128.53" width="12.35" height="12.35"/><rect class="cls-11" x="140.88" y="110" width="12.35" height="18.53"/><rect class="cls-4" x="140.88" y="103.82" width="12.35" height="6.18"/><rect class="cls-4" x="140.88" y="91.47" width="12.35" height="12.35"/><rect class="cls-4" x="140.88" y="79.12" width="12.35" height="12.35"/><rect class="cls-5" x="128.53" y="153.24" width="12.35" height="12.35"/><rect class="cls-5" x="128.53" y="140.88" width="12.35" height="12.35"/><rect class="cls-11" x="128.53" y="110" width="12.35" height="18.53"/><rect class="cls-4" x="128.53" y="103.82" width="12.35" height="6.18"/><rect class="cls-4" x="128.53" y="91.47" width="12.35" height="12.35"/><rect class="cls-9" x="128.53" y="66.76" width="12.35" height="12.36"/><rect class="cls-5" x="116.18" y="153.24" width="12.35" height="12.35"/><rect class="cls-5" x="116.18" y="140.88" width="12.35" height="12.35"/><rect class="cls-5" x="116.18" y="128.53" width="12.35" height="12.35"/><rect class="cls-9" x="116.18" y="79.12" width="12.35" height="12.35"/><rect class="cls-9" x="116.18" y="66.76" width="12.35" height="12.36"/><rect class="cls-2" x="103.82" y="103.82" width="12.36" height="12.35"/><rect class="cls-6" x="91.47" y="153.24" width="12.35" height="12.35"/><rect class="cls-6" x="91.47" y="140.88" width="12.35" height="12.35"/><rect class="cls-6" x="91.47" y="128.53" width="12.35" height="12.35"/><rect class="cls-8" x="91.47" y="79.12" width="12.35" height="12.35"/><rect class="cls-8" x="91.47" y="66.76" width="12.35" height="12.36"/><rect class="cls-6" x="79.12" y="153.24" width="12.35" height="12.35"/><rect class="cls-6" x="79.12" y="140.88" width="12.35" height="12.35"/><rect class="cls-10" x="79.12" y="116.18" width="12.35" height="12.36"/><rect class="cls-7" x="79.12" y="91.47" width="12.35" height="12.35"/><rect class="cls-8" x="79.12" y="66.76" width="12.35" height="12.36"/><rect class="cls-6" x="66.77" y="153.24" width="12.35" height="12.35"/><rect class="cls-10" x="66.77" y="128.53" width="12.35" height="12.35"/><rect class="cls-10" x="66.77" y="116.18" width="12.35" height="12.36"/><rect class="cls-7" x="66.77" y="91.47" width="12.35" height="12.35"/><rect class="cls-7" x="66.77" y="79.12" width="12.35" height="12.35"/><rect class="cls-10" x="54.41" y="140.88" width="12.36" height="12.35"/><rect class="cls-10" x="54.41" y="128.53" width="12.36" height="12.35"/><rect class="cls-10" x="54.41" y="116.18" width="12.36" height="12.36"/><rect class="cls-7" x="54.41" y="91.47" width="12.36" height="12.35"/><rect class="cls-7" x="54.41" y="79.12" width="12.36" height="12.35"/><rect class="cls-7" x="54.41" y="66.76" width="12.36" height="12.36"/><rect class="cls-10" x="42.06" y="153.24" width="12.35" height="12.35"/><rect class="cls-10" x="42.06" y="140.88" width="12.35" height="12.35"/><rect class="cls-10" x="42.06" y="128.53" width="12.35" height="12.35"/><rect class="cls-10" x="42.06" y="116.18" width="12.35" height="12.36"/><rect class="cls-7" x="42.06" y="91.47" width="12.35" height="12.35"/><rect class="cls-7" x="42.06" y="79.12" width="12.35" height="12.35"/><rect class="cls-7" x="42.06" y="66.76" width="12.35" height="12.36"/><rect class="cls-10" x="29.71" y="153.24" width="12.35" height="12.35"/><rect class="cls-10" x="29.71" y="140.88" width="12.35" height="12.35"/><rect class="cls-10" x="29.71" y="128.53" width="12.35" height="12.35"/><rect class="cls-10" x="29.71" y="116.18" width="12.35" height="12.36"/><rect class="cls-7" x="29.71" y="91.47" width="12.35" height="12.35"/><rect class="cls-7" x="29.71" y="79.12" width="12.35" height="12.35"/><rect class="cls-7" x="29.71" y="66.76" width="12.35" height="12.36"/><rect class="cls-10" x="17.35" y="128.53" width="12.36" height="12.35"/><rect class="cls-10" x="17.35" y="116.18" width="12.36" height="12.36"/><rect class="cls-7" x="17.35" y="91.47" width="12.36" height="12.35"/><rect class="cls-7" x="17.35" y="79.12" width="12.36" height="12.35"/><rect class="cls-11" x="190.29" y="128.53" width="12.35" height="12.35"/><rect class="cls-11" x="190.29" y="110" width="12.35" height="18.53"/><rect class="cls-4" x="190.29" y="103.82" width="12.35" height="6.18"/><rect class="cls-4" x="190.29" y="91.47" width="12.35" height="12.35"/><rect class="cls-4" x="190.29" y="79.12" width="12.35" height="12.35"/><rect class="cls-11" x="177.94" y="153.24" width="12.36" height="12.35"/><rect class="cls-11" x="177.94" y="140.88" width="12.36" height="12.35"/><rect class="cls-11" x="177.94" y="128.53" width="12.36" height="12.35"/><rect class="cls-11" x="177.94" y="110" width="12.36" height="18.53"/><rect class="cls-4" x="177.94" y="103.82" width="12.36" height="6.18"/><rect class="cls-4" x="177.94" y="91.47" width="12.36" height="12.35"/><rect class="cls-4" x="177.94" y="79.12" width="12.36" height="12.35"/><rect class="cls-4" x="177.94" y="66.76" width="12.36" height="12.36"/><rect class="cls-11" x="165.59" y="153.24" width="12.35" height="12.35"/><rect class="cls-11" x="165.59" y="140.88" width="12.35" height="12.35"/><rect class="cls-11" x="165.59" y="128.53" width="12.35" height="12.35"/><rect class="cls-11" x="165.59" y="110" width="12.35" height="18.53"/><rect class="cls-4" x="165.59" y="103.82" width="12.35" height="6.18"/><rect class="cls-4" x="165.59" y="91.47" width="12.35" height="12.35"/><rect class="cls-4" x="165.59" y="79.12" width="12.35" height="12.35"/><rect class="cls-4" x="165.59" y="66.76" width="12.35" height="12.36"/><rect class="cls-11" x="153.23" y="140.88" width="12.35" height="12.35"/><rect class="cls-11" x="153.23" y="128.53" width="12.35" height="12.35"/><rect class="cls-11" x="153.23" y="110" width="12.35" height="18.53"/><rect class="cls-4" x="153.23" y="103.82" width="12.35" height="6.18"/><rect class="cls-4" x="153.23" y="91.47" width="12.35" height="12.35"/><rect class="cls-4" x="153.23" y="79.12" width="12.35" height="12.35"/><rect class="cls-4" x="153.23" y="66.76" width="12.35" height="12.36"/><rect class="cls-5" x="140.88" y="177.94" width="12.35" height="12.35"/><rect class="cls-5" x="140.88" y="165.59" width="12.35" height="12.36"/><rect class="cls-5" x="128.53" y="190.3" width="12.35" height="12.35"/><rect class="cls-5" x="128.53" y="177.94" width="12.35" height="12.35"/><rect class="cls-5" x="128.53" y="165.59" width="12.35" height="12.36"/><rect class="cls-5" x="116.18" y="190.3" width="12.35" height="12.35"/><rect class="cls-5" x="116.18" y="177.94" width="12.35" height="12.35"/><rect class="cls-5" x="116.18" y="165.59" width="12.35" height="12.36"/><rect class="cls-6" x="91.47" y="190.3" width="12.35" height="12.35"/><rect class="cls-6" x="91.47" y="177.94" width="12.35" height="12.35"/><rect class="cls-6" x="91.47" y="165.59" width="12.35" height="12.36"/><rect class="cls-6" x="79.12" y="190.3" width="12.35" height="12.35"/><rect class="cls-6" x="79.12" y="177.94" width="12.35" height="12.35"/><rect class="cls-6" x="79.12" y="165.59" width="12.35" height="12.36"/><rect class="cls-6" x="66.77" y="177.94" width="12.35" height="12.35"/><rect class="cls-6" x="66.77" y="165.59" width="12.35" height="12.36"/><rect class="cls-6" x="54.41" y="177.94" width="12.36" height="12.35"/><rect class="cls-6" x="54.41" y="165.59" width="12.36" height="12.36"/><rect class="cls-5" x="153.23" y="177.94" width="12.35" height="12.35"/><rect class="cls-5" x="153.23" y="165.59" width="12.35" height="12.36"/></g></g><g><rect x="103.82" y="54.41" width="12.36" height="12.35"/><rect x="103.82" y="42.06" width="12.36" height="12.35"/><rect x="103.82" y="29.71" width="12.36" height="12.35"/><rect x="103.82" y="17.35" width="12.36" height="12.36"/><rect x="54.41" y="54.41" width="12.36" height="12.35"/><rect x="42.06" y="42.06" width="12.35" height="12.35"/><rect x="165.59" y="42.06" width="12.35" height="12.35"/><rect x="153.23" y="54.41" width="12.35" height="12.35"/><rect x="140.88" y="140.88" width="12.35" height="12.35"/><rect x="140.88" y="66.76" width="12.35" height="12.36"/><rect x="128.53" y="128.53" width="12.35" height="12.35"/><rect x="128.53" y="79.12" width="12.35" height="12.35"/><rect x="116.18" y="116.18" width="12.35" height="12.36"/><rect x="116.18" y="103.82" width="12.35" height="6.18"/><rect x="116.18" y="110" width="12.35" height="6.18"/><rect x="116.18" y="91.47" width="12.35" height="12.35"/><rect x="103.82" y="153.24" width="12.36" height="12.35"/><rect x="103.82" y="140.88" width="12.36" height="12.35"/><rect x="103.82" y="128.53" width="12.36" height="12.35"/><rect x="103.82" y="116.18" width="12.36" height="12.36"/><rect x="103.82" y="91.47" width="12.36" height="12.35"/><rect x="103.82" y="79.12" width="12.36" height="12.35"/><rect x="103.82" y="66.76" width="12.36" height="12.36"/><rect x="91.47" y="116.18" width="12.35" height="12.36"/><rect x="91.47" y="103.82" width="12.35" height="12.35"/><rect x="91.47" y="91.47" width="12.35" height="12.35"/><rect x="79.12" y="128.53" width="12.35" height="12.35"/><rect x="79.12" y="103.82" width="12.35" height="12.35"/><rect x="79.12" y="79.12" width="12.35" height="12.35"/><rect x="66.77" y="140.88" width="12.35" height="12.35"/><rect x="66.77" y="103.82" width="12.35" height="12.35"/><rect x="66.77" y="66.76" width="12.35" height="12.36"/><rect x="54.41" y="153.24" width="12.36" height="12.35"/><rect x="54.41" y="103.82" width="12.36" height="12.35"/><rect x="42.06" y="103.82" width="12.35" height="12.35"/><rect x="29.71" y="103.82" width="12.35" height="12.35"/><rect x="17.35" y="103.82" width="12.36" height="12.35"/><rect x="153.23" y="153.24" width="12.35" height="12.35"/><rect x="103.82" y="190.3" width="12.36" height="12.35"/><rect x="103.82" y="177.94" width="12.36" height="12.35"/><rect x="103.82" y="165.59" width="12.36" height="12.36"/><rect x="42.06" y="165.59" width="12.35" height="12.36"/><rect x="165.59" y="165.59" width="12.35" height="12.36"/><g><rect x="153.24" y="17.35" width="12.35" height="12.35"/><rect x="140.88" y="17.35" width="12.35" height="12.35"/><rect x="128.53" y="5" width="12.35" height="12.35"/><rect x="116.18" y="5" width="12.36" height="12.35"/><rect x="103.82" y="5" width="12.35" height="12.35"/><rect x="91.47" y="5" width="12.35" height="12.35"/><rect x="79.12" y="5" width="12.35" height="12.35"/><rect x="66.76" y="17.35" width="12.36" height="12.35"/><rect x="54.41" y="17.35" width="12.35" height="12.35"/><rect x="42.06" y="29.7" width="12.35" height="12.35"/><rect x="29.7" y="42.06" width="12.36" height="12.36"/><rect x="17.35" y="66.76" width="12.35" height="12.35"/><rect x="17.35" y="54.41" width="12.35" height="12.35"/><rect x="5" y="79.12" width="12.35" height="12.35"/><rect x="190.29" y="66.76" width="12.36" height="12.35"/><rect x="190.29" y="54.41" width="12.36" height="12.35"/><rect x="177.94" y="42.06" width="12.35" height="12.36"/><rect x="165.59" y="29.7" width="12.35" height="12.35"/><rect x="42.06" y="177.94" width="12.35" height="12.35"/><rect x="29.7" y="165.59" width="12.36" height="12.35"/><rect x="17.35" y="153.24" width="12.35" height="12.35"/><rect x="17.35" y="140.88" width="12.35" height="12.36"/><rect x="5" y="128.53" width="12.35" height="12.35"/><rect x="5" y="116.18" width="12.35" height="12.35"/><rect x="5" y="103.82" width="12.35" height="12.35"/><rect x="5" y="91.47" width="12.35" height="12.36"/><rect x="190.29" y="153.24" width="12.36" height="12.35"/><rect x="190.29" y="140.88" width="12.36" height="12.36"/><rect x="177.94" y="165.59" width="12.35" height="12.35"/><rect x="165.59" y="177.94" width="12.35" height="12.35"/><rect x="153.24" y="190.29" width="12.35" height="12.36"/><rect x="140.88" y="190.29" width="12.35" height="12.36"/><rect x="66.76" y="190.29" width="12.36" height="12.36"/><rect x="54.41" y="190.29" width="12.35" height="12.36"/><rect x="202.64" y="79.12" width="12.36" height="12.35"/><rect x="202.64" y="128.53" width="12.36" height="12.35"/><rect x="202.64" y="116.18" width="12.36" height="12.35"/><rect x="202.64" y="103.82" width="12.36" height="12.35"/><rect x="202.64" y="91.47" width="12.36" height="12.36"/><rect x="128.53" y="202.64" width="12.35" height="12.36"/><rect x="116.18" y="202.64" width="12.36" height="12.36"/><rect x="103.82" y="202.64" width="12.35" height="12.36"/><rect x="91.47" y="202.64" width="12.35" height="12.36"/><rect x="79.12" y="202.64" width="12.35" height="12.36"/></g><rect x="190.29" y="103.82" width="12.35" height="12.35"/><rect x="177.94" y="103.82" width="12.35" height="12.35"/><rect x="165.59" y="103.82" width="12.36" height="12.35"/><rect x="153.24" y="103.82" width="12.35" height="12.35"/><rect x="140.88" y="103.82" width="12.35" height="12.35"/><rect x="128.53" y="103.82" width="12.36" height="12.35"/><rect x="103.82" y="54.41" width="12.36" height="12.35"/><rect x="103.82" y="42.06" width="12.36" height="12.35"/><rect x="103.82" y="29.71" width="12.36" height="12.35"/><rect x="103.82" y="17.35" width="12.36" height="12.36"/><rect x="54.41" y="54.41" width="12.36" height="12.35"/><rect x="42.06" y="42.06" width="12.35" height="12.35"/><rect x="165.59" y="42.06" width="12.35" height="12.35"/><rect x="153.23" y="54.41" width="12.35" height="12.35"/><rect x="140.88" y="140.88" width="12.35" height="12.35"/><rect x="140.88" y="66.76" width="12.35" height="12.36"/><rect x="128.53" y="128.53" width="12.35" height="12.35"/><rect x="128.53" y="79.12" width="12.35" height="12.35"/><rect x="116.18" y="116.18" width="12.35" height="12.36"/><rect x="116.18" y="103.82" width="12.35" height="6.18"/><rect x="116.18" y="110" width="12.35" height="6.18"/><rect x="116.18" y="91.47" width="12.35" height="12.35"/><rect x="103.82" y="153.24" width="12.36" height="12.35"/><rect x="103.82" y="140.88" width="12.36" height="12.35"/><rect x="103.82" y="128.53" width="12.36" height="12.35"/><rect x="103.82" y="116.18" width="12.36" height="12.36"/><rect x="103.82" y="91.47" width="12.36" height="12.35"/><rect x="103.82" y="79.12" width="12.36" height="12.35"/><rect x="103.82" y="66.76" width="12.36" height="12.36"/><rect x="91.47" y="116.18" width="12.35" height="12.36"/><rect x="91.47" y="103.82" width="12.35" height="12.35"/><rect x="91.47" y="91.47" width="12.35" height="12.35"/><rect x="79.12" y="128.53" width="12.35" height="12.35"/><rect x="79.12" y="103.82" width="12.35" height="12.35"/><rect x="79.12" y="79.12" width="12.35" height="12.35"/><rect x="66.77" y="140.88" width="12.35" height="12.35"/><rect x="66.77" y="103.82" width="12.35" height="12.35"/><rect x="66.77" y="66.76" width="12.35" height="12.36"/><rect x="54.41" y="153.24" width="12.36" height="12.35"/><rect x="54.41" y="103.82" width="12.36" height="12.35"/><rect x="42.06" y="103.82" width="12.35" height="12.35"/><rect x="29.71" y="103.82" width="12.35" height="12.35"/><rect x="17.35" y="103.82" width="12.36" height="12.35"/><rect x="153.23" y="153.24" width="12.35" height="12.35"/><rect x="103.82" y="190.3" width="12.36" height="12.35"/><rect x="103.82" y="177.94" width="12.36" height="12.35"/><rect x="103.82" y="165.59" width="12.36" height="12.36"/><rect x="42.06" y="165.59" width="12.35" height="12.36"/><rect x="165.59" y="165.59" width="12.35" height="12.36"/><rect x="190.29" y="103.82" width="12.35" height="12.35"/><rect x="177.94" y="103.82" width="12.35" height="12.35"/><rect x="165.59" y="103.82" width="12.36" height="12.35"/><rect x="153.24" y="103.82" width="12.35" height="12.35"/><rect x="140.88" y="103.82" width="12.35" height="12.35"/><rect x="128.53" y="103.82" width="12.36" height="12.35"/></g></svg>