<?xml version="1.0" encoding="UTF-8"?><svg id="Layer_1" xmlns="http://www.w3.org/2000/svg" viewBox="0 0 220 199.25"><defs><style>.cls-1{fill:#6dacda;}.cls-2{fill:#b44660;}.cls-3{fill:#a6f197;}.cls-4{fill:#f05d80;}.cls-5{fill:#90ed7d;}.cls-6{fill:#6cb25e;}.cls-7{fill:#2673a1;}.cls-8{fill:#3399d7;}.cls-9{fill:#f37d9a;}</style></defs><rect class="cls-4" x="128.53" y="31.68" width="12.35" height="12.35"/><rect class="cls-4" x="128.53" y="19.33" width="12.35" height="12.35"/><rect class="cls-9" x="128.53" y="6.98" width="12.35" height="12.35"/><rect class="cls-4" x="116.18" y="31.68" width="12.35" height="12.35"/><rect class="cls-4" x="116.18" y="19.33" width="12.35" height="12.35"/><rect class="cls-9" x="116.18" y="6.98" width="12.35" height="12.35"/><rect class="cls-4" x="103.82" y="31.68" width="12.36" height="12.35"/><rect class="cls-4" x="103.82" y="19.33" width="12.36" height="12.35"/><rect class="cls-9" x="103.82" y="6.98" width="12.36" height="12.35"/><rect class="cls-4" x="91.47" y="31.68" width="12.35" height="12.35"/><rect class="cls-4" x="91.47" y="19.33" width="12.35" height="12.35"/><rect class="cls-9" x="91.47" y="6.98" width="12.35" height="12.35"/><rect class="cls-2" x="79.12" y="31.68" width="12.35" height="12.35"/><rect class="cls-2" x="79.12" y="19.33" width="12.35" height="12.35"/><rect class="cls-9" x="79.12" y="6.98" width="12.35" height="12.35"/><rect class="cls-4" x="128.53" y="130.51" width="12.35" height="12.35"/><rect class="cls-4" x="128.53" y="118.15" width="12.35" height="12.35"/><rect class="cls-4" x="128.53" y="105.8" width="12.35" height="12.35"/><rect class="cls-4" x="128.53" y="93.45" width="12.35" height="12.36"/><rect class="cls-4" x="128.53" y="81.09" width="12.35" height="12.35"/><rect class="cls-4" x="128.53" y="68.74" width="12.35" height="12.35"/><rect class="cls-4" x="128.53" y="56.39" width="12.35" height="12.35"/><rect class="cls-4" x="128.53" y="44.03" width="12.35" height="12.36"/><rect class="cls-4" x="116.18" y="130.51" width="12.35" height="12.35"/><rect class="cls-4" x="116.18" y="118.15" width="12.35" height="12.35"/><rect class="cls-4" x="116.18" y="105.8" width="12.35" height="12.35"/><rect class="cls-4" x="116.18" y="93.45" width="12.35" height="12.36"/><rect class="cls-4" x="116.18" y="81.09" width="12.35" height="12.35"/><rect class="cls-4" x="116.18" y="68.74" width="12.35" height="12.35"/><rect class="cls-4" x="116.18" y="56.39" width="12.35" height="12.35"/><rect class="cls-4" x="116.18" y="44.03" width="12.35" height="12.36"/><rect class="cls-4" x="103.82" y="130.51" width="12.36" height="12.35"/><rect class="cls-4" x="103.82" y="118.15" width="12.36" height="12.35"/><rect class="cls-4" x="103.82" y="105.8" width="12.36" height="12.35"/><rect class="cls-4" x="103.82" y="93.45" width="12.36" height="12.36"/><rect class="cls-4" x="103.82" y="81.09" width="12.36" height="12.35"/><rect class="cls-4" x="103.82" y="68.74" width="12.36" height="12.35"/><rect class="cls-4" x="103.82" y="56.39" width="12.36" height="12.35"/><rect class="cls-4" x="103.82" y="44.03" width="12.36" height="12.36"/><rect class="cls-4" x="91.47" y="130.51" width="12.35" height="12.35"/><rect class="cls-4" x="91.47" y="118.15" width="12.35" height="12.35"/><rect class="cls-4" x="91.47" y="105.8" width="12.35" height="12.35"/><rect class="cls-4" x="91.47" y="93.45" width="12.35" height="12.36"/><rect class="cls-4" x="91.47" y="81.09" width="12.35" height="12.35"/><rect class="cls-4" x="91.47" y="68.74" width="12.35" height="12.35"/><rect class="cls-4" x="91.47" y="56.39" width="12.35" height="12.35"/><rect class="cls-4" x="91.47" y="44.03" width="12.35" height="12.36"/><rect class="cls-2" x="79.12" y="130.51" width="12.35" height="12.35"/><rect class="cls-2" x="79.12" y="118.15" width="12.35" height="12.35"/><rect class="cls-2" x="79.12" y="105.8" width="12.35" height="12.35"/><rect class="cls-2" x="79.12" y="93.45" width="12.35" height="12.36"/><rect class="cls-2" x="79.12" y="81.09" width="12.35" height="12.35"/><rect class="cls-2" x="79.12" y="68.74" width="12.35" height="12.35"/><rect class="cls-2" x="79.12" y="56.39" width="12.35" height="12.35"/><rect class="cls-2" x="79.12" y="44.03" width="12.35" height="12.36"/><rect class="cls-5" x="54.41" y="130.51" width="12.36" height="12.35"/><rect class="cls-5" x="54.41" y="118.15" width="12.36" height="12.35"/><rect class="cls-5" x="54.41" y="105.8" width="12.36" height="12.35"/><rect class="cls-5" x="54.41" y="93.45" width="12.36" height="12.36"/><rect class="cls-3" x="54.41" y="81.09" width="12.36" height="12.35"/><rect class="cls-5" x="42.06" y="130.51" width="12.35" height="12.35"/><rect class="cls-5" x="42.06" y="118.15" width="12.35" height="12.35"/><rect class="cls-5" x="42.06" y="105.8" width="12.35" height="12.35"/><rect class="cls-5" x="42.06" y="93.45" width="12.35" height="12.36"/><rect class="cls-3" x="42.06" y="81.09" width="12.35" height="12.35"/><rect class="cls-5" x="29.71" y="130.51" width="12.35" height="12.35"/><rect class="cls-5" x="29.71" y="118.15" width="12.35" height="12.35"/><rect class="cls-5" x="29.71" y="105.8" width="12.35" height="12.35"/><rect class="cls-5" x="29.71" y="93.45" width="12.35" height="12.36"/><rect class="cls-3" x="29.71" y="81.09" width="12.35" height="12.35"/><rect class="cls-5" x="17.35" y="130.51" width="12.36" height="12.35"/><rect class="cls-5" x="17.35" y="118.15" width="12.36" height="12.35"/><rect class="cls-5" x="17.35" y="105.8" width="12.36" height="12.35"/><rect class="cls-5" x="17.35" y="93.45" width="12.36" height="12.36"/><rect class="cls-3" x="17.35" y="81.09" width="12.36" height="12.35"/><rect class="cls-6" x="5" y="130.51" width="12.35" height="12.35"/><rect class="cls-6" x="5" y="118.15" width="12.35" height="12.35"/><rect class="cls-6" x="5" y="105.8" width="12.35" height="12.35"/><rect class="cls-6" x="5" y="93.45" width="12.35" height="12.36"/><rect class="cls-3" x="5" y="81.09" width="12.35" height="12.35"/><rect class="cls-8" x="202.65" y="130.51" width="12.35" height="12.35"/><rect class="cls-8" x="202.65" y="118.15" width="12.35" height="12.35"/><rect class="cls-8" x="202.65" y="105.8" width="12.35" height="12.35"/><rect class="cls-8" x="202.65" y="93.45" width="12.35" height="12.36"/><rect class="cls-8" x="202.65" y="81.09" width="12.35" height="12.35"/><rect class="cls-8" x="202.65" y="68.74" width="12.35" height="12.35"/><rect class="cls-1" x="202.65" y="56.39" width="12.35" height="12.35"/><rect class="cls-8" x="190.3" y="130.51" width="12.35" height="12.35"/><rect class="cls-8" x="190.3" y="118.15" width="12.35" height="12.35"/><rect class="cls-8" x="190.3" y="105.8" width="12.35" height="12.35"/><rect class="cls-8" x="190.3" y="93.45" width="12.35" height="12.36"/><rect class="cls-8" x="190.3" y="81.09" width="12.35" height="12.35"/><rect class="cls-8" x="190.3" y="68.74" width="12.35" height="12.35"/><rect class="cls-1" x="190.3" y="56.39" width="12.35" height="12.35"/><rect class="cls-8" x="177.94" y="130.51" width="12.36" height="12.35"/><rect class="cls-8" x="177.94" y="118.15" width="12.36" height="12.35"/><rect class="cls-8" x="177.94" y="105.8" width="12.36" height="12.35"/><rect class="cls-8" x="177.94" y="93.45" width="12.36" height="12.36"/><rect class="cls-8" x="177.94" y="81.09" width="12.36" height="12.35"/><rect class="cls-8" x="177.94" y="68.74" width="12.36" height="12.35"/><rect class="cls-1" x="177.94" y="56.39" width="12.36" height="12.35"/><rect class="cls-8" x="165.59" y="130.51" width="12.35" height="12.35"/><rect class="cls-8" x="165.59" y="118.15" width="12.35" height="12.35"/><rect class="cls-8" x="165.59" y="105.8" width="12.35" height="12.35"/><rect class="cls-8" x="165.59" y="93.45" width="12.35" height="12.36"/><rect class="cls-8" x="165.59" y="81.09" width="12.35" height="12.35"/><rect class="cls-8" x="165.59" y="68.74" width="12.35" height="12.35"/><rect class="cls-1" x="165.59" y="56.39" width="12.35" height="12.35"/><rect class="cls-7" x="153.24" y="130.51" width="12.35" height="12.35"/><rect class="cls-7" x="153.24" y="118.15" width="12.35" height="12.35"/><rect class="cls-7" x="153.24" y="105.8" width="12.35" height="12.35"/><rect class="cls-7" x="153.24" y="93.45" width="12.35" height="12.36"/><rect class="cls-7" x="153.24" y="81.09" width="12.35" height="12.35"/><rect class="cls-7" x="153.24" y="68.74" width="12.35" height="12.35"/><rect class="cls-1" x="153.24" y="56.39" width="12.35" height="12.35"/><rect class="cls-4" x="128.53" y="179.92" width="12.35" height="12.35"/><rect class="cls-4" x="128.53" y="167.57" width="12.35" height="12.35"/><rect class="cls-4" x="128.53" y="155.21" width="12.35" height="12.35"/><rect class="cls-4" x="128.53" y="142.86" width="12.35" height="12.36"/><rect class="cls-4" x="116.18" y="179.92" width="12.35" height="12.35"/><rect class="cls-4" x="116.18" y="167.57" width="12.35" height="12.35"/><rect class="cls-4" x="116.18" y="155.21" width="12.35" height="12.35"/><rect class="cls-4" x="116.18" y="142.86" width="12.35" height="12.36"/><rect class="cls-4" x="103.82" y="179.92" width="12.36" height="12.35"/><rect class="cls-4" x="103.82" y="167.57" width="12.36" height="12.35"/><rect class="cls-4" x="103.82" y="155.21" width="12.36" height="12.35"/><rect class="cls-4" x="103.82" y="142.86" width="12.36" height="12.36"/><rect class="cls-4" x="91.47" y="179.92" width="12.35" height="12.35"/><rect class="cls-4" x="91.47" y="167.57" width="12.35" height="12.35"/><rect class="cls-4" x="91.47" y="155.21" width="12.35" height="12.35"/><rect class="cls-4" x="91.47" y="142.86" width="12.35" height="12.36"/><rect class="cls-2" x="79.12" y="179.92" width="12.35" height="12.35"/><rect class="cls-2" x="79.12" y="167.57" width="12.35" height="12.35"/><rect class="cls-2" x="79.12" y="155.21" width="12.35" height="12.35"/><rect class="cls-2" x="79.12" y="142.86" width="12.35" height="12.36"/><rect class="cls-5" x="54.41" y="179.92" width="12.36" height="12.35"/><rect class="cls-5" x="54.41" y="167.57" width="12.36" height="12.35"/><rect class="cls-5" x="54.41" y="155.21" width="12.36" height="12.35"/><rect class="cls-5" x="54.41" y="142.86" width="12.36" height="12.36"/><rect class="cls-5" x="42.06" y="179.92" width="12.35" height="12.35"/><rect class="cls-5" x="42.06" y="167.57" width="12.35" height="12.35"/><rect class="cls-5" x="42.06" y="155.21" width="12.35" height="12.35"/><rect class="cls-5" x="42.06" y="142.86" width="12.35" height="12.36"/><rect class="cls-5" x="29.71" y="179.92" width="12.35" height="12.35"/><rect class="cls-5" x="29.71" y="167.57" width="12.35" height="12.35"/><rect class="cls-5" x="29.71" y="155.21" width="12.35" height="12.35"/><rect class="cls-5" x="29.71" y="142.86" width="12.35" height="12.36"/><rect class="cls-5" x="17.35" y="179.92" width="12.36" height="12.35"/><rect class="cls-5" x="17.35" y="167.57" width="12.36" height="12.35"/><rect class="cls-5" x="17.35" y="155.21" width="12.36" height="12.35"/><rect class="cls-5" x="17.35" y="142.86" width="12.36" height="12.36"/><rect class="cls-6" x="5" y="179.92" width="12.35" height="12.35"/><rect class="cls-6" x="5" y="167.57" width="12.35" height="12.35"/><rect class="cls-6" x="5" y="155.21" width="12.35" height="12.35"/><rect class="cls-6" x="5" y="142.86" width="12.35" height="12.36"/><rect class="cls-8" x="202.65" y="179.92" width="12.35" height="12.35"/><rect class="cls-8" x="202.65" y="167.57" width="12.35" height="12.35"/><rect class="cls-8" x="202.65" y="155.21" width="12.35" height="12.35"/><rect class="cls-8" x="202.65" y="142.86" width="12.35" height="12.36"/><rect class="cls-8" x="190.3" y="179.92" width="12.35" height="12.35"/><rect class="cls-8" x="190.3" y="167.57" width="12.35" height="12.35"/><rect class="cls-8" x="190.3" y="155.21" width="12.35" height="12.35"/><rect class="cls-8" x="190.3" y="142.86" width="12.35" height="12.36"/><rect class="cls-8" x="177.94" y="179.92" width="12.36" height="12.35"/><rect class="cls-8" x="177.94" y="167.57" width="12.36" height="12.35"/><rect class="cls-8" x="177.94" y="155.21" width="12.36" height="12.35"/><rect class="cls-8" x="177.94" y="142.86" width="12.36" height="12.36"/><rect class="cls-8" x="165.59" y="179.92" width="12.35" height="12.35"/><rect class="cls-8" x="165.59" y="167.57" width="12.35" height="12.35"/><rect class="cls-8" x="165.59" y="155.21" width="12.35" height="12.35"/><rect class="cls-8" x="165.59" y="142.86" width="12.35" height="12.36"/><rect class="cls-7" x="153.24" y="179.92" width="12.35" height="12.35"/><rect class="cls-7" x="153.24" y="167.57" width="12.35" height="12.35"/><rect class="cls-7" x="153.24" y="155.21" width="12.35" height="12.35"/><rect class="cls-7" x="153.24" y="142.86" width="12.35" height="12.36"/></svg>