<?xml version="1.0" encoding="UTF-8"?><svg id="Layer_1" xmlns="http://www.w3.org/2000/svg" viewBox="0 0 220 190"><defs><style>.cls-1{fill:#4aaff3;}</style></defs><rect class="cls-1" x="152" y="37.25" width="10.5" height="10.5"/><rect class="cls-1" x="152" y="26.75" width="10.5" height="10.5"/><rect class="cls-1" x="152" y="16.25" width="10.5" height="10.5"/><rect class="cls-1" x="141.5" y="37.25" width="10.5" height="10.5"/><rect class="cls-1" x="141.5" y="26.75" width="10.5" height="10.5"/><rect class="cls-1" x="141.5" y="16.25" width="10.5" height="10.5"/><rect class="cls-1" x="131" y="37.25" width="10.5" height="10.5"/><rect class="cls-1" x="131" y="26.75" width="10.5" height="10.5"/><rect class="cls-1" x="120.5" y="37.25" width="10.5" height="10.5"/><rect class="cls-1" x="120.5" y="26.75" width="10.5" height="10.5"/><rect class="cls-1" x="110" y="37.25" width="10.5" height="10.5"/><rect class="cls-1" x="99.5" y="37.25" width="10.5" height="10.5"/><rect class="cls-1" x="89" y="37.25" width="10.5" height="10.5"/><rect class="cls-1" x="204.5" y="26.75" width="10.5" height="10.5"/><rect class="cls-1" x="204.5" y="16.25" width="10.5" height="10.5"/><rect class="cls-1" x="204.5" y="5.75" width="10.5" height="10.5"/><rect class="cls-1" x="194" y="37.25" width="10.5" height="10.5"/><rect class="cls-1" x="194" y="26.75" width="10.5" height="10.5"/><rect class="cls-1" x="194" y="16.25" width="10.5" height="10.5"/><rect class="cls-1" x="194" y="5.75" width="10.5" height="10.5"/><rect class="cls-1" x="183.5" y="37.25" width="10.5" height="10.5"/><rect class="cls-1" x="183.5" y="26.75" width="10.5" height="10.5"/><rect class="cls-1" x="183.5" y="16.25" width="10.5" height="10.5"/><rect class="cls-1" x="183.5" y="5.75" width="10.5" height="10.5"/><rect class="cls-1" x="173" y="37.25" width="10.5" height="10.5"/><rect class="cls-1" x="173" y="26.75" width="10.5" height="10.5"/><rect class="cls-1" x="173" y="16.25" width="10.5" height="10.5"/><rect class="cls-1" x="173" y="5.75" width="10.5" height="10.5"/><rect class="cls-1" x="162.5" y="37.25" width="10.5" height="10.5"/><rect class="cls-1" x="162.5" y="26.75" width="10.5" height="10.5"/><rect class="cls-1" x="162.5" y="16.25" width="10.5" height="10.5"/><rect class="cls-1" x="15.5" y="89.75" width="10.5" height="10.5"/><rect class="cls-1" x="15.5" y="79.25" width="10.5" height="10.5"/><rect class="cls-1" x="15.5" y="68.75" width="10.5" height="10.5"/><rect class="cls-1" x="5" y="79.25" width="10.5" height="10.5"/><rect class="cls-1" x="152" y="121.25" width="10.5" height="10.5"/><rect class="cls-1" x="152" y="110.75" width="10.5" height="10.5"/><rect class="cls-1" x="152" y="100.25" width="10.5" height="10.5"/><rect class="cls-1" x="152" y="89.75" width="10.5" height="10.5"/><rect class="cls-1" x="152" y="79.25" width="10.5" height="10.5"/><rect class="cls-1" x="152" y="68.75" width="10.5" height="10.5"/><rect class="cls-1" x="152" y="58.25" width="10.5" height="10.5"/><rect class="cls-1" x="152" y="47.75" width="10.5" height="10.5"/><rect class="cls-1" x="141.5" y="121.25" width="10.5" height="10.5"/><rect class="cls-1" x="141.5" y="110.75" width="10.5" height="10.5"/><rect class="cls-1" x="141.5" y="100.25" width="10.5" height="10.5"/><rect class="cls-1" x="141.5" y="89.75" width="10.5" height="10.5"/><rect class="cls-1" x="141.5" y="79.25" width="10.5" height="10.5"/><rect class="cls-1" x="141.5" y="68.75" width="10.5" height="10.5"/><rect class="cls-1" x="141.5" y="58.25" width="10.5" height="10.5"/><rect class="cls-1" x="141.5" y="47.75" width="10.5" height="10.5"/><rect class="cls-1" x="131" y="121.25" width="10.5" height="10.5"/><rect class="cls-1" x="131" y="110.75" width="10.5" height="10.5"/><rect class="cls-1" x="131" y="100.25" width="10.5" height="10.5"/><rect class="cls-1" x="131" y="89.75" width="10.5" height="10.5"/><rect class="cls-1" x="131" y="79.25" width="10.5" height="10.5"/><rect class="cls-1" x="131" y="68.75" width="10.5" height="10.5"/><rect class="cls-1" x="131" y="58.25" width="10.5" height="10.5"/><rect class="cls-1" x="131" y="47.75" width="10.5" height="10.5"/><rect class="cls-1" x="120.5" y="121.25" width="10.5" height="10.5"/><rect class="cls-1" x="120.5" y="110.75" width="10.5" height="10.5"/><rect class="cls-1" x="120.5" y="100.25" width="10.5" height="10.5"/><rect class="cls-1" x="120.5" y="68.75" width="10.5" height="10.5"/><rect class="cls-1" x="120.5" y="58.25" width="10.5" height="10.5"/><rect class="cls-1" x="120.5" y="47.75" width="10.5" height="10.5"/><rect class="cls-1" x="110" y="121.25" width="10.5" height="10.5"/><rect class="cls-1" x="110" y="110.75" width="10.5" height="10.5"/><rect class="cls-1" x="110" y="79.25" width="10.5" height="10.5"/><rect class="cls-1" x="110" y="68.75" width="10.5" height="10.5"/><rect class="cls-1" x="110" y="58.25" width="10.5" height="10.5"/><rect class="cls-1" x="110" y="47.75" width="10.5" height="10.5"/><rect class="cls-1" x="99.5" y="121.25" width="10.5" height="10.5"/><rect class="cls-1" x="99.5" y="89.75" width="10.5" height="10.5"/><rect class="cls-1" x="99.5" y="79.25" width="10.5" height="10.5"/><rect class="cls-1" x="99.5" y="68.75" width="10.5" height="10.5"/><rect class="cls-1" x="99.5" y="58.25" width="10.5" height="10.5"/><rect class="cls-1" x="99.5" y="47.75" width="10.5" height="10.5"/><rect class="cls-1" x="89" y="100.25" width="10.5" height="10.5"/><rect class="cls-1" x="89" y="89.75" width="10.5" height="10.5"/><rect class="cls-1" x="89" y="79.25" width="10.5" height="10.5"/><rect class="cls-1" x="89" y="68.75" width="10.5" height="10.5"/><rect class="cls-1" x="89" y="58.25" width="10.5" height="10.5"/><rect class="cls-1" x="89" y="47.75" width="10.5" height="10.5"/><rect class="cls-1" x="78.5" y="110.75" width="10.5" height="10.5"/><rect class="cls-1" x="78.5" y="100.25" width="10.5" height="10.5"/><rect class="cls-1" x="78.5" y="89.75" width="10.5" height="10.5"/><rect class="cls-1" x="78.5" y="79.25" width="10.5" height="10.5"/><rect class="cls-1" x="78.5" y="68.75" width="10.5" height="10.5"/><rect class="cls-1" x="78.5" y="58.25" width="10.5" height="10.5"/><rect class="cls-1" x="78.5" y="47.75" width="10.5" height="10.5"/><rect class="cls-1" x="68" y="110.75" width="10.5" height="10.5"/><rect class="cls-1" x="68" y="100.25" width="10.5" height="10.5"/><rect class="cls-1" x="68" y="89.75" width="10.5" height="10.5"/><rect class="cls-1" x="68" y="79.25" width="10.5" height="10.5"/><rect class="cls-1" x="68" y="68.75" width="10.5" height="10.5"/><rect class="cls-1" x="68" y="58.25" width="10.5" height="10.5"/><rect class="cls-1" x="68" y="47.75" width="10.5" height="10.5"/><rect class="cls-1" x="57.5" y="110.75" width="10.5" height="10.5"/><rect class="cls-1" x="57.5" y="100.25" width="10.5" height="10.5"/><rect class="cls-1" x="57.5" y="89.75" width="10.5" height="10.5"/><rect class="cls-1" x="57.5" y="79.25" width="10.5" height="10.5"/><rect class="cls-1" x="57.5" y="68.75" width="10.5" height="10.5"/><rect class="cls-1" x="57.5" y="58.25" width="10.5" height="10.5"/><rect class="cls-1" x="57.5" y="47.75" width="10.5" height="10.5"/><rect class="cls-1" x="47" y="100.25" width="10.5" height="10.5"/><rect class="cls-1" x="47" y="89.75" width="10.5" height="10.5"/><rect class="cls-1" x="47" y="79.25" width="10.5" height="10.5"/><rect class="cls-1" x="47" y="68.75" width="10.5" height="10.5"/><rect class="cls-1" x="47" y="58.25" width="10.5" height="10.5"/><rect class="cls-1" x="36.5" y="100.25" width="10.5" height="10.5"/><rect class="cls-1" x="36.5" y="89.75" width="10.5" height="10.5"/><rect class="cls-1" x="36.5" y="79.25" width="10.5" height="10.5"/><rect class="cls-1" x="36.5" y="68.75" width="10.5" height="10.5"/><rect class="cls-1" x="36.5" y="58.25" width="10.5" height="10.5"/><rect class="cls-1" x="26" y="89.75" width="10.5" height="10.5"/><rect class="cls-1" x="26" y="79.25" width="10.5" height="10.5"/><rect class="cls-1" x="26" y="68.75" width="10.5" height="10.5"/><rect class="cls-1" x="194" y="68.75" width="10.5" height="10.5"/><rect class="cls-1" x="194" y="58.25" width="10.5" height="10.5"/><rect class="cls-1" x="194" y="47.75" width="10.5" height="10.5"/><rect class="cls-1" x="183.5" y="110.75" width="10.5" height="10.5"/><rect class="cls-1" x="183.5" y="100.25" width="10.5" height="10.5"/><rect class="cls-1" x="183.5" y="89.75" width="10.5" height="10.5"/><rect class="cls-1" x="183.5" y="79.25" width="10.5" height="10.5"/><rect class="cls-1" x="183.5" y="68.75" width="10.5" height="10.5"/><rect class="cls-1" x="183.5" y="58.25" width="10.5" height="10.5"/><rect class="cls-1" x="183.5" y="47.75" width="10.5" height="10.5"/><rect class="cls-1" x="173" y="121.25" width="10.5" height="10.5"/><rect class="cls-1" x="173" y="110.75" width="10.5" height="10.5"/><rect class="cls-1" x="173" y="100.25" width="10.5" height="10.5"/><rect class="cls-1" x="173" y="89.75" width="10.5" height="10.5"/><rect class="cls-1" x="173" y="79.25" width="10.5" height="10.5"/><rect class="cls-1" x="173" y="68.75" width="10.5" height="10.5"/><rect class="cls-1" x="173" y="58.25" width="10.5" height="10.5"/><rect class="cls-1" x="173" y="47.75" width="10.5" height="10.5"/><rect class="cls-1" x="162.5" y="121.25" width="10.5" height="10.5"/><rect class="cls-1" x="162.5" y="110.75" width="10.5" height="10.5"/><rect class="cls-1" x="162.5" y="100.25" width="10.5" height="10.5"/><rect class="cls-1" x="162.5" y="89.75" width="10.5" height="10.5"/><rect class="cls-1" x="162.5" y="79.25" width="10.5" height="10.5"/><rect class="cls-1" x="162.5" y="68.75" width="10.5" height="10.5"/><rect class="cls-1" x="162.5" y="58.25" width="10.5" height="10.5"/><rect class="cls-1" x="162.5" y="47.75" width="10.5" height="10.5"/><rect class="cls-1" x="152" y="173.75" width="10.5" height="10.5"/><rect class="cls-1" x="152" y="163.25" width="10.5" height="10.5"/><rect class="cls-1" x="152" y="152.75" width="10.5" height="10.5"/><rect class="cls-1" x="152" y="142.25" width="10.5" height="10.5"/><rect class="cls-1" x="152" y="131.75" width="10.5" height="10.5"/><rect class="cls-1" x="141.5" y="173.75" width="10.5" height="10.5"/><rect class="cls-1" x="141.5" y="163.25" width="10.5" height="10.5"/><rect class="cls-1" x="141.5" y="152.75" width="10.5" height="10.5"/><rect class="cls-1" x="141.5" y="142.25" width="10.5" height="10.5"/><rect class="cls-1" x="141.5" y="131.75" width="10.5" height="10.5"/><rect class="cls-1" x="131" y="163.25" width="10.5" height="10.5"/><rect class="cls-1" x="131" y="152.75" width="10.5" height="10.5"/><rect class="cls-1" x="131" y="142.25" width="10.5" height="10.5"/><rect class="cls-1" x="131" y="131.75" width="10.5" height="10.5"/><rect class="cls-1" x="120.5" y="152.75" width="10.5" height="10.5"/><rect class="cls-1" x="120.5" y="142.25" width="10.5" height="10.5"/><rect class="cls-1" x="120.5" y="131.75" width="10.5" height="10.5"/><rect class="cls-1" x="110" y="142.25" width="10.5" height="10.5"/><rect class="cls-1" x="110" y="131.75" width="10.5" height="10.5"/><rect class="cls-1" x="99.5" y="131.75" width="10.5" height="10.5"/><rect class="cls-1" x="173" y="142.25" width="10.5" height="10.5"/><rect class="cls-1" x="173" y="131.75" width="10.5" height="10.5"/><rect class="cls-1" x="162.5" y="163.25" width="10.5" height="10.5"/><rect class="cls-1" x="162.5" y="152.75" width="10.5" height="10.5"/><rect class="cls-1" x="162.5" y="142.25" width="10.5" height="10.5"/><rect class="cls-1" x="162.5" y="131.75" width="10.5" height="10.5"/></svg>