<svg xmlns="http://www.w3.org/2000/svg" version="1.1" xmlns:xlink="http://www.w3.org/1999/xlink" xmlns:svgjs="http://svgjs.com/svgjs" width="512" height="512" x="0" y="0" viewBox="0 0 32 32" style="enable-background:new 0 0 512 512" xml:space="preserve" class=""><g><g data-name="Layer 2"><path d="M3 7h2v20.48A3.53 3.53 0 0 0 8.52 31h15A3.53 3.53 0 0 0 27 27.48V7h2a1 1 0 0 0 0-2H3a1 1 0 0 0 0 2zm22 0v20.48A1.52 1.52 0 0 1 23.48 29h-15A1.52 1.52 0 0 1 7 27.48V7zM12 3h8a1 1 0 0 0 0-2h-8a1 1 0 0 0 0 2z" fill="#ffffff" data-original="#000000" class=""></path><path d="M12.68 25a1 1 0 0 0 1-1V12a1 1 0 0 0-2 0v12a1 1 0 0 0 1 1zM19.32 25a1 1 0 0 0 1-1V12a1 1 0 0 0-2 0v12a1 1 0 0 0 1 1z" fill="#ffffff" data-original="#000000" class=""></path></g></g></svg>