<?xml version="1.0" encoding="UTF-8"?><svg id="Layer_1" xmlns="http://www.w3.org/2000/svg" viewBox="0 0 220 220"><defs><style>.cls-1{fill:#1d9bf0;}</style></defs><rect class="cls-1" x="149.38" y="44.37" width="13.12" height="13.12"/><rect class="cls-1" x="149.38" y="31.25" width="13.12" height="13.12"/><rect class="cls-1" x="136.25" y="44.37" width="13.12" height="13.12"/><rect class="cls-1" x="136.25" y="31.25" width="13.12" height="13.12"/><rect class="cls-1" x="136.25" y="18.13" width="13.12" height="13.12"/><rect class="cls-1" x="123.13" y="44.37" width="13.12" height="13.12"/><rect class="cls-1" x="123.13" y="31.25" width="13.12" height="13.12"/><rect class="cls-1" x="123.13" y="18.13" width="13.12" height="13.12"/><rect class="cls-1" x="110" y="44.37" width="13.13" height="13.12"/><rect class="cls-1" x="110" y="31.25" width="13.13" height="13.12"/><rect class="cls-1" x="96.88" y="44.37" width="13.12" height="13.12"/><rect class="cls-1" x="57.5" y="44.37" width="13.13" height="13.12"/><rect class="cls-1" x="44.38" y="44.37" width="13.12" height="13.12"/><rect class="cls-1" x="44.38" y="31.25" width="13.12" height="13.12"/><rect class="cls-1" x="31.25" y="44.37" width="13.12" height="13.12"/><rect class="cls-1" x="31.25" y="31.25" width="13.12" height="13.12"/><rect class="cls-1" x="18.12" y="44.37" width="13.13" height="13.12"/><rect class="cls-1" x="18.12" y="31.25" width="13.13" height="13.12"/><rect class="cls-1" x="18.12" y="18.13" width="13.13" height="13.12"/><rect class="cls-1" x="5" y="44.37" width="13.12" height="13.12"/><rect class="cls-1" x="5" y="31.25" width="13.12" height="13.12"/><rect class="cls-1" x="5" y="18.13" width="13.12" height="13.12"/><rect class="cls-1" x="162.5" y="44.37" width="13.12" height="13.12"/><rect class="cls-1" x="149.38" y="149.37" width="13.12" height="13.12"/><rect class="cls-1" x="149.38" y="136.25" width="13.12" height="13.12"/><rect class="cls-1" x="149.38" y="123.13" width="13.12" height="13.12"/><rect class="cls-1" x="149.38" y="110" width="13.12" height="13.13"/><rect class="cls-1" x="149.38" y="96.87" width="13.12" height="13.12"/><rect class="cls-1" x="149.38" y="83.75" width="13.12" height="13.12"/><rect class="cls-1" x="149.38" y="70.63" width="13.12" height="13.12"/><rect class="cls-1" x="149.38" y="57.5" width="13.12" height="13.13"/><rect class="cls-1" x="136.25" y="149.37" width="13.12" height="13.12"/><rect class="cls-1" x="136.25" y="136.25" width="13.12" height="13.12"/><rect class="cls-1" x="136.25" y="123.13" width="13.12" height="13.12"/><rect class="cls-1" x="136.25" y="110" width="13.12" height="13.13"/><rect class="cls-1" x="136.25" y="96.87" width="13.12" height="13.12"/><rect class="cls-1" x="136.25" y="83.75" width="13.12" height="13.12"/><rect class="cls-1" x="136.25" y="70.63" width="13.12" height="13.12"/><rect class="cls-1" x="136.25" y="57.5" width="13.12" height="13.13"/><rect class="cls-1" x="123.13" y="149.37" width="13.12" height="13.12"/><rect class="cls-1" x="123.13" y="136.25" width="13.12" height="13.12"/><rect class="cls-1" x="123.13" y="123.13" width="13.12" height="13.12"/><rect class="cls-1" x="123.13" y="110" width="13.12" height="13.13"/><rect class="cls-1" x="123.13" y="96.87" width="13.12" height="13.12"/><rect class="cls-1" x="123.13" y="83.75" width="13.12" height="13.12"/><rect class="cls-1" x="123.13" y="70.63" width="13.12" height="13.12"/><rect class="cls-1" x="123.13" y="57.5" width="13.12" height="13.13"/><rect class="cls-1" x="110" y="149.37" width="13.13" height="13.12"/><rect class="cls-1" x="110" y="136.25" width="13.13" height="13.12"/><rect class="cls-1" x="110" y="123.13" width="13.13" height="13.12"/><rect class="cls-1" x="110" y="110" width="13.13" height="13.13"/><rect class="cls-1" x="110" y="96.87" width="13.13" height="13.12"/><rect class="cls-1" x="110" y="83.75" width="13.13" height="13.12"/><rect class="cls-1" x="110" y="70.63" width="13.13" height="13.12"/><rect class="cls-1" x="110" y="57.5" width="13.13" height="13.13"/><rect class="cls-1" x="96.88" y="149.37" width="13.12" height="13.12"/><rect class="cls-1" x="96.88" y="136.25" width="13.12" height="13.12"/><rect class="cls-1" x="96.88" y="123.13" width="13.12" height="13.12"/><rect class="cls-1" x="96.88" y="110" width="13.12" height="13.13"/><rect class="cls-1" x="96.88" y="96.87" width="13.12" height="13.12"/><rect class="cls-1" x="96.88" y="83.75" width="13.12" height="13.12"/><rect class="cls-1" x="96.88" y="70.63" width="13.12" height="13.12"/><rect class="cls-1" x="96.88" y="57.5" width="13.12" height="13.13"/><rect class="cls-1" x="83.75" y="149.37" width="13.12" height="13.12"/><rect class="cls-1" x="83.75" y="136.25" width="13.12" height="13.12"/><rect class="cls-1" x="83.75" y="123.13" width="13.12" height="13.12"/><rect class="cls-1" x="83.75" y="110" width="13.12" height="13.13"/><rect class="cls-1" x="83.75" y="96.87" width="13.12" height="13.12"/><rect class="cls-1" x="83.75" y="83.75" width="13.12" height="13.12"/><rect class="cls-1" x="83.75" y="70.63" width="13.12" height="13.12"/><rect class="cls-1" x="70.63" y="149.37" width="13.12" height="13.12"/><rect class="cls-1" x="70.63" y="136.25" width="13.12" height="13.12"/><rect class="cls-1" x="70.63" y="123.13" width="13.12" height="13.12"/><rect class="cls-1" x="70.63" y="110" width="13.12" height="13.13"/><rect class="cls-1" x="70.63" y="96.87" width="13.12" height="13.12"/><rect class="cls-1" x="70.63" y="83.75" width="13.12" height="13.12"/><rect class="cls-1" x="70.63" y="70.63" width="13.12" height="13.12"/><rect class="cls-1" x="70.63" y="57.5" width="13.12" height="13.13"/><rect class="cls-1" x="57.5" y="149.37" width="13.13" height="13.12"/><rect class="cls-1" x="57.5" y="136.25" width="13.13" height="13.12"/><rect class="cls-1" x="57.5" y="123.13" width="13.13" height="13.12"/><rect class="cls-1" x="57.5" y="110" width="13.13" height="13.13"/><rect class="cls-1" x="57.5" y="96.87" width="13.13" height="13.12"/><rect class="cls-1" x="57.5" y="83.75" width="13.13" height="13.12"/><rect class="cls-1" x="57.5" y="70.63" width="13.13" height="13.12"/><rect class="cls-1" x="57.5" y="57.5" width="13.13" height="13.13"/><rect class="cls-1" x="44.38" y="149.37" width="13.12" height="13.12"/><rect class="cls-1" x="44.38" y="136.25" width="13.12" height="13.12"/><rect class="cls-1" x="44.38" y="110" width="13.12" height="13.13"/><rect class="cls-1" x="44.38" y="96.87" width="13.12" height="13.12"/><rect class="cls-1" x="44.38" y="83.75" width="13.12" height="13.12"/><rect class="cls-1" x="44.38" y="70.63" width="13.12" height="13.12"/><rect class="cls-1" x="44.38" y="57.5" width="13.12" height="13.13"/><rect class="cls-1" x="31.25" y="149.37" width="13.12" height="13.12"/><rect class="cls-1" x="31.25" y="136.25" width="13.12" height="13.12"/><rect class="cls-1" x="31.25" y="96.87" width="13.12" height="13.12"/><rect class="cls-1" x="31.25" y="83.75" width="13.12" height="13.12"/><rect class="cls-1" x="31.25" y="70.63" width="13.12" height="13.12"/><rect class="cls-1" x="31.25" y="57.5" width="13.12" height="13.13"/><rect class="cls-1" x="18.12" y="149.37" width="13.13" height="13.12"/><rect class="cls-1" x="18.12" y="136.25" width="13.13" height="13.12"/><rect class="cls-1" x="18.12" y="70.63" width="13.13" height="13.12"/><rect class="cls-1" x="18.12" y="57.5" width="13.13" height="13.13"/><rect class="cls-1" x="5" y="149.37" width="13.12" height="13.12"/><rect class="cls-1" x="5" y="136.25" width="13.12" height="13.12"/><rect class="cls-1" x="201.88" y="70.63" width="13.12" height="13.12"/><rect class="cls-1" x="188.75" y="83.75" width="13.13" height="13.12"/><rect class="cls-1" x="188.75" y="70.63" width="13.13" height="13.12"/><rect class="cls-1" x="188.75" y="57.5" width="13.13" height="13.13"/><rect class="cls-1" x="175.62" y="110" width="13.12" height="13.13"/><rect class="cls-1" x="175.62" y="96.87" width="13.12" height="13.12"/><rect class="cls-1" x="175.62" y="83.75" width="13.12" height="13.12"/><rect class="cls-1" x="175.62" y="70.63" width="13.12" height="13.12"/><rect class="cls-1" x="175.62" y="57.5" width="13.12" height="13.13"/><rect class="cls-1" x="162.5" y="136.25" width="13.12" height="13.12"/><rect class="cls-1" x="162.5" y="123.13" width="13.12" height="13.12"/><rect class="cls-1" x="162.5" y="110" width="13.12" height="13.13"/><rect class="cls-1" x="162.5" y="96.87" width="13.12" height="13.12"/><rect class="cls-1" x="162.5" y="83.75" width="13.12" height="13.12"/><rect class="cls-1" x="162.5" y="70.63" width="13.12" height="13.12"/><rect class="cls-1" x="162.5" y="57.5" width="13.12" height="13.13"/><rect class="cls-1" x="136.25" y="162.5" width="13.12" height="13.13"/><rect class="cls-1" x="123.13" y="175.63" width="13.12" height="13.12"/><rect class="cls-1" x="123.13" y="162.5" width="13.12" height="13.13"/><rect class="cls-1" x="110" y="175.63" width="13.13" height="13.12"/><rect class="cls-1" x="110" y="162.5" width="13.13" height="13.13"/><rect class="cls-1" x="96.88" y="188.75" width="13.12" height="13.12"/><rect class="cls-1" x="96.88" y="175.63" width="13.12" height="13.12"/><rect class="cls-1" x="96.88" y="162.5" width="13.12" height="13.13"/><rect class="cls-1" x="83.75" y="188.75" width="13.12" height="13.12"/><rect class="cls-1" x="83.75" y="175.63" width="13.12" height="13.12"/><rect class="cls-1" x="83.75" y="162.5" width="13.12" height="13.13"/><rect class="cls-1" x="70.63" y="188.75" width="13.12" height="13.12"/><rect class="cls-1" x="70.63" y="175.63" width="13.12" height="13.12"/><rect class="cls-1" x="70.63" y="162.5" width="13.12" height="13.13"/><rect class="cls-1" x="57.5" y="188.75" width="13.13" height="13.12"/><rect class="cls-1" x="57.5" y="175.63" width="13.13" height="13.12"/><rect class="cls-1" x="57.5" y="162.5" width="13.13" height="13.13"/><rect class="cls-1" x="44.38" y="175.63" width="13.12" height="13.12"/><rect class="cls-1" x="44.38" y="162.5" width="13.12" height="13.13"/><rect class="cls-1" x="31.25" y="175.63" width="13.12" height="13.12"/><rect class="cls-1" x="31.25" y="162.5" width="13.12" height="13.13"/><rect class="cls-1" x="18.12" y="162.5" width="13.13" height="13.13"/></svg>