<?xml version="1.0" encoding="UTF-8"?><svg id="Layer_1" xmlns="http://www.w3.org/2000/svg" viewBox="0 0 220 220"><defs><style>.cls-1{fill:#fcad01;}.cls-2{fill:#fdda00;}</style></defs><rect class="cls-2" x="153.24" y="79.12" width="12.35" height="12.35"/><rect class="cls-2" x="153.24" y="66.76" width="12.35" height="12.35"/><rect class="cls-2" x="153.24" y="54.41" width="12.35" height="12.35"/><rect class="cls-1" x="153.24" y="42.06" width="12.35" height="12.36"/><rect class="cls-1" x="153.24" y="29.7" width="12.35" height="12.35"/><rect x="153.24" y="17.35" width="12.35" height="12.35"/><rect class="cls-1" x="140.88" y="79.12" width="12.35" height="12.35"/><rect class="cls-2" x="140.88" y="66.76" width="12.35" height="12.35"/><rect class="cls-2" x="140.88" y="54.41" width="12.35" height="12.35"/><rect class="cls-2" x="140.88" y="42.06" width="12.35" height="12.36"/><rect class="cls-1" x="140.88" y="29.7" width="12.35" height="12.35"/><rect x="140.88" y="17.35" width="12.35" height="12.35"/><rect class="cls-2" x="128.53" y="79.12" width="12.35" height="12.35"/><rect class="cls-1" x="128.53" y="66.76" width="12.35" height="12.35"/><rect class="cls-2" x="128.53" y="54.41" width="12.35" height="12.35"/><rect class="cls-2" x="128.53" y="42.06" width="12.35" height="12.36"/><rect class="cls-1" x="128.53" y="29.7" width="12.35" height="12.35"/><rect class="cls-1" x="128.53" y="17.35" width="12.35" height="12.35"/><rect x="128.53" y="5" width="12.35" height="12.35"/><rect class="cls-2" x="116.18" y="79.12" width="12.36" height="12.35"/><rect class="cls-2" x="116.18" y="66.76" width="12.36" height="12.35"/><rect class="cls-1" x="116.18" y="54.41" width="12.36" height="12.35"/><rect class="cls-2" x="116.18" y="42.06" width="12.36" height="12.36"/><rect class="cls-2" x="116.18" y="29.7" width="12.36" height="12.35"/><rect class="cls-1" x="116.18" y="17.35" width="12.36" height="12.35"/><rect x="116.18" y="5" width="12.36" height="12.35"/><rect class="cls-2" x="103.82" y="79.12" width="12.35" height="12.35"/><rect class="cls-2" x="103.82" y="66.76" width="12.35" height="12.35"/><rect class="cls-1" x="103.82" y="54.41" width="12.35" height="12.35"/><rect class="cls-2" x="103.82" y="42.06" width="12.35" height="12.36"/><rect class="cls-2" x="103.82" y="29.7" width="12.35" height="12.35"/><rect class="cls-1" x="103.82" y="17.35" width="12.35" height="12.35"/><rect x="103.82" y="5" width="12.35" height="12.35"/><rect class="cls-2" x="91.47" y="79.12" width="12.35" height="12.35"/><rect class="cls-2" x="91.47" y="66.76" width="12.35" height="12.35"/><rect class="cls-1" x="91.47" y="54.41" width="12.35" height="12.35"/><rect class="cls-2" x="91.47" y="42.06" width="12.35" height="12.36"/><rect class="cls-2" x="91.47" y="29.7" width="12.35" height="12.35"/><rect class="cls-1" x="91.47" y="17.35" width="12.35" height="12.35"/><rect x="91.47" y="5" width="12.35" height="12.35"/><rect class="cls-2" x="79.12" y="79.12" width="12.35" height="12.35"/><rect class="cls-1" x="79.12" y="66.76" width="12.35" height="12.35"/><rect class="cls-2" x="79.12" y="54.41" width="12.35" height="12.35"/><rect class="cls-2" x="79.12" y="42.06" width="12.35" height="12.36"/><rect class="cls-1" x="79.12" y="29.7" width="12.35" height="12.35"/><rect class="cls-1" x="79.12" y="17.35" width="12.35" height="12.35"/><rect x="79.12" y="5" width="12.35" height="12.35"/><rect class="cls-1" x="66.76" y="79.12" width="12.36" height="12.35"/><rect class="cls-2" x="66.76" y="66.76" width="12.36" height="12.35"/><rect class="cls-2" x="66.76" y="54.41" width="12.36" height="12.35"/><rect class="cls-2" x="66.76" y="42.06" width="12.36" height="12.36"/><rect class="cls-1" x="66.76" y="29.7" width="12.36" height="12.35"/><rect x="66.76" y="17.35" width="12.36" height="12.35"/><rect class="cls-2" x="54.41" y="79.12" width="12.35" height="12.35"/><rect class="cls-2" x="54.41" y="66.76" width="12.35" height="12.35"/><rect class="cls-2" x="54.41" y="54.41" width="12.35" height="12.35"/><rect class="cls-1" x="54.41" y="42.06" width="12.35" height="12.36"/><rect class="cls-1" x="54.41" y="29.7" width="12.35" height="12.35"/><rect x="54.41" y="17.35" width="12.35" height="12.35"/><rect class="cls-2" x="42.06" y="79.12" width="12.35" height="12.35"/><rect class="cls-2" x="42.06" y="66.76" width="12.35" height="12.35"/><rect class="cls-1" x="42.06" y="54.41" width="12.35" height="12.35"/><rect class="cls-1" x="42.06" y="42.06" width="12.35" height="12.36"/><rect x="42.06" y="29.7" width="12.35" height="12.35"/><rect class="cls-1" x="29.7" y="79.12" width="12.36" height="12.35"/><rect class="cls-1" x="29.7" y="66.76" width="12.36" height="12.35"/><rect class="cls-1" x="29.7" y="54.41" width="12.36" height="12.35"/><rect x="29.7" y="42.06" width="12.36" height="12.36"/><rect class="cls-1" x="17.35" y="79.12" width="12.35" height="12.35"/><rect x="17.35" y="66.76" width="12.35" height="12.35"/><rect x="17.35" y="54.41" width="12.35" height="12.35"/><rect x="5" y="79.12" width="12.35" height="12.35"/><rect class="cls-1" x="190.29" y="79.12" width="12.36" height="12.35"/><rect x="190.29" y="66.76" width="12.36" height="12.35"/><rect x="190.29" y="54.41" width="12.36" height="12.35"/><rect class="cls-1" x="177.94" y="79.12" width="12.35" height="12.35"/><rect class="cls-1" x="177.94" y="66.76" width="12.35" height="12.35"/><rect class="cls-1" x="177.94" y="54.41" width="12.35" height="12.35"/><rect x="177.94" y="42.06" width="12.35" height="12.36"/><rect class="cls-2" x="165.59" y="79.12" width="12.35" height="12.35"/><rect class="cls-2" x="165.59" y="66.76" width="12.35" height="12.35"/><rect class="cls-1" x="165.59" y="54.41" width="12.35" height="12.35"/><rect class="cls-1" x="165.59" y="42.06" width="12.35" height="12.36"/><rect x="165.59" y="29.7" width="12.35" height="12.35"/><rect class="cls-1" x="153.24" y="177.94" width="12.35" height="12.35"/><rect class="cls-1" x="153.24" y="165.59" width="12.35" height="12.35"/><rect class="cls-2" x="153.24" y="153.24" width="12.35" height="12.35"/><rect class="cls-2" x="153.24" y="140.88" width="12.35" height="12.36"/><rect class="cls-2" x="153.24" y="128.53" width="12.35" height="12.35"/><rect class="cls-1" x="153.24" y="116.18" width="12.35" height="12.35"/><rect class="cls-1" x="153.24" y="103.82" width="12.35" height="12.35"/><rect class="cls-1" x="153.24" y="91.47" width="12.35" height="12.36"/><rect class="cls-1" x="140.88" y="177.94" width="12.35" height="12.35"/><rect class="cls-2" x="140.88" y="165.59" width="12.35" height="12.35"/><rect class="cls-2" x="140.88" y="153.24" width="12.35" height="12.35"/><rect class="cls-2" x="140.88" y="140.88" width="12.35" height="12.36"/><rect class="cls-1" x="140.88" y="128.53" width="12.35" height="12.35"/><rect class="cls-2" x="140.88" y="116.18" width="12.35" height="12.35"/><rect class="cls-2" x="140.88" y="103.82" width="12.35" height="12.35"/><rect class="cls-2" x="140.88" y="91.47" width="12.35" height="12.36"/><rect class="cls-1" x="128.53" y="177.94" width="12.35" height="12.35"/><rect class="cls-2" x="128.53" y="165.59" width="12.35" height="12.35"/><rect class="cls-2" x="128.53" y="153.24" width="12.35" height="12.35"/><rect class="cls-1" x="128.53" y="140.88" width="12.35" height="12.36"/><rect class="cls-2" x="128.53" y="128.53" width="12.35" height="12.35"/><rect class="cls-2" x="128.53" y="116.18" width="12.35" height="12.35"/><rect class="cls-2" x="128.53" y="103.82" width="12.35" height="12.35"/><rect class="cls-2" x="128.53" y="91.47" width="12.35" height="12.36"/><rect class="cls-2" x="116.18" y="177.94" width="12.36" height="12.35"/><rect class="cls-2" x="116.18" y="165.59" width="12.36" height="12.35"/><rect class="cls-1" x="116.18" y="153.24" width="12.36" height="12.35"/><rect class="cls-2" x="116.18" y="140.88" width="12.36" height="12.36"/><rect class="cls-2" x="116.18" y="128.53" width="12.36" height="12.35"/><rect class="cls-2" x="116.18" y="116.18" width="12.36" height="12.35"/><rect class="cls-2" x="116.18" y="103.82" width="12.36" height="12.35"/><rect class="cls-2" x="116.18" y="91.47" width="12.36" height="12.36"/><rect class="cls-2" x="103.82" y="177.94" width="12.35" height="12.35"/><rect class="cls-2" x="103.82" y="165.59" width="12.35" height="12.35"/><rect class="cls-1" x="103.82" y="153.24" width="12.35" height="12.35"/><rect class="cls-2" x="103.82" y="140.88" width="12.35" height="12.36"/><rect class="cls-2" x="103.82" y="128.53" width="12.35" height="12.35"/><rect class="cls-2" x="103.82" y="116.18" width="12.35" height="12.35"/><rect class="cls-2" x="103.82" y="103.82" width="12.35" height="12.35"/><rect class="cls-2" x="103.82" y="91.47" width="12.35" height="12.36"/><rect class="cls-2" x="91.47" y="177.94" width="12.35" height="12.35"/><rect class="cls-2" x="91.47" y="165.59" width="12.35" height="12.35"/><rect class="cls-1" x="91.47" y="153.24" width="12.35" height="12.35"/><rect class="cls-2" x="91.47" y="140.88" width="12.35" height="12.36"/><rect class="cls-2" x="91.47" y="128.53" width="12.35" height="12.35"/><rect class="cls-2" x="91.47" y="116.18" width="12.35" height="12.35"/><rect class="cls-2" x="91.47" y="103.82" width="12.35" height="12.35"/><rect class="cls-2" x="91.47" y="91.47" width="12.35" height="12.36"/><rect class="cls-1" x="79.12" y="177.94" width="12.35" height="12.35"/><rect class="cls-2" x="79.12" y="165.59" width="12.35" height="12.35"/><rect class="cls-2" x="79.12" y="153.24" width="12.35" height="12.35"/><rect class="cls-1" x="79.12" y="140.88" width="12.35" height="12.36"/><rect class="cls-2" x="79.12" y="128.53" width="12.35" height="12.35"/><rect class="cls-2" x="79.12" y="116.18" width="12.35" height="12.35"/><rect class="cls-2" x="79.12" y="103.82" width="12.35" height="12.35"/><rect class="cls-2" x="79.12" y="91.47" width="12.35" height="12.36"/><rect class="cls-1" x="66.76" y="177.94" width="12.36" height="12.35"/><rect class="cls-2" x="66.76" y="165.59" width="12.36" height="12.35"/><rect class="cls-2" x="66.76" y="153.24" width="12.36" height="12.35"/><rect class="cls-2" x="66.76" y="140.88" width="12.36" height="12.36"/><rect class="cls-1" x="66.76" y="128.53" width="12.36" height="12.35"/><rect class="cls-2" x="66.76" y="116.18" width="12.36" height="12.35"/><rect class="cls-2" x="66.76" y="103.82" width="12.36" height="12.35"/><rect class="cls-2" x="66.76" y="91.47" width="12.36" height="12.36"/><rect class="cls-1" x="54.41" y="177.94" width="12.35" height="12.35"/><rect class="cls-1" x="54.41" y="165.59" width="12.35" height="12.35"/><rect class="cls-2" x="54.41" y="153.24" width="12.35" height="12.35"/><rect class="cls-2" x="54.41" y="140.88" width="12.35" height="12.36"/><rect class="cls-2" x="54.41" y="128.53" width="12.35" height="12.35"/><rect class="cls-1" x="54.41" y="116.18" width="12.35" height="12.35"/><rect class="cls-1" x="54.41" y="103.82" width="12.35" height="12.35"/><rect class="cls-1" x="54.41" y="91.47" width="12.35" height="12.36"/><rect x="42.06" y="177.94" width="12.35" height="12.35"/><rect class="cls-1" x="42.06" y="165.59" width="12.35" height="12.35"/><rect class="cls-1" x="42.06" y="153.24" width="12.35" height="12.35"/><rect class="cls-2" x="42.06" y="140.88" width="12.35" height="12.36"/><rect class="cls-2" x="42.06" y="128.53" width="12.35" height="12.35"/><rect class="cls-2" x="42.06" y="116.18" width="12.35" height="12.35"/><rect class="cls-2" x="42.06" y="103.82" width="12.35" height="12.35"/><rect class="cls-2" x="42.06" y="91.47" width="12.35" height="12.36"/><rect x="29.7" y="165.59" width="12.36" height="12.35"/><rect class="cls-1" x="29.7" y="153.24" width="12.36" height="12.35"/><rect class="cls-1" x="29.7" y="140.88" width="12.36" height="12.36"/><rect class="cls-1" x="29.7" y="128.53" width="12.36" height="12.35"/><rect class="cls-2" x="29.7" y="116.18" width="12.36" height="12.35"/><rect class="cls-2" x="29.7" y="103.82" width="12.36" height="12.35"/><rect class="cls-2" x="29.7" y="91.47" width="12.36" height="12.36"/><rect x="17.35" y="153.24" width="12.35" height="12.35"/><rect x="17.35" y="140.88" width="12.35" height="12.36"/><rect class="cls-1" x="17.35" y="128.53" width="12.35" height="12.35"/><rect class="cls-1" x="17.35" y="116.18" width="12.35" height="12.35"/><rect class="cls-1" x="17.35" y="103.82" width="12.35" height="12.35"/><rect class="cls-1" x="17.35" y="91.47" width="12.35" height="12.36"/><rect x="5" y="128.53" width="12.35" height="12.35"/><rect x="5" y="116.18" width="12.35" height="12.35"/><rect x="5" y="103.82" width="12.35" height="12.35"/><rect x="5" y="91.47" width="12.35" height="12.36"/><rect x="190.29" y="153.24" width="12.36" height="12.35"/><rect x="190.29" y="140.88" width="12.36" height="12.36"/><rect class="cls-1" x="190.29" y="128.53" width="12.36" height="12.35"/><rect class="cls-1" x="190.29" y="116.18" width="12.36" height="12.35"/><rect class="cls-1" x="190.29" y="103.82" width="12.36" height="12.35"/><rect class="cls-1" x="190.29" y="91.47" width="12.36" height="12.36"/><rect x="177.94" y="165.59" width="12.35" height="12.35"/><rect class="cls-1" x="177.94" y="153.24" width="12.35" height="12.35"/><rect class="cls-1" x="177.94" y="140.88" width="12.35" height="12.36"/><rect class="cls-1" x="177.94" y="128.53" width="12.35" height="12.35"/><rect class="cls-2" x="177.94" y="116.18" width="12.35" height="12.35"/><rect class="cls-2" x="177.94" y="103.82" width="12.35" height="12.35"/><rect class="cls-2" x="177.94" y="91.47" width="12.35" height="12.36"/><rect x="165.59" y="177.94" width="12.35" height="12.35"/><rect class="cls-1" x="165.59" y="165.59" width="12.35" height="12.35"/><rect class="cls-1" x="165.59" y="153.24" width="12.35" height="12.35"/><rect class="cls-2" x="165.59" y="140.88" width="12.35" height="12.36"/><rect class="cls-2" x="165.59" y="128.53" width="12.35" height="12.35"/><rect class="cls-2" x="165.59" y="116.18" width="12.35" height="12.35"/><rect class="cls-2" x="165.59" y="103.82" width="12.35" height="12.35"/><rect class="cls-2" x="165.59" y="91.47" width="12.35" height="12.36"/><rect x="153.24" y="190.29" width="12.35" height="12.36"/><rect x="140.88" y="190.29" width="12.35" height="12.36"/><rect class="cls-1" x="128.53" y="190.29" width="12.35" height="12.36"/><rect class="cls-1" x="116.18" y="190.29" width="12.36" height="12.36"/><rect class="cls-1" x="103.82" y="190.29" width="12.35" height="12.36"/><rect class="cls-1" x="91.47" y="190.29" width="12.35" height="12.36"/><rect class="cls-1" x="79.12" y="190.29" width="12.35" height="12.36"/><rect x="66.76" y="190.29" width="12.36" height="12.36"/><rect x="54.41" y="190.29" width="12.35" height="12.36"/><rect x="202.64" y="79.12" width="12.36" height="12.35"/><rect x="202.64" y="128.53" width="12.36" height="12.35"/><rect x="202.64" y="116.18" width="12.36" height="12.35"/><rect x="202.64" y="103.82" width="12.36" height="12.35"/><rect x="202.64" y="91.47" width="12.36" height="12.36"/><rect x="128.53" y="202.64" width="12.35" height="12.36"/><rect x="116.18" y="202.64" width="12.36" height="12.36"/><rect x="103.82" y="202.64" width="12.35" height="12.36"/><rect x="91.47" y="202.64" width="12.35" height="12.36"/><rect x="79.12" y="202.64" width="12.35" height="12.36"/></svg>