<svg width="929" height="477" viewBox="0 0 929 477" fill="#ff007f30" xmlns="http://www.w3.org/2000/svg">
<g filter="url(#filter0_d_101_3)">
<path d="M885.88 4.61C885.85 5.66 885.76 6.72 885.8 7.76C885.99 12.68 883.49 15.52 879.07 17.2C873.89 19.17 868.62 20.98 863.24 21.97C853.06 23.85 844.72 28.72 836.83 35.29C824.22 45.77 809.45 51.66 793.16 53.14C782.97 54.07 773.68 56.59 765.59 63.41C760.82 67.43 755.28 70.54 750.46 74.59C746.81 77.66 742.56 76.83 738.46 76.22C731.12 75.11 723.92 75.65 716.74 77.35C706.67 79.74 700.13 86.89 693.66 94.27C684.79 104.4 677.55 115.94 667.83 125.3C660.3 132.55 652.38 139.42 644.32 146.08C639.48 150.08 633.19 150.35 627.26 150.41C618.04 150.49 609.96 153.08 603.07 159.3C602.07 160.2 601.04 161.08 600.14 162.07C595.9 166.71 595.99 171.56 600.62 175.89C604.13 179.19 608.31 181.55 612.63 183.62C614.65 184.59 616.66 185.54 618.25 187.23C620.39 189.51 620.31 192.14 619.42 194.81C618.53 197.49 616.18 197.49 613.87 197.55C609.75 197.65 606.37 195.88 603.22 193.48C599.28 190.48 595.83 186.94 592.39 183.4C588.03 178.92 582.95 177.24 576.59 178.09C566.59 179.42 556.58 181.37 546.37 179.5C541.76 178.65 537.29 177.45 533.24 175.23C524.51 170.46 515.38 167.25 505.59 165.29C494.92 163.16 484.99 158.28 474.52 155.27C468.77 153.62 463.07 152.05 456.98 152.3C447.87 152.67 443.04 157.4 442.69 166.67C442.64 167.87 442.64 169.07 442.63 170.28C442.53 182.28 447.64 188.79 459.25 191.15C462.45 191.8 465.69 192.45 469 192.3C475.51 192 481.81 193.26 487.82 195.62C500.48 200.59 513.46 204.56 526.36 208.79C528.48 209.49 530.6 210.26 532.63 211.2C536.43 212.96 538.62 215.65 538.59 220.28C538.5 233.47 541.99 237.77 555.22 239.24C566.26 240.46 576.36 244.12 586.22 248.84C594.21 252.66 602.58 255.35 611.21 257.21C617.19 258.5 622.51 261.1 627.1 265.07C630.88 268.35 635.09 270.82 639.57 272.92C642.54 274.32 645.5 275.76 648.23 277.62C649.61 278.56 651.17 279.15 652.8 279.36C655.69 279.72 657.72 278.2 659 275.82C660.16 273.65 659.75 271.49 658.15 269.54C656.54 267.57 654.35 266.7 652.04 266.01C645.21 263.96 639.15 260.47 633.77 255.84C627.95 250.82 621.36 247.51 613.78 246.45C604.78 245.19 596.58 241.66 588.45 237.85C586.15 236.77 583.86 235.67 581.64 234.44C574.17 230.27 566.14 228.4 557.66 228.12C552.29 227.95 549.3 225.81 548.08 221.59C546.92 217.58 548.64 214.44 552.76 214.11C562.22 213.35 571.57 213.64 579.94 219.15C586.45 223.44 593.38 226.92 600.7 229.6C603.37 230.57 605.83 232 608.17 233.65C609.38 234.51 610.65 235.37 612.01 235.94C615.84 237.53 619.82 236.24 621.3 233.07C622.77 229.93 621.44 226.67 617.43 224.66C614.51 223.19 611.35 222.19 608.29 221.01C600.32 217.94 592.74 214.18 585.67 209.3C575.2 202.07 563.52 200.79 551.45 203.6C546.3 204.8 541.8 204.41 537.29 201.8C533.53 199.62 529.45 198.13 525.35 196.74C513.62 192.77 501.84 188.92 490.14 184.85C482.03 182.03 473.76 180.43 465.18 180.28C462.01 180.22 458.93 179.65 456.33 177.63C453.37 175.34 451.95 170.61 453.23 167.5C454.45 164.55 457.19 163.17 461.43 163.5C462.75 163.6 464.09 163.88 465.36 164.29C480.98 169.31 496.52 174.6 512.45 178.61C518.55 180.15 524.22 182.9 529.85 185.68C539.91 190.65 550.44 192.4 561.57 190.85C566.43 190.17 571.35 189.93 576.26 189.66C580.66 189.41 584.43 190.89 587.5 194.19C590.15 197.04 593.04 199.65 596.12 202.04C601.62 206.3 607.65 209.04 614.72 208.42C619.46 208.01 622.23 210.32 624.28 214.28C626.38 218.33 627.5 222.71 628.53 227.07C630.99 237.41 636.53 244.86 646.5 249.06C653.4 251.97 659.82 255.82 664.17 262.37C665.93 265.02 667.36 267.79 668.48 270.74C671.04 277.46 675.16 282.58 681.81 285.77C694.3 291.76 704.65 300.5 712.44 312.06C719.24 322.14 728.81 328.99 738.6 335.61C746.72 341.1 753.82 347.63 759.92 355.33C765.87 362.84 763.48 370.12 754.24 372.15C750.89 372.89 747.51 373.47 744.12 373.98C739.38 374.7 734.85 373.91 730.78 371.35C721.29 365.38 711.55 359.91 701.44 355.05C695.54 352.21 691.18 347.41 688.37 341.33C685.72 335.62 682.51 330.18 680.63 324.1C680.01 322.1 679.1 320.15 677.31 318.86C675.22 317.36 672.94 316.74 670.67 318.36C668.45 319.94 667.22 322.06 667.93 324.96C668.26 326.3 668.79 327.53 669.62 328.61C672.66 332.58 674.67 337.06 676.28 341.79C680.4 353.88 688.53 362.24 700.2 367.04C708.24 370.35 715.97 374.25 723.12 379.18C732.34 385.53 742.06 386.64 752.5 383.04C754.18 382.46 755.94 382 757.69 381.74C762.14 381.07 765.78 382.11 768.48 386.26C773.28 393.62 780.16 397.59 789 398.08C791.66 398.23 794.37 398.81 796.56 400.54C798.32 401.93 800.22 403.42 799.51 406.12C798.84 408.64 797.12 410.31 794.62 410.91C791.82 411.58 788.94 411.55 786.21 410.64C779.29 408.35 772.72 409.26 766.22 412.26C762.7 413.89 759.11 415.46 755.42 416.58C746.74 419.2 740.28 424.75 734.74 431.66C732.59 434.34 730.33 436.95 728.2 439.65C725.32 443.3 721.49 444.78 717.01 445.45C705.81 447.11 694.53 447.97 683.31 449.3C671.05 450.75 660.6 457.14 650.82 464.5C650.26 464.92 649.99 465.71 649.58 466.33H631.68C638.36 456.68 647.11 449.84 658.13 445.74C662.43 444.14 666.32 441.45 670.41 439.3C676.43 436.14 682.77 435.29 689.5 436.26C697.61 437.44 705.6 436.4 713.29 433.69C720.93 431 726.84 426.01 729.91 418.3C732.29 412.3 736.16 408.87 742.67 407.93C748.39 407.1 753.92 405.17 759.82 405.04C763.96 404.95 766.46 401.68 766.11 397.83C765.81 394.52 763.66 392.98 759.27 393.1C757.8 393.14 756.31 393.42 754.87 393.78C750.96 394.74 746.92 395.41 743.21 396.9C735.06 400.16 728.92 397.9 722.81 391.83C716.22 385.29 707.4 381.98 698.53 379.93C688.9 377.71 681.9 372.38 676.07 364.75C673.99 362.03 671.57 359.49 668.95 357.29C664.79 353.81 663.35 349.33 663.22 344.17C663.01 335.32 659.95 327.11 657.35 318.84C655.93 314.33 652.05 312.13 647.63 311.04C644.39 310.24 641.43 309.05 639.1 306.46C637.43 304.61 636.65 302.62 637.53 300.3C638.43 297.89 640.57 297.13 642.94 297.03C648.15 296.82 652.99 298.46 657.58 300.62C663.26 303.3 669 305.79 674.87 307.99C684.32 311.54 691.15 318.06 695.24 327.16C699.84 337.41 707.39 344.33 717.07 349.45C723.92 353.08 730.67 356.94 736.66 361.99C738.15 363.25 739.81 364.29 741.77 364.66C744.55 365.18 746.86 364.35 748.3 361.87C749.76 359.36 749.28 356.97 747.3 354.87C746.26 353.77 745.12 352.84 743.72 352.23C733.51 347.82 724.81 340.86 715.45 335.03C711.49 332.56 708.62 328.69 706.49 324.53C699.87 311.55 689.78 302.57 676.61 296.64C668.72 293.09 661.22 288.71 652.48 287.38C648.89 286.83 645.41 286.63 641.83 287.31C637.41 288.14 633.02 287.89 629.8 284.26C622.09 275.57 612.43 270.22 601.48 267C590.32 263.71 579.75 258.62 568.44 255.8C561.22 254 553.71 253.33 546.89 250.01C538.46 245.92 529.55 244.14 520.24 243.12C505.23 241.48 490.98 236.16 476.37 232.58C472.71 231.68 470.26 228.85 468.3 225.8C466.69 223.28 466.36 220.32 467.85 217.64C469.28 215.08 472.02 215.77 474.35 215.83C477.1 215.91 479.6 217.01 481.91 218.4C489.18 222.76 497.1 225.31 505.27 227.18C510.39 228.36 515.33 229.92 519.92 232.54C522.21 233.85 524.66 234.32 527.21 233.2C531.62 231.26 532.43 226.77 528.98 223.39C527.54 221.98 525.78 221.29 523.86 220.78C510.17 217.14 496.44 213.65 483.75 207C478.53 204.26 472.91 203.87 467.23 205.73C463.97 206.8 460.68 206.84 457.65 205.23C448.95 200.63 440.11 196.28 433.38 188.63C430.46 185.31 429.03 182.08 430.13 177.62C431.2 173.26 431.85 168.79 432.7 164.37C434.4 155.53 431.79 148.71 424.46 143.67C421.97 141.96 419.87 139.83 417.85 137.63C414.92 134.44 414.72 132.25 416.92 129.74C419.36 126.96 423.84 126.46 426.6 128.82C427.95 129.97 429.11 131.39 430.2 132.8C437.85 142.71 444.31 145.17 455.94 141.29C462.77 139.01 468.9 138.7 475.12 142.73C478.08 144.64 481.64 144.72 485.11 144.54C489 144.34 492.35 145.35 495.35 148.08C500.83 153.05 507.39 155.34 514.74 154.41C521.63 153.54 527.05 155.48 531.9 160.69C536.83 165.99 543.82 167.4 550.73 167.9C559.52 168.54 568.27 167.7 576.99 166.33C582.58 165.45 586.59 162.58 589.5 157.83C591.14 155.15 592.8 152.47 594.64 149.92C599.55 143.1 607.03 140.77 614.62 140.33C630.98 139.38 643.68 131.79 655.05 120.62C664.81 111.04 672.99 100.16 681.71 89.7C685.83 84.76 689.83 79.7 694.25 75.04C701.07 67.85 710.12 65.96 719.51 65.19C724.56 64.78 729.59 64.35 734.66 64.14C740.72 63.89 746.31 61.69 751.41 58.4C758.07 54.1 764.54 49.53 770.29 44.03C773.15 41.29 776.39 40.31 780.14 41.27C793.01 44.58 804.61 40.46 815.84 34.88C824.2 30.73 831.54 25 837.53 17.76C841.19 13.33 845.43 11.21 851.17 11.96C855.71 12.55 860.07 11.39 864.32 9.91C867.42 8.83 870.43 7.49 872.42 4.63H885.85L885.88 4.61Z" stroke="black" stroke-width="1.44" stroke-miterlimit="10"/>
<path d="M180.6 4.61C180.82 11 176.92 14.94 172.76 19.06C163.43 28.31 152.95 35.82 141.41 41.96C137.54 44.02 134.53 47.21 132.01 50.82C128.88 55.3 124.93 57.04 119.32 56.24C111.47 55.12 103.54 55.89 95.71 57.07C93.19 57.45 90.69 57.69 88.15 57.7C86.66 57.7 85.16 57.65 83.68 57.77C78.33 58.21 75.16 61.4 75.87 65.55C76.56 69.57 80.1 71.39 85.46 69.89C97.44 66.54 109.66 67 121.87 66.98C125.98 66.98 128.76 69.26 130.61 72.39C134.87 79.62 141.4 84.06 148.65 87.31C160.4 92.58 169.33 101.35 178.31 110.15C180.63 112.42 181.28 115.26 181.29 118.37C181.34 129.19 186.6 138.19 191.38 147.33C192.92 150.27 195.96 151.55 198.83 152.83C201.88 154.2 204.52 156.08 206.69 158.64C208.43 160.69 208.85 163.11 207.64 165.34C206.42 167.58 204.01 167.67 201.68 167.17C199.34 166.66 197.03 166.05 194.89 164.94C189.74 162.27 184.28 160.62 178.5 161.47C168.63 162.93 162.45 157.65 157.2 150.35C153.86 145.71 151.44 140.52 148.63 135.57C145.47 130.01 141.37 125.37 136.38 121.41C127.83 114.63 118.55 108.83 110.44 101.46C108.46 99.66 106.21 98.15 103.28 98.15C100.97 98.15 99.26 98.99 98.12 101.04C96.98 103.1 97.17 105.08 98.38 107C99.45 108.69 101.01 109.82 102.75 110.75C114.03 116.79 123.49 125.36 133.1 133.61C138.08 137.88 140.8 144.24 144.24 149.86C148.4 156.66 153.21 162.94 159.46 167.99C163.09 170.92 167.11 172.79 171.78 172.48C179.98 171.93 187.82 173.18 195.38 176.41C198.46 177.73 201.74 178.24 205.03 177.82C210.24 177.16 214.37 179.17 217.89 182.72C224.28 189.15 232.14 193.03 240.5 196C248.1 198.7 255.59 201.63 262.97 204.9C269.44 207.77 276.22 209.39 283.34 209.48C290.82 209.58 297.64 212.19 304.23 215.47C309.71 218.19 315.62 218.76 321.56 219.39C331.9 220.48 342.49 220.44 352.33 224.34C359.95 227.36 367.14 231.42 374.07 235.83C377.65 238.11 380.29 241.52 380.89 245.98C381.59 251.21 378.32 254.04 373.28 252.7C370.8 252.04 368.39 251.03 366.68 249.07C358.65 239.87 348.19 235.68 336.49 234.02C331.73 233.34 327.19 231.98 322.79 230.04C320.28 228.93 317.65 228.46 315.01 229.8C310.68 232.01 310.15 236.49 313.86 239.61C315.53 241.01 317.55 241.52 319.6 241.97C326.44 243.47 333.29 244.93 340.13 246.46C347.14 248.03 353.19 251.38 358.37 256.43C360.18 258.2 362.19 259.81 364.31 261.2C369.33 264.49 374.74 265.86 380.4 263.04C387.12 259.69 393.74 260.83 400.39 263.04C404.6 264.44 405.69 266.26 405.06 270.44C404.51 274.1 401.54 277.24 398 276.57C387.46 274.56 376.89 277.66 366.37 275.96C362.54 275.34 359 274.49 356.51 271.38C350.47 263.84 342.27 260.32 333.2 258.17C326.53 256.59 319.89 254.81 313.3 252.93C305.05 250.58 303.52 248.05 304.72 239.53C305.59 233.33 301.46 226.88 294.93 224.6C290.97 223.22 286.83 222.43 282.62 222.72C274.75 223.25 267.54 221.08 260.72 217.45C251.98 212.8 242.93 209.02 233.33 206.56C227.78 205.14 222.7 202.75 218.2 199.06C212.56 194.43 206.04 191.49 199.01 189.74C194.05 188.5 189.3 186.84 185.07 183.86C183.32 182.63 181.4 181.97 179.2 182.02C176.46 182.08 174.7 183.39 173.76 185.89C172.86 188.28 173.56 190.27 175.3 192.03C176.49 193.24 177.93 193.94 179.5 194.51C186.38 196.99 193.23 199.53 200.11 202.02C204.5 203.61 208.64 205.69 212.18 208.75C217.79 213.62 224.4 216.11 231.54 217.49C238.19 218.78 244.32 221.34 250.29 224.57C258.15 228.83 265.95 233.34 275.12 234.35C278.7 234.75 282.27 234.49 285.84 234.6C288.13 234.68 290.27 235.02 292.08 236.62C294.65 238.9 295.84 242.57 294.74 245.6C293.58 248.79 290.84 249.63 287.9 249.66C277.75 249.78 268.01 247.75 258.95 243.12C250.48 238.8 241.37 235.66 234.27 228.79C231.18 225.8 226.39 226.65 224.36 229.68C222.31 232.74 223.58 236.88 227.37 239.26C238.55 246.25 250.46 251.84 262.47 257.11C271.77 261.19 281.79 262.15 291.83 259.79C297.04 258.57 301.79 259.04 306.53 261.58C313.58 265.35 321.51 266.56 329.04 268.94C332.74 270.11 336.44 271.28 340.12 272.49C342.72 273.34 344.97 274.81 346.99 276.63C349.63 279 350.42 282.09 349.16 284.68C347.96 287.13 344.81 288.54 341.49 288.07C337.91 287.57 334.55 286.39 331.35 284.7C324.2 280.92 316.82 277.73 309.1 275.3C300.14 272.48 291.04 271.96 281.7 272.72C274.76 273.29 267.75 273.04 260.77 273.1C258.72 273.12 257.04 272.14 255.62 270.71C254.04 269.12 252.4 267.57 250.93 265.88C246.43 260.72 240.69 258.82 234.08 259.37C229.46 259.75 226 258.11 223.5 254.14C220.83 249.91 218.99 245.33 217.6 240.56C216.64 237.24 215.44 234.01 214.38 230.73C212.19 223.95 207.6 219.48 201.44 216.57C196.86 214.41 192.13 212.5 187.35 210.84C177.23 207.33 170.01 200.53 164.76 191.36C161.84 186.25 158.36 181.72 153.81 177.85C146.26 171.44 139.82 163.9 134.33 155.62C127.1 144.72 117.62 136.08 107.42 128.2C99.55 122.12 92.93 114.83 86.51 107.31C85.55 106.18 84.71 104.89 84.07 103.55C81.72 98.66 83.76 93.6 88.91 91.96C94.32 90.24 99.92 89.18 105.57 88.75C110.83 88.35 115.66 90.15 119.64 93.58C127.47 100.34 135.69 106.51 144.52 111.88C151.91 116.38 157.1 122.67 160.17 130.92C162.21 136.39 164.95 141.59 167.44 146.88C167.94 147.95 168.62 148.99 169.42 149.86C171.55 152.19 174.67 152.8 177.15 151.48C180.07 149.93 180.15 147.26 179.82 144.45C179.66 143.06 179 141.81 178.07 140.85C173.54 136.19 171.32 130.34 169.36 124.3C166.45 115.33 160.6 108.66 152.67 103.87C143.45 98.3 134.38 92.57 126.5 85.09C118.51 77.51 108.7 77.6 98.72 78.81C95.31 79.23 92.06 80.41 88.77 81.39C83.88 82.85 79.57 82.44 75.84 78.12C69.7 71 62.2 66.09 52.52 65.25C50.45 65.07 48.45 64.32 46.64 63.2C43 60.94 42.78 57.04 46.1 54.29C48.66 52.16 51.87 51.85 54.61 52.78C63.79 55.93 71.93 53.17 79.94 49.08C87.33 45.3 95.25 43.61 103.36 44.62C115.04 46.07 124.69 42.7 133.14 34.62C139.98 28.09 148.52 23.8 155.88 17.9C160.45 14.24 163.78 9.8 166.3 4.61H180.62H180.6Z" stroke="black" stroke-width="1.44" stroke-miterlimit="10"/>
<path d="M922.57 342.77C919.38 344.58 918.14 347.96 916.32 350.82C913.18 355.75 910.35 360.87 907.34 365.88C903.27 372.63 898.24 378.52 891.76 383.04C885.09 387.69 877.99 390.2 869.87 387.09C868.06 386.4 866.2 385.85 864.35 385.26C854.86 382.25 850.86 383.54 845.49 392.01C842.96 395.99 839.69 397.92 835.09 397.59C827.51 397.05 819.93 396.59 812.32 396.66C809.83 396.68 807.74 395.4 805.78 394C800.97 390.55 795.84 388.12 789.86 387.36C782.21 386.39 777.08 381.14 772.5 375.53C769.77 372.19 771.46 366.27 775.36 363.74C778.96 361.4 783.67 362.87 785.96 367.07C787.76 370.37 788.18 374.26 790.24 377.45C791.73 379.75 793.74 381.26 796.61 380.61C799.36 379.99 800.88 378 801.53 375.32C801.94 373.6 801.35 372.01 800.5 370.59C799.35 368.67 798.04 366.83 796.76 364.99C794.08 361.17 792.46 357.11 793.59 352.32C793.73 351.74 793.81 351.13 793.8 350.53C793.72 344.32 796.25 339.31 800.42 334.85C809.98 324.62 812.47 312.75 807.9 299.44C806.68 295.89 805.34 292.39 804.17 288.82C800.31 277.06 791.67 269.76 781.46 263.86C772.94 258.93 764.08 254.54 756.58 247.98C754.95 246.55 752.97 245.89 750.76 246.15C746.17 246.69 744.02 251.34 746.62 255.18C747.65 256.7 749.08 257.77 750.73 258.57C761.39 263.69 771.23 270.31 780.83 277.07C793.22 285.8 798.91 298.7 798.87 313.89C798.85 320.22 795.7 325.39 790.99 329.49C788.2 331.92 785.1 331.22 782.23 329.59C777.53 326.93 772.99 323.85 769.67 319.57C762.17 309.87 753 302.07 743.22 294.89C735.91 289.52 730.39 282.35 724.51 275.6C720.83 271.38 716.97 267.39 712.38 264.35C703.14 258.23 695.43 250.68 689.36 241.4C683.92 233.1 676.71 226.64 668.51 221.28C660.32 215.93 655.86 208.88 656.8 198.68C657.24 193.92 657.18 189.08 656.05 184.33C655.45 181.83 654.76 179.39 653.51 177.14C650.69 172.06 645.99 169.98 640.33 171.11C636.61 171.86 633.35 173.67 629.95 175.2C623.76 177.97 617.63 176.72 613.14 171.91C610.81 169.41 610.82 167.8 613.18 165.34C616.4 162 620.69 161.82 624.82 161.71C630.51 161.57 636.12 160.97 641.67 159.79C646.46 158.77 650.75 156.58 654.04 152.95C659.69 146.71 665.86 141.08 672.69 136.22C677.93 132.49 681.48 127.3 685.23 122.26C692.2 112.88 699.88 104.1 707.68 95.41C714.4 87.92 723.08 86.26 732.45 86.39C733.19 86.4 733.93 86.58 734.67 86.64C743.35 87.32 747.47 91.23 748.7 99.89C749.15 103.07 748.14 105.79 746.36 108.34C743.16 112.93 739.28 116.9 735.09 120.5C727.34 127.15 720.28 134.39 714.06 142.53C711.68 145.64 709.3 149.2 704.39 148.77C699.66 148.36 697.56 145.4 699.55 141.07C700.6 138.78 702.05 136.56 703.77 134.74C710.35 127.78 716.49 120.4 723.43 113.78C725.54 111.77 727.96 110.39 730.52 109.17C732.72 108.12 734.64 106.74 735.76 104.47C736.85 102.25 736.81 100.13 735.15 98.18C733.48 96.22 731.5 95.07 728.85 95.87C726.67 96.53 724.91 97.86 723.14 99.3C713.5 107.18 705.2 116.4 697 125.72C694 129.13 691.65 132.96 690.21 137.28C688.77 141.62 685.86 144.39 681.68 145.86C674.87 148.24 669.49 152.75 664.45 157.69C659.19 162.85 658.51 168.04 663.72 173.03C669.58 178.63 669.69 184.82 668.71 191.95C667.87 198.01 669.72 203.56 673.84 208.16C676.94 211.63 680.55 214.54 684.04 217.6C690.03 222.85 695.02 229.03 699.68 235.48C703.92 241.35 708.71 246.68 714.88 250.56C723.27 255.83 729.56 263.21 735.34 271.1C739.74 277.12 745.43 281.7 751.45 285.91C755.98 289.08 760.6 292.11 765.09 295.34C770.46 299.2 774.3 304.25 776.27 310.67C776.85 312.55 777.51 314.38 778.97 315.78C781.18 317.89 783.76 318.29 786.38 316.94C788.94 315.62 789.77 313.21 789.19 310.43C788.92 309.13 788.48 307.79 787.81 306.65C781.58 296.11 774.63 286.34 763.41 280.38C752.41 274.54 743.41 266.26 736.86 255.53C733.96 250.78 730.02 247.19 725.36 244.41C718.84 240.53 713.19 235.71 708.85 229.48C701.95 219.58 693.58 211.06 684.9 202.79C680.14 198.25 678.78 192.62 680.27 186.33C681.13 182.66 683.03 181.47 687.2 181.34C691.25 181.22 693.83 182.76 694.91 186.1C695.37 187.52 695.61 189.02 695.89 190.5C696.81 195.37 698.99 199.45 702.57 202.95C707.28 207.55 711.53 212.58 715.1 218.17C717.69 222.23 720.83 225.82 724.23 229.23C729.8 234.81 736.2 238.25 744.25 237.3C754.7 236.07 763.97 238.94 772.57 244.76C775.03 246.43 777.71 247.84 780.42 249.05C791.11 253.8 799.95 260.99 808.17 269.23C812.79 273.86 815.18 279.26 815.86 285.54C816.6 292.38 818.28 298.8 822.31 304.49C824.69 307.85 824.57 311.59 823.25 315.26C820.35 323.33 816.73 331.08 812.43 338.49C808.87 344.61 806.75 350.96 807.78 358.21C808.65 364.31 809.46 370.41 811.15 376.34C812.97 382.73 817.43 386.13 824.03 386.03C828.68 385.96 833.23 384.94 837.41 382.82C844.1 379.43 846.74 373.57 845.52 365.47C844.85 361.05 843.61 356.72 844.45 352.1C846.25 342.15 852.05 334.63 858.68 327.6C862.99 323.03 867.6 318.8 870.96 313.35C875.04 306.72 876.59 299.88 874.26 292.29C873.69 290.43 873.27 288.49 873.08 286.56C872.72 282.8 874.45 280.07 877.52 279.12C881.04 278.03 884.87 279.28 886.13 282.8C887.98 287.98 890.1 293.18 890.27 298.83C890.32 300.49 890.29 302.19 889.41 303.65C884.46 311.86 881.19 321.02 875.37 328.74C872.19 332.96 868.32 336.49 864.55 340.11C857.47 346.91 855.25 355.29 856.31 364.74C856.83 369.37 859.77 372.49 864.04 373.77C878.6 378.14 886.03 374.45 893.93 363.49C900.24 354.74 905.4 345.21 910.93 335.94C913.79 331.15 917.05 326.66 922.61 324.66V342.7L922.57 342.77Z" stroke="black" stroke-width="1.44" stroke-miterlimit="10"/>
<path d="M444.63 4.61C444.25 8.94 446.34 12.52 448.4 15.95C451.26 20.71 451.2 25.07 448.57 29.94C445.19 36.19 441.24 41.95 436.47 47.16C431.66 52.41 427.56 52.85 421.49 48.74C418.61 46.79 415.55 45.35 412.29 44.2C407.48 42.49 402.76 42.22 397.89 44.04C393.24 45.77 388.58 45.67 383.98 43.54C378.93 41.21 373.62 40.57 368.28 42.2C360.11 44.7 351.75 44.33 343.43 44.03C335.72 43.75 329.39 45.82 324.82 52.45C322.51 55.81 319.02 56.93 315.02 56.76C304.01 56.28 292.97 57.62 281.98 55.98C279.36 55.59 276.91 56.35 275.16 58.54C273.64 60.44 273.19 62.54 274.37 64.83C275.88 67.77 278.62 68.86 281.49 68.51C292.65 67.12 303.84 68.39 314.99 67.83C319.04 67.63 322.3 68.83 324.83 72.02C329.5 77.9 335.64 80.05 343.01 79.68C352.7 79.21 362.37 79.13 371.78 82.29C375.9 83.68 380.15 83.24 383.96 81.25C389.98 78.11 395.9 78.02 402.02 80.76C405.95 82.52 410.16 82.33 414.34 82.34C420.19 82.36 422.88 84.53 423.65 90.41C424.67 98.3 423.35 106.06 420.75 113.45C418.55 119.73 408.64 124.49 402.2 122.94C397.1 121.72 392.21 119.91 387.74 117.1C386.07 116.05 384.31 115.26 382.39 114.88C379.57 114.32 377.41 115.48 375.89 117.8C374.28 120.24 374.66 122.64 376.39 124.89C377.82 126.75 379.78 127.75 381.97 128.44C387.24 130.09 392.44 131.95 397.76 133.4C401.92 134.53 405.05 136.73 407.02 140.55C409.13 144.65 412.11 147.91 415.87 150.5C421.46 154.36 423.05 159.79 421.84 166.28C421.32 169.08 420.71 171.87 420.33 174.7C419.03 184.43 412.11 187.1 403.08 183.61C396.4 181.03 390.21 177.29 384.48 172.92C378.59 168.42 372.14 165.02 365.1 162.87C360.82 161.57 357.99 159.02 357.08 154.68C355.45 146.91 350.77 142.07 343.63 139.1C336.57 136.16 331.57 130.94 328.52 123.87C323.05 111.19 312.31 106.12 299.78 103.61C289.4 101.53 278.87 100.51 268.39 99.18C263.79 98.59 259.85 96.75 256.64 93.3C253.89 90.34 250.98 87.53 248.17 84.63C243.33 79.63 237.41 78.7 231.29 81.04C226.12 83.02 221.24 83.3 216.02 81.77C212.3 80.67 208.46 80.16 204.55 80.17C194.48 80.17 187.45 74.76 182.03 66.84C179.77 63.54 180.25 60.03 182.44 56.72C188.05 48.24 195.77 43.62 206 43.6C208.41 43.6 210.77 43.25 213.07 42.66C218.77 41.18 224.12 41.66 229.61 44.08C236.28 47.03 242.48 45.38 247.72 40.37C250.42 37.79 253.13 35.18 255.54 32.33C260.26 26.74 266.38 24.95 273.38 24.52C285.14 23.81 296.86 22.6 308 18.33C315.23 15.56 321.89 12 325.58 4.62H334.53C335.49 10.9 339.08 13.75 344.16 11.4C349.53 8.92 355 6.77 360.49 4.62H381.97C385.63 9.91 390.36 9.91 394.5 4.62H410.61C406.79 7.18 404.13 10.7 401.87 14.69C398.44 20.74 394.52 22.09 387.98 19.85C387.13 19.56 386.26 19.29 385.5 18.83C377.46 14 369.34 14.47 361.11 18.3C354.57 21.34 347.56 22.39 340.57 21.39C331.81 20.15 324.46 22.74 317.47 27.6C313.39 30.44 308.99 32.73 303.96 33.2C298.63 33.7 293.29 34.17 287.92 34.3C273.68 34.63 261.17 38.59 253.43 52.03C251.95 54.6 249.83 56.9 246.35 56.83C237.12 56.62 227.88 57.05 218.64 56.24C212.27 55.68 205.83 55.8 199.42 55.88C196.11 55.92 193.4 58.81 193.2 61.86C193.02 64.68 194.83 66.94 198.16 67.95C199.44 68.34 200.75 68.7 202.12 68.42C206.4 67.53 210.74 67.88 215.06 67.9C223.38 67.93 231.69 69.51 240.02 67.95C247.44 66.56 252.49 69.62 256.2 76.13C259.18 81.36 264.04 84.7 269.65 86.81C277.16 89.63 284.98 90.33 292.93 90.5C300.99 90.68 309.28 90.89 316.14 95.76C323.77 101.18 332 102.94 341.09 102.17C347.08 101.66 353.06 102.06 358.65 104.52C365.18 107.4 371.7 107.93 378.7 106.2C386.91 104.17 395.22 103.76 403.21 107.59C404.98 108.44 406.95 108.69 408.91 108.33C411.58 107.84 413.58 106.48 414.46 103.73C415.29 101.14 414.47 99.09 412.78 97.12C410.85 94.86 408.24 94.14 405.57 94.01C396.82 93.57 388.06 92.56 379.37 94.82C373.91 96.23 368.4 95.91 363.05 94.11C356.19 91.79 349.19 90.41 341.95 91.1C333.68 91.9 326.39 89.74 319.7 84.79C315.93 82 311.45 80.77 306.77 80.16C300.09 79.29 293.38 79.24 286.68 79.37C276.47 79.58 268.57 75.26 262.34 67.39C259.97 64.39 259.64 61.27 261.63 58.23C265.54 52.26 270.73 48.05 277.78 46.23C282.5 45.01 287.26 45.28 292.01 45.28C303.98 45.28 315.49 43.9 325.28 35.92C329.57 32.42 335.07 31.63 340.16 32.18C348.88 33.13 357.07 31.89 365.15 28.89C370.71 26.82 376.19 26.78 381.71 29.12C384.18 30.16 386.76 31 389.36 31.61C399.74 34.07 406.73 31.08 410.45 21.07C411.63 17.9 413.62 15.26 416.24 13.18C419.66 10.47 424.04 12.21 424.65 16.53C425.15 20.07 424.72 23.39 421.89 26.07C420.6 27.29 419.47 28.76 418.57 30.29C416.68 33.48 417.23 37.52 419.6 39.33C421.98 41.15 425.28 40.8 428.12 38.08C433.67 32.76 439.08 20.94 433.72 11.3C432.55 9.21 431.42 7.07 431.18 4.61H444.61H444.63ZM341.31 110.9C338.58 111.2 336.4 112.18 335.56 114.75C334.78 117.14 335.05 119.5 337.04 121.39C338.27 122.55 339.68 123.41 341.31 123.71C351.1 125.5 358.07 130.98 362.7 139.8C366.95 147.9 373.65 153.05 382.27 155.89C389.1 158.15 394.82 162.04 398.87 168.21C399.6 169.32 400.63 170.27 401.66 171.11C404.13 173.12 408.23 173.12 410.35 171.23C412.66 169.17 412.9 166.38 411.1 163.04C410.23 161.42 409.02 160.14 407.56 159.04C405.53 157.51 403.28 156.18 401.59 154.33C397.08 149.4 391.46 146.55 385.26 144.58C379.97 142.89 375.2 140.07 372.63 135.13C367.1 124.52 359.09 117.09 347.83 113.2C346.43 112.72 345.12 111.96 343.73 111.44C342.91 111.13 342 111.05 341.29 110.9H341.31Z" stroke="black" stroke-width="1.44" stroke-miterlimit="10"/>
<path d="M190.45 466.31C192.42 458.73 194.4 451.17 200.18 445.39C201.78 443.78 203.54 442.37 205.52 441.32C217.32 435.05 225.91 425.37 233.66 414.76C235.87 411.74 238.1 408.73 240.47 405.83C245.43 399.76 252.43 397.06 259.46 394.47C268.43 391.17 277.45 388.17 286.98 386.8C295.98 385.5 303.96 381.26 311.75 376.78C318.51 372.89 325.62 370.83 333.46 370.83C341.79 370.83 350.17 371.8 358.44 370.06C366.58 368.34 373.88 364.61 380.83 360.16C383.67 358.34 385.38 355.45 387.09 352.62C389.59 348.47 392.77 345.3 397.79 344.55C398.67 344.42 399.52 344.09 400.37 343.82C407.63 341.53 410.76 336.73 409.69 329.14C409.23 325.88 408.36 322.67 407.66 319.45C406.67 314.88 406.81 310.61 409.85 306.64C413.47 301.9 414.29 296.62 411.97 290.93C409.97 286.03 410.86 281.68 413.25 276.8C417.29 268.58 422.2 261.3 429.04 255.26C430.71 253.79 431.85 251.77 432.5 249.55C433.47 246.21 432.28 243 429.46 241.42C426.96 240.02 423.51 240.74 421.34 243.18C419.92 244.78 419.26 246.79 418.46 248.74C415.78 255.25 411.58 257.02 405.26 254.19C402.38 252.9 399.43 251.93 396.41 251.09C392.62 250.03 390.27 247.77 390.06 243.46C389.63 234.79 385.63 228.47 377.71 224.6C371.41 221.52 365.31 218.02 359.12 214.72C353.47 211.71 347.35 210.57 341.06 210.05C335.42 209.58 329.81 208.79 324.16 208.53C317 208.21 310.29 206.3 304.07 202.93C296.58 198.87 288.44 198.19 280.28 197.64C275.12 197.29 270.34 195.96 265.6 194.03C257.86 190.87 250.09 187.8 242.29 184.82C234.77 181.94 228.58 176.99 222.33 172.12C220.21 170.47 219.12 168.19 219.2 165.44C219.49 156.12 215.8 149.41 207.23 145.17C197.08 140.14 194.2 130.09 191.63 120.11C190.96 117.5 191.55 114.86 194.28 113.56C196.93 112.3 199.18 113.48 201.21 115.26C203.31 117.1 204.58 119.47 205.44 122.05C207.45 128.1 211.03 132.93 216.25 136.55C223.26 141.4 227.96 147.93 230.48 156.15C232.81 163.73 237.59 169.36 244.91 172.41C254.96 176.61 265.11 180.56 275.24 184.56C279.42 186.21 283.71 186.07 287.97 184.86C293.06 183.41 297.49 184.5 301.91 187.48C312.08 194.34 323.48 197.49 335.68 197.78C336.72 197.8 337.79 197.92 338.81 197.78C353.49 195.69 365.63 201.34 376.77 210.23C378.75 211.81 380.95 213.12 383.06 214.53C388.81 218.38 394.7 218.67 400.8 215.35C403.73 213.76 406.68 213.15 409.41 215.92C412.04 218.59 412.12 221.47 409.56 224.24C408.42 225.47 407.08 226.39 405.52 227C404.55 227.38 403.56 227.73 402.61 228.16C397.68 230.42 395.62 234.88 397.79 238.55C399.95 242.19 404.98 242.78 409.26 239.88C411.68 238.24 413.2 235.83 414.8 233.47C420.4 225.19 426.38 224.55 433.68 231.37C439.25 236.57 442.09 243.36 444.27 250.41C445.34 253.85 444.67 257.23 441.53 259.73C436.88 263.44 434.21 268.29 433.51 274.3C433.11 277.74 430.85 279.86 427.79 281.26C425.49 282.31 423.13 283.3 421.44 285.35C419.26 288.01 419.05 290.69 420.88 293.17C422.65 295.57 425.53 296.34 428.46 295.2C430.45 294.42 432.05 293.09 433.52 291.57C436.38 288.61 439.66 288.06 443.29 289.97C446.21 291.5 449.25 292.73 452.37 293.75C456.07 294.97 458.43 297.41 459.26 301.32C459.63 303.08 460.1 304.83 460.69 306.53C463.61 314.9 469.79 319.29 478.58 319.56C484.56 319.75 490.42 318.19 496.42 318.54C499.45 318.72 501.96 319.57 503.8 322.04C506.62 325.84 504.99 329.98 500.37 330.79C499.93 330.87 499.48 330.92 499.03 330.89C490.37 330.39 481.76 331.45 473.15 332.03C464.57 332.6 459.45 328.14 455.64 321.28C453.89 318.14 452.5 314.79 450.79 311.63C446.43 303.59 440.54 302.82 432 304.25C424.26 305.54 420.15 310.28 419.55 318.05C418.59 330.4 421.12 341.4 432.01 348.98C433.46 349.99 434.7 351.37 435.9 352.69C439.89 357.08 444.53 360.57 450.01 362.79C457.2 365.71 463.11 370.43 468.66 375.73C472.51 379.4 477.22 381.68 481.96 383.91C484.25 384.99 486.68 385.76 488.78 387.26C492.03 389.58 493.99 392.49 493.79 396.71C493.63 400.16 493.75 403.61 494.6 407.01C495.54 410.77 497.74 413.41 501.18 415.06C508.67 418.67 518.44 417.36 524.56 411.64C528.09 408.34 531.95 407.22 536.78 407.57C545.4 408.2 554 406.59 562.66 406.79C566.42 406.88 569.03 403.61 568.81 400.39C568.58 396.87 565.07 393.75 561.21 394.47C555.76 395.49 550.25 395.62 544.81 396.39C541.99 396.79 539.16 396.86 536.33 396.73C532.34 396.55 529.97 393.88 529.84 389.64C529.72 385.94 531.78 383.45 535.51 382.77C535.8 382.72 536.11 382.66 536.4 382.68C546.48 383.38 556.68 382.95 566.59 385.39C572.87 386.93 577.27 391.26 580.72 396.49C583.19 400.22 582.6 402.71 579.72 406.27C573.05 414.5 564.56 418.35 553.99 418.51C544.26 418.65 534.8 420.17 526.11 425.39C520.53 428.74 514.26 429.99 507.58 428.41C503.54 427.45 499.42 426.74 495.29 426.11C488.13 425.02 482.17 418.49 482.51 411C483 400.24 478.62 393.66 468.6 390.25C463.61 388.56 459.4 385.37 455.81 381.4C452.98 378.27 449.31 376.47 445.21 376.11C439.98 375.65 436.38 373.26 433.79 368.66C431.13 363.94 427.58 359.85 423.6 356.17C415.38 348.58 406.08 349.4 399.31 358.38C398.23 359.81 397.33 361.38 396.42 362.93C394.88 365.57 392.95 368.04 390.3 369.36C383.61 372.7 377.3 376.71 370.74 380.25C366.76 382.4 362.42 383.42 357.82 383.3C351.71 383.15 345.59 383.28 339.48 383.16C332.34 383.02 325.51 384.47 319.08 387.47C312.19 390.69 305.2 393.79 299.03 398.37C295.42 401.05 291.48 401.79 287.17 400.82C282.68 399.81 278.2 400.04 273.96 401.67C265.74 404.82 257.64 408.24 250.56 413.73C245.63 417.56 241.98 422.51 238.45 427.51C232.33 436.18 225.46 443.94 216.13 449.22C209.46 453 206.02 459.19 203.87 466.29H190.44L190.45 466.31Z" stroke="black" stroke-width="1.44" stroke-miterlimit="10"/>
<path d="M6.07001 116.43C9.44001 112.91 10.36 108.74 9.36001 104.03C8.80001 101.4 7.90001 98.82 8.02001 96.06C8.19001 91.9 10.38 89.02 13.77 88.65C17.41 88.25 20.09 90.24 21.24 94.25C21.49 95.11 21.82 96 21.82 96.88C21.8 105.88 26.43 112.6 32.58 118.35C37.26 122.73 39 127.4 36.64 133.64C33.92 140.82 34.29 148.42 34.65 155.93C34.91 161.34 36.98 166.31 40.49 170.3C47.85 178.67 53.92 187.9 59.55 197.47C63.49 204.18 69.17 208.81 76.38 211.62C79.16 212.71 81.74 214.2 84.13 216.06C85.77 217.33 87.56 218.5 89.44 219.36C92.63 220.81 95.85 219.61 97.45 216.65C98.96 213.86 98.23 210.78 95.34 208.78C93.89 207.77 92.17 207.15 90.54 206.41C83.58 203.26 76.81 199.85 71.38 194.24C69.16 191.95 67.46 189.31 65.85 186.62C61.52 179.4 56.59 172.65 51.03 166.34C44.09 158.48 43.85 149.23 45.91 139.58C46.38 137.38 46.76 135.14 47.47 133.02C49.08 128.22 52.98 126.28 57.74 127.82C59.6 128.42 61.16 129.56 62.72 130.76C72.4 138.18 80.25 147.42 88.04 156.7C92.01 161.43 96.59 165.47 101.13 169.59C111.6 179.11 120.21 190.22 128.12 201.92C129.72 204.29 131.45 206.55 133.54 208.49C141.21 215.61 147.53 224.08 155.61 230.82C160.46 234.87 165.53 238.48 171.31 241.05C173.49 242.02 175.67 243 177.78 244.13C185.44 248.24 189.26 254.71 189.45 263.46C189.56 268.7 188.87 273.98 190.21 279.17C190.92 281.95 191.76 284.67 193.27 287.12C196.52 292.36 200.57 294.17 206.57 293.08C208.62 292.71 210.64 292.04 212.71 291.86C215.42 291.63 217.7 292.66 219.05 295.2C220.28 297.52 219.5 299.72 218.06 301.5C214.08 306.4 208.85 308.97 202.54 309.26C199.97 309.38 197.96 308.25 196.21 306.43C193.31 303.41 189.87 300.89 187.06 297.88C180.08 290.42 174.93 282.07 176.98 270.91C178.65 261.82 176.24 257.12 167.77 253.23C158.66 249.04 150.76 243.42 144.06 235.93C139.36 230.68 134.05 226.09 128.48 221.77C122.24 216.92 117.62 210.69 114.38 203.44C110.61 195 104.55 188.53 97.33 182.98C84.37 173.01 74.12 160.65 65.98 146.47C64.99 144.74 63.94 143.16 62.07 142.3C59.98 141.34 57.99 141.43 56.21 142.94C54.54 144.36 53.44 146.11 53.82 148.44C54.07 149.93 54.53 151.4 55.53 152.56C63.65 161.96 70.21 172.61 78.49 181.89C82.21 186.06 86.61 189.39 91.26 192.41C98.37 197.04 103.58 203.19 106.45 211.3C109.12 218.88 113.67 225.02 120.38 229.53C128.51 235 135.08 242.24 141.78 249.28C146.84 254.61 152.55 258.7 159.46 261.14C163.37 262.52 166.31 264.78 166.28 269.53C166.25 273.55 164.24 275.78 160.25 275.61C157.43 275.49 154.62 275.07 151.81 274.72C146.8 274.11 143.23 271.53 141.28 266.79C139.94 263.54 137.75 260.93 135.28 258.47C127.96 251.17 120.18 244.43 112.17 237.91C107.18 233.85 101.58 231.22 95.28 230.11C90.42 229.25 85.69 227.94 81.01 226.37C78.04 225.38 75.02 224.45 71.84 224.52C66.81 224.63 63.21 222.19 59.84 218.61C52.47 210.78 46.77 201.96 42.38 192.14C39.41 185.49 35.14 179.68 28.67 175.93C24.61 173.58 23.76 169.73 23.8 165.51C23.87 155.47 24.06 145.43 24.11 135.4C24.12 132.67 24.76 130.04 24.98 127.35C25.24 124.15 25.22 120.92 21.94 119.01C19.79 117.76 17.59 117.92 15.6 119.3C12.65 121.35 12.19 124.38 12.63 127.7C13.66 135.48 12.9 143.3 13.06 151.11C13.16 155.92 12.9 160.74 13.15 165.53C13.44 171.09 10.91 174.64 6.10001 176.87V116.45L6.07001 116.43Z" stroke="black" stroke-width="1.44" stroke-miterlimit="10"/>
<path d="M455.37 466.31C455.41 463.31 455.38 460.3 455.49 457.3C455.64 452.94 457.22 451.34 461.44 451.1C461.74 451.08 462.04 451.06 462.33 451.09C472.44 452.28 480.4 449.11 485.89 440.04C488.37 435.94 492.75 436.26 496.82 437C501.51 437.85 506.12 439.1 510.81 439.95C515.77 440.85 520.79 440.55 525.18 437.99C536.08 431.63 548 429.67 560.28 428.58C571.5 427.58 580.96 423.04 587.15 413.03C590.14 408.2 594.24 406.03 599.95 407C603.62 407.62 607.35 407.84 611.02 408.42C615.68 409.16 620.26 408.5 624.81 407.73C628.81 407.05 632.8 406.82 636.83 406.84C639.1 406.85 641.3 406.47 643.35 405.5C646.11 404.19 647.41 401.91 646.84 398.9C646.28 395.95 644.46 394.13 641.3 393.96C638.44 393.81 635.69 394.31 632.88 394.83C620.94 397.05 608.92 397.32 596.84 396.07C593.49 395.72 591.12 394.11 589.7 391.36C583.06 378.52 571.65 374.26 558.32 373.21C553.57 372.83 548.84 372.22 544.12 371.64C540.33 371.17 536.64 371.91 533.05 372.78C528.76 373.82 525.5 372.73 522.62 369.51C519.02 365.49 515.07 361.82 510.59 358.78C503.36 353.88 494.68 352.98 486.68 350.21C483.89 349.24 480.54 351.75 479.7 354.54C478.86 357.31 480.55 360.51 483.52 361.83C486.32 363.07 489.38 362.83 492.3 363.39C498.83 364.63 504.36 367.58 509.07 372.24C509.71 372.87 510.27 373.64 511.01 374.1C519.75 379.59 520.33 388.52 520.58 397.47C520.72 402.4 516.77 405.76 511.44 405.74C507.12 405.73 504.78 402.83 504.76 397.45C504.76 396.85 504.72 396.24 504.81 395.65C506.35 385.76 502.4 381.19 494.42 377.63C492.92 376.96 491.4 376.35 489.89 375.69C483.71 372.99 477.63 370.17 473.19 364.74C468.5 359 462.18 355.7 455.56 352.77C445.84 348.47 438.8 340.93 432.66 332.51C430.07 328.96 430.05 324.6 430.46 320.34C430.7 317.89 431.91 316.06 434.32 315.32C436.59 314.63 438.68 314.93 440.52 316.71C442.98 319.09 444.27 322.12 445.35 325.24C447.52 331.48 451.63 336.04 457.04 339.59C462.95 343.47 469.28 344.77 476.25 343.3C485.31 341.4 494.63 341.69 503.77 340.34C507.1 339.85 509.81 341.6 512.17 343.85C514.23 345.81 516.36 347.7 518.34 349.73C527.22 358.83 538.73 360.04 550.46 361C558.61 361.67 566.73 362.87 574.83 364.05C581.14 364.97 586.26 367.98 590.12 373.3C592.04 375.94 594.45 378.28 596.88 380.48C602.08 385.19 608.14 386.96 614.62 383.75C620.31 380.93 625.94 380.54 631.96 381.94C634.7 382.58 637.54 382.88 640.35 383.16C648.7 384 654.14 389.09 658.45 395.75C661.45 400.39 660.98 403.98 656.96 407.76C651.38 412.99 644.7 416.24 637.42 418.26C633.25 419.42 629.08 420.52 625.03 422.1C620.47 423.88 615.93 423.56 611.62 421.26C604.4 417.41 598.09 419.12 592.32 424.29C590.54 425.89 588.73 427.53 587.31 429.43C582.64 435.67 576.21 438.57 568.79 438.93C555.46 439.57 543.04 443.45 530.81 448.45C522.25 451.95 517.12 458.76 512.6 466.31H493.8C496.22 463.27 499.76 461.9 503 460.1C504.99 458.99 506.88 457.84 508.06 455.83C509.6 453.22 509.47 450.64 507.58 448.29C505.7 445.95 503.25 445.94 500.68 446.96C498.86 447.68 497.26 448.75 495.83 450.1C492.33 453.4 488.37 456.02 484.22 458.42C480.52 460.56 476.48 462.39 474.11 466.31H455.31H455.37Z" stroke="black" stroke-width="1.44" stroke-miterlimit="10"/>
<path d="M768.63 4.61C765.69 10.63 764.96 17 766.35 23.48C767.67 29.64 766.01 34.31 760.86 37.88C756.2 41.11 751.66 44.53 747.06 47.86C742.17 51.4 736.59 52.68 730.69 53.2C722.99 53.88 715.27 54.39 707.62 55.75C697.92 57.49 690.07 62.3 683.81 69.77C674.49 80.89 665.34 92.15 656.07 103.32C649.72 110.97 642.32 117.49 634.26 123.2C629.01 126.92 622.74 127.91 616.52 128.87C612.4 129.5 608.23 130 604.19 130.98C595.92 132.99 588.9 137.12 584.59 144.77C580.6 151.84 575.03 156.09 566.81 156.53C561.03 156.84 555.29 157.91 549.48 156.82C544.38 155.87 539.74 154.09 536.03 150.28C532.97 147.14 532.34 144.49 534.47 140.54C538.92 132.27 544.57 124.91 552.3 119.47C562.44 112.33 572.95 105.73 582.34 97.55C585.24 95.02 588.83 94.15 592.42 95.25C604.02 98.81 613.01 93.7 621.49 86.75C630.93 79.02 638.2 69.27 645.95 59.96C653.03 51.45 660.06 42.91 667.6 34.79C676.45 25.26 687.51 21.46 700.03 21C706.14 20.78 712.21 20.24 718.25 19.3C722.36 18.66 725.89 16.83 728.8 13.84C730.59 12 732.53 10.34 734.82 9.22C740.12 6.62 744.18 9.11 744.32 14.98C744.43 19.79 742.33 23.37 738.16 25.66C731.48 29.33 724.14 30.61 716.72 31.48C710.21 32.24 703.67 32.72 697.19 33.62C685.04 35.3 676.38 42.66 668.74 51.68C657.62 64.8 646.97 78.33 635.5 91.15C625.92 101.86 614.13 107.72 599.76 107.99C589.05 108.19 580.77 113.45 573.36 120.59C570.99 122.87 568.67 125.21 566.39 127.59C563.39 130.72 559.77 132.61 555.61 133.64C553.74 134.1 551.79 134.38 550.1 135.42C547.27 137.16 545.98 140.23 546.89 143.1C547.83 146.06 549.95 147.42 553.47 147.27C554.21 147.24 555.04 147.28 555.67 146.97C563.65 143.03 572.3 140.22 578.01 132.6C584.92 123.38 594.29 118.96 605.7 118.35C618.55 117.66 629.6 112.68 638.85 103.55C648.99 93.54 657.69 82.28 666.75 71.34C670.95 66.27 675.26 61.3 679.53 56.29C687.05 47.47 697.02 44.3 708.12 43.5C716.44 42.9 724.75 42.07 732.84 39.89C739.72 38.04 745.96 34.92 750.82 29.5C754.32 25.6 755.57 20.96 754.96 15.75C754.53 12.05 753.53 8.37 754.32 4.59H768.64L768.63 4.61Z" stroke="black" stroke-width="1.44" stroke-miterlimit="10"/>
<path d="M70.51 466.31C77.71 460.99 82.87 453.77 88.3 446.82C99.74 432.17 111.68 417.95 125.44 405.45C131.65 399.81 137.62 393.95 143.47 387.95C145.57 385.79 148.01 384.2 150.95 384.52C162.14 385.76 170.95 381.11 178.7 373.63C182.15 370.3 186.73 368.39 189.9 364.71C192.06 362.2 192.14 358.72 190.26 356.45C188.31 354.1 185.07 353.64 182.16 355.48C181.04 356.19 179.91 357.08 179.18 358.16C177.13 361.21 174.36 363.47 171.52 365.65C168.32 368.12 165.01 370.42 161.35 372.17C159.59 373.01 157.8 373.82 155.86 374.02C153.19 374.29 150.38 374.72 148.68 371.8C146.95 368.83 147.65 365.92 149.39 363.31C151.36 360.35 154.27 358.5 157.63 357.41C165.2 354.97 172.01 350.84 179.18 347.52C187.49 343.67 193.49 337.24 196.67 328.52C198.63 323.15 202.02 320.02 207.75 319.63C215.36 319.12 220.84 314.95 225.1 309C227.78 305.27 231.11 302.83 235.59 301.95C244.05 300.29 250.87 296.3 255.21 288.47C256.85 285.5 259.64 284.26 263.1 284.28C274.13 284.35 285.17 284.2 296.21 284.32C302.73 284.39 308.8 286.59 314.69 289.2C317.82 290.59 320.9 292.16 323.88 293.86C329.17 296.87 334.72 298.62 340.86 298.83C346.33 299.02 349.36 302.25 348.7 306.48C348.26 309.32 345.21 312.28 341.82 312.72C336.1 313.47 330.61 312.97 325.44 309.83C319.84 306.43 314.7 302.24 308.42 299.96C302.75 297.9 297.06 296.37 290.99 296.57C289.5 296.62 288 296.68 286.52 296.53C274.47 295.34 263.87 298.46 254.68 306.63C251.34 309.6 247.2 311.51 243.01 313.19C236.16 315.95 229.82 319.55 225 325.37C221.93 329.07 218.03 331.24 213.47 332.69C202.59 336.13 197.76 345.26 201 356.34C202.77 362.37 202.36 367.32 197.19 371.66C192.97 375.2 189.81 379.88 185.91 383.83C179.7 390.13 172.35 394.23 163.76 395.66C153.77 397.32 145.63 402.19 138.43 409.03C129.31 417.7 121 427.09 113.03 436.85C107.65 443.45 101.51 449.42 95.67 455.63C92.58 458.91 89.77 462.38 87.53 466.31H70.52H70.51Z" stroke="black" stroke-width="1.44" stroke-miterlimit="10"/>
<path d="M586.05 4.61C583.84 12.15 578.63 17.14 572.11 20.86C568.88 22.7 565.42 24.21 561.94 25.5C551.75 29.29 544.99 36.57 541.09 46.5C537.88 54.67 532.67 60.4 524.43 63.54C513.33 67.77 505.17 75.22 500.51 86.45C496.97 94.97 490.44 100.41 481.95 103.6C480.27 104.23 478.63 104.93 476.96 105.59C470.21 108.27 466.05 113.03 464.56 120.33C462.65 129.65 452.42 134.56 443.92 130.4C439.26 128.12 435.71 124.42 432.45 120.5C430.45 118.1 431.16 115.03 431.71 112.25C432.32 109.16 433.35 106.17 434.06 103.1C435.54 96.67 435.31 90.4 433.08 84.06C429.76 74.61 433.54 62.77 441.51 56.77C449.49 50.75 455.11 42.92 458.82 33.72C460.75 28.93 463.65 25.62 468.77 24.3C471.52 23.59 474.23 22.39 476.16 20.24C481.15 14.69 486.13 9.16 492.08 4.62H511.77C511.39 6.15 510.31 7.2 509.29 8.31C502.17 16.07 494.25 22.87 485.53 28.73C478.05 33.75 470.75 39 466.45 47.31C463.13 53.72 458.01 58.52 452.68 63.13C444.98 69.79 442.01 77.65 447.06 86.57C449.34 90.6 449.5 94.84 447.71 99.15C446.16 102.89 444.5 106.6 443.19 110.43C441.66 114.9 443.52 119.22 447.06 120.11C451.12 121.14 454.59 118.52 455.51 113.59C455.98 111.09 456.18 108.53 456.57 106.01C457.52 99.88 460.25 97.02 466.35 96.07C469.17 95.63 471.91 95.07 474.53 93.89C481.57 90.73 486.34 85.24 489.56 78.45C494.93 67.13 502.93 58.78 514.49 53.81C522.16 50.51 527.76 44.77 531.52 37.26C536.89 26.55 544.39 18.28 556.09 14.33C561.02 12.66 565.76 10.4 570.76 8.85C573.1 8.13 575.23 7.13 576.21 4.62H586.06L586.05 4.61Z" stroke="black" stroke-width="1.44" stroke-miterlimit="10"/>
<path d="M599.47 466.31C602.67 462.53 606.16 459.06 610.03 455.96C614.89 452.07 618.95 447.59 620.42 441.19C621.54 436.35 624.78 433.53 629.52 432.25C637.46 430.1 645.12 427.23 652.53 423.59C657.15 421.32 661.5 418.75 664.74 414.69C667.97 410.65 672.12 409.79 676.79 410.88C684.49 412.68 692.51 412.5 700.13 414.82C701.56 415.25 703.1 415.15 704.55 414.68C706.83 413.94 708.49 412.58 708.81 410C709.13 407.38 708.33 405.25 706.09 403.78C704.55 402.77 702.75 402.22 700.99 402.32C693.62 402.73 686.48 400.82 679.22 400.2C673.91 399.74 670.38 397.38 668.08 392.04C663.17 380.62 654.44 373.72 641.88 372.26C638.19 371.83 634.49 371.36 630.84 370.69C627.59 370.1 625.44 368.03 624.95 364.7C623.56 355.31 617.97 349.02 610.33 344.19C603.78 340.05 600.26 333.68 597.7 326.66C594.32 317.39 588.57 310.52 578.87 307.7C574.57 306.45 570.12 305.91 565.65 305.58C559.32 305.11 555.4 300.85 555.73 295.15C555.9 292.25 557.26 290.74 560.13 290.54C563.91 290.28 567.55 290.83 571.11 292.14C576.85 294.27 582.56 296.46 588.36 298.41C596.48 301.15 602.48 305.97 605.12 314.5C608.02 323.89 613.6 331.23 621.85 336.6C625.96 339.27 628.65 343.27 630.64 347.74C631.37 349.38 632.13 351.02 632.89 352.65C635.66 358.57 640.17 362.1 646.77 360.87C655.44 359.26 660.88 363.62 665.8 369.76C668.79 373.49 671.97 377.08 675.11 380.69C679.77 386.05 685.92 388.52 692.69 389.71C700.11 391.02 707.19 393.21 713.44 397.62C715.39 399 717.41 400.31 719.2 401.88C723.33 405.47 723.73 408.21 721.08 412.95C716.79 420.65 710.15 424.66 701.53 425.4C697.97 425.71 694.37 425.77 690.82 425.16C681.04 423.47 671.89 424.76 663.41 430.35C657.79 434.06 651.68 436.91 645.45 439.45C638.22 442.39 632.25 446.83 627.67 453.3C624.48 457.81 620.81 461.96 617.35 466.27H599.45L599.47 466.31Z" stroke="black" stroke-width="1.44" stroke-miterlimit="10"/>
<path d="M922.57 177.75C919.48 179.69 917.1 182.35 915.04 185.31C909.61 193.1 904.98 201.3 902.52 210.57C901.52 214.33 899.2 216.53 895.41 217.11C883.98 218.87 873.17 222.76 862.47 226.95C849 232.22 841.67 227.29 834.03 215.06C832.02 211.85 832.65 208.06 835.34 205.02C840.48 199.21 846.3 194.05 853.9 192.23C868.75 188.68 879.36 179.84 887.45 167.19C890.42 162.54 893.58 157.95 897.42 153.92C898.67 152.61 899.34 150.92 899.48 149.03C899.69 146.16 898.69 143.93 896.02 142.85C893.43 141.8 891 142.49 889.09 144.54C888.39 145.29 887.83 146.24 887.45 147.2C883.67 156.63 876.5 163.58 870.17 171.1C865.57 176.57 858.86 178.74 852.42 181.09C849.05 182.32 845.82 183.84 842.57 185.35C836.16 188.34 831.06 192.61 827.61 199C825.15 203.57 821.34 204.39 817.02 201.93C813.47 199.91 812.41 196.33 814.37 192.72C815.6 190.45 817.42 188.68 819.38 187.03C827.78 179.95 836.84 173.9 847.11 169.98C858.4 165.66 866.76 157.85 874.09 148.49C880.19 140.69 887.71 134.21 894.72 127.26C896.08 125.91 897.76 124.86 899.82 124.68C902.72 124.41 904.99 125.37 905.61 128.37C907.48 137.5 908.84 146.73 907.78 156.06C907.33 160 905.19 163.44 902.62 166.41C896.72 173.22 891.56 180.57 886.89 188.25C883.96 193.07 879.94 196.4 874.64 198.19C867.44 200.61 860.46 203.75 852.84 204.75C852.11 204.85 851.38 205.08 850.7 205.36C846.77 206.97 844.66 210.62 845.78 213.81C846.91 217.06 850.7 218.64 854.83 217.23C857.78 216.23 860.51 214.56 863.46 213.54C868.67 211.73 873.94 210.08 879.24 208.55C886.49 206.44 892.04 202.29 895.5 195.45C899.79 186.96 905.57 179.52 911.65 172.29C917.59 165.22 919.28 156.9 918.62 147.9C918.18 141.92 917.73 135.94 917.29 129.96C916.93 125.07 918.68 121.15 922.58 118.22V177.74L922.57 177.75Z" stroke="black" stroke-width="1.44" stroke-miterlimit="10"/>
<path d="M922.57 275.14C917.45 271.64 915.44 266.04 913.05 260.72C911.82 257.99 910.84 255.14 909.71 252.36C905.89 243.04 900.59 240.04 890.68 241.9C886.88 242.61 883.11 243.64 879.46 244.92C869.74 248.32 859.5 249.98 850.02 254.14C846.48 255.7 843.45 254.81 840.53 252.37C832.96 246.03 825.55 239.51 818.88 232.21C811.56 224.2 802.72 219.16 792.15 216.89C785.73 215.51 779.48 213.43 773.92 209.71C768.23 205.89 767.4 202.64 771.03 196.93C774.61 191.3 779.09 186.35 785.02 183.29C793.2 179.07 800.45 173.66 807.12 167.39C815.52 159.49 825.37 153.96 835.74 149.23C844.09 145.42 851.7 140.49 858.29 134.05C861.29 131.12 864.2 128.1 867.13 125.12C871.6 120.58 875.14 115.46 876.95 109.23C877.62 106.92 878.45 104.63 880.26 102.93C882.47 100.85 885.07 99.81 888.03 101.04C890.78 102.18 891.86 104.38 892.07 107.43C892.46 113.05 890.42 117.36 886.16 120.8C878.56 126.94 872.55 134.65 866.03 141.84C859.12 149.47 851.75 156.19 842.06 160.16C831.65 164.42 822.19 170.45 813.34 177.42C810.5 179.66 808.02 182.26 806.57 185.67C804.24 191.17 800.36 193.82 794.26 193.06C791.77 192.75 789.19 192.76 786.74 193.66C783.74 194.77 782.01 197.24 782.25 200.15C782.49 203.03 785.13 205.54 788.24 205.84C790.83 206.1 793.27 205.3 795.7 204.63C800.41 203.33 804.5 203.96 807.84 207.91C810.13 210.62 813.34 212.14 816.57 213.19C821.04 214.64 823.95 217.53 825.95 221.6C828.88 227.56 833.71 231.81 838.76 235.81C844.3 240.2 850.63 241.06 857.39 239.58C862.36 238.49 867.11 236.69 871.88 234.98C879.9 232.1 888.13 229.99 896.39 228C900.81 226.94 904.94 227.1 908.4 230.7C909.52 231.87 911.01 232.69 912.37 233.61C915.96 236.03 918.49 239.23 919.84 243.42C920.47 245.38 920.76 247.57 922.54 248.99V275.14H922.57Z" stroke="black" stroke-width="1.44" stroke-miterlimit="10"/>
<path d="M134.95 466.31C141.2 460.36 145.85 453.24 149.94 445.69C155.52 435.41 164.03 429.65 175.73 428.89C182.22 428.47 187.69 425.38 193 421.98C203.97 414.96 212.55 405.38 220.74 395.4C223.23 392.36 224.77 388.74 226.04 385.03C227.26 381.47 229.68 379.05 233.3 378.37C247.06 375.81 259.8 370.33 272.53 364.78C278.58 362.14 284.86 360.27 291.36 359.24C298.35 358.13 304.57 355.56 309.19 349.92C312.44 345.96 316.73 346.34 321.11 346.73C329.39 347.46 337.61 348.69 346.02 347.6C351.82 346.84 356.98 345.1 361.59 341.48C363.92 339.65 366.1 337.55 369.02 336.55C372.99 335.19 377.2 336.51 379.22 339.84C380.74 342.35 380.1 344.96 376.9 348.18C369.21 355.93 359.44 358.85 348.99 359.65C343.21 360.09 337.35 359.99 331.56 359.65C322.85 359.13 315.01 361.55 307.79 366.12C299.83 371.17 291.08 373.88 281.99 375.9C268.7 378.84 256.1 383.96 243.48 388.97C238.31 391.02 234.85 395.29 231.5 399.53C226.77 405.52 222.28 411.71 217.43 417.59C211.72 424.51 204.25 429.25 196.58 433.65C192.15 436.19 188.81 439.67 186.8 444.4C183.81 451.43 180.52 458.38 180.59 466.29H166.27C168.75 460.39 171.14 454.53 175.24 449.42C178.44 445.42 176.34 439.98 171.86 439.18C168.36 438.56 166.05 440.62 164.68 443.35C160.87 450.91 157.37 458.64 153.74 466.29H134.94L134.95 466.31Z" stroke="black" stroke-width="1.44" stroke-miterlimit="10"/>
<path d="M233.41 4.61C232.86 5.11 232.38 5.74 231.75 6.11C224.86 10.17 220.92 16.34 219.38 24.05C218.41 28.87 215.8 31.41 210.96 31.85C207.26 32.18 203.57 32.72 199.88 33.14C188.54 34.46 179.88 40.14 174.6 50.23C171.55 56.06 167.33 57.65 161.42 56.61C159.66 56.3 157.95 55.9 156.12 56.45C152.94 57.4 150.81 60 151.01 62.95C151.2 65.73 153.88 68.36 156.99 68.73C158.94 68.96 160.83 68.48 162.75 68.16C168.59 67.17 171.29 68.3 174.26 73.51C181.06 85.45 191.51 90.85 204.84 91.38C206.91 91.46 208.99 91.78 211.04 92.1C218.24 93.23 219.28 94.27 220.72 101.64C221.92 107.79 224.79 112.94 229.91 116.58C237.76 122.16 243.98 128.91 247.29 138.27C251.77 150.96 261.83 156.26 274.31 158.05C276.37 158.35 278.44 158.68 280.47 159.14C284.14 159.97 287.01 162.11 289.01 165.25C292.18 170.25 289.8 174.66 283.91 174.79C280.88 174.86 277.94 174.03 275.25 172.79C268.73 169.78 261.93 167.52 255.24 164.98C248 162.23 242.79 157.5 239.94 150.19C238.9 147.54 237.77 144.91 236.51 142.36C233.79 136.88 229.85 132.39 224.83 128.97C219.55 125.37 216.31 120.26 213.71 114.6C213.15 113.37 212.63 112.12 211.98 110.94C207.84 103.43 203.76 101.19 195.44 103.02C190.08 104.2 186.11 102.74 182.62 98.89C178.69 94.55 174.14 90.89 169.81 86.98C165.29 82.9 159.61 80.81 154.23 78.25C149.03 75.78 144.41 72.62 140.56 68.29C136.8 64.06 136.74 60.53 140.58 56.42C143.57 53.23 146.86 50.31 150.88 48.61C162.97 43.5 172.96 35.53 181.51 25.74C185.51 21.16 190.12 20.36 195.58 21.17C203.19 22.29 207.32 20.15 210.91 13.35C212.45 10.43 213.98 7.52 215.52 4.6H233.42L233.41 4.61Z" stroke="black" stroke-width="1.44" stroke-miterlimit="10"/>
<path d="M6.07001 402.29C9.20001 400.72 10.67 397.62 12.46 394.93C16.92 388.18 21.12 381.26 25.42 374.4C26.14 373.26 26.81 372.09 27.57 370.97C33.04 362.98 36.98 361.48 46.23 363.79C50.99 364.98 55.64 366.58 60.69 366.43C73.11 366.06 82.39 354.83 79.68 342.66C78.49 337.33 79.48 332.93 82.41 328.64C83.59 326.91 84.68 325.11 85.7 323.27C88.79 317.68 93.3 313.74 99.11 311.19C106.42 307.99 113.26 304.17 118.07 297.4C120.12 294.51 123.16 292.89 126.74 292.32C130.33 291.75 133.67 290.38 136.47 288.03C139.71 285.31 143.42 284.52 147.37 285.25C152.41 286.18 157.45 286.08 162.51 286.05C168.01 286.02 173.13 292.16 172.13 297.59C171.65 300.2 170.12 301.86 167.28 302.04C164.81 302.19 162.57 301.63 160.42 300.44C154.1 296.95 147.69 296.83 141.07 299.73C138.06 301.05 134.93 302.19 132.21 304C122.02 310.79 111.86 317.64 101.83 324.67C95.78 328.91 93.19 335.2 92.76 342.46C92.59 345.3 92.35 348.16 92.26 350.98C91.96 359.71 86.9 365.35 80.68 370.34C76.83 373.43 72.63 376.02 68.44 378.63C64.36 381.17 60.32 381.18 56.13 379.1C53.86 377.97 51.7 376.54 49.16 376.1C42.92 375.01 38.03 377.35 34.39 382.39C32.73 384.69 31.14 387.09 29.86 389.62C24.87 399.46 17.59 407.7 11.48 416.76C10.06 418.87 8.17001 420.63 6.08001 422.11V402.27L6.07001 402.29Z" stroke="black" stroke-width="1.44" stroke-miterlimit="10"/>
<path d="M782.95 466.31C784.38 464.34 786.24 462.87 788.15 461.41C792.87 457.81 795.81 453.16 796.66 447.14C797.86 438.65 793.86 433.59 785.41 432.78C768.91 431.21 757.3 438.48 749.37 452.61C748.64 453.92 747.99 455.28 747.31 456.61C745.59 460.01 742.71 461.08 739.12 460.81C736.06 460.57 733.47 459.33 732.41 456.38C731.25 453.12 732.41 450.23 734.83 447.79C738.82 443.75 742.9 439.79 746.44 435.3C748.78 432.33 751.91 430.26 755.27 428.51C759.65 426.23 764.18 424.31 768.79 422.56C773.62 420.72 778.52 419.81 783.66 421.21C785.96 421.83 788.31 422.29 790.64 422.77C798.15 424.33 802.48 422.49 805.51 415.5C808.01 409.72 811.78 407.37 818.05 407.72C823.51 408.02 828.96 408.8 834.52 408.18C839.25 407.66 843.11 410.06 845.82 414.12C849.44 419.55 854.81 421.73 861.03 422.3C864.74 422.64 868.41 423.26 872.16 423.19C875.23 423.13 877.74 424.38 879.04 427.29C880.17 429.83 878.25 434.93 875.52 437.44C873.08 439.67 870.43 439.61 867.65 438.25C866.58 437.72 865.58 437.06 864.54 436.47C861.23 434.61 857.74 433.54 853.88 433.6C848.69 433.68 844.6 431.94 841.29 427.4C832.27 415.05 819.4 418.66 811.6 425.6C807.25 429.47 806.39 434.88 807.18 440.53C807.43 442.31 807.78 444.08 808.18 445.84C810.03 453.95 808.82 461.06 801.74 466.31H782.94H782.95Z" stroke="black" stroke-width="1.44" stroke-miterlimit="10"/>
<path d="M647.8 4.61C635.96 17.9 624.42 31.45 613.55 45.57C607.47 53.46 599.33 58.69 590.54 63.03C584.05 66.24 580.49 71.58 580.64 78.84C580.75 84.04 578.24 87.1 574.39 89.95C565.37 96.62 555.64 102.28 546.79 109.13C537.9 116.02 530.34 124.35 525.64 134.92C524.14 138.29 523.08 142.26 518.62 142.97C513.23 143.83 507.83 143.78 502.99 140.86C499.81 138.94 499.67 135.76 502.26 132.9C503.9 131.09 505.83 129.75 508.18 129.02C515.39 126.77 520.5 121.96 524.4 115.61C526.83 111.65 529.42 107.79 531.95 103.9C534.73 99.62 538.67 96.75 543.11 94.45C548.67 91.57 554.43 89.11 559.53 85.32C563.92 82.06 567.17 78 568.48 72.76C571.13 62.15 577.67 55.34 587.39 50.85C596.96 46.43 604.25 39.13 610.17 30.43C615.5 22.61 621.64 15.47 628.22 8.69C629.35 7.52 630.66 6.43 630.8 4.61H647.81H647.8Z" stroke="black" stroke-width="1.44" stroke-miterlimit="10"/>
<path d="M616.48 4.61C609.22 12.02 603.71 20.83 597.38 28.98C593.61 33.83 588.91 37.39 583.69 40.37C580.45 42.22 577.14 43.95 573.88 45.78C567.79 49.2 563.44 54.16 560.93 60.74C560.08 62.98 559.22 65.23 558.31 67.45C556.07 72.97 552.22 76.99 546.95 79.66C545.35 80.47 543.79 81.4 542.13 82.03C530.6 86.39 522.75 94.61 517.47 105.61C514.42 111.95 509.81 116.56 503.07 118.96C498.26 120.67 494.77 124.04 492.17 128.51C488.99 133.97 480.02 135.27 475.37 131.09C473.19 129.13 473.02 126.66 474.11 124.08C476.04 119.53 479.55 116.74 484.02 114.88C491.06 111.96 497.99 108.88 503.37 103.07C506.59 99.6 508.9 95.6 510.85 91.39C514.41 83.71 519.67 77.9 527.6 74.74C528.71 74.3 529.72 73.63 530.83 73.19C540.24 69.53 546.94 63.22 550.36 53.47C553.7 43.96 560.33 37.69 569.69 34.15C583.81 28.81 592.99 18.47 598.57 4.62H616.47L616.48 4.61Z" stroke="black" stroke-width="1.44" stroke-miterlimit="10"/>
<path d="M6.07001 292.27C8.49001 287.67 12.65 285.72 17.34 284.18C24.21 281.93 30.36 278.16 35.86 273.48C39.49 270.4 43.37 270.2 47.6 271.38C50.18 272.1 52.74 272.94 55.32 273.67C60.58 275.16 65.6 273.87 68.82 269.88C75.01 262.2 82.52 263.02 90.35 265.35C99.61 268.11 105.59 275.01 110.47 282.97C112.38 286.08 111.47 288.94 109.13 291.59C104.72 296.59 98.95 299.45 92.98 301.8C85.52 304.74 80.2 309.7 76.46 316.8C67.44 333.91 69.31 329.07 53.71 330.28C51.54 330.45 49.21 330.29 47.1 329.39C43.56 327.88 42.9 324.76 45.39 321.81C47.34 319.51 49.95 318.49 52.76 317.88C54.21 317.57 55.71 317.45 57.17 317.13C64.65 315.49 67.85 312.48 68.68 304.79C69.31 298.9 72.35 295.56 77.41 293.41C81.15 291.81 84.96 290.62 89.07 290.62C90.57 290.62 92.04 290.46 93.47 289.95C96.56 288.85 98.4 286.41 98.18 283.62C97.93 280.55 95.23 277.92 91.9 277.66C87.16 277.28 82.72 278.63 78.46 280.49C75.73 281.68 73 282.99 70.54 284.65C66.68 287.25 62.58 287.58 58.61 285.77C49.46 281.58 41.33 283.96 33.12 288.57C25.56 292.82 19.4 298.58 13.56 304.85C11.32 307.25 9.10001 309.72 6.07001 311.2V292.26V292.27Z" stroke="black" stroke-width="1.44" stroke-miterlimit="10"/>
<path d="M922.57 55.11C918.87 55.23 915.79 53.98 913.85 50.7C907.29 39.64 896.94 38.11 885.77 40.03C873.35 42.17 861.57 46.21 851.53 54.48C844.26 60.47 835.29 63.21 826.75 66.72C816.38 70.99 805.75 74.34 794.78 76.68C786.6 78.42 779.3 81.95 773.51 88.28C771.19 90.81 768.82 93.32 765.79 95.06C762.01 97.23 759.08 96.85 756.64 93.83C753.86 90.4 753.87 86.19 756.66 83.19C756.76 83.08 756.85 82.95 756.98 82.88C769.25 75.6 779.6 65.4 795.25 63.84C814.17 61.96 831.47 54.26 846.48 42.13C852.18 37.53 858.45 34.38 865.58 32.79C872.28 31.3 878.84 29.37 885.08 26.39C888.31 24.85 891.81 24.87 895.09 26.18C899.16 27.8 903.32 28.79 907.65 29.11C911.19 29.37 913.73 31.07 915.7 34.04C917.48 36.71 918.87 39.94 922.55 40.66V55.09L922.57 55.11Z" stroke="black" stroke-width="1.44" stroke-miterlimit="10"/>
<path d="M152.86 4.61C150.37 7.61 147.64 10.35 144.44 12.6C137.37 17.58 130.28 22.54 123.89 28.42C118.04 33.81 110.92 35.34 103.5 33.95C94.63 32.3 86.56 34.13 78.93 38.19C70.74 42.55 62.28 43.25 53.38 41.7C44.08 40.08 40.58 41.77 36.59 50.25C34.67 54.33 31.85 56.06 27.45 55.89C20.32 55.62 13.23 54.46 6.07001 55.1V41.57C13.28 45.41 20.47 44.73 27.51 41.22C33.16 38.4 35.71 32.78 34.46 26.55C33.9 23.76 33.28 20.97 32.6 18.2C32.08 16.07 32.38 14.03 32.99 11.99C33.76 9.37 35.25 7.22 37.99 6.81C40.65 6.41 42.87 7.78 44.59 9.89C46.36 12.06 46.38 14.59 46.11 17.17C45.94 18.81 45.46 20.42 45.37 22.06C45.06 27.46 47.76 30.62 53.12 30.99C55.64 31.16 58.18 31.04 60.71 30.9C73.83 30.14 85.05 25.57 92.93 14.39C95.25 11.09 97.68 7.87 100.06 4.61H117.07C116.53 5.13 116.02 5.67 115.45 6.15C112.16 8.98 108.63 11.4 104.8 13.47C101 15.52 99.89 19.4 101.72 22.56C103.57 25.74 107.2 26.33 111.09 23.96C112.35 23.19 113.54 22.24 114.56 21.17C117.57 18.03 121.03 15.45 124.36 12.69C127.42 10.15 131.17 8.32 133.18 4.6H152.87L152.86 4.61Z" stroke="black" stroke-width="1.44" stroke-miterlimit="10"/>
<path d="M252.2 466.31C255.33 462.98 257.2 458.84 259.28 454.88C263.79 446.3 270.25 440.43 279.91 438.45C281.94 438.04 283.89 437.21 285.84 436.47C294.58 433.14 299.4 426.7 299.58 417.35C299.67 412.62 301.75 409.44 305.36 407.45C312.53 403.5 319.42 398.92 327.36 396.48C334.18 394.38 341.17 393.55 348.13 394.67C360.77 396.7 372.04 393.48 382.58 386.71C385.34 384.93 387.97 382.93 390.76 381.2C394.3 379 398.07 379.31 400.14 381.77C402.98 385.15 403.08 389.66 400.42 392.92C398.65 395.08 396.37 396.48 393.8 397.37C384.22 400.68 374.49 403.57 365.51 408.5C362.51 410.15 359.12 409.64 355.92 408.55C341.38 403.6 328.7 408.34 316.72 416.33C314.06 418.1 312.59 421.03 311.16 423.85C309.13 427.87 307.26 431.97 305.14 435.93C301.99 441.82 297.47 446.24 291.02 448.37C286.06 450 281.1 451.6 276.13 453.2C275.14 453.52 274.09 453.68 273.11 454.01C266.26 456.34 264.9 459.86 268.31 466.31H252.2V466.31Z" stroke="black" stroke-width="1.44" stroke-miterlimit="10"/>
<path d="M325.59 466.31C327.47 462.9 329.44 459.53 331.2 456.06C334.78 449.02 339.99 444.42 348.18 443.97C351.52 443.78 354.58 442.58 357.47 440.96C362.18 438.32 364.55 433.95 365.03 428.85C365.7 421.74 369.47 417.82 375.93 415.67C383.28 413.22 390.61 410.63 397.79 407.71C403.54 405.38 408.42 401.7 411.81 396.27C416.18 389.28 415.47 383.36 409.45 377.72C407.37 375.77 405.17 374.06 405.24 370.7C405.3 367.6 406.71 365.38 409.26 364.21C411.76 363.06 414.56 363.02 416.84 365.04C421.03 368.76 424.18 373.36 426.85 378.22C428.26 380.78 428 383.9 427 386.58C425.34 391.02 424.58 395.53 424.74 400.25C424.86 403.61 423.19 406.16 420.35 407.55C413.98 410.66 408.23 414.6 403.16 419.55C399.93 422.71 395.86 423.54 391.65 423.69C384.37 423.96 379.23 427.33 376.02 433.85C374.49 436.94 372.96 440.04 371.36 443.09C367.61 450.23 361.94 454.94 354.1 457C349.77 458.13 345.48 459.41 341.23 460.81C338.52 461.7 335.88 462.89 335.44 466.32H325.59V466.31Z" stroke="black" stroke-width="1.44" stroke-miterlimit="10"/>
<path d="M100.05 466.31C103.56 462.2 107.64 458.71 111.64 455.1C118.66 448.77 124.33 441.21 130.07 433.72C135.56 426.57 141.91 420.27 148.78 414.49C153.58 410.46 159.13 408.01 165.25 406.89C180.99 404.01 192.57 394.89 201.79 382.23C203.28 380.18 204.48 377.9 206.3 376.09C209.13 373.26 212.53 372.68 215.07 374.64C217.52 376.53 217.78 379.42 215.91 383.19C214.23 386.6 211.67 389.36 209.23 392.17C203.64 398.62 197.77 404.78 190.93 409.94C185.46 414.07 179.45 417.12 172.71 418.04C157.77 420.09 147.26 428.38 139.9 441.11C134.87 449.82 128.27 457.01 120.54 463.27C119.49 464.12 118.48 465 117.94 466.3H100.04L100.05 466.31Z" stroke="black" stroke-width="1.44" stroke-miterlimit="10"/>
<path d="M395.41 466.31C398.74 462.87 402.1 459.46 405.4 455.98C410.11 451.03 411.91 445.53 409.34 438.71C406.68 431.64 407.35 429.35 413.28 424.69C417.14 421.66 421.44 419.17 425.63 416.58C428.93 414.54 432.19 415.25 435.33 417.21C437.86 418.79 440.36 420.45 442.99 421.85C451.01 426.13 459.28 427.54 467.9 423.59C471.5 421.94 474.78 421.93 477.6 425.23C480.01 428.04 480.1 431.3 477.7 434.15C475.48 436.79 472.68 438.46 469.31 438.89C465.47 439.39 461.6 439.6 457.75 440C453.13 440.48 448.97 439.42 444.97 436.97C440.38 434.16 435.33 432.23 430.34 430.24C427.92 429.28 425.47 428.97 422.93 429.98C420.45 430.97 418.96 432.77 418.79 435.36C418.62 437.88 419.59 440.04 421.9 441.43C424.04 442.72 426.35 443.05 428.78 443C433.1 442.92 436.98 444.47 440.68 446.48C444.03 448.29 445.63 451.1 444.91 455.07C444.24 458.79 444.25 462.54 444.64 466.29H431.21C431.53 464.08 431.93 461.89 432.15 459.67C432.55 455.71 430.77 452.58 427.82 451.8C424.19 450.85 420.65 452.59 419.57 456.62C418.41 460.93 416.12 464.06 412.42 466.29H395.41V466.31Z" stroke="black" stroke-width="1.44" stroke-miterlimit="10"/>
<path d="M722.98 4.61C719.62 8.16 715.2 8.65 710.7 9.01C703.88 9.56 697.03 9.65 690.26 10.73C679.35 12.46 669.87 16.92 661.93 24.82C651.94 34.75 643.31 45.84 634.38 56.69C627.34 65.24 620.09 73.6 611.26 80.37C607.03 83.61 602.46 86 596.89 85.61C591.66 85.25 589.8 82.22 591.8 77.34C592.95 74.53 595.08 72.82 597.68 71.47C602.03 69.2 606.64 67.43 610.65 64.46C617 59.75 621.31 53.21 626.29 47.26C633.3 38.9 640.16 30.41 647.26 22.13C653.12 15.29 659.83 9.37 667.51 4.63H723L722.98 4.61Z" stroke="black" stroke-width="1.44" stroke-miterlimit="10"/>
<path d="M549.35 4.61C547.83 5.9 545.88 6.32 544.14 7.17C536.93 10.66 531.66 16.23 527.22 22.8C523.71 28 520.88 33.69 516.37 38.2C514.12 40.45 511.71 42.48 508.83 43.76C495.74 49.6 486.23 59.02 479.92 71.97C477.05 77.87 472.73 82.67 466.51 85.29C462.05 87.17 459.34 86.84 457.49 84.44C455.56 81.93 455.95 76.41 458.39 73.49C459.93 71.65 461.7 70.04 463.61 68.58C467.57 65.56 471.08 62.07 473.43 57.63C477.76 49.45 483.94 43.06 491.77 38.36C504.56 30.68 514.84 20.43 523.2 8.11C523.96 6.99 524.83 5.96 525.18 4.61H549.35Z" stroke="black" stroke-width="1.44" stroke-miterlimit="10"/>
<path d="M6.07001 192.18C8.45001 189.71 10.73 187.12 13.23 184.79C16.39 181.83 18.93 181.66 22.5 184.09C28.15 187.93 31.9 193.49 34.09 199.74C37.77 210.24 43.66 219.06 51.95 226.27C55.65 229.49 56.83 233.35 55.68 237.98C54.43 242.99 56.05 247.12 59.21 250.88C60.36 252.25 61.58 253.62 62.44 255.18C64.02 258.05 62.87 261.24 59.76 262.02C55.95 262.98 51.99 262.93 48.44 260.92C45.76 259.4 44.82 256.79 44.64 253.71C44.3 248.01 43.49 242.39 41.82 236.88C40.03 230.97 36.58 226.34 31.41 223.29C25.86 220.01 23.43 215.51 24.09 209.11C24.32 206.88 24.28 204.59 24.05 202.36C23.68 198.69 21.31 196.58 17.86 196.52C14.56 196.46 12.42 198.28 11.61 201.78C11.19 203.6 11.48 205.34 11.9 207.12C12.56 209.89 13.28 212.67 13.7 215.48C14.5 220.86 11.56 224.64 6.07001 225.55V192.18V192.18Z" stroke="black" stroke-width="1.44" stroke-miterlimit="10"/>
<path d="M6.07001 65.93C13.67 65.93 21.21 67.26 28.83 66.97C31.92 66.85 34.7 67.76 37.22 69.57C41.77 72.84 46.79 75 52.29 76.12C61.26 77.94 67.4 84.18 73.51 90.36C75.41 92.29 75.17 94.79 74.08 97.1C72.97 99.44 71.03 100.74 68.42 100.91C65.37 101.11 62.94 99.73 60.77 97.77C57.98 95.25 55.84 92.16 53.56 89.19C52.18 87.39 50.76 85.64 48.93 84.33C46.3 82.45 43.45 82.76 41.2 84.97C38.99 87.15 38.62 90.09 40.4 92.75C41.66 94.62 43.35 96.12 45.17 97.46C48.68 100.05 51.66 103.22 54.55 106.45C57.63 109.9 57.6 114.28 54.81 117C51.86 119.87 47.19 119.76 44.12 116.15C37.81 108.72 31.95 101.14 31.06 90.64C30.16 79.93 24.59 76.09 13.93 77.72C11.28 78.12 8.69001 78.87 6.07001 79.46V65.93V65.93Z" stroke="black" stroke-width="1.44" stroke-miterlimit="10"/>
<path d="M10.55 466.31C10.48 463.33 11.34 460.73 13.38 458.5C19.88 451.38 21.25 443.26 17.81 434.3C16.24 430.21 17.26 426.69 19.84 423.39C26.85 414.44 33.93 405.54 38.98 395.23C39.7 393.76 40.71 392.43 41.67 391.09C42.19 390.37 42.79 389.67 43.49 389.13C46.69 386.63 51.08 386.68 53.8 389.17C55.66 390.88 55.88 394.78 54.05 397.98C51.06 403.21 46.84 407.5 43.1 412.16C38.89 417.41 34.53 422.55 32.03 428.95C29.69 434.94 28.96 441.36 29.65 447.51C30.46 454.67 29.78 460.89 24.88 466.31H10.56H10.55Z" stroke="black" stroke-width="1.44" stroke-miterlimit="10"/>
<path d="M922.57 386.05C919.22 388.64 917.49 392.62 914.45 395.52C911.49 398.34 908.36 400.77 904.72 402.6C898.59 405.67 892.28 408.4 886.65 412.41C884 414.29 880.98 414.19 878.04 413.45C872.97 412.17 867.89 411.24 862.64 410.99C859.2 410.83 855.98 409.68 853.44 406.97C849.54 402.81 850.84 397.71 856.36 396.36C858.98 395.72 861.85 395.49 864.29 396.67C879.08 403.83 891.07 397.7 902.59 388.84C910.26 382.94 914.76 374.59 919.75 366.61C920.62 365.22 921.2 363.63 922.58 362.6V386.05H922.57Z" stroke="black" stroke-width="1.44" stroke-miterlimit="10"/>
<path d="M526.08 466.31C529.28 462.18 533.42 459.45 538.25 457.51C549.51 452.97 560.91 449.4 573.23 449.19C581.49 449.05 588.57 446.01 593.54 438.84C594.97 436.78 597.01 435.14 598.78 433.31C599.84 432.21 601.07 431.4 602.54 430.97C605.24 430.19 607.93 429.83 609.89 432.4C611.75 434.84 611.37 437.5 609.86 439.98C607.81 443.35 604.96 445.99 601.85 448.36C595.51 453.19 589.33 458.14 586.95 466.3H577.1C577.16 465.4 577.32 464.5 577.26 463.61C576.94 458.9 572.89 456.03 568.86 458.24C563.38 461.23 557.67 463.66 552.04 466.3H526.08V466.31Z" stroke="black" stroke-width="1.44" stroke-miterlimit="10"/>
<path d="M215.51 466.31C217.5 462.67 220.26 459.7 223.79 457.64C232.52 452.56 239.46 445.6 244.71 437.08C252.07 425.13 262.99 418.02 275.51 412.82C278.63 411.53 281.85 411.05 285.14 411.5C288.5 411.96 290 414.34 289.21 417.65C288.4 421.04 286.61 423.76 283.38 425.19C280.93 426.27 278.42 427.33 275.82 427.92C266.43 430.05 259.35 435.36 254.11 443.35C252.63 445.61 251.11 447.84 249.78 450.19C246.72 455.62 242.98 460.41 237.71 463.84C236.72 464.49 235.64 465.07 235.19 466.3H215.5L215.51 466.31Z" stroke="black" stroke-width="1.44" stroke-miterlimit="10"/>
<path d="M922.57 312.11C912.93 315.04 906.03 321.21 901.4 330.14C896.57 339.46 890.6 348.08 884.92 356.87C882.67 360.36 880.04 363.82 875.35 364.27C872.48 364.55 869.44 364.67 867.91 361.57C866.5 358.71 866.86 355.7 868.57 353C869.28 351.88 870.2 350.83 871.21 349.97C882.46 340.3 889.64 327.74 896 314.6C896.85 312.85 897.65 311.07 898.63 309.39C900.39 306.36 903.02 304.33 906.56 304.3C914.08 304.23 919.2 300.6 922.58 294.07V312.11H922.57Z" stroke="black" stroke-width="1.44" stroke-miterlimit="10"/>
<path d="M276.37 466.31C281.17 462.38 287.09 461.2 292.81 459.66C301.45 457.34 308.12 452.53 312.59 444.7C314.45 441.45 316.52 438.29 317.98 434.86C322.98 423.14 332.82 419.19 344.31 417.81C346.22 417.58 348.19 417.66 350.11 417.84C355.16 418.32 357.02 421.62 355.14 426.39C353.58 430.36 350.44 432.01 346.56 432.66C344.36 433.03 342.13 433.24 339.94 433.63C335.03 434.5 330.99 436.86 328.18 441.07C326.11 444.18 323.86 447.23 322.26 450.59C319.45 456.48 315.54 461.5 311.28 466.31H276.37V466.31Z" stroke="black" stroke-width="1.44" stroke-miterlimit="10"/>
<path d="M6.07001 360.81C10.04 355.98 12.9 350.31 17.65 346.03C21.95 342.15 26.84 339.36 32.08 337.2C35.34 335.86 38.9 336.07 41.97 338.09C47.7 341.88 53.78 342.44 60.36 340.94C65.99 339.66 68.36 340.69 69.3 344.01C70.45 348.06 67.86 352.78 63.52 354.45C60.78 355.5 57.96 355.47 55.17 354.75C51.42 353.79 47.69 352.73 43.96 351.7C34.94 349.23 27.93 352.42 22.3 359.5C17.07 366.09 13.32 373.65 8.70001 380.64C7.88001 381.88 7.30001 383.3 6.08001 384.25V360.8L6.07001 360.81Z" stroke="black" stroke-width="1.44" stroke-miterlimit="10"/>
<path d="M922.57 80.36C916.69 82.09 913.69 86 913.41 92.07C913.17 97.34 914.81 102.47 914.47 107.76C914.28 110.72 913.56 113.35 911.78 115.7C910.16 117.85 907.97 118.57 905.44 117.99C902.73 117.37 902.19 115.11 902.12 112.76C902 108.86 901.95 104.96 902.5 101.07C903.69 92.65 898.5 87.86 890.17 89.77C886.67 90.57 883.19 91.22 879.57 91.13C876.34 91.06 874.1 89.53 872.95 86.68C871.86 83.96 873.22 81.82 875.2 79.91C878.35 76.88 882.02 75.89 886.26 76.44C889.68 76.88 892.93 77.95 896.26 78.77C904.03 80.68 908.3 78.96 912.46 72.06C914.81 68.17 917.85 65.71 922.57 65.91V80.34V80.36Z" stroke="black" stroke-width="1.44" stroke-miterlimit="10"/>
<path d="M873.35 466.31C875.13 462.98 876.39 459.46 876.73 455.69C877.06 452 878.71 449.08 881.56 446.92C887.69 442.27 890.31 436.15 889.54 428.52C889.07 423.86 891.89 421.25 895.44 419.37C899.91 417 904.52 414.9 909.14 412.84C914.09 410.63 918.45 407.56 922.57 404.09V422.13C920.9 422.86 919.09 422.79 917.33 423.04C905.24 424.7 899.81 430.56 899.17 442.84C898.93 447.45 897.35 451.11 893.53 453.93C889.45 456.94 886.53 460.81 886.77 466.32H873.34L873.35 466.31Z" stroke="black" stroke-width="1.44" stroke-miterlimit="10"/>
<path d="M833.07 4.61C832.98 6.37 832.08 7.68 830.91 8.91C825.12 15 818.88 20.49 811.7 24.93C803.4 30.07 794.45 32.11 784.81 31.47C779.04 31.09 777.04 28.87 776.77 22.94C776.46 16.2 776.77 9.68 782.05 4.6H800.85C799.13 6.05 797.25 7.21 795.15 8.03C793.64 8.63 792.09 9.25 790.75 10.15C787.59 12.26 786.58 16.37 788.37 19.17C790.08 21.86 793.81 22.63 797.13 20.93C797.79 20.6 798.43 20.18 798.97 19.69C802.52 16.49 806.51 13.89 810.43 11.19C813.01 9.41 815.37 7.38 816.97 4.6H833.08L833.07 4.61Z" stroke="black" stroke-width="1.44" stroke-miterlimit="10"/>
<path d="M309.48 4.61C307.31 7.14 304.2 7.8 301.26 8.82C289.89 12.75 278.02 13.48 266.17 14.34C258.62 14.89 252.59 18.4 247.84 24.18C245.75 26.73 243.44 29.05 241.15 31.4C239.51 33.09 237.47 33.91 235.19 34.12C229.81 34.61 227.07 30.84 229.24 25.89C231.81 20.01 236.42 16.06 241.7 12.83C245.52 10.49 249.22 8.03 252.2 4.62H309.48V4.61Z" stroke="black" stroke-width="1.44" stroke-miterlimit="10"/>
<path d="M6.07001 323.83C13.78 320.58 20.07 315.59 25.38 309.03C31.34 301.66 38.77 296.31 48.34 294.56C50.6 294.15 52.77 294.32 54.93 295.11C59.14 296.63 60.22 300.48 57.36 303.98C56.01 305.63 54.35 306.88 52.22 307.36C50.62 307.72 49.04 308.13 47.42 308.4C41.19 309.45 36.64 312.55 34.76 318.9C33.42 323.42 30.49 326.14 26.07 327.77C18.43 330.59 11.81 335.14 6.07001 340.97V323.84V323.83Z" stroke="black" stroke-width="1.44" stroke-miterlimit="10"/>
<path d="M6.07 252.59C7.06 253.96 7.35 255.61 7.91 257.15C8.7 259.32 9.94999 261.17 11.94 262.38C16.23 264.98 20.92 262.58 21.43 257.56C21.76 254.35 20.31 251.76 18.65 249.22C16.7 246.22 14.33 243.47 13.21 239.97C11.81 235.61 12.64 232.32 15.7 230.39C18.7 228.49 22.22 229.13 25.4 232.12C27.84 234.42 29.8 237.05 30.66 240.33C31.98 245.4 33.23 250.5 34.36 255.61C35.18 259.34 34.03 262.61 30.89 264.7C24.69 268.82 18.49 272.99 11.28 275.25C9.49 275.81 7.79 275.91 6.06 275.14V252.6L6.07 252.59Z" stroke="black" stroke-width="1.44" stroke-miterlimit="10"/>
<path d="M816.96 466.31C820.38 461.55 821.26 456.24 820.29 450.55C819.66 446.87 818.79 443.26 818.74 439.47C818.69 436 819.59 433.02 822.89 431.77C826.18 430.52 829.63 430.77 832.56 433.2C835.39 435.54 836.23 438.59 835.3 442.06C834.88 443.63 834.03 445.08 833.32 446.56C831.48 450.4 831.63 454.38 832.55 458.39C833.15 461.01 833.88 463.6 833.97 466.31H816.96V466.31Z" stroke="black" stroke-width="1.44" stroke-miterlimit="10"/>
<path d="M364.98 466.31C374.16 460.65 378.95 451.5 383.77 442.36C385.54 439 387.71 436 391.47 434.61C396.15 432.87 399.65 435.08 399.63 440.12C399.59 447.61 395.56 452.7 389.25 456.16C387.82 456.94 386.21 457.42 384.85 458.3C381.77 460.3 381.06 462.51 382 466.31H364.99H364.98Z" stroke="black" stroke-width="1.44" stroke-miterlimit="10"/>
<path d="M23.97 4.61C20.78 9.78 20.37 15.24 22.24 20.97C22.61 22.09 22.79 23.3 22.89 24.48C23.15 27.41 23.01 30.2 20.08 31.95C17.16 33.69 14.3 33.17 11.65 31.53C9.65 30.29 7.92 28.62 6.06 27.15V19.03C9.74 14.85 10.18 9.85 9.64 4.6H23.96L23.97 4.61Z" stroke="black" stroke-width="1.44" stroke-miterlimit="10"/>
<path d="M669.28 466.31C674.31 462.49 680.24 460.89 686.27 460.35C696.46 459.44 706.64 458.82 716.56 455.97C719.37 455.16 722.64 454.89 724.65 457.94C726.56 460.83 725.53 463.65 723.88 466.32H669.28V466.31Z" stroke="black" stroke-width="1.44" stroke-miterlimit="10"/>
<path d="M754.31 466.31C758.48 457.34 764.14 449.65 772.77 444.51C774.89 443.25 777.2 442.87 779.63 442.99C784.06 443.21 785.9 446.32 783.93 450.42C782.65 453.07 780.29 454.68 777.96 456.32C774.17 458.99 770.54 461.84 768.64 466.31H754.32H754.31Z" stroke="black" stroke-width="1.44" stroke-miterlimit="10"/>
<path d="M86.62 4.61C81.25 13.36 73.33 18.45 63.49 20.52C59.81 21.3 56.51 19.22 55.67 16.21C54.83 13.22 56.71 10.27 60.39 8.58C63.19 7.3 66.43 6.97 68.72 4.6H86.62V4.61Z" stroke="black" stroke-width="1.44" stroke-miterlimit="10"/>
<path d="M915.41 4.61C915.34 7.89 915.37 11.18 914 14.29C912.93 16.72 911.28 18.15 908.54 18.06C907.06 18.01 905.56 18.09 904.1 17.91C897.55 17.14 895.12 13.55 896.76 7.18C896.98 6.31 897.25 5.46 897.5 4.6H915.4L915.41 4.61Z" stroke="black" stroke-width="1.44" stroke-miterlimit="10"/>
<path d="M922.57 450.98C917.98 454.17 914.25 454.03 911.22 450.55C908.25 447.15 908.86 440.49 912.46 436.61C915.22 433.64 918.78 432.97 922.58 432.94V450.98H922.57Z" stroke="black" stroke-width="1.44" stroke-miterlimit="10"/>
<path d="M922.57 225.54C919.24 225.7 916.59 224.41 914.23 222.03C912.2 220 911.29 217.6 912.23 215.11C914.76 208.41 917.04 201.57 920.94 195.48C921.33 194.88 922.02 194.47 922.57 193.97V225.53V225.54Z" stroke="black" stroke-width="1.44" stroke-miterlimit="10"/>
<path d="M473.27 4.61C472.1 7.43 470.16 9.71 468.08 11.86C466.08 13.93 463.65 15.06 460.8 14.14C458.05 13.25 457.17 10.76 456.62 8.2C456.37 7.03 456.37 5.82 456.26 4.62H473.27V4.61Z" stroke="black" stroke-width="1.44" stroke-miterlimit="10"/>
<path d="M897.51 466.31C898.46 465 899.35 463.64 900.36 462.37C902.74 459.36 905.92 458.62 909.45 459.56C912.84 460.46 915.2 462.47 915.41 466.31H897.51V466.31Z" stroke="black" stroke-width="1.44" stroke-miterlimit="10"/>
<path d="M203.87 4.61C202.55 6.22 201.69 8.21 199.92 9.46C195.32 12.71 191.29 10.65 190.44 4.61H203.87V4.61Z" stroke="black" stroke-width="1.44" stroke-miterlimit="10"/>
<path d="M6.07001 433.85C9.72001 438.26 9.72001 445.12 6.07001 450.08V433.85Z" stroke="black" stroke-width="1.44" stroke-miterlimit="10"/>
<path d="M40.22 446C39.55 437.83 42.28 429.87 48.46 423.04C51.37 419.83 53.96 416.33 56.85 413.1C60.71 408.78 63.7 403.98 64.95 398.27C66.01 393.46 68.86 390.46 73.19 388.34C80.61 384.7 87.02 379.58 93.08 373.94C100.34 367.19 103.75 358.75 103.66 349.04C103.58 340.02 107.14 333.64 114.8 329.01C122.98 324.07 130.59 318.22 138.77 313.26C143.68 310.28 148.87 308.99 154.57 309.55C158.38 309.92 161.14 311.88 161.57 314.73C162.11 318.32 159.88 320.31 157.21 321.89C155.4 322.96 153.33 323.37 151.26 323.75C140.03 325.78 130.7 331.57 122.37 339.08C117.82 343.18 115.31 348.85 115.41 354.74C115.64 368.55 107.83 377.27 98.16 385.12C93.4 388.98 88.59 392.77 83.84 396.63C79.84 399.88 76.88 404.03 74.18 408.37C67.67 418.81 60.32 428.63 52.37 438C51.19 439.4 50.19 440.86 49.73 442.64C48.99 445.53 49.43 448.15 52.11 449.73C54.66 451.24 57.27 450.88 59.6 448.97C60.9 447.9 61.79 446.49 62.42 444.96C64.34 440.31 67.47 436.51 70.52 432.61C73.83 428.37 77.15 424.09 80.05 419.55C85.19 411.5 91.43 404.56 98.95 398.72C104.62 394.32 109.7 389.24 115.02 384.42C121.89 378.2 125.81 370.59 125.89 361.53C125.99 348.97 133.35 342.51 143.54 338.08C148.05 336.13 152.78 334.7 157.45 333.13C160.57 332.08 163.58 330.82 166.53 329.34C170.71 327.23 172.61 323.77 172.69 319.18C172.72 317.23 172.62 315.27 172.68 313.32C172.83 307.68 176.73 305.19 181.76 307.48C188.93 310.73 190.8 316.7 187.27 323.71C182.53 333.1 174.85 338.83 165.34 342.52C160.19 344.52 155.04 346.51 149.98 348.71C139.41 353.3 136.07 359.52 138.04 370.9C138.74 374.94 137.75 378.19 134.86 381.12C124.99 391.14 114.61 400.62 104.43 410.3C98.7 415.75 93.78 422.03 88.98 428.35C83.63 435.38 78.32 442.44 72.92 449.42C68.29 455.4 62.14 459.37 55.14 461.81C46.28 464.89 39.29 459.39 40.24 451.07C40.39 449.74 40.26 448.37 40.26 446H40.22Z" stroke="black" stroke-width="1.44" stroke-miterlimit="10"/>
<path d="M545.71 295.96C544.89 309.48 551.91 314.84 564.09 316.67C566.74 317.07 569.4 317.42 572.06 317.67C579.34 318.37 584.03 322.61 587.07 328.93C588.56 332.03 589.69 335.3 590.94 338.52C593.48 345.1 598.14 349.78 603.97 353.47C607.93 355.98 611.25 359.2 613.73 363.22C615.97 366.84 616.06 370.54 614.02 372.35C611.58 374.52 606.64 374.28 603.67 371.65C601.21 369.47 598.87 367.13 596.95 364.44C591.9 357.37 585 353.92 576.42 353.41C566.6 352.83 556.99 350.54 547.24 349.38C542.66 348.83 537.98 348.57 533.77 346.46C527.14 343.13 521.88 338.01 516.77 332.74C515.27 331.19 515.29 329.14 515.44 327.21C516.4 314.34 510.71 309.81 499.2 308.1C494.42 307.39 489.75 307.38 484.98 308.1C476.75 309.35 470.91 306.16 468.79 299.53C467.44 295.31 469.08 292.74 473.45 292.45C475.22 292.33 477.13 292.21 478.78 292.73C489.09 295.95 499.82 296.86 510.37 298.68C518.99 300.17 524.36 304.54 525.73 313.65C528.24 330.27 534.8 335.15 551.61 337.69C558.53 338.73 565.51 339.51 571.7 343.31C572.79 343.98 574.25 344.31 575.55 344.32C578.38 344.33 580.38 342.74 581.32 340.13C582.25 337.57 581.14 335.42 579.28 333.67C577.7 332.18 575.63 331.64 573.61 331.16C566.08 329.36 558.61 327.24 550.89 326.28C543.01 325.31 538.16 321 536.7 312.96C536.11 309.72 535.32 306.5 534.43 303.33C532.93 297.96 529.55 294.21 524.54 291.79C517 288.14 508.82 287.24 500.74 286.01C495.13 285.16 489.55 284.2 484.1 282.65C477.72 280.84 471.47 280.72 465.22 283.03C459.03 285.32 453.43 283.01 448.05 280.44C444.77 278.88 444.22 276.31 445.39 272.78C447.84 265.4 452.99 262.67 460.02 265.71C467.87 269.1 476.3 269.12 484.45 270.76C495.69 273.02 507 274.94 518.25 277.2C525 278.55 531.37 281.07 537.54 284.2C543.07 287.01 547.3 290.35 545.7 295.99L545.71 295.96Z" stroke="black" stroke-width="1.44" stroke-miterlimit="10"/>
<path d="M338.16 175.3C341.6 175.49 344.7 174.52 347.73 173.13C352.34 171.02 356.78 171.14 361.51 173.28C368.62 176.49 375.43 180.11 381.67 184.83C386.5 188.49 392.13 190.54 397.73 192.64C400.47 193.67 402.87 195.06 403.3 198.44C403.79 202.37 402.1 204.94 398.2 205.47C393.67 206.09 389.32 205.65 385.4 202.79C379.96 198.83 374.5 194.92 368.73 191.44C361.99 187.37 354.95 185.44 347.02 186.43C332.11 188.29 318.31 184.76 305.52 176.94C302.66 175.19 300.88 172.89 300.62 169.38C300.4 166.4 299.99 163.42 298.9 160.57C295.93 152.76 289.33 149.85 282.03 148.01C278.71 147.17 275.3 146.74 271.94 146.07C264.26 144.55 259.02 139.95 256.36 132.67C252.92 123.28 248.3 115.01 239.32 109.77C236.95 108.38 235.14 105.95 233.22 103.85C231.37 101.83 230.1 99.45 229.98 96.6C229.83 93.07 231.11 91.63 234.55 91.31C237.35 91.05 239.86 91.69 242.05 93.53C243.67 94.89 245.05 96.43 246.27 98.16C251.74 105.88 259.15 109.93 268.63 110.23C279.86 110.59 290.76 113.12 301.65 115.69C308.85 117.39 314.34 121.44 318.3 127.67C319.67 129.82 321.06 131.96 322.3 134.18C326.16 141.09 331.47 146.34 338.84 149.35C341.36 150.38 343.54 151.94 345.32 154.04C346.83 155.82 348.07 157.75 347.12 160.16C346.15 162.63 344.07 163.73 341.52 164.02C332.54 165.07 325.91 161.23 321.05 153.89C317.74 148.9 315.15 143.48 311.68 138.56C306.8 131.64 300.15 127.89 292.11 126.21C285.41 124.81 278.69 123.74 272.58 120.13C268.68 117.82 264.32 119.42 263.07 122.77C261.71 126.42 263.49 130.13 267.94 131.51C274.2 133.46 280.54 135.28 286.97 136.47C297.14 138.36 303.79 144.29 308.07 153.42C308.83 155.05 309.73 156.62 310.44 158.27C315.75 170.51 326.17 174.24 338.17 175.31L338.16 175.3Z" stroke="black" stroke-width="1.44" stroke-miterlimit="10"/>
<path d="M653.09 345.04C653.09 347.04 653.08 349.12 651.01 350.15C648.83 351.23 646.64 350.77 644.64 349.47C642.41 348.01 641.05 345.82 640.27 343.36C637.95 336.05 633.78 330.36 627.06 326.47C620.95 322.93 617.29 317.23 615.39 310.53C612.3 299.65 605.34 292.81 594.85 289.18C587.24 286.55 579.76 283.56 572.18 280.82C567.59 279.16 562.8 278.95 558.07 279.91C554.6 280.62 551.43 280.07 548.69 278.1C536.92 269.62 523.31 266.59 509.42 264.2C493.57 261.47 477.8 258.31 462.12 254.66C457.93 253.69 455.37 251.08 454.08 247.06C452.24 241.33 450.04 235.8 446.97 230.58C442.63 223.19 436.57 218.35 428.2 216.51C422.16 215.18 417.84 211.46 414.52 206.39C412.98 204.04 412.44 201.47 412.52 198.68C412.6 195.71 414.31 193.95 416.76 192.89C419.09 191.88 421.44 191.97 423.41 193.89C424.48 194.93 425.7 195.9 426.5 197.13C430.71 203.56 436.94 207.25 443.65 210.36C446.36 211.61 449 213.01 451.68 214.33C454.91 215.92 456.48 218.58 456.95 222.14C458.76 235.9 463.99 242 477.28 244.86C493.29 248.31 508.97 253.32 525.37 254.88C530.12 255.33 534.72 256.87 539.05 258.91C547.62 262.94 556.59 265.33 565.87 267.16C580.1 269.96 593.54 275.54 606.89 281.05C613.52 283.79 618.86 288.86 623.86 294.07C625.64 295.92 626.23 298.17 626.18 300.67C625.98 309.86 629.87 316.17 638.77 319.12C644.94 321.16 648.62 325.56 650.18 331.9C651.25 336.26 652.87 340.5 653.05 345.05L653.09 345.04Z" stroke="black" stroke-width="1.44" stroke-miterlimit="10"/>
<path d="M200.52 271.07C202.17 264.62 200.48 257.86 198.06 251.11C195.04 242.66 189.45 236.64 181.23 233.52C168.53 228.69 159.22 219.77 150.11 210.02C138.52 197.62 129.18 183.42 117.79 170.94C109.11 161.44 99.52 152.79 90.82 143.31C83.81 135.68 76.7 128.29 68.28 122.21C64.78 119.68 64.1 114.1 66.49 111.4C69.07 108.48 73.83 108.77 77.16 112.02C80.81 115.59 83.3 120.11 86.89 123.76C93.72 130.7 101.03 137.09 108.35 143.49C119.24 153.01 127.45 164.9 136.6 175.97C136.79 176.2 136.92 176.49 137.13 176.69C147.02 186.12 155.17 197.01 163.53 207.78C169.16 215.03 177.52 218.83 185.91 222.19C188.26 223.13 190.67 223.95 193 224.94C199.08 227.51 203.54 231.81 205.6 238.17C208.37 246.74 211.1 255.25 215.95 263C218.9 267.72 216.07 277.82 211.65 281.06C208.44 283.41 203.88 282.17 201.75 278.38C200.87 276.82 200.42 274.44 200.52 271.07V271.07Z" stroke="black" stroke-width="1.44" stroke-miterlimit="10"/>
<path d="M398.75 327.47C398.71 330.71 396.31 334.35 393.49 335.16C390.24 336.09 387.64 334.97 385.68 332.26C385.5 332.02 385.27 331.8 385.15 331.54C380.74 322 371.6 322.32 363.38 326.92C362.34 327.5 361.19 327.99 360.33 328.8C349.91 338.58 337.22 336.39 324.73 336.04C317.27 335.83 312.11 333.03 307.53 326.94C301.99 319.57 293.39 319.36 285 320.51C280.71 321.1 276.6 322.57 272.75 324.64C263.54 329.57 254.23 334.33 245.42 339.98C243.26 341.36 241.02 342.54 238.53 343.12C235.54 343.82 232.01 342.44 230.7 340.04C229.04 336.99 230.38 334.7 232.55 332.45C235.55 329.35 239.29 327.5 243.06 325.75C250.25 322.41 257.2 318.72 263.75 314.19C276.82 305.15 297.93 305.15 311.14 313.97C313.75 315.71 316.18 317.73 318.84 319.38C326.06 323.85 333.83 325.91 342.32 324.23C346.53 323.4 350.25 321.56 353.15 318.34C357.13 313.91 362.07 312.22 367.93 312.19C374.67 312.16 381.26 312.75 387.91 313.95C395.65 315.34 397.69 318.36 398.74 327.48L398.75 327.47Z" stroke="black" stroke-width="1.44" stroke-miterlimit="10"/>
<path d="M227.54 367.94C216.81 367.9 210.34 360.72 211.21 350.7C211.52 347.08 214.18 343.61 217.1 343.02C220.22 342.39 222.51 344 224.45 348.19C227.69 355.17 231.72 356.81 239.34 354.19C247.55 351.37 255.01 346.97 262.63 342.88C271.02 338.37 279.22 333.37 288.79 331.62C292.84 330.88 296.53 331.92 299.83 334.11C304.12 336.96 304.01 341.41 299.79 344.32C296.48 346.6 292.66 347.33 288.82 347.78C281.15 348.68 274.12 351.48 267.28 354.85C256.55 360.14 245.54 364.63 233.79 367.11C231.44 367.6 229.12 368 227.53 367.94H227.54Z" stroke="black" stroke-width="1.44" stroke-miterlimit="10"/>
<path d="M125.05 281.39C121.11 281.51 119.18 279.08 117.78 276.11C111.6 262.97 100.73 256.13 87.19 252.88C83.82 252.07 80.3 252.21 76.94 252.59C70.85 253.28 65.63 242.95 66.62 238.52C67.16 236.09 68.83 234.64 71.51 234.86C71.95 234.9 72.41 234.94 72.83 235.07C89.38 240.31 106.78 243.74 119.03 257.91C122.55 261.98 126.63 265.54 130.4 269.4C132.64 271.69 133.99 274.45 132.4 277.55C130.89 280.49 128.04 281.48 125.03 281.4L125.05 281.39Z" stroke="black" stroke-width="1.44" stroke-miterlimit="10"/>
<path d="M351.15 55.23C357.56 55.48 363.93 55.41 370.22 53.79C372.19 53.28 374.36 53.44 376.44 53.46C384.22 53.53 387.85 58.15 386.28 65.8C385.77 68.28 384.16 69.66 381.92 70.45C378.85 71.53 375.77 71.33 372.7 70.46C364.62 68.17 356.5 66.63 348.05 68.37C345.76 68.84 343.3 68.58 340.92 68.51C335.55 68.34 331.99 65.81 331.98 62.27C331.97 58.54 335.86 55.44 340.89 55.24C342.67 55.17 344.46 55.22 346.25 55.22C347.89 55.22 349.52 55.22 351.16 55.22L351.15 55.23Z" stroke="black" stroke-width="1.44" stroke-miterlimit="10"/>
<path d="M354.38 294.17C354.34 288.42 357.88 285.3 363.76 286.51C370.54 287.91 377.35 288.09 384.21 287.91C387.49 287.82 390.67 286.86 393.98 286.98C398.92 287.16 401.02 288.48 402.02 292.44C403.06 296.56 401.03 302.41 398 304.1C396.89 304.72 395.71 304.78 394.53 304.54C393.22 304.27 391.86 304.04 390.65 303.52C382.4 299.94 373.92 299.66 365.26 301.56C364.11 301.81 362.9 301.97 361.72 301.93C356.88 301.74 354.42 299.09 354.39 294.18L354.38 294.17Z" stroke="black" stroke-width="1.44" stroke-miterlimit="10"/>
<path d="M461.13 413.84C453.03 414.27 446.16 410.61 439.35 406.94C436.87 405.6 435.55 403.25 435.75 400.21C435.92 397.67 435.7 395.09 436.08 392.6C436.91 387.17 441.37 385.25 445.93 388.37C447.75 389.61 449.29 391.31 450.81 392.94C453.96 396.3 457.69 398.6 462.17 399.65C464.83 400.27 467.26 401.32 469.16 403.35C471.03 405.35 471.87 407.68 470.85 410.35C469.86 412.93 467.68 413.76 465.13 413.84C463.79 413.88 462.46 413.84 461.12 413.84H461.13Z" stroke="black" stroke-width="1.44" stroke-miterlimit="10"/>
<path d="M405.56 54.32C409.67 54.46 415.27 56.98 420.78 59.55C423.68 60.9 424.62 64.28 423.65 67.74C422.81 70.78 420.67 72.23 417.66 72.06C411.56 71.71 405.59 70.37 399.75 68.68C396.18 67.64 394.77 63.72 395.63 59.28C396.32 55.69 398.46 54.32 405.55 54.32H405.56Z" stroke="black" stroke-width="1.44" stroke-miterlimit="10"/>
<path d="M223.74 283.86C224.08 280.64 225.47 277.03 227.02 273.47C227.25 272.95 227.73 272.51 228.15 272.09C231.48 268.75 235.31 269.86 238.99 271.11C242.9 272.44 246.28 274.63 247.34 279.03C247.8 280.92 246.74 282.5 245.51 283.88C241.81 288.04 237.18 290.55 231.74 291.47C226.72 292.32 223.71 289.67 223.73 283.86H223.74Z" stroke="black" stroke-width="1.44" stroke-miterlimit="10"/>
<path d="M838.17 274.63C837.58 278.88 839.5 284.05 840.52 289.33C841.18 292.76 840.95 295.92 838.63 298.67C835.69 302.15 832.23 301.93 829.91 298C827.88 294.56 827.15 290.62 827.07 286.75C826.81 274.25 820.75 265.47 811.86 257.03C797.76 243.64 779.99 237.28 763.49 228.43C760.05 226.59 756.16 225.97 752.19 226.19C749.96 226.32 747.71 226.13 745.48 226.27C737.19 226.77 730.99 223.06 726.66 216.3C721.88 208.85 717.27 201.34 710.71 195.24C708.75 193.42 707.49 190.91 706.75 188.26C705.81 184.94 704.96 181.59 704.02 178.27C701.87 170.61 697.13 167.83 689.43 169.87C686.85 170.55 684.42 171.81 681.86 172.59C678.62 173.58 675.67 172.62 674.43 170.14C673.03 167.36 673.17 164.63 675.43 162.24C679.27 158.17 684.17 156.06 689.41 154.67C691.35 154.16 693.26 154.89 694.97 155.88C695.74 156.32 696.41 156.95 697.13 157.48C705.04 163.27 708.73 162.91 715.82 155.92C720.51 151.29 724.87 146.37 729.25 141.45C735.04 134.96 741.74 129.42 748 123.41C750.72 120.8 753.01 117.85 754.9 114.59C757.28 110.49 760.57 107.68 765.3 106.79C770.3 105.84 774.51 103.52 777.94 99.66C784.68 92.09 793.36 88.28 803.04 85.97C819.35 82.07 834.57 74.98 850.05 68.7C853.51 67.3 856.53 64.99 859.43 62.61C868.72 55 879.76 52.15 891.31 50.85C896.12 50.31 900.43 51.87 904.1 55.12C906.35 57.11 908.24 59.42 906.8 62.54C905.41 65.55 902.89 67.38 899.4 67.54C896.96 67.65 894.65 66.99 892.39 66.26C882.4 63.05 873.85 64.92 867.11 73.34C863.77 77.51 859.57 79.63 854.21 80.52C844.9 82.08 836.23 85.92 827.63 89.75C821.49 92.49 815.34 95.21 808.91 97.17C800.23 99.81 792.35 103.88 785.34 109.7C782.12 112.37 778.7 114.79 775.02 116.82C768.3 120.53 762.6 125.51 757.07 130.85C744.95 142.59 733.73 155.29 720.37 165.73C715.17 169.8 714.31 176.47 717.32 182.93C720.9 190.59 726.32 194 733.46 192.95C742.79 191.59 750.81 188.08 756.51 179.91C762.58 171.23 770.79 164.63 779.11 158.26C786.59 152.54 794.21 147 801.73 141.34C808.45 136.27 815.68 132.16 823.43 128.87C829.34 126.36 835.14 123.58 840.38 119.78C843.18 117.75 846.23 116.19 849.32 114.69C850.66 114.04 852.04 113.38 853.2 112.47C855.65 110.53 856.17 107.49 854.74 104.78C853.22 101.9 850.71 101.35 847.88 102.05C846.62 102.36 845.28 103.02 844.37 103.93C838.06 110.19 830.29 114.04 822.21 117.15C807.64 122.74 795.27 131.85 782.94 141.09C773.85 147.9 764.87 154.88 756.85 162.96C753.06 166.77 749.68 171 746.13 175.04C743.52 178.01 740.51 180.47 736.75 181.72C733.38 182.84 729.66 181.69 728.27 179.39C726.8 176.96 727.58 173.75 730.33 170.95C730.85 170.42 731.33 169.79 731.95 169.4C744.3 161.45 753.25 149.78 763.79 139.85C769.05 134.9 774.66 130.51 780.73 126.66C784.26 124.42 787.76 122.1 791.03 119.5C798.02 113.94 805.64 109.7 814.19 107.11C821.65 104.84 828.36 100.79 835.46 97.66C842.47 94.57 849.8 92.64 857.19 90.81C865.69 88.7 870.8 94.9 868.16 103.17C865.64 111.08 860.79 117.61 854.88 123.2C846.88 130.76 837.63 136.45 827.54 140.86C816.09 145.86 805.91 152.91 796.74 161.43C790.78 166.96 783.66 170.85 777.08 175.51C769.63 180.79 763.28 186.89 760.28 195.95C758.93 200.04 755.8 202.14 751.33 202.05C748.19 201.99 745.11 201.81 742 201.23C736.1 200.13 732.72 201.86 732.01 205.93C731.32 209.88 734.72 213.38 740.51 213.62C745.08 213.81 749.72 213.2 754.27 212.52C758.09 211.95 761.57 212.49 764.32 215.06C771.82 222.06 781.19 225.13 790.61 227.96C798.7 230.38 805.6 234.46 811.49 240.48C818.71 247.87 825.91 255.29 834.46 261.16C838.98 264.26 838.37 268.86 838.19 274.64L838.17 274.63Z" stroke="black" stroke-width="1.44" stroke-miterlimit="10"/>
<path d="M629.18 195.99C629.22 187.34 633.09 182.89 639.97 183.21C643.39 183.37 645.21 184.9 645.7 188.3C646.04 190.68 645.84 193.08 645.53 195.48C643.72 209.54 648.17 221.13 660.01 228.96C670.03 235.6 678.54 243.48 684.91 253.75C688.25 259.13 692.35 263.98 697.72 267.41C708.8 274.5 718.01 283.65 726.33 293.71C731.64 300.13 738.03 305.24 744.57 310.2C751.88 315.76 757.85 322.7 764.29 329.15C768.36 333.22 772.62 336.81 778.12 338.8C780.84 339.78 783.2 341.52 783.64 344.75C784.12 348.19 783.72 351.4 780.46 353.49C777.92 355.12 773.76 354.56 770.88 352.2C770.31 351.73 769.71 351.23 769.29 350.63C761.32 339.3 750.79 330.72 739.68 322.82C731.43 316.96 724.58 309.73 718.2 301.94C710.47 292.5 701.93 283.99 691.01 278.23C684.91 275.01 680.27 270.31 677.25 263.95C672.05 252.97 663.89 244.81 652.92 239.77C644.81 236.04 639.93 230.02 638.11 221.29C636.94 215.64 634.43 210.52 631.74 205.48C630.09 202.4 628.9 199.18 629.18 195.97V195.99Z" stroke="black" stroke-width="1.44" stroke-miterlimit="10"/>
<path d="M851.19 292.49C851.5 288.36 850.39 283.81 849.82 279.2C849.64 277.71 849.39 276.23 849.33 274.73C848.97 266.04 849.85 265.01 858.36 262.59C867.39 260.02 876.37 257.24 885.37 254.58C886.65 254.2 887.96 253.84 889.28 253.69C896.18 252.93 899.3 254.65 901.5 261.3C903.85 268.41 907.06 274.83 912.45 280.13C914.81 282.45 915.04 285.43 913.35 288.42C911.36 291.96 907.07 294.46 903.77 293.86C900.47 293.26 899.27 290.7 898.57 287.8C897.66 284.01 897 280.16 895.55 276.51C892.61 269.09 887.89 266.34 880.07 267.81C877.01 268.39 873.98 269.27 871.02 270.28C863.49 272.86 860.49 278.06 861.89 286C862.62 290.14 863.31 294.24 863.5 298.48C863.75 304.02 861.66 308.43 858.13 312.32C856.02 314.64 853.87 316.98 851.48 318.99C843.42 325.79 839.06 335 834.96 344.37C832.67 349.6 832.22 355.07 833.53 360.68C833.97 362.57 834.3 364.52 834.45 366.46C834.77 370.61 831.89 374.35 828.05 374.97C824.61 375.53 820.99 373.17 820.13 369.21C818.24 360.55 818.06 351.92 822.05 343.67C826.42 334.63 831.38 325.88 834.43 316.22C835.75 312.02 839.63 310.64 843.15 309.05C848.69 306.55 851.29 302.28 851.18 296.23C851.16 295.18 851.18 294.13 851.18 292.51L851.19 292.49Z" stroke="black" stroke-width="1.44" stroke-miterlimit="10"/>
<path d="M851.97 462.63C845.97 462.69 844.21 461.74 843.3 458.23C841.9 452.82 843.87 446.4 847.5 444.54C848.91 443.82 850.39 443.86 851.85 444.14C855.06 444.76 858.25 445.43 861.33 446.59C863.82 447.53 865.94 448.7 866.11 451.79C866.29 454.97 865.61 457.78 862.83 459.65C859.37 461.97 855.51 462.83 851.97 462.63V462.63Z" stroke="black" stroke-width="1.44" stroke-miterlimit="10"/>
</g>
<defs>
<filter id="filter0_d_101_3" x="0.458984" y="0.995796" width="928.44" height="475.419" filterUnits="userSpaceOnUse" color-interpolation-filters="sRGB">
<feFlood flood-opacity="0" result="BackgroundImageFix"/>
<feColorMatrix in="SourceAlpha" type="matrix" values="0 0 0 0 0 0 0 0 0 0 0 0 0 0 0 0 0 0 127 0" result="hardAlpha"/>
<feOffset dy="4"/>
<feGaussianBlur stdDeviation="2"/>
<feComposite in2="hardAlpha" operator="out"/>
<feColorMatrix type="matrix" values="0 0 0 0 0 0 0 0 0 0 0 0 0 0 0 0 0 0 0.25 0"/>
<feBlend mode="normal" in2="BackgroundImageFix" result="effect1_dropShadow_101_3"/>
<feBlend mode="normal" in="SourceGraphic" in2="effect1_dropShadow_101_3" result="shape"/>
</filter>
</defs>
</svg>
