<?xml version="1.0" encoding="UTF-8"?><svg id="Layer_1" xmlns="http://www.w3.org/2000/svg" viewBox="0 0 220 220"><defs><style>.cls-1{fill:#4af5d3;}.cls-2{fill:#fff;}</style></defs><rect class="cls-2" x="64.72" y="84.85" width="10.06" height="10.06"/><rect class="cls-2" x="74.78" y="84.85" width="10.06" height="10.06"/><rect class="cls-2" x="84.85" y="84.85" width="10.06" height="10.06"/><rect class="cls-2" x="64.72" y="74.79" width="10.06" height="10.06"/><rect class="cls-2" x="74.78" y="74.79" width="10.06" height="10.06"/><rect class="cls-2" x="84.85" y="74.79" width="10.06" height="10.06"/><rect class="cls-2" x="94.9" y="74.79" width="10.06" height="10.06"/><rect class="cls-2" x="104.97" y="74.79" width="10.06" height="10.06"/><rect class="cls-2" x="115.03" y="74.79" width="10.06" height="10.06"/><rect class="cls-2" x="125.09" y="74.79" width="10.06" height="10.06"/><rect class="cls-2" x="135.15" y="74.79" width="10.06" height="10.06"/><rect class="cls-2" x="74.78" y="64.72" width="10.06" height="10.06"/><rect class="cls-2" x="84.85" y="64.72" width="10.06" height="10.06"/><rect class="cls-2" x="94.9" y="64.72" width="10.06" height="10.06"/><rect class="cls-2" x="104.97" y="64.72" width="10.06" height="10.06"/><rect class="cls-2" x="115.03" y="64.72" width="10.06" height="10.06"/><rect class="cls-2" x="125.09" y="64.72" width="10.06" height="10.06"/><rect class="cls-2" x="135.15" y="64.72" width="10.06" height="10.06"/><rect class="cls-2" x="94.9" y="104.97" width="10.06" height="10.06"/><rect class="cls-2" x="104.97" y="104.97" width="10.06" height="10.06"/><rect class="cls-2" x="115.03" y="104.97" width="10.06" height="10.06"/><rect class="cls-2" x="94.9" y="115.03" width="10.06" height="10.06"/><rect class="cls-2" x="104.97" y="115.03" width="10.06" height="10.06"/><rect class="cls-2" x="115.03" y="115.03" width="10.06" height="10.06"/><rect class="cls-2" x="94.9" y="135.15" width="10.06" height="10.06"/><rect class="cls-2" x="104.97" y="135.15" width="10.06" height="10.06"/><rect class="cls-2" x="115.03" y="135.15" width="10.06" height="10.06"/><rect class="cls-2" x="94.9" y="145.22" width="10.06" height="10.06"/><rect class="cls-2" x="104.97" y="145.22" width="10.06" height="10.06"/><rect class="cls-2" x="115.03" y="145.22" width="10.06" height="10.06"/><rect class="cls-2" x="125.09" y="104.97" width="10.06" height="10.06"/><rect class="cls-2" x="135.15" y="104.97" width="10.06" height="10.06"/><rect class="cls-2" x="145.22" y="74.79" width="10.06" height="10.06"/><rect class="cls-2" x="125.09" y="84.85" width="10.06" height="10.06"/><rect class="cls-2" x="135.15" y="84.85" width="10.06" height="10.06"/><rect class="cls-2" x="145.22" y="84.85" width="10.06" height="10.06"/><rect class="cls-2" x="125.09" y="94.91" width="10.06" height="10.06"/><rect class="cls-2" x="135.15" y="94.91" width="10.06" height="10.06"/><rect class="cls-2" x="145.22" y="94.91" width="10.06" height="10.06"/><rect class="cls-1" x="153.24" y="17.35" width="12.35" height="12.35"/><rect class="cls-1" x="140.88" y="17.35" width="12.35" height="12.35"/><rect class="cls-1" x="128.53" y="5" width="12.35" height="12.35"/><rect class="cls-1" x="116.18" y="5" width="12.36" height="12.35"/><rect class="cls-1" x="103.82" y="5" width="12.35" height="12.35"/><rect class="cls-1" x="91.47" y="5" width="12.35" height="12.35"/><rect class="cls-1" x="79.12" y="5" width="12.35" height="12.35"/><rect class="cls-1" x="66.76" y="17.35" width="12.36" height="12.35"/><rect class="cls-1" x="54.41" y="17.35" width="12.35" height="12.35"/><rect class="cls-1" x="42.06" y="29.7" width="12.35" height="12.35"/><rect class="cls-1" x="29.7" y="42.06" width="12.36" height="12.36"/><rect class="cls-1" x="17.35" y="66.76" width="12.35" height="12.35"/><rect class="cls-1" x="17.35" y="54.41" width="12.35" height="12.35"/><rect class="cls-1" x="5" y="79.12" width="12.35" height="12.35"/><rect class="cls-1" x="190.29" y="66.76" width="12.36" height="12.35"/><rect class="cls-1" x="190.29" y="54.41" width="12.36" height="12.35"/><rect class="cls-1" x="177.94" y="42.06" width="12.35" height="12.36"/><rect class="cls-1" x="165.59" y="29.7" width="12.35" height="12.35"/><rect class="cls-1" x="42.06" y="177.94" width="12.35" height="12.35"/><rect class="cls-1" x="29.7" y="165.59" width="12.36" height="12.35"/><rect class="cls-1" x="17.35" y="153.24" width="12.35" height="12.35"/><rect class="cls-1" x="17.35" y="140.88" width="12.35" height="12.36"/><rect class="cls-1" x="5" y="128.53" width="12.35" height="12.35"/><rect class="cls-1" x="5" y="116.18" width="12.35" height="12.35"/><rect class="cls-1" x="5" y="103.82" width="12.35" height="12.35"/><rect class="cls-1" x="5" y="91.47" width="12.35" height="12.36"/><rect class="cls-1" x="190.29" y="153.24" width="12.36" height="12.35"/><rect class="cls-1" x="190.29" y="140.88" width="12.36" height="12.36"/><rect class="cls-1" x="177.94" y="165.59" width="12.35" height="12.35"/><rect class="cls-1" x="165.59" y="177.94" width="12.35" height="12.35"/><rect class="cls-1" x="153.24" y="190.29" width="12.35" height="12.36"/><rect class="cls-1" x="140.88" y="190.29" width="12.35" height="12.36"/><rect class="cls-1" x="66.76" y="190.29" width="12.36" height="12.36"/><rect class="cls-1" x="54.41" y="190.29" width="12.35" height="12.36"/><rect class="cls-1" x="202.64" y="79.12" width="12.36" height="12.35"/><rect class="cls-1" x="202.64" y="128.53" width="12.36" height="12.35"/><rect class="cls-1" x="202.64" y="116.18" width="12.36" height="12.35"/><rect class="cls-1" x="202.64" y="103.82" width="12.36" height="12.35"/><rect class="cls-1" x="202.64" y="91.47" width="12.36" height="12.36"/><rect class="cls-1" x="128.53" y="202.64" width="12.35" height="12.36"/><rect class="cls-1" x="116.18" y="202.64" width="12.36" height="12.36"/><rect class="cls-1" x="103.82" y="202.64" width="12.35" height="12.36"/><rect class="cls-1" x="91.47" y="202.64" width="12.35" height="12.36"/><rect class="cls-1" x="79.12" y="202.64" width="12.35" height="12.36"/></svg>