<?xml version="1.0" encoding="UTF-8"?><svg id="Layer_1" xmlns="http://www.w3.org/2000/svg" viewBox="0 0 220 220"><defs><style>.cls-1{fill:#4af5d3;}</style></defs><path class="cls-1" d="m202.81,79.12v-24.7h-12.36v-12.36h-12.35v-12.35h-12.35v-12.35h-24.7V5h-61.76v12.35h-24.71v12.35h-12.35v12.35h-12.36v12.36h-12.35v24.7H5.17v61.76h12.35v24.71h12.35v12.35h12.36v12.35h12.35v12.36h24.71v12.35h61.76v-12.35h24.7v-12.36h12.35v-12.35h12.35v-12.35h12.36v-24.71h12.35v-61.76h-12.35Zm-77.72,70.08v11.09h-30.19v-20.12h30.19v9.03Zm30.19-59.51v10.06h0v10.06h-10.06v10.06h-20.12v10.06h-30.19v-20.12h30.19v-10.06h0v-9.9h-30.18v9.89h-30.19v-19.96h10.06v-10.03h70.43v10.03h10.06v9.89Z"/></svg>