<?xml version="1.0" encoding="UTF-8"?><svg id="Layer_1" xmlns="http://www.w3.org/2000/svg" viewBox="0 0 220 220"><defs><style>.cls-1{fill:#fff;}.cls-2{fill:#d900d5;}</style></defs><polygon class="cls-2" points="202.65 79.12 202.65 66.76 202.65 54.41 190.29 54.41 190.29 42.06 177.94 42.06 177.94 29.7 165.59 29.7 165.59 17.35 153.23 17.35 140.88 17.35 140.88 5 128.53 5 116.18 5 103.82 5 91.47 5 79.12 5 79.12 17.35 66.76 17.35 54.41 17.35 54.41 29.7 42.06 29.7 42.06 42.06 29.7 42.06 29.7 54.41 17.35 54.41 17.35 66.76 17.35 79.12 5 79.12 5 91.47 5 103.82 5 116.18 5 128.53 5 140.88 17.35 140.88 17.35 153.24 17.35 165.59 29.7 165.59 29.7 177.94 42.06 177.94 42.06 190.29 54.41 190.29 54.41 202.65 66.76 202.65 79.12 202.65 79.12 215 91.47 215 103.82 215 116.18 215 128.53 215 140.88 215 140.88 202.65 153.23 202.65 165.59 202.65 165.59 190.29 177.94 190.29 177.94 177.94 190.29 177.94 190.29 165.59 202.65 165.59 202.65 153.24 202.65 140.88 215 140.88 215 128.53 215 116.18 215 103.82 215 91.47 215 79.12 202.65 79.12"/><rect class="cls-1" x="64.72" y="89.86" width="10.06" height="10.06"/><rect class="cls-1" x="74.78" y="89.86" width="10.06" height="10.06"/><rect class="cls-1" x="84.85" y="89.86" width="10.06" height="10.06"/><rect class="cls-1" x="64.72" y="79.79" width="10.06" height="10.06"/><rect class="cls-1" x="74.78" y="79.79" width="10.06" height="10.06"/><rect class="cls-1" x="84.85" y="79.79" width="10.06" height="10.06"/><rect class="cls-1" x="94.9" y="79.79" width="10.06" height="10.06"/><rect class="cls-1" x="104.97" y="79.79" width="10.06" height="10.06"/><rect class="cls-1" x="115.03" y="79.79" width="10.06" height="10.06"/><rect class="cls-1" x="125.09" y="79.79" width="10.06" height="10.06"/><rect class="cls-1" x="135.15" y="79.79" width="10.06" height="10.06"/><rect class="cls-1" x="74.78" y="69.73" width="10.06" height="10.06"/><rect class="cls-1" x="84.85" y="69.73" width="10.06" height="10.06"/><rect class="cls-1" x="94.9" y="69.73" width="10.06" height="10.06"/><rect class="cls-1" x="104.97" y="69.73" width="10.06" height="10.06"/><rect class="cls-1" x="115.03" y="69.73" width="10.06" height="10.06"/><rect class="cls-1" x="125.09" y="69.73" width="10.06" height="10.06"/><rect class="cls-1" x="135.15" y="69.73" width="10.06" height="10.06"/><rect class="cls-1" x="94.9" y="109.98" width="10.06" height="10.06"/><rect class="cls-1" x="104.97" y="109.98" width="10.06" height="10.06"/><rect class="cls-1" x="115.03" y="109.98" width="10.06" height="10.06"/><rect class="cls-1" x="94.9" y="120.04" width="10.06" height="10.06"/><rect class="cls-1" x="104.97" y="120.04" width="10.06" height="10.06"/><rect class="cls-1" x="115.03" y="120.04" width="10.06" height="10.06"/><rect class="cls-1" x="94.9" y="140.16" width="10.06" height="10.06"/><rect class="cls-1" x="104.97" y="140.16" width="10.06" height="10.06"/><rect class="cls-1" x="115.03" y="140.16" width="10.06" height="10.06"/><rect class="cls-1" x="94.9" y="150.22" width="10.06" height="10.06"/><rect class="cls-1" x="104.97" y="150.22" width="10.06" height="10.06"/><rect class="cls-1" x="115.03" y="150.22" width="10.06" height="10.06"/><rect class="cls-1" x="125.09" y="109.98" width="10.06" height="10.06"/><rect class="cls-1" x="135.15" y="109.98" width="10.06" height="10.06"/><rect class="cls-1" x="145.22" y="79.79" width="10.06" height="10.06"/><rect class="cls-1" x="125.09" y="89.86" width="10.06" height="10.06"/><rect class="cls-1" x="135.15" y="89.86" width="10.06" height="10.06"/><rect class="cls-1" x="145.22" y="89.86" width="10.06" height="10.06"/><rect class="cls-1" x="125.09" y="99.92" width="10.06" height="10.06"/><rect class="cls-1" x="135.15" y="99.92" width="10.06" height="10.06"/><rect class="cls-1" x="145.22" y="99.92" width="10.06" height="10.06"/></svg>